solid OpenSCAD_Model
  facet normal -0.987689 -3.47351e-17 -0.156433
    outer loop
      vertex -5.32592 1 -1.73049
      vertex -5.32592 -99 -1.73049
      vertex -5.6 1 -2.22045e-16
    endloop
  endfacet
  facet normal -0.987689 -3.47351e-17 -0.156433
    outer loop
      vertex -5.6 1 -2.22045e-16
      vertex -5.32592 -99 -1.73049
      vertex -5.6 -99 2.19824e-14
    endloop
  endfacet
  facet normal 0 1 -2.22045e-16
    outer loop
      vertex -5.32592 1 1.73049
      vertex -4.5305 1 3.2916
      vertex -5.6 1 -2.22045e-16
    endloop
  endfacet
  facet normal 0 1 -2.22045e-16
    outer loop
      vertex -4.12599 1 2.9977
      vertex -4.5305 1 3.2916
      vertex -3.2916 1 4.5305
    endloop
  endfacet
  facet normal 0 1 -2.22045e-16
    outer loop
      vertex -2.9977 1 4.12599
      vertex -3.2916 1 4.5305
      vertex -1.73049 1 5.32592
    endloop
  endfacet
  facet normal 0 1 -2.22045e-16
    outer loop
      vertex -1.57599 1 4.85039
      vertex -1.73049 1 5.32592
      vertex 0 1 5.6
    endloop
  endfacet
  facet normal 0 1 -2.22045e-16
    outer loop
      vertex 0 1 5.1
      vertex 0 1 5.6
      vertex 1.73049 1 5.32592
    endloop
  endfacet
  facet normal 0 1 -2.22045e-16
    outer loop
      vertex 1.57599 1 4.85039
      vertex 1.73049 1 5.32592
      vertex 3.2916 1 4.5305
    endloop
  endfacet
  facet normal 0 1 -2.22045e-16
    outer loop
      vertex 2.9977 1 4.12599
      vertex 3.2916 1 4.5305
      vertex 4.5305 1 3.2916
    endloop
  endfacet
  facet normal 0 1 -2.22045e-16
    outer loop
      vertex 4.12599 1 2.9977
      vertex 4.5305 1 3.2916
      vertex 5.32592 1 1.73049
    endloop
  endfacet
  facet normal 0 1 -2.22045e-16
    outer loop
      vertex -4.85039 1 -1.57599
      vertex -5.6 1 -2.22045e-16
      vertex -5.1 1 -2.22045e-16
    endloop
  endfacet
  facet normal 0 1 -2.22045e-16
    outer loop
      vertex 4.85039 1 -1.57599
      vertex 5.6 1 -2.22045e-16
      vertex 5.32592 1 -1.73049
    endloop
  endfacet
  facet normal 0 1 -2.22045e-16
    outer loop
      vertex 4.12599 1 -2.9977
      vertex 5.32592 1 -1.73049
      vertex 4.5305 1 -3.2916
    endloop
  endfacet
  facet normal 0 1 -2.22045e-16
    outer loop
      vertex 2.9977 1 -4.12599
      vertex 4.5305 1 -3.2916
      vertex 3.2916 1 -4.5305
    endloop
  endfacet
  facet normal 0 1 -2.22045e-16
    outer loop
      vertex 1.57599 1 -4.85039
      vertex 3.2916 1 -4.5305
      vertex 1.73049 1 -5.32592
    endloop
  endfacet
  facet normal 0 1 -2.22045e-16
    outer loop
      vertex 0 1 -5.1
      vertex 1.73049 1 -5.32592
      vertex 0 1 -5.6
    endloop
  endfacet
  facet normal 0 1 -2.22045e-16
    outer loop
      vertex -1.57599 1 -4.85039
      vertex 0 1 -5.6
      vertex -1.73049 1 -5.32592
    endloop
  endfacet
  facet normal 0 1 -2.22045e-16
    outer loop
      vertex -2.9977 1 -4.12599
      vertex -1.73049 1 -5.32592
      vertex -3.2916 1 -4.5305
    endloop
  endfacet
  facet normal 0 1 -2.22045e-16
    outer loop
      vertex -4.12599 1 -2.9977
      vertex -3.2916 1 -4.5305
      vertex -4.5305 1 -3.2916
    endloop
  endfacet
  facet normal 0 1 -2.22045e-16
    outer loop
      vertex -5.6 1 -2.22045e-16
      vertex -4.5305 1 -3.2916
      vertex -5.32592 1 -1.73049
    endloop
  endfacet
  facet normal 0 1 -2.22045e-16
    outer loop
      vertex -2.9977 1 -4.12599
      vertex -3.2916 1 -4.5305
      vertex -4.12599 1 -2.9977
    endloop
  endfacet
  facet normal 0 1 -2.22045e-16
    outer loop
      vertex -5.6 1 -2.22045e-16
      vertex -4.85039 1 -1.57599
      vertex -4.5305 1 -3.2916
    endloop
  endfacet
  facet normal 0 1 -2.22045e-16
    outer loop
      vertex -4.85039 1 -1.57599
      vertex -4.12599 1 -2.9977
      vertex -4.5305 1 -3.2916
    endloop
  endfacet
  facet normal 0 1 -2.22045e-16
    outer loop
      vertex 5.1 1 -2.22045e-16
      vertex 5.6 1 -2.22045e-16
      vertex 4.85039 1 -1.57599
    endloop
  endfacet
  facet normal 0 1 -2.22045e-16
    outer loop
      vertex 4.12599 1 2.9977
      vertex 5.32592 1 1.73049
      vertex 4.85039 1 1.57599
    endloop
  endfacet
  facet normal 0 1 -2.22045e-16
    outer loop
      vertex 5.32592 1 1.73049
      vertex 5.6 1 -2.22045e-16
      vertex 5.1 1 -2.22045e-16
    endloop
  endfacet
  facet normal 0 1 -2.22045e-16
    outer loop
      vertex 5.32592 1 1.73049
      vertex 5.1 1 -2.22045e-16
      vertex 4.85039 1 1.57599
    endloop
  endfacet
  facet normal 0 1 -2.22045e-16
    outer loop
      vertex 4.85039 1 -1.57599
      vertex 5.32592 1 -1.73049
      vertex 4.12599 1 -2.9977
    endloop
  endfacet
  facet normal 0 1 -2.22045e-16
    outer loop
      vertex 4.12599 1 -2.9977
      vertex 4.5305 1 -3.2916
      vertex 2.9977 1 -4.12599
    endloop
  endfacet
  facet normal 0 1 -2.22045e-16
    outer loop
      vertex 2.9977 1 -4.12599
      vertex 3.2916 1 -4.5305
      vertex 1.57599 1 -4.85039
    endloop
  endfacet
  facet normal 0 1 -2.22045e-16
    outer loop
      vertex 1.57599 1 -4.85039
      vertex 1.73049 1 -5.32592
      vertex 0 1 -5.1
    endloop
  endfacet
  facet normal 0 1 -2.22045e-16
    outer loop
      vertex 0 1 -5.1
      vertex 0 1 -5.6
      vertex -1.57599 1 -4.85039
    endloop
  endfacet
  facet normal 0 1 -2.22045e-16
    outer loop
      vertex -1.57599 1 -4.85039
      vertex -1.73049 1 -5.32592
      vertex -2.9977 1 -4.12599
    endloop
  endfacet
  facet normal 0 1 -2.22045e-16
    outer loop
      vertex -4.85039 1 1.57599
      vertex -4.5305 1 3.2916
      vertex -4.12599 1 2.9977
    endloop
  endfacet
  facet normal 0 1 -2.22045e-16
    outer loop
      vertex -5.6 1 -2.22045e-16
      vertex -4.5305 1 3.2916
      vertex -4.85039 1 1.57599
    endloop
  endfacet
  facet normal 0 1 -2.22045e-16
    outer loop
      vertex -5.1 1 -2.22045e-16
      vertex -5.6 1 -2.22045e-16
      vertex -4.85039 1 1.57599
    endloop
  endfacet
  facet normal 0 1 -2.22045e-16
    outer loop
      vertex -4.12599 1 2.9977
      vertex -3.2916 1 4.5305
      vertex -2.9977 1 4.12599
    endloop
  endfacet
  facet normal 0 1 -2.22045e-16
    outer loop
      vertex -2.9977 1 4.12599
      vertex -1.73049 1 5.32592
      vertex -1.57599 1 4.85039
    endloop
  endfacet
  facet normal 0 1 -2.22045e-16
    outer loop
      vertex -1.57599 1 4.85039
      vertex 0 1 5.6
      vertex 0 1 5.1
    endloop
  endfacet
  facet normal 0 1 -2.22045e-16
    outer loop
      vertex 0 1 5.1
      vertex 1.73049 1 5.32592
      vertex 1.57599 1 4.85039
    endloop
  endfacet
  facet normal 0 1 -2.22045e-16
    outer loop
      vertex 1.57599 1 4.85039
      vertex 3.2916 1 4.5305
      vertex 2.9977 1 4.12599
    endloop
  endfacet
  facet normal 0 1 -2.22045e-16
    outer loop
      vertex 2.9977 1 4.12599
      vertex 4.5305 1 3.2916
      vertex 4.12599 1 2.9977
    endloop
  endfacet
  facet normal -0.987689 3.47351e-17 0.156433
    outer loop
      vertex -5.6 -99 2.19824e-14
      vertex -5.32592 -99 1.73049
      vertex -5.6 1 -2.22045e-16
    endloop
  endfacet
  facet normal -0.987689 3.47351e-17 0.156433
    outer loop
      vertex -5.6 1 -2.22045e-16
      vertex -5.32592 -99 1.73049
      vertex -5.32592 1 1.73049
    endloop
  endfacet
  facet normal 0 -1 2.22045e-16
    outer loop
      vertex -5.6 -99 2.19824e-14
      vertex -5.32592 -99 -1.73049
      vertex -4.5305 -99 -3.2916
    endloop
  endfacet
  facet normal 0 -1 2.22045e-16
    outer loop
      vertex -1.73049 -99 -5.32592
      vertex -5.6 -99 2.19824e-14
      vertex -3.2916 -99 -4.5305
    endloop
  endfacet
  facet normal 0 -1 2.22045e-16
    outer loop
      vertex -3.2916 -99 -4.5305
      vertex -5.6 -99 2.19824e-14
      vertex -4.5305 -99 -3.2916
    endloop
  endfacet
  facet normal 0 -1 2.22045e-16
    outer loop
      vertex 0 -99 -5.6
      vertex -5.6 -99 2.19824e-14
      vertex -1.73049 -99 -5.32592
    endloop
  endfacet
  facet normal 0 -1 2.22045e-16
    outer loop
      vertex 1.73049 -99 -5.32592
      vertex -5.6 -99 2.19824e-14
      vertex 0 -99 -5.6
    endloop
  endfacet
  facet normal 0 -1 2.22045e-16
    outer loop
      vertex -1.83683 -99 -2.52818
      vertex -5.6 -99 2.19824e-14
      vertex 1.73049 -99 -5.32592
    endloop
  endfacet
  facet normal 0 -1 2.22045e-16
    outer loop
      vertex -1.83683 -99 -2.52818
      vertex -2.52818 -99 -1.83683
      vertex -5.6 -99 2.19824e-14
    endloop
  endfacet
  facet normal 0 -1 2.22045e-16
    outer loop
      vertex 2.97205 -99 -0.965678
      vertex 2.52818 -99 -1.83683
      vertex 5.32592 -99 -1.73049
    endloop
  endfacet
  facet normal 0 -1 2.22045e-16
    outer loop
      vertex 5.6 -99 2.19824e-14
      vertex 3.125 -99 2.19824e-14
      vertex 5.32592 -99 -1.73049
    endloop
  endfacet
  facet normal 0 -1 2.22045e-16
    outer loop
      vertex 0 -99 3.125
      vertex 0.965678 -99 2.97205
      vertex 3.2916 -99 4.5305
    endloop
  endfacet
  facet normal 0 -1 2.22045e-16
    outer loop
      vertex 1.83683 -99 2.52818
      vertex 2.52818 -99 1.83683
      vertex 4.5305 -99 3.2916
    endloop
  endfacet
  facet normal 0 -1 2.22045e-16
    outer loop
      vertex 0 -99 5.6
      vertex -5.6 -99 2.19824e-14
      vertex 1.73049 -99 5.32592
    endloop
  endfacet
  facet normal 0 -1 2.22045e-16
    outer loop
      vertex -1.73049 -99 5.32592
      vertex -5.6 -99 2.19824e-14
      vertex 0 -99 5.6
    endloop
  endfacet
  facet normal 0 -1 2.22045e-16
    outer loop
      vertex -3.2916 -99 4.5305
      vertex -5.6 -99 2.19824e-14
      vertex -1.73049 -99 5.32592
    endloop
  endfacet
  facet normal 0 -1 2.22045e-16
    outer loop
      vertex -4.5305 -99 3.2916
      vertex -5.6 -99 2.19824e-14
      vertex -3.2916 -99 4.5305
    endloop
  endfacet
  facet normal 0 -1 2.22045e-16
    outer loop
      vertex -5.32592 -99 1.73049
      vertex -5.6 -99 2.19824e-14
      vertex -4.5305 -99 3.2916
    endloop
  endfacet
  facet normal 0 -1 2.22045e-16
    outer loop
      vertex 2.52818 -99 -1.83683
      vertex 1.83683 -99 -2.52818
      vertex 4.5305 -99 -3.2916
    endloop
  endfacet
  facet normal 0 -1 2.22045e-16
    outer loop
      vertex -1.83683 -99 2.52818
      vertex -0.965678 -99 2.97205
      vertex 1.73049 -99 5.32592
    endloop
  endfacet
  facet normal 0 -1 2.22045e-16
    outer loop
      vertex 2.52818 -99 1.83683
      vertex 2.97205 -99 0.965678
      vertex 5.32592 -99 1.73049
    endloop
  endfacet
  facet normal 0 -1 2.22045e-16
    outer loop
      vertex -1.83683 -99 2.52818
      vertex -5.6 -99 2.19824e-14
      vertex -2.52818 -99 1.83683
    endloop
  endfacet
  facet normal 0 -1 2.22045e-16
    outer loop
      vertex 1.73049 -99 5.32592
      vertex -5.6 -99 2.19824e-14
      vertex -1.83683 -99 2.52818
    endloop
  endfacet
  facet normal 0 -1 2.22045e-16
    outer loop
      vertex 1.73049 -99 5.32592
      vertex -0.965678 -99 2.97205
      vertex 3.2916 -99 4.5305
    endloop
  endfacet
  facet normal 0 -1 2.22045e-16
    outer loop
      vertex -0.965678 -99 2.97205
      vertex 0 -99 3.125
      vertex 3.2916 -99 4.5305
    endloop
  endfacet
  facet normal 0 -1 2.22045e-16
    outer loop
      vertex 3.2916 -99 4.5305
      vertex 0.965678 -99 2.97205
      vertex 4.5305 -99 3.2916
    endloop
  endfacet
  facet normal 0 -1 2.22045e-16
    outer loop
      vertex 0.965678 -99 2.97205
      vertex 1.83683 -99 2.52818
      vertex 4.5305 -99 3.2916
    endloop
  endfacet
  facet normal 0 -1 2.22045e-16
    outer loop
      vertex 4.5305 -99 3.2916
      vertex 2.52818 -99 1.83683
      vertex 5.32592 -99 1.73049
    endloop
  endfacet
  facet normal 0 -1 2.22045e-16
    outer loop
      vertex -2.97205 -99 0.965678
      vertex -2.52818 -99 1.83683
      vertex -5.6 -99 2.19824e-14
    endloop
  endfacet
  facet normal 0 -1 2.22045e-16
    outer loop
      vertex 5.32592 -99 1.73049
      vertex 2.97205 -99 0.965678
      vertex 5.6 -99 2.19824e-14
    endloop
  endfacet
  facet normal 0 -1 2.22045e-16
    outer loop
      vertex 2.97205 -99 0.965678
      vertex 3.125 -99 2.19824e-14
      vertex 5.6 -99 2.19824e-14
    endloop
  endfacet
  facet normal 0 -1 2.22045e-16
    outer loop
      vertex 3.125 -99 2.19824e-14
      vertex 2.97205 -99 -0.965678
      vertex 5.32592 -99 -1.73049
    endloop
  endfacet
  facet normal 0 -1 2.22045e-16
    outer loop
      vertex 5.32592 -99 -1.73049
      vertex 2.52818 -99 -1.83683
      vertex 4.5305 -99 -3.2916
    endloop
  endfacet
  facet normal 0 -1 2.22045e-16
    outer loop
      vertex -2.52818 -99 -1.83683
      vertex -2.97205 -99 -0.965678
      vertex -5.6 -99 2.19824e-14
    endloop
  endfacet
  facet normal 0 -1 2.22045e-16
    outer loop
      vertex 4.5305 -99 -3.2916
      vertex 1.83683 -99 -2.52818
      vertex 3.2916 -99 -4.5305
    endloop
  endfacet
  facet normal 0 -1 2.22045e-16
    outer loop
      vertex -3.125 -99 2.19824e-14
      vertex -2.97205 -99 0.965678
      vertex -5.6 -99 2.19824e-14
    endloop
  endfacet
  facet normal 0 -1 2.22045e-16
    outer loop
      vertex 1.83683 -99 -2.52818
      vertex 0.965678 -99 -2.97205
      vertex 3.2916 -99 -4.5305
    endloop
  endfacet
  facet normal 0 -1 2.22045e-16
    outer loop
      vertex 3.2916 -99 -4.5305
      vertex 0 -99 -3.125
      vertex 1.73049 -99 -5.32592
    endloop
  endfacet
  facet normal 0 -1 2.22045e-16
    outer loop
      vertex 0 -99 -3.125
      vertex -0.965678 -99 -2.97205
      vertex 1.73049 -99 -5.32592
    endloop
  endfacet
  facet normal 0 -1 2.22045e-16
    outer loop
      vertex -0.965678 -99 -2.97205
      vertex -1.83683 -99 -2.52818
      vertex 1.73049 -99 -5.32592
    endloop
  endfacet
  facet normal 0 -1 2.22045e-16
    outer loop
      vertex 0.965678 -99 -2.97205
      vertex 0 -99 -3.125
      vertex 3.2916 -99 -4.5305
    endloop
  endfacet
  facet normal 0 -1 2.22045e-16
    outer loop
      vertex -2.97205 -99 -0.965678
      vertex -3.125 -99 2.19824e-14
      vertex -5.6 -99 2.19824e-14
    endloop
  endfacet
  facet normal -0.891008 -1.00806e-16 -0.453988
    outer loop
      vertex -4.5305 1 -3.2916
      vertex -4.5305 -99 -3.2916
      vertex -5.32592 1 -1.73049
    endloop
  endfacet
  facet normal -0.891008 -1.00806e-16 -0.453988
    outer loop
      vertex -5.32592 1 -1.73049
      vertex -4.5305 -99 -3.2916
      vertex -5.32592 -99 -1.73049
    endloop
  endfacet
  facet normal -0.707107 -1.57009e-16 -0.707107
    outer loop
      vertex -3.2916 1 -4.5305
      vertex -3.2916 -99 -4.5305
      vertex -4.5305 1 -3.2916
    endloop
  endfacet
  facet normal -0.707107 -1.57009e-16 -0.707107
    outer loop
      vertex -4.5305 1 -3.2916
      vertex -3.2916 -99 -4.5305
      vertex -4.5305 -99 -3.2916
    endloop
  endfacet
  facet normal -0.453988 -1.97843e-16 -0.891008
    outer loop
      vertex -1.73049 1 -5.32592
      vertex -1.73049 -99 -5.32592
      vertex -3.2916 1 -4.5305
    endloop
  endfacet
  facet normal -0.453988 -1.97843e-16 -0.891008
    outer loop
      vertex -3.2916 1 -4.5305
      vertex -1.73049 -99 -5.32592
      vertex -3.2916 -99 -4.5305
    endloop
  endfacet
  facet normal -0.156433 -2.19311e-16 -0.987689
    outer loop
      vertex 0 1 -5.6
      vertex 0 -99 -5.6
      vertex -1.73049 1 -5.32592
    endloop
  endfacet
  facet normal -0.156433 -2.19311e-16 -0.987689
    outer loop
      vertex -1.73049 1 -5.32592
      vertex 0 -99 -5.6
      vertex -1.73049 -99 -5.32592
    endloop
  endfacet
  facet normal 0.156433 -2.19311e-16 -0.987689
    outer loop
      vertex 1.73049 1 -5.32592
      vertex 1.73049 -99 -5.32592
      vertex 0 1 -5.6
    endloop
  endfacet
  facet normal 0.156433 -2.19311e-16 -0.987689
    outer loop
      vertex 0 1 -5.6
      vertex 1.73049 -99 -5.32592
      vertex 0 -99 -5.6
    endloop
  endfacet
  facet normal 0.453988 -1.97843e-16 -0.891008
    outer loop
      vertex 3.2916 1 -4.5305
      vertex 3.2916 -99 -4.5305
      vertex 1.73049 1 -5.32592
    endloop
  endfacet
  facet normal 0.453988 -1.97843e-16 -0.891008
    outer loop
      vertex 1.73049 1 -5.32592
      vertex 3.2916 -99 -4.5305
      vertex 1.73049 -99 -5.32592
    endloop
  endfacet
  facet normal 0.707107 -1.57009e-16 -0.707107
    outer loop
      vertex 3.2916 1 -4.5305
      vertex 4.5305 1 -3.2916
      vertex 4.5305 -99 -3.2916
    endloop
  endfacet
  facet normal 0.707107 -1.57009e-16 -0.707107
    outer loop
      vertex 3.2916 -99 -4.5305
      vertex 3.2916 1 -4.5305
      vertex 4.5305 -99 -3.2916
    endloop
  endfacet
  facet normal 0.891008 -1.00806e-16 -0.453988
    outer loop
      vertex 4.5305 1 -3.2916
      vertex 5.32592 1 -1.73049
      vertex 5.32592 -99 -1.73049
    endloop
  endfacet
  facet normal 0.891008 -1.00806e-16 -0.453988
    outer loop
      vertex 4.5305 -99 -3.2916
      vertex 4.5305 1 -3.2916
      vertex 5.32592 -99 -1.73049
    endloop
  endfacet
  facet normal 0.987689 -3.47351e-17 -0.156433
    outer loop
      vertex 5.32592 1 -1.73049
      vertex 5.6 1 -2.22045e-16
      vertex 5.6 -99 2.19824e-14
    endloop
  endfacet
  facet normal 0.987689 -3.47351e-17 -0.156433
    outer loop
      vertex 5.32592 -99 -1.73049
      vertex 5.32592 1 -1.73049
      vertex 5.6 -99 2.19824e-14
    endloop
  endfacet
  facet normal 0.987689 3.47351e-17 0.156433
    outer loop
      vertex 5.32592 1 1.73049
      vertex 5.32592 -99 1.73049
      vertex 5.6 -99 2.19824e-14
    endloop
  endfacet
  facet normal 0.987689 3.47351e-17 0.156433
    outer loop
      vertex 5.6 1 -2.22045e-16
      vertex 5.32592 1 1.73049
      vertex 5.6 -99 2.19824e-14
    endloop
  endfacet
  facet normal 0.891008 1.00806e-16 0.453988
    outer loop
      vertex 4.5305 1 3.2916
      vertex 4.5305 -99 3.2916
      vertex 5.32592 -99 1.73049
    endloop
  endfacet
  facet normal 0.891008 1.00806e-16 0.453988
    outer loop
      vertex 5.32592 1 1.73049
      vertex 4.5305 1 3.2916
      vertex 5.32592 -99 1.73049
    endloop
  endfacet
  facet normal 0.707107 1.57009e-16 0.707107
    outer loop
      vertex 3.2916 1 4.5305
      vertex 3.2916 -99 4.5305
      vertex 4.5305 -99 3.2916
    endloop
  endfacet
  facet normal 0.707107 1.57009e-16 0.707107
    outer loop
      vertex 4.5305 1 3.2916
      vertex 3.2916 1 4.5305
      vertex 4.5305 -99 3.2916
    endloop
  endfacet
  facet normal 0.453988 1.97843e-16 0.891008
    outer loop
      vertex 1.73049 1 5.32592
      vertex 1.73049 -99 5.32592
      vertex 3.2916 -99 4.5305
    endloop
  endfacet
  facet normal 0.453988 1.97843e-16 0.891008
    outer loop
      vertex 3.2916 1 4.5305
      vertex 1.73049 1 5.32592
      vertex 3.2916 -99 4.5305
    endloop
  endfacet
  facet normal 0.156433 2.19311e-16 0.987689
    outer loop
      vertex 0 1 5.6
      vertex 0 -99 5.6
      vertex 1.73049 -99 5.32592
    endloop
  endfacet
  facet normal 0.156433 2.19311e-16 0.987689
    outer loop
      vertex 1.73049 1 5.32592
      vertex 0 1 5.6
      vertex 1.73049 -99 5.32592
    endloop
  endfacet
  facet normal -0.156433 2.19311e-16 0.987689
    outer loop
      vertex -1.73049 1 5.32592
      vertex -1.73049 -99 5.32592
      vertex 0 -99 5.6
    endloop
  endfacet
  facet normal -0.156433 2.19311e-16 0.987689
    outer loop
      vertex 0 1 5.6
      vertex -1.73049 1 5.32592
      vertex 0 -99 5.6
    endloop
  endfacet
  facet normal -0.453988 1.97843e-16 0.891008
    outer loop
      vertex -3.2916 1 4.5305
      vertex -3.2916 -99 4.5305
      vertex -1.73049 -99 5.32592
    endloop
  endfacet
  facet normal -0.453988 1.97843e-16 0.891008
    outer loop
      vertex -1.73049 1 5.32592
      vertex -3.2916 1 4.5305
      vertex -1.73049 -99 5.32592
    endloop
  endfacet
  facet normal -0.707107 1.57009e-16 0.707107
    outer loop
      vertex -4.5305 -99 3.2916
      vertex -3.2916 -99 4.5305
      vertex -4.5305 1 3.2916
    endloop
  endfacet
  facet normal -0.707107 1.57009e-16 0.707107
    outer loop
      vertex -4.5305 1 3.2916
      vertex -3.2916 -99 4.5305
      vertex -3.2916 1 4.5305
    endloop
  endfacet
  facet normal -0.891008 1.00806e-16 0.453988
    outer loop
      vertex -5.32592 -99 1.73049
      vertex -4.5305 -99 3.2916
      vertex -5.32592 1 1.73049
    endloop
  endfacet
  facet normal -0.891008 1.00806e-16 0.453988
    outer loop
      vertex -5.32592 1 1.73049
      vertex -4.5305 -99 3.2916
      vertex -4.5305 1 3.2916
    endloop
  endfacet
  facet normal 0.987689 3.47351e-17 0.156433
    outer loop
      vertex -5.1 1 -2.22045e-16
      vertex -5.1 0 0
      vertex -4.85039 -3.4994e-16 -1.57599
    endloop
  endfacet
  facet normal 0.987689 3.47351e-17 0.156433
    outer loop
      vertex -4.85039 1 -1.57599
      vertex -5.1 1 -2.22045e-16
      vertex -4.85039 -3.4994e-16 -1.57599
    endloop
  endfacet
  facet normal 0.987689 -3.47351e-17 -0.156433
    outer loop
      vertex -5.1 1 -2.22045e-16
      vertex -4.85039 1 1.57599
      vertex -4.85039 3.4994e-16 1.57599
    endloop
  endfacet
  facet normal 0.987689 -3.47351e-17 -0.156433
    outer loop
      vertex -5.1 0 0
      vertex -5.1 1 -2.22045e-16
      vertex -4.85039 3.4994e-16 1.57599
    endloop
  endfacet
  facet normal 0.891006 -1.00806e-16 -0.453992
    outer loop
      vertex -4.85039 1 1.57599
      vertex -4.12599 1 2.9977
      vertex -4.12599 6.65623e-16 2.9977
    endloop
  endfacet
  facet normal 0.891006 -1.00806e-16 -0.453992
    outer loop
      vertex -4.85039 3.4994e-16 1.57599
      vertex -4.85039 1 1.57599
      vertex -4.12599 6.65623e-16 2.9977
    endloop
  endfacet
  facet normal 0.707107 -1.57009e-16 -0.707107
    outer loop
      vertex -4.12599 1 2.9977
      vertex -2.9977 1 4.12599
      vertex -2.9977 9.16154e-16 4.12599
    endloop
  endfacet
  facet normal 0.707107 -1.57009e-16 -0.707107
    outer loop
      vertex -4.12599 6.65623e-16 2.9977
      vertex -4.12599 1 2.9977
      vertex -2.9977 9.16154e-16 4.12599
    endloop
  endfacet
  facet normal 0.453992 -1.97843e-16 -0.891006
    outer loop
      vertex -1.57599 1 4.85039
      vertex -1.57599 1.077e-15 4.85039
      vertex -2.9977 1 4.12599
    endloop
  endfacet
  facet normal 0.453992 -1.97843e-16 -0.891006
    outer loop
      vertex -2.9977 1 4.12599
      vertex -1.57599 1.077e-15 4.85039
      vertex -2.9977 9.16154e-16 4.12599
    endloop
  endfacet
  facet normal 0.156433 -2.19311e-16 -0.987689
    outer loop
      vertex 0 1 5.1
      vertex 0 1.13243e-15 5.1
      vertex -1.57599 1 4.85039
    endloop
  endfacet
  facet normal 0.156433 -2.19311e-16 -0.987689
    outer loop
      vertex -1.57599 1 4.85039
      vertex 0 1.13243e-15 5.1
      vertex -1.57599 1.077e-15 4.85039
    endloop
  endfacet
  facet normal -0.156433 -2.19311e-16 -0.987689
    outer loop
      vertex 1.57599 1 4.85039
      vertex 1.57599 1.077e-15 4.85039
      vertex 0 1 5.1
    endloop
  endfacet
  facet normal -0.156433 -2.19311e-16 -0.987689
    outer loop
      vertex 0 1 5.1
      vertex 1.57599 1.077e-15 4.85039
      vertex 0 1.13243e-15 5.1
    endloop
  endfacet
  facet normal -0.453992 -1.97843e-16 -0.891006
    outer loop
      vertex 2.9977 1 4.12599
      vertex 2.9977 9.16154e-16 4.12599
      vertex 1.57599 1 4.85039
    endloop
  endfacet
  facet normal -0.453992 -1.97843e-16 -0.891006
    outer loop
      vertex 1.57599 1 4.85039
      vertex 2.9977 9.16154e-16 4.12599
      vertex 1.57599 1.077e-15 4.85039
    endloop
  endfacet
  facet normal -0.707107 -1.57009e-16 -0.707107
    outer loop
      vertex 4.12599 1 2.9977
      vertex 4.12599 6.65623e-16 2.9977
      vertex 2.9977 1 4.12599
    endloop
  endfacet
  facet normal -0.707107 -1.57009e-16 -0.707107
    outer loop
      vertex 2.9977 1 4.12599
      vertex 4.12599 6.65623e-16 2.9977
      vertex 2.9977 9.16154e-16 4.12599
    endloop
  endfacet
  facet normal -0.891006 -1.00806e-16 -0.453992
    outer loop
      vertex 4.85039 1 1.57599
      vertex 4.85039 3.4994e-16 1.57599
      vertex 4.12599 1 2.9977
    endloop
  endfacet
  facet normal -0.891006 -1.00806e-16 -0.453992
    outer loop
      vertex 4.12599 1 2.9977
      vertex 4.85039 3.4994e-16 1.57599
      vertex 4.12599 6.65623e-16 2.9977
    endloop
  endfacet
  facet normal -0.987689 -3.47351e-17 -0.156433
    outer loop
      vertex 5.1 1 -2.22045e-16
      vertex 5.1 0 0
      vertex 4.85039 1 1.57599
    endloop
  endfacet
  facet normal -0.987689 -3.47351e-17 -0.156433
    outer loop
      vertex 4.85039 1 1.57599
      vertex 5.1 0 0
      vertex 4.85039 3.4994e-16 1.57599
    endloop
  endfacet
  facet normal -0.987689 3.47351e-17 0.156433
    outer loop
      vertex 4.85039 -3.4994e-16 -1.57599
      vertex 5.1 0 0
      vertex 4.85039 1 -1.57599
    endloop
  endfacet
  facet normal -0.987689 3.47351e-17 0.156433
    outer loop
      vertex 4.85039 1 -1.57599
      vertex 5.1 0 0
      vertex 5.1 1 -2.22045e-16
    endloop
  endfacet
  facet normal -0.891006 1.00806e-16 0.453992
    outer loop
      vertex 4.12599 -6.65623e-16 -2.9977
      vertex 4.85039 -3.4994e-16 -1.57599
      vertex 4.12599 1 -2.9977
    endloop
  endfacet
  facet normal -0.891006 1.00806e-16 0.453992
    outer loop
      vertex 4.12599 1 -2.9977
      vertex 4.85039 -3.4994e-16 -1.57599
      vertex 4.85039 1 -1.57599
    endloop
  endfacet
  facet normal -0.707107 1.57009e-16 0.707107
    outer loop
      vertex 2.9977 -9.16154e-16 -4.12599
      vertex 4.12599 -6.65623e-16 -2.9977
      vertex 2.9977 1 -4.12599
    endloop
  endfacet
  facet normal -0.707107 1.57009e-16 0.707107
    outer loop
      vertex 2.9977 1 -4.12599
      vertex 4.12599 -6.65623e-16 -2.9977
      vertex 4.12599 1 -2.9977
    endloop
  endfacet
  facet normal -0.453992 1.97843e-16 0.891006
    outer loop
      vertex 1.57599 1 -4.85039
      vertex 1.57599 -1.077e-15 -4.85039
      vertex 2.9977 -9.16154e-16 -4.12599
    endloop
  endfacet
  facet normal -0.453992 1.97843e-16 0.891006
    outer loop
      vertex 2.9977 1 -4.12599
      vertex 1.57599 1 -4.85039
      vertex 2.9977 -9.16154e-16 -4.12599
    endloop
  endfacet
  facet normal -0.156433 2.19311e-16 0.987689
    outer loop
      vertex 0 1 -5.1
      vertex 0 -1.13243e-15 -5.1
      vertex 1.57599 -1.077e-15 -4.85039
    endloop
  endfacet
  facet normal -0.156433 2.19311e-16 0.987689
    outer loop
      vertex 1.57599 1 -4.85039
      vertex 0 1 -5.1
      vertex 1.57599 -1.077e-15 -4.85039
    endloop
  endfacet
  facet normal 0.156433 2.19311e-16 0.987689
    outer loop
      vertex -1.57599 1 -4.85039
      vertex -1.57599 -1.077e-15 -4.85039
      vertex 0 -1.13243e-15 -5.1
    endloop
  endfacet
  facet normal 0.156433 2.19311e-16 0.987689
    outer loop
      vertex 0 1 -5.1
      vertex -1.57599 1 -4.85039
      vertex 0 -1.13243e-15 -5.1
    endloop
  endfacet
  facet normal 0.453992 1.97843e-16 0.891006
    outer loop
      vertex -2.9977 1 -4.12599
      vertex -2.9977 -9.16154e-16 -4.12599
      vertex -1.57599 -1.077e-15 -4.85039
    endloop
  endfacet
  facet normal 0.453992 1.97843e-16 0.891006
    outer loop
      vertex -1.57599 1 -4.85039
      vertex -2.9977 1 -4.12599
      vertex -1.57599 -1.077e-15 -4.85039
    endloop
  endfacet
  facet normal 0.707107 1.57009e-16 0.707107
    outer loop
      vertex -4.12599 1 -2.9977
      vertex -4.12599 -6.65623e-16 -2.9977
      vertex -2.9977 -9.16154e-16 -4.12599
    endloop
  endfacet
  facet normal 0.707107 1.57009e-16 0.707107
    outer loop
      vertex -2.9977 1 -4.12599
      vertex -4.12599 1 -2.9977
      vertex -2.9977 -9.16154e-16 -4.12599
    endloop
  endfacet
  facet normal 0.891006 1.00806e-16 0.453992
    outer loop
      vertex -4.85039 1 -1.57599
      vertex -4.85039 -3.4994e-16 -1.57599
      vertex -4.12599 -6.65623e-16 -2.9977
    endloop
  endfacet
  facet normal 0.891006 1.00806e-16 0.453992
    outer loop
      vertex -4.12599 1 -2.9977
      vertex -4.85039 1 -1.57599
      vertex -4.12599 -6.65623e-16 -2.9977
    endloop
  endfacet
  facet normal 0.987688 -3.47358e-17 -0.156436
    outer loop
      vertex -3.125 -1 2.22045e-16
      vertex -2.97205 -1 0.965678
      vertex -2.97205 -99 0.965678
    endloop
  endfacet
  facet normal 0.987688 -3.47358e-17 -0.156436
    outer loop
      vertex -3.125 -99 2.19824e-14
      vertex -3.125 -1 2.22045e-16
      vertex -2.97205 -99 0.965678
    endloop
  endfacet
  facet normal 0.987688 3.47358e-17 0.156436
    outer loop
      vertex -3.125 -1 2.22045e-16
      vertex -3.125 -99 2.19824e-14
      vertex -2.97205 -99 -0.965678
    endloop
  endfacet
  facet normal 0.987688 3.47358e-17 0.156436
    outer loop
      vertex -2.97205 -1 -0.965678
      vertex -3.125 -1 2.22045e-16
      vertex -2.97205 -99 -0.965678
    endloop
  endfacet
  facet normal 0.891008 1.00805e-16 0.453987
    outer loop
      vertex -2.97205 -1 -0.965678
      vertex -2.97205 -99 -0.965678
      vertex -2.52818 -99 -1.83683
    endloop
  endfacet
  facet normal 0.891008 1.00805e-16 0.453987
    outer loop
      vertex -2.52818 -1 -1.83683
      vertex -2.97205 -1 -0.965678
      vertex -2.52818 -99 -1.83683
    endloop
  endfacet
  facet normal 0.707107 1.57009e-16 0.707107
    outer loop
      vertex -2.52818 -1 -1.83683
      vertex -2.52818 -99 -1.83683
      vertex -1.83683 -99 -2.52818
    endloop
  endfacet
  facet normal 0.707107 1.57009e-16 0.707107
    outer loop
      vertex -1.83683 -1 -2.52818
      vertex -2.52818 -1 -1.83683
      vertex -1.83683 -99 -2.52818
    endloop
  endfacet
  facet normal 0.453987 1.97844e-16 0.891008
    outer loop
      vertex -1.83683 -1 -2.52818
      vertex -1.83683 -99 -2.52818
      vertex -0.965678 -99 -2.97205
    endloop
  endfacet
  facet normal 0.453987 1.97844e-16 0.891008
    outer loop
      vertex -0.965678 -1 -2.97205
      vertex -1.83683 -1 -2.52818
      vertex -0.965678 -99 -2.97205
    endloop
  endfacet
  facet normal 0.156436 2.19311e-16 0.987688
    outer loop
      vertex -0.965678 -1 -2.97205
      vertex -0.965678 -99 -2.97205
      vertex 0 -99 -3.125
    endloop
  endfacet
  facet normal 0.156436 2.19311e-16 0.987688
    outer loop
      vertex 0 -1 -3.125
      vertex -0.965678 -1 -2.97205
      vertex 0 -99 -3.125
    endloop
  endfacet
  facet normal -0.156436 2.19311e-16 0.987688
    outer loop
      vertex 0 -1 -3.125
      vertex 0 -99 -3.125
      vertex 0.965678 -99 -2.97205
    endloop
  endfacet
  facet normal -0.156436 2.19311e-16 0.987688
    outer loop
      vertex 0.965678 -1 -2.97205
      vertex 0 -1 -3.125
      vertex 0.965678 -99 -2.97205
    endloop
  endfacet
  facet normal -0.453987 1.97844e-16 0.891008
    outer loop
      vertex 0.965678 -1 -2.97205
      vertex 0.965678 -99 -2.97205
      vertex 1.83683 -99 -2.52818
    endloop
  endfacet
  facet normal -0.453987 1.97844e-16 0.891008
    outer loop
      vertex 1.83683 -1 -2.52818
      vertex 0.965678 -1 -2.97205
      vertex 1.83683 -99 -2.52818
    endloop
  endfacet
  facet normal -0.707107 1.57009e-16 0.707107
    outer loop
      vertex 1.83683 -99 -2.52818
      vertex 2.52818 -99 -1.83683
      vertex 1.83683 -1 -2.52818
    endloop
  endfacet
  facet normal -0.707107 1.57009e-16 0.707107
    outer loop
      vertex 1.83683 -1 -2.52818
      vertex 2.52818 -99 -1.83683
      vertex 2.52818 -1 -1.83683
    endloop
  endfacet
  facet normal -0.891008 1.00805e-16 0.453987
    outer loop
      vertex 2.52818 -99 -1.83683
      vertex 2.97205 -99 -0.965678
      vertex 2.52818 -1 -1.83683
    endloop
  endfacet
  facet normal -0.891008 1.00805e-16 0.453987
    outer loop
      vertex 2.52818 -1 -1.83683
      vertex 2.97205 -99 -0.965678
      vertex 2.97205 -1 -0.965678
    endloop
  endfacet
  facet normal -0.987688 3.47358e-17 0.156436
    outer loop
      vertex 2.97205 -99 -0.965678
      vertex 3.125 -99 2.19824e-14
      vertex 2.97205 -1 -0.965678
    endloop
  endfacet
  facet normal -0.987688 3.47358e-17 0.156436
    outer loop
      vertex 2.97205 -1 -0.965678
      vertex 3.125 -99 2.19824e-14
      vertex 3.125 -1 2.22045e-16
    endloop
  endfacet
  facet normal -0.987688 -3.47358e-17 -0.156436
    outer loop
      vertex 3.125 -1 2.22045e-16
      vertex 3.125 -99 2.19824e-14
      vertex 2.97205 -1 0.965678
    endloop
  endfacet
  facet normal -0.987688 -3.47358e-17 -0.156436
    outer loop
      vertex 2.97205 -1 0.965678
      vertex 3.125 -99 2.19824e-14
      vertex 2.97205 -99 0.965678
    endloop
  endfacet
  facet normal -0.891008 -1.00805e-16 -0.453987
    outer loop
      vertex 2.97205 -1 0.965678
      vertex 2.97205 -99 0.965678
      vertex 2.52818 -1 1.83683
    endloop
  endfacet
  facet normal -0.891008 -1.00805e-16 -0.453987
    outer loop
      vertex 2.52818 -1 1.83683
      vertex 2.97205 -99 0.965678
      vertex 2.52818 -99 1.83683
    endloop
  endfacet
  facet normal -0.707107 -1.57009e-16 -0.707107
    outer loop
      vertex 2.52818 -1 1.83683
      vertex 2.52818 -99 1.83683
      vertex 1.83683 -1 2.52818
    endloop
  endfacet
  facet normal -0.707107 -1.57009e-16 -0.707107
    outer loop
      vertex 1.83683 -1 2.52818
      vertex 2.52818 -99 1.83683
      vertex 1.83683 -99 2.52818
    endloop
  endfacet
  facet normal -0.453987 -1.97844e-16 -0.891008
    outer loop
      vertex 1.83683 -1 2.52818
      vertex 1.83683 -99 2.52818
      vertex 0.965678 -1 2.97205
    endloop
  endfacet
  facet normal -0.453987 -1.97844e-16 -0.891008
    outer loop
      vertex 0.965678 -1 2.97205
      vertex 1.83683 -99 2.52818
      vertex 0.965678 -99 2.97205
    endloop
  endfacet
  facet normal -0.156436 -2.19311e-16 -0.987688
    outer loop
      vertex 0.965678 -1 2.97205
      vertex 0.965678 -99 2.97205
      vertex 0 -1 3.125
    endloop
  endfacet
  facet normal -0.156436 -2.19311e-16 -0.987688
    outer loop
      vertex 0 -1 3.125
      vertex 0.965678 -99 2.97205
      vertex 0 -99 3.125
    endloop
  endfacet
  facet normal 0.156436 -2.19311e-16 -0.987688
    outer loop
      vertex 0 -1 3.125
      vertex 0 -99 3.125
      vertex -0.965678 -1 2.97205
    endloop
  endfacet
  facet normal 0.156436 -2.19311e-16 -0.987688
    outer loop
      vertex -0.965678 -1 2.97205
      vertex 0 -99 3.125
      vertex -0.965678 -99 2.97205
    endloop
  endfacet
  facet normal 0.453987 -1.97844e-16 -0.891008
    outer loop
      vertex -0.965678 -1 2.97205
      vertex -0.965678 -99 2.97205
      vertex -1.83683 -1 2.52818
    endloop
  endfacet
  facet normal 0.453987 -1.97844e-16 -0.891008
    outer loop
      vertex -1.83683 -1 2.52818
      vertex -0.965678 -99 2.97205
      vertex -1.83683 -99 2.52818
    endloop
  endfacet
  facet normal 0.707107 -1.57009e-16 -0.707107
    outer loop
      vertex -2.52818 -1 1.83683
      vertex -1.83683 -1 2.52818
      vertex -1.83683 -99 2.52818
    endloop
  endfacet
  facet normal 0.707107 -1.57009e-16 -0.707107
    outer loop
      vertex -2.52818 -99 1.83683
      vertex -2.52818 -1 1.83683
      vertex -1.83683 -99 2.52818
    endloop
  endfacet
  facet normal 0.891008 -1.00805e-16 -0.453987
    outer loop
      vertex -2.97205 -1 0.965678
      vertex -2.52818 -1 1.83683
      vertex -2.52818 -99 1.83683
    endloop
  endfacet
  facet normal 0.891008 -1.00805e-16 -0.453987
    outer loop
      vertex -2.97205 -99 0.965678
      vertex -2.97205 -1 0.965678
      vertex -2.52818 -99 1.83683
    endloop
  endfacet
  facet normal 0 1 -2.22045e-16
    outer loop
      vertex -4.04508 6.52574e-16 2.93893
      vertex -4.12599 6.65623e-16 2.9977
      vertex -2.9977 9.16154e-16 4.12599
    endloop
  endfacet
  facet normal 0 1 -2.22045e-16
    outer loop
      vertex -2.93893 8.98188e-16 4.04508
      vertex -2.9977 9.16154e-16 4.12599
      vertex -1.57599 1.077e-15 4.85039
    endloop
  endfacet
  facet normal 0 1 -2.22045e-16
    outer loop
      vertex -1.54508 1.05588e-15 4.75528
      vertex -1.57599 1.077e-15 4.85039
      vertex 0 1.13243e-15 5.1
    endloop
  endfacet
  facet normal 0 1 -2.22045e-16
    outer loop
      vertex 0 1.11022e-15 5
      vertex 0 1.13243e-15 5.1
      vertex 1.57599 1.077e-15 4.85039
    endloop
  endfacet
  facet normal 0 1 -2.22045e-16
    outer loop
      vertex 1.54508 1.05588e-15 4.75528
      vertex 1.57599 1.077e-15 4.85039
      vertex 2.9977 9.16154e-16 4.12599
    endloop
  endfacet
  facet normal 0 1 -2.22045e-16
    outer loop
      vertex 2.93893 8.98188e-16 4.04508
      vertex 2.9977 9.16154e-16 4.12599
      vertex 4.12599 6.65623e-16 2.9977
    endloop
  endfacet
  facet normal 0 1 -2.22045e-16
    outer loop
      vertex 4.04508 6.52574e-16 2.93893
      vertex 4.12599 6.65623e-16 2.9977
      vertex 4.85039 3.4994e-16 1.57599
    endloop
  endfacet
  facet normal 0 1 -2.22045e-16
    outer loop
      vertex -4.75528 -3.43077e-16 -1.54508
      vertex -5.1 0 0
      vertex -5 0 0
    endloop
  endfacet
  facet normal 0 1 -2.22045e-16
    outer loop
      vertex 4.75528 -3.43077e-16 -1.54508
      vertex 5.1 0 0
      vertex 4.85039 -3.4994e-16 -1.57599
    endloop
  endfacet
  facet normal 0 1 -2.22045e-16
    outer loop
      vertex 4.04508 -6.52574e-16 -2.93893
      vertex 4.85039 -3.4994e-16 -1.57599
      vertex 4.12599 -6.65623e-16 -2.9977
    endloop
  endfacet
  facet normal 0 1 -2.22045e-16
    outer loop
      vertex 2.93893 -8.98188e-16 -4.04508
      vertex 4.12599 -6.65623e-16 -2.9977
      vertex 2.9977 -9.16154e-16 -4.12599
    endloop
  endfacet
  facet normal 0 1 -2.22045e-16
    outer loop
      vertex 1.54508 -1.05588e-15 -4.75528
      vertex 2.9977 -9.16154e-16 -4.12599
      vertex 1.57599 -1.077e-15 -4.85039
    endloop
  endfacet
  facet normal 0 1 -2.22045e-16
    outer loop
      vertex 0 -1.11022e-15 -5
      vertex 1.57599 -1.077e-15 -4.85039
      vertex 0 -1.13243e-15 -5.1
    endloop
  endfacet
  facet normal 0 1 -2.22045e-16
    outer loop
      vertex -1.54508 -1.05588e-15 -4.75528
      vertex 0 -1.13243e-15 -5.1
      vertex -1.57599 -1.077e-15 -4.85039
    endloop
  endfacet
  facet normal 0 1 -2.22045e-16
    outer loop
      vertex -2.93893 -8.98188e-16 -4.04508
      vertex -1.57599 -1.077e-15 -4.85039
      vertex -2.9977 -9.16154e-16 -4.12599
    endloop
  endfacet
  facet normal 0 1 -2.22045e-16
    outer loop
      vertex -4.04508 -6.52574e-16 -2.93893
      vertex -2.9977 -9.16154e-16 -4.12599
      vertex -4.12599 -6.65623e-16 -2.9977
    endloop
  endfacet
  facet normal 0 1 -2.22045e-16
    outer loop
      vertex -4.75528 -3.43077e-16 -1.54508
      vertex -4.12599 -6.65623e-16 -2.9977
      vertex -4.85039 -3.4994e-16 -1.57599
    endloop
  endfacet
  facet normal 0 1 -2.22045e-16
    outer loop
      vertex -4.04508 -6.52574e-16 -2.93893
      vertex -4.12599 -6.65623e-16 -2.9977
      vertex -4.75528 -3.43077e-16 -1.54508
    endloop
  endfacet
  facet normal 0 1 -2.22045e-16
    outer loop
      vertex -5.1 0 0
      vertex -4.75528 -3.43077e-16 -1.54508
      vertex -4.85039 -3.4994e-16 -1.57599
    endloop
  endfacet
  facet normal 0 1 -2.22045e-16
    outer loop
      vertex 5 0 0
      vertex 5.1 0 0
      vertex 4.75528 -3.43077e-16 -1.54508
    endloop
  endfacet
  facet normal 0 1 -2.22045e-16
    outer loop
      vertex 4.04508 6.52574e-16 2.93893
      vertex 4.85039 3.4994e-16 1.57599
      vertex 4.75528 3.43077e-16 1.54508
    endloop
  endfacet
  facet normal 0 1 -2.22045e-16
    outer loop
      vertex 4.85039 3.4994e-16 1.57599
      vertex 5.1 0 0
      vertex 5 0 0
    endloop
  endfacet
  facet normal 0 1 -2.22045e-16
    outer loop
      vertex 4.85039 3.4994e-16 1.57599
      vertex 5 0 0
      vertex 4.75528 3.43077e-16 1.54508
    endloop
  endfacet
  facet normal 0 1 -2.22045e-16
    outer loop
      vertex 4.75528 -3.43077e-16 -1.54508
      vertex 4.85039 -3.4994e-16 -1.57599
      vertex 4.04508 -6.52574e-16 -2.93893
    endloop
  endfacet
  facet normal 0 1 -2.22045e-16
    outer loop
      vertex 4.04508 -6.52574e-16 -2.93893
      vertex 4.12599 -6.65623e-16 -2.9977
      vertex 2.93893 -8.98188e-16 -4.04508
    endloop
  endfacet
  facet normal 0 1 -2.22045e-16
    outer loop
      vertex 2.93893 -8.98188e-16 -4.04508
      vertex 2.9977 -9.16154e-16 -4.12599
      vertex 1.54508 -1.05588e-15 -4.75528
    endloop
  endfacet
  facet normal 0 1 -2.22045e-16
    outer loop
      vertex 1.54508 -1.05588e-15 -4.75528
      vertex 1.57599 -1.077e-15 -4.85039
      vertex 0 -1.11022e-15 -5
    endloop
  endfacet
  facet normal 0 1 -2.22045e-16
    outer loop
      vertex 0 -1.11022e-15 -5
      vertex 0 -1.13243e-15 -5.1
      vertex -1.54508 -1.05588e-15 -4.75528
    endloop
  endfacet
  facet normal 0 1 -2.22045e-16
    outer loop
      vertex -1.54508 -1.05588e-15 -4.75528
      vertex -1.57599 -1.077e-15 -4.85039
      vertex -2.93893 -8.98188e-16 -4.04508
    endloop
  endfacet
  facet normal 0 1 -2.22045e-16
    outer loop
      vertex -2.93893 -8.98188e-16 -4.04508
      vertex -2.9977 -9.16154e-16 -4.12599
      vertex -4.04508 -6.52574e-16 -2.93893
    endloop
  endfacet
  facet normal 0 1 -2.22045e-16
    outer loop
      vertex -4.85039 3.4994e-16 1.57599
      vertex -4.12599 6.65623e-16 2.9977
      vertex -4.75528 3.43077e-16 1.54508
    endloop
  endfacet
  facet normal 0 1 -2.22045e-16
    outer loop
      vertex -4.85039 3.4994e-16 1.57599
      vertex -4.75528 3.43077e-16 1.54508
      vertex -5.1 0 0
    endloop
  endfacet
  facet normal 0 1 -2.22045e-16
    outer loop
      vertex -5 0 0
      vertex -5.1 0 0
      vertex -4.75528 3.43077e-16 1.54508
    endloop
  endfacet
  facet normal 0 1 -2.22045e-16
    outer loop
      vertex -4.75528 3.43077e-16 1.54508
      vertex -4.12599 6.65623e-16 2.9977
      vertex -4.04508 6.52574e-16 2.93893
    endloop
  endfacet
  facet normal 0 1 -2.22045e-16
    outer loop
      vertex -4.04508 6.52574e-16 2.93893
      vertex -2.9977 9.16154e-16 4.12599
      vertex -2.93893 8.98188e-16 4.04508
    endloop
  endfacet
  facet normal 0 1 -2.22045e-16
    outer loop
      vertex -2.93893 8.98188e-16 4.04508
      vertex -1.57599 1.077e-15 4.85039
      vertex -1.54508 1.05588e-15 4.75528
    endloop
  endfacet
  facet normal 0 1 -2.22045e-16
    outer loop
      vertex -1.54508 1.05588e-15 4.75528
      vertex 0 1.13243e-15 5.1
      vertex 0 1.11022e-15 5
    endloop
  endfacet
  facet normal 0 1 -2.22045e-16
    outer loop
      vertex 0 1.11022e-15 5
      vertex 1.57599 1.077e-15 4.85039
      vertex 1.54508 1.05588e-15 4.75528
    endloop
  endfacet
  facet normal 0 1 -2.22045e-16
    outer loop
      vertex 1.54508 1.05588e-15 4.75528
      vertex 2.9977 9.16154e-16 4.12599
      vertex 2.93893 8.98188e-16 4.04508
    endloop
  endfacet
  facet normal 0 1 -2.22045e-16
    outer loop
      vertex 2.93893 8.98188e-16 4.04508
      vertex 4.12599 6.65623e-16 2.9977
      vertex 4.04508 6.52574e-16 2.93893
    endloop
  endfacet
  facet normal 0 -1 2.22045e-16
    outer loop
      vertex -3.125 -1 2.22045e-16
      vertex -2.97205 -1 -0.965678
      vertex -2.52818 -1 -1.83683
    endloop
  endfacet
  facet normal 0 -1 2.22045e-16
    outer loop
      vertex -0.965678 -1 -2.97205
      vertex -3.125 -1 2.22045e-16
      vertex -1.83683 -1 -2.52818
    endloop
  endfacet
  facet normal 0 -1 2.22045e-16
    outer loop
      vertex -1.83683 -1 -2.52818
      vertex -3.125 -1 2.22045e-16
      vertex -2.52818 -1 -1.83683
    endloop
  endfacet
  facet normal 0 -1 2.22045e-16
    outer loop
      vertex 0 -1 -3.125
      vertex -3.125 -1 2.22045e-16
      vertex -0.965678 -1 -2.97205
    endloop
  endfacet
  facet normal 0 -1 2.22045e-16
    outer loop
      vertex 0.965678 -1 -2.97205
      vertex -3.125 -1 2.22045e-16
      vertex 0 -1 -3.125
    endloop
  endfacet
  facet normal 0 -1 2.22045e-16
    outer loop
      vertex -1.01393 -1 -1.39555
      vertex -3.125 -1 2.22045e-16
      vertex 0.965678 -1 -2.97205
    endloop
  endfacet
  facet normal 0 -1 2.22045e-16
    outer loop
      vertex -1.01393 -1 -1.39555
      vertex -1.39555 -1 -1.01393
      vertex -3.125 -1 2.22045e-16
    endloop
  endfacet
  facet normal 0 -1 2.22045e-16
    outer loop
      vertex 1.64057 -1 -0.533054
      vertex 1.39555 -1 -1.01393
      vertex 2.97205 -1 -0.965678
    endloop
  endfacet
  facet normal 0 -1 2.22045e-16
    outer loop
      vertex 3.125 -1 2.22045e-16
      vertex 1.725 -1 2.22045e-16
      vertex 2.97205 -1 -0.965678
    endloop
  endfacet
  facet normal 0 -1 2.22045e-16
    outer loop
      vertex 0 -1 1.725
      vertex 0.533054 -1 1.64057
      vertex 1.83683 -1 2.52818
    endloop
  endfacet
  facet normal 0 -1 2.22045e-16
    outer loop
      vertex 1.01393 -1 1.39555
      vertex 1.39555 -1 1.01393
      vertex 2.52818 -1 1.83683
    endloop
  endfacet
  facet normal 0 -1 2.22045e-16
    outer loop
      vertex 0 -1 3.125
      vertex -3.125 -1 2.22045e-16
      vertex 0.965678 -1 2.97205
    endloop
  endfacet
  facet normal 0 -1 2.22045e-16
    outer loop
      vertex -0.965678 -1 2.97205
      vertex -3.125 -1 2.22045e-16
      vertex 0 -1 3.125
    endloop
  endfacet
  facet normal 0 -1 2.22045e-16
    outer loop
      vertex -1.83683 -1 2.52818
      vertex -3.125 -1 2.22045e-16
      vertex -0.965678 -1 2.97205
    endloop
  endfacet
  facet normal 0 -1 2.22045e-16
    outer loop
      vertex -2.52818 -1 1.83683
      vertex -3.125 -1 2.22045e-16
      vertex -1.83683 -1 2.52818
    endloop
  endfacet
  facet normal 0 -1 2.22045e-16
    outer loop
      vertex -2.97205 -1 0.965678
      vertex -3.125 -1 2.22045e-16
      vertex -2.52818 -1 1.83683
    endloop
  endfacet
  facet normal 0 -1 2.22045e-16
    outer loop
      vertex 1.39555 -1 -1.01393
      vertex 1.01393 -1 -1.39555
      vertex 2.52818 -1 -1.83683
    endloop
  endfacet
  facet normal 0 -1 2.22045e-16
    outer loop
      vertex -1.01393 -1 1.39555
      vertex -0.533054 -1 1.64057
      vertex 0.965678 -1 2.97205
    endloop
  endfacet
  facet normal 0 -1 2.22045e-16
    outer loop
      vertex 1.39555 -1 1.01393
      vertex 1.64057 -1 0.533054
      vertex 2.97205 -1 0.965678
    endloop
  endfacet
  facet normal 0 -1 2.22045e-16
    outer loop
      vertex -1.01393 -1 1.39555
      vertex -3.125 -1 2.22045e-16
      vertex -1.39555 -1 1.01393
    endloop
  endfacet
  facet normal 0 -1 2.22045e-16
    outer loop
      vertex 0.965678 -1 2.97205
      vertex -3.125 -1 2.22045e-16
      vertex -1.01393 -1 1.39555
    endloop
  endfacet
  facet normal 0 -1 2.22045e-16
    outer loop
      vertex 0.965678 -1 2.97205
      vertex -0.533054 -1 1.64057
      vertex 1.83683 -1 2.52818
    endloop
  endfacet
  facet normal 0 -1 2.22045e-16
    outer loop
      vertex -0.533054 -1 1.64057
      vertex 0 -1 1.725
      vertex 1.83683 -1 2.52818
    endloop
  endfacet
  facet normal 0 -1 2.22045e-16
    outer loop
      vertex 1.83683 -1 2.52818
      vertex 0.533054 -1 1.64057
      vertex 2.52818 -1 1.83683
    endloop
  endfacet
  facet normal 0 -1 2.22045e-16
    outer loop
      vertex 0.533054 -1 1.64057
      vertex 1.01393 -1 1.39555
      vertex 2.52818 -1 1.83683
    endloop
  endfacet
  facet normal 0 -1 2.22045e-16
    outer loop
      vertex 2.52818 -1 1.83683
      vertex 1.39555 -1 1.01393
      vertex 2.97205 -1 0.965678
    endloop
  endfacet
  facet normal 0 -1 2.22045e-16
    outer loop
      vertex -1.64057 -1 0.533054
      vertex -1.39555 -1 1.01393
      vertex -3.125 -1 2.22045e-16
    endloop
  endfacet
  facet normal 0 -1 2.22045e-16
    outer loop
      vertex 2.97205 -1 0.965678
      vertex 1.64057 -1 0.533054
      vertex 3.125 -1 2.22045e-16
    endloop
  endfacet
  facet normal 0 -1 2.22045e-16
    outer loop
      vertex 1.64057 -1 0.533054
      vertex 1.725 -1 2.22045e-16
      vertex 3.125 -1 2.22045e-16
    endloop
  endfacet
  facet normal 0 -1 2.22045e-16
    outer loop
      vertex 1.725 -1 2.22045e-16
      vertex 1.64057 -1 -0.533054
      vertex 2.97205 -1 -0.965678
    endloop
  endfacet
  facet normal 0 -1 2.22045e-16
    outer loop
      vertex 2.97205 -1 -0.965678
      vertex 1.39555 -1 -1.01393
      vertex 2.52818 -1 -1.83683
    endloop
  endfacet
  facet normal 0 -1 2.22045e-16
    outer loop
      vertex -1.39555 -1 -1.01393
      vertex -1.64057 -1 -0.533054
      vertex -3.125 -1 2.22045e-16
    endloop
  endfacet
  facet normal 0 -1 2.22045e-16
    outer loop
      vertex 2.52818 -1 -1.83683
      vertex 1.01393 -1 -1.39555
      vertex 1.83683 -1 -2.52818
    endloop
  endfacet
  facet normal 0 -1 2.22045e-16
    outer loop
      vertex -1.725 -1 2.22045e-16
      vertex -1.64057 -1 0.533054
      vertex -3.125 -1 2.22045e-16
    endloop
  endfacet
  facet normal 0 -1 2.22045e-16
    outer loop
      vertex 1.01393 -1 -1.39555
      vertex 0.533054 -1 -1.64057
      vertex 1.83683 -1 -2.52818
    endloop
  endfacet
  facet normal 0 -1 2.22045e-16
    outer loop
      vertex 1.83683 -1 -2.52818
      vertex 0 -1 -1.725
      vertex 0.965678 -1 -2.97205
    endloop
  endfacet
  facet normal 0 -1 2.22045e-16
    outer loop
      vertex 0 -1 -1.725
      vertex -0.533054 -1 -1.64057
      vertex 0.965678 -1 -2.97205
    endloop
  endfacet
  facet normal 0 -1 2.22045e-16
    outer loop
      vertex -0.533054 -1 -1.64057
      vertex -1.01393 -1 -1.39555
      vertex 0.965678 -1 -2.97205
    endloop
  endfacet
  facet normal 0 -1 2.22045e-16
    outer loop
      vertex 0.533054 -1 -1.64057
      vertex 0 -1 -1.725
      vertex 1.83683 -1 -2.52818
    endloop
  endfacet
  facet normal 0 -1 2.22045e-16
    outer loop
      vertex -1.64057 -1 -0.533054
      vertex -1.725 -1 2.22045e-16
      vertex -3.125 -1 2.22045e-16
    endloop
  endfacet
  facet normal -0.987688 -1.56437e-08 -0.156437
    outer loop
      vertex -5 0 0
      vertex -4.75528 100 -1.54509
      vertex -4.75528 -3.43077e-16 -1.54508
    endloop
  endfacet
  facet normal -0.987688 -3.47357e-17 -0.156436
    outer loop
      vertex -5 100 -2.22045e-14
      vertex -4.75528 100 -1.54509
      vertex -5 0 0
    endloop
  endfacet
  facet normal -0.987688 3.47359e-17 0.156437
    outer loop
      vertex -5 0 0
      vertex -4.75528 3.43077e-16 1.54508
      vertex -5 100 -2.22045e-14
    endloop
  endfacet
  facet normal -0.987688 3.47359e-17 0.156437
    outer loop
      vertex -5 100 -2.22045e-14
      vertex -4.75528 3.43077e-16 1.54508
      vertex -4.75528 100 1.54508
    endloop
  endfacet
  facet normal -0.891007 1.00806e-16 0.453989
    outer loop
      vertex -4.75528 3.43077e-16 1.54508
      vertex -4.04508 6.52574e-16 2.93893
      vertex -4.75528 100 1.54508
    endloop
  endfacet
  facet normal -0.891007 1.00806e-16 0.453989
    outer loop
      vertex -4.75528 100 1.54508
      vertex -4.04508 6.52574e-16 2.93893
      vertex -4.04508 100 2.93893
    endloop
  endfacet
  facet normal -0.707107 1.57009e-16 0.707107
    outer loop
      vertex -4.04508 6.52574e-16 2.93893
      vertex -2.93893 8.98188e-16 4.04508
      vertex -4.04508 100 2.93893
    endloop
  endfacet
  facet normal -0.707107 1.57009e-16 0.707107
    outer loop
      vertex -4.04508 100 2.93893
      vertex -2.93893 8.98188e-16 4.04508
      vertex -2.93893 100 4.04508
    endloop
  endfacet
  facet normal -0.453989 1.97843e-16 0.891007
    outer loop
      vertex -2.93893 100 4.04508
      vertex -2.93893 8.98188e-16 4.04508
      vertex -1.54508 1.05588e-15 4.75528
    endloop
  endfacet
  facet normal -0.453989 1.97843e-16 0.891007
    outer loop
      vertex -1.54508 100 4.75528
      vertex -2.93893 100 4.04508
      vertex -1.54508 1.05588e-15 4.75528
    endloop
  endfacet
  facet normal -0.156437 2.19311e-16 0.987688
    outer loop
      vertex -1.54508 100 4.75528
      vertex -1.54508 1.05588e-15 4.75528
      vertex 0 1.11022e-15 5
    endloop
  endfacet
  facet normal -0.156437 2.19311e-16 0.987688
    outer loop
      vertex 0 100 5
      vertex -1.54508 100 4.75528
      vertex 0 1.11022e-15 5
    endloop
  endfacet
  facet normal 0.156437 2.19311e-16 0.987688
    outer loop
      vertex 0 100 5
      vertex 0 1.11022e-15 5
      vertex 1.54508 1.05588e-15 4.75528
    endloop
  endfacet
  facet normal 0.156437 2.19311e-16 0.987688
    outer loop
      vertex 1.54508 100 4.75528
      vertex 0 100 5
      vertex 1.54508 1.05588e-15 4.75528
    endloop
  endfacet
  facet normal 0.453989 1.97843e-16 0.891007
    outer loop
      vertex 1.54508 100 4.75528
      vertex 1.54508 1.05588e-15 4.75528
      vertex 2.93893 8.98188e-16 4.04508
    endloop
  endfacet
  facet normal 0.453989 1.97843e-16 0.891007
    outer loop
      vertex 2.93893 100 4.04508
      vertex 1.54508 100 4.75528
      vertex 2.93893 8.98188e-16 4.04508
    endloop
  endfacet
  facet normal 0.707107 1.57009e-16 0.707107
    outer loop
      vertex 2.93893 100 4.04508
      vertex 2.93893 8.98188e-16 4.04508
      vertex 4.04508 6.52574e-16 2.93893
    endloop
  endfacet
  facet normal 0.707107 1.57009e-16 0.707107
    outer loop
      vertex 4.04508 100 2.93893
      vertex 2.93893 100 4.04508
      vertex 4.04508 6.52574e-16 2.93893
    endloop
  endfacet
  facet normal 0.891007 1.00806e-16 0.453989
    outer loop
      vertex 4.04508 100 2.93893
      vertex 4.04508 6.52574e-16 2.93893
      vertex 4.75528 3.43077e-16 1.54508
    endloop
  endfacet
  facet normal 0.891007 1.00806e-16 0.453989
    outer loop
      vertex 4.75528 100 1.54508
      vertex 4.04508 100 2.93893
      vertex 4.75528 3.43077e-16 1.54508
    endloop
  endfacet
  facet normal 0.987688 3.47359e-17 0.156437
    outer loop
      vertex 4.75528 100 1.54508
      vertex 4.75528 3.43077e-16 1.54508
      vertex 5 0 0
    endloop
  endfacet
  facet normal 0.987688 3.47359e-17 0.156437
    outer loop
      vertex 5 100 -2.22045e-14
      vertex 4.75528 100 1.54508
      vertex 5 0 0
    endloop
  endfacet
  facet normal 0.987688 -3.47359e-17 -0.156437
    outer loop
      vertex 4.75528 -3.43077e-16 -1.54508
      vertex 5 100 -2.22045e-14
      vertex 5 0 0
    endloop
  endfacet
  facet normal 0.891007 -4.53989e-08 -0.453989
    outer loop
      vertex 4.04508 -6.52574e-16 -2.93893
      vertex 4.75528 100 -1.54509
      vertex 4.75528 -3.43077e-16 -1.54508
    endloop
  endfacet
  facet normal 0.987688 -1.56436e-08 -0.156436
    outer loop
      vertex 4.75528 100 -1.54509
      vertex 5 100 -2.22045e-14
      vertex 4.75528 -3.43077e-16 -1.54508
    endloop
  endfacet
  facet normal 0.707107 -1.57009e-16 -0.707107
    outer loop
      vertex 2.93893 -8.98188e-16 -4.04508
      vertex 4.04508 100 -2.93893
      vertex 4.04508 -6.52574e-16 -2.93893
    endloop
  endfacet
  facet normal 0.891006 -1.00806e-16 -0.453992
    outer loop
      vertex 4.04508 100 -2.93893
      vertex 4.75528 100 -1.54509
      vertex 4.04508 -6.52574e-16 -2.93893
    endloop
  endfacet
  facet normal 0.453989 -8.91007e-08 -0.891007
    outer loop
      vertex 1.54508 -1.05588e-15 -4.75528
      vertex 2.93893 100 -4.04509
      vertex 2.93893 -8.98188e-16 -4.04508
    endloop
  endfacet
  facet normal 0.70711 -7.07104e-08 -0.707104
    outer loop
      vertex 2.93893 100 -4.04509
      vertex 4.04508 100 -2.93893
      vertex 2.93893 -8.98188e-16 -4.04508
    endloop
  endfacet
  facet normal 0.156437 -2.19311e-16 -0.987688
    outer loop
      vertex 1.54508 100 -4.75528
      vertex 1.54508 -1.05588e-15 -4.75528
      vertex 0 100 -5
    endloop
  endfacet
  facet normal 0.156437 -2.19311e-16 -0.987688
    outer loop
      vertex 0 100 -5
      vertex 1.54508 -1.05588e-15 -4.75528
      vertex 0 -1.11022e-15 -5
    endloop
  endfacet
  facet normal 0.453984 -1.97844e-16 -0.89101
    outer loop
      vertex 1.54508 100 -4.75528
      vertex 2.93893 100 -4.04509
      vertex 1.54508 -1.05588e-15 -4.75528
    endloop
  endfacet
  facet normal -0.156437 -2.19311e-16 -0.987688
    outer loop
      vertex 0 100 -5
      vertex 0 -1.11022e-15 -5
      vertex -1.54508 100 -4.75528
    endloop
  endfacet
  facet normal -0.156437 -2.19311e-16 -0.987688
    outer loop
      vertex -1.54508 100 -4.75528
      vertex 0 -1.11022e-15 -5
      vertex -1.54508 -1.05588e-15 -4.75528
    endloop
  endfacet
  facet normal -0.453989 -1.97843e-16 -0.891007
    outer loop
      vertex -2.93893 -8.98188e-16 -4.04508
      vertex -1.54508 100 -4.75528
      vertex -1.54508 -1.05588e-15 -4.75528
    endloop
  endfacet
  facet normal -0.707107 -7.07107e-08 -0.707107
    outer loop
      vertex -4.04508 -6.52574e-16 -2.93893
      vertex -2.93893 100 -4.04509
      vertex -2.93893 -8.98188e-16 -4.04508
    endloop
  endfacet
  facet normal -0.453984 -8.9101e-08 -0.89101
    outer loop
      vertex -2.93893 100 -4.04509
      vertex -1.54508 100 -4.75528
      vertex -2.93893 -8.98188e-16 -4.04508
    endloop
  endfacet
  facet normal -0.70711 -1.57009e-16 -0.707104
    outer loop
      vertex -4.04508 100 -2.93893
      vertex -2.93893 100 -4.04509
      vertex -4.04508 -6.52574e-16 -2.93893
    endloop
  endfacet
  facet normal -0.891007 -1.00806e-16 -0.453989
    outer loop
      vertex -4.75528 -3.43077e-16 -1.54508
      vertex -4.04508 100 -2.93893
      vertex -4.04508 -6.52574e-16 -2.93893
    endloop
  endfacet
  facet normal -0.891006 -4.53992e-08 -0.453992
    outer loop
      vertex -4.75528 100 -1.54509
      vertex -4.04508 100 -2.93893
      vertex -4.75528 -3.43077e-16 -1.54508
    endloop
  endfacet
  facet normal 0.987688 3.47364e-17 0.156439
    outer loop
      vertex -1.725 0 0
      vertex -1.725 -1 2.22045e-16
      vertex -1.64057 -1 -0.533054
    endloop
  endfacet
  facet normal 0.987688 3.47364e-17 0.156439
    outer loop
      vertex -1.64057 -1.18362e-16 -0.533054
      vertex -1.725 0 0
      vertex -1.64057 -1 -0.533054
    endloop
  endfacet
  facet normal 0.987688 -3.47364e-17 -0.156439
    outer loop
      vertex -1.725 0 0
      vertex -1.64057 1.18362e-16 0.533054
      vertex -1.64057 -1 0.533054
    endloop
  endfacet
  facet normal 0.987688 -3.47364e-17 -0.156439
    outer loop
      vertex -1.725 -1 2.22045e-16
      vertex -1.725 0 0
      vertex -1.64057 -1 0.533054
    endloop
  endfacet
  facet normal 0.891005 1.00807e-16 0.453993
    outer loop
      vertex -1.64057 -1.18362e-16 -0.533054
      vertex -1.64057 -1 -0.533054
      vertex -1.39555 -1 -1.01393
    endloop
  endfacet
  facet normal 0.891005 1.00807e-16 0.453993
    outer loop
      vertex -1.39555 -2.25138e-16 -1.01393
      vertex -1.64057 -1.18362e-16 -0.533054
      vertex -1.39555 -1 -1.01393
    endloop
  endfacet
  facet normal 0.707107 1.57009e-16 0.707107
    outer loop
      vertex -1.39555 -2.25138e-16 -1.01393
      vertex -1.39555 -1 -1.01393
      vertex -1.01393 -1 -1.39555
    endloop
  endfacet
  facet normal 0.707107 1.57009e-16 0.707107
    outer loop
      vertex -1.01393 -3.09874e-16 -1.39555
      vertex -1.39555 -2.25138e-16 -1.01393
      vertex -1.01393 -1 -1.39555
    endloop
  endfacet
  facet normal 0.453993 1.97843e-16 0.891005
    outer loop
      vertex -1.01393 -3.09874e-16 -1.39555
      vertex -1.01393 -1 -1.39555
      vertex -0.533054 -1 -1.64057
    endloop
  endfacet
  facet normal 0.453993 1.97843e-16 0.891005
    outer loop
      vertex -0.533054 -3.6428e-16 -1.64057
      vertex -1.01393 -3.09874e-16 -1.39555
      vertex -0.533054 -1 -1.64057
    endloop
  endfacet
  facet normal 0.156439 2.19311e-16 0.987688
    outer loop
      vertex -0.533054 -3.6428e-16 -1.64057
      vertex -0.533054 -1 -1.64057
      vertex 0 -1 -1.725
    endloop
  endfacet
  facet normal 0.156439 2.19311e-16 0.987688
    outer loop
      vertex 0 -3.83027e-16 -1.725
      vertex -0.533054 -3.6428e-16 -1.64057
      vertex 0 -1 -1.725
    endloop
  endfacet
  facet normal -0.156439 2.19311e-16 0.987688
    outer loop
      vertex 0 -3.83027e-16 -1.725
      vertex 0 -1 -1.725
      vertex 0.533054 -1 -1.64057
    endloop
  endfacet
  facet normal -0.156439 2.19311e-16 0.987688
    outer loop
      vertex 0.533054 -3.6428e-16 -1.64057
      vertex 0 -3.83027e-16 -1.725
      vertex 0.533054 -1 -1.64057
    endloop
  endfacet
  facet normal -0.453993 1.97843e-16 0.891005
    outer loop
      vertex 0.533054 -3.6428e-16 -1.64057
      vertex 0.533054 -1 -1.64057
      vertex 1.01393 -1 -1.39555
    endloop
  endfacet
  facet normal -0.453993 1.97843e-16 0.891005
    outer loop
      vertex 1.01393 -3.09874e-16 -1.39555
      vertex 0.533054 -3.6428e-16 -1.64057
      vertex 1.01393 -1 -1.39555
    endloop
  endfacet
  facet normal -0.707107 1.57009e-16 0.707107
    outer loop
      vertex 1.01393 -1 -1.39555
      vertex 1.39555 -1 -1.01393
      vertex 1.01393 -3.09874e-16 -1.39555
    endloop
  endfacet
  facet normal -0.707107 1.57009e-16 0.707107
    outer loop
      vertex 1.01393 -3.09874e-16 -1.39555
      vertex 1.39555 -1 -1.01393
      vertex 1.39555 -2.25138e-16 -1.01393
    endloop
  endfacet
  facet normal -0.891005 1.00807e-16 0.453993
    outer loop
      vertex 1.39555 -1 -1.01393
      vertex 1.64057 -1 -0.533054
      vertex 1.39555 -2.25138e-16 -1.01393
    endloop
  endfacet
  facet normal -0.891005 1.00807e-16 0.453993
    outer loop
      vertex 1.39555 -2.25138e-16 -1.01393
      vertex 1.64057 -1 -0.533054
      vertex 1.64057 -1.18362e-16 -0.533054
    endloop
  endfacet
  facet normal -0.987688 3.47364e-17 0.156439
    outer loop
      vertex 1.64057 -1 -0.533054
      vertex 1.725 -1 2.22045e-16
      vertex 1.64057 -1.18362e-16 -0.533054
    endloop
  endfacet
  facet normal -0.987688 3.47364e-17 0.156439
    outer loop
      vertex 1.64057 -1.18362e-16 -0.533054
      vertex 1.725 -1 2.22045e-16
      vertex 1.725 0 0
    endloop
  endfacet
  facet normal -0.987688 -3.47364e-17 -0.156439
    outer loop
      vertex 1.725 0 0
      vertex 1.725 -1 2.22045e-16
      vertex 1.64057 1.18362e-16 0.533054
    endloop
  endfacet
  facet normal -0.987688 -3.47364e-17 -0.156439
    outer loop
      vertex 1.64057 1.18362e-16 0.533054
      vertex 1.725 -1 2.22045e-16
      vertex 1.64057 -1 0.533054
    endloop
  endfacet
  facet normal -0.891005 -1.00807e-16 -0.453993
    outer loop
      vertex 1.64057 1.18362e-16 0.533054
      vertex 1.64057 -1 0.533054
      vertex 1.39555 2.25138e-16 1.01393
    endloop
  endfacet
  facet normal -0.891005 -1.00807e-16 -0.453993
    outer loop
      vertex 1.39555 2.25138e-16 1.01393
      vertex 1.64057 -1 0.533054
      vertex 1.39555 -1 1.01393
    endloop
  endfacet
  facet normal -0.707107 -1.57009e-16 -0.707107
    outer loop
      vertex 1.39555 2.25138e-16 1.01393
      vertex 1.39555 -1 1.01393
      vertex 1.01393 3.09874e-16 1.39555
    endloop
  endfacet
  facet normal -0.707107 -1.57009e-16 -0.707107
    outer loop
      vertex 1.01393 3.09874e-16 1.39555
      vertex 1.39555 -1 1.01393
      vertex 1.01393 -1 1.39555
    endloop
  endfacet
  facet normal -0.453993 -1.97843e-16 -0.891005
    outer loop
      vertex 1.01393 3.09874e-16 1.39555
      vertex 1.01393 -1 1.39555
      vertex 0.533054 3.6428e-16 1.64057
    endloop
  endfacet
  facet normal -0.453993 -1.97843e-16 -0.891005
    outer loop
      vertex 0.533054 3.6428e-16 1.64057
      vertex 1.01393 -1 1.39555
      vertex 0.533054 -1 1.64057
    endloop
  endfacet
  facet normal -0.156439 -2.19311e-16 -0.987688
    outer loop
      vertex 0.533054 3.6428e-16 1.64057
      vertex 0.533054 -1 1.64057
      vertex 0 3.83027e-16 1.725
    endloop
  endfacet
  facet normal -0.156439 -2.19311e-16 -0.987688
    outer loop
      vertex 0 3.83027e-16 1.725
      vertex 0.533054 -1 1.64057
      vertex 0 -1 1.725
    endloop
  endfacet
  facet normal 0.156439 -2.19311e-16 -0.987688
    outer loop
      vertex 0 3.83027e-16 1.725
      vertex 0 -1 1.725
      vertex -0.533054 3.6428e-16 1.64057
    endloop
  endfacet
  facet normal 0.156439 -2.19311e-16 -0.987688
    outer loop
      vertex -0.533054 3.6428e-16 1.64057
      vertex 0 -1 1.725
      vertex -0.533054 -1 1.64057
    endloop
  endfacet
  facet normal 0.453993 -1.97843e-16 -0.891005
    outer loop
      vertex -0.533054 3.6428e-16 1.64057
      vertex -0.533054 -1 1.64057
      vertex -1.01393 3.09874e-16 1.39555
    endloop
  endfacet
  facet normal 0.453993 -1.97843e-16 -0.891005
    outer loop
      vertex -1.01393 3.09874e-16 1.39555
      vertex -0.533054 -1 1.64057
      vertex -1.01393 -1 1.39555
    endloop
  endfacet
  facet normal 0.707107 -1.57009e-16 -0.707107
    outer loop
      vertex -1.39555 2.25138e-16 1.01393
      vertex -1.01393 3.09874e-16 1.39555
      vertex -1.01393 -1 1.39555
    endloop
  endfacet
  facet normal 0.707107 -1.57009e-16 -0.707107
    outer loop
      vertex -1.39555 -1 1.01393
      vertex -1.39555 2.25138e-16 1.01393
      vertex -1.01393 -1 1.39555
    endloop
  endfacet
  facet normal 0.891005 -1.00807e-16 -0.453993
    outer loop
      vertex -1.64057 1.18362e-16 0.533054
      vertex -1.39555 2.25138e-16 1.01393
      vertex -1.39555 -1 1.01393
    endloop
  endfacet
  facet normal 0.891005 -1.00807e-16 -0.453993
    outer loop
      vertex -1.64057 -1 0.533054
      vertex -1.64057 1.18362e-16 0.533054
      vertex -1.39555 -1 1.01393
    endloop
  endfacet
  facet normal 0 1 -2.22045e-16
    outer loop
      vertex -4.75528 100 1.54508
      vertex -4.04508 100 2.93893
      vertex -5 100 -2.22045e-14
    endloop
  endfacet
  facet normal 0 1 -2.22045e-16
    outer loop
      vertex -5 100 -2.22045e-14
      vertex -4.04508 100 2.93893
      vertex -2.93893 100 4.04508
    endloop
  endfacet
  facet normal 0 1 -2.22045e-16
    outer loop
      vertex -5 100 -2.22045e-14
      vertex -2.93893 100 4.04508
      vertex -1.54508 100 4.75528
    endloop
  endfacet
  facet normal 0 1 -2.22045e-16
    outer loop
      vertex -5 100 -2.22045e-14
      vertex -1.54508 100 4.75528
      vertex 0 100 5
    endloop
  endfacet
  facet normal 0 1 -2.22045e-16
    outer loop
      vertex -5 100 -2.22045e-14
      vertex 0 100 5
      vertex 1.54508 100 4.75528
    endloop
  endfacet
  facet normal 0 1 -2.22045e-16
    outer loop
      vertex -5 100 -2.22045e-14
      vertex 1.54508 100 4.75528
      vertex 2.93893 100 4.04508
    endloop
  endfacet
  facet normal 0 1 -2.22045e-16
    outer loop
      vertex -5 100 -2.22045e-14
      vertex 2.93893 100 4.04508
      vertex 4.04508 100 2.93893
    endloop
  endfacet
  facet normal 0 1 -2.22045e-16
    outer loop
      vertex -5 100 -2.22045e-14
      vertex 4.04508 100 2.93893
      vertex 4.75528 100 1.54508
    endloop
  endfacet
  facet normal 0 1 -2.22045e-16
    outer loop
      vertex -5 100 -2.22045e-14
      vertex 4.75528 100 1.54508
      vertex 5 100 -2.22045e-14
    endloop
  endfacet
  facet normal 0 1 -2.22045e-16
    outer loop
      vertex -5 100 -2.22045e-14
      vertex 5 100 -2.22045e-14
      vertex 4.75528 100 -1.54509
    endloop
  endfacet
  facet normal 0 1 -2.22045e-16
    outer loop
      vertex -5 100 -2.22045e-14
      vertex 4.75528 100 -1.54509
      vertex 4.04508 100 -2.93893
    endloop
  endfacet
  facet normal 0 1 -2.22045e-16
    outer loop
      vertex -5 100 -2.22045e-14
      vertex 4.04508 100 -2.93893
      vertex 2.93893 100 -4.04509
    endloop
  endfacet
  facet normal 0 1 -2.22045e-16
    outer loop
      vertex -5 100 -2.22045e-14
      vertex 2.93893 100 -4.04509
      vertex 1.54508 100 -4.75528
    endloop
  endfacet
  facet normal 0 1 -2.22045e-16
    outer loop
      vertex -5 100 -2.22045e-14
      vertex 1.54508 100 -4.75528
      vertex 0 100 -5
    endloop
  endfacet
  facet normal 0 1 -2.22045e-16
    outer loop
      vertex -5 100 -2.22045e-14
      vertex 0 100 -5
      vertex -1.54508 100 -4.75528
    endloop
  endfacet
  facet normal 0 1 -2.22045e-16
    outer loop
      vertex -5 100 -2.22045e-14
      vertex -1.54508 100 -4.75528
      vertex -2.93893 100 -4.04509
    endloop
  endfacet
  facet normal 0 1 -2.22045e-16
    outer loop
      vertex -5 100 -2.22045e-14
      vertex -2.93893 100 -4.04509
      vertex -4.04508 100 -2.93893
    endloop
  endfacet
  facet normal 0 1 -2.22045e-16
    outer loop
      vertex -5 100 -2.22045e-14
      vertex -4.04508 100 -2.93893
      vertex -4.75528 100 -1.54509
    endloop
  endfacet
  facet normal 0 1 -2.22045e-16
    outer loop
      vertex -2.6154 1.88693e-16 0.849797
      vertex -2.2248 3.58915e-16 1.61641
      vertex -2.75 0 0
    endloop
  endfacet
  facet normal 0 1 -2.22045e-16
    outer loop
      vertex -2.75 0 0
      vertex -2.2248 3.58915e-16 1.61641
      vertex -1.61641 4.94005e-16 2.2248
    endloop
  endfacet
  facet normal 0 1 -2.22045e-16
    outer loop
      vertex -2.75 0 0
      vertex -1.61641 4.94005e-16 2.2248
      vertex -0.849797 5.80735e-16 2.6154
    endloop
  endfacet
  facet normal 0 1 -2.22045e-16
    outer loop
      vertex -2.75 0 0
      vertex -0.849797 5.80735e-16 2.6154
      vertex 0 6.10623e-16 2.75
    endloop
  endfacet
  facet normal 0 1 -2.22045e-16
    outer loop
      vertex -0.533054 3.6428e-16 1.64057
      vertex 0 6.10623e-16 2.75
      vertex 0.849797 5.80735e-16 2.6154
    endloop
  endfacet
  facet normal 0 1 -2.22045e-16
    outer loop
      vertex 0 3.83027e-16 1.725
      vertex 0.849797 5.80735e-16 2.6154
      vertex 1.61641 4.94005e-16 2.2248
    endloop
  endfacet
  facet normal 0 1 -2.22045e-16
    outer loop
      vertex 1.01393 3.09874e-16 1.39555
      vertex 1.61641 4.94005e-16 2.2248
      vertex 2.2248 3.58915e-16 1.61641
    endloop
  endfacet
  facet normal 0 1 -2.22045e-16
    outer loop
      vertex 1.39555 2.25138e-16 1.01393
      vertex 2.2248 3.58915e-16 1.61641
      vertex 2.6154 1.88693e-16 0.849797
    endloop
  endfacet
  facet normal 0 1 -2.22045e-16
    outer loop
      vertex -1.64057 -1.18362e-16 -0.533054
      vertex -2.75 0 0
      vertex -1.725 0 0
    endloop
  endfacet
  facet normal 0 1 -2.22045e-16
    outer loop
      vertex 1.64057 -1.18362e-16 -0.533054
      vertex 2.75 0 0
      vertex 2.6154 -1.88693e-16 -0.849797
    endloop
  endfacet
  facet normal 0 1 -2.22045e-16
    outer loop
      vertex 1.39555 -2.25138e-16 -1.01393
      vertex 2.6154 -1.88693e-16 -0.849797
      vertex 2.2248 -3.58915e-16 -1.61641
    endloop
  endfacet
  facet normal 0 1 -2.22045e-16
    outer loop
      vertex 0.533054 -3.6428e-16 -1.64057
      vertex 2.2248 -3.58915e-16 -1.61641
      vertex 1.61641 -4.94005e-16 -2.2248
    endloop
  endfacet
  facet normal 0 1 -2.22045e-16
    outer loop
      vertex 0 -3.83027e-16 -1.725
      vertex 1.61641 -4.94005e-16 -2.2248
      vertex 0.849797 -5.80735e-16 -2.6154
    endloop
  endfacet
  facet normal 0 1 -2.22045e-16
    outer loop
      vertex -1.01393 -3.09874e-16 -1.39555
      vertex 0.849797 -5.80735e-16 -2.6154
      vertex 0 -6.10623e-16 -2.75
    endloop
  endfacet
  facet normal 0 1 -2.22045e-16
    outer loop
      vertex -2.75 0 0
      vertex 0 -6.10623e-16 -2.75
      vertex -0.849797 -5.80735e-16 -2.6154
    endloop
  endfacet
  facet normal 0 1 -2.22045e-16
    outer loop
      vertex -2.75 0 0
      vertex -0.849797 -5.80735e-16 -2.6154
      vertex -1.61641 -4.94005e-16 -2.2248
    endloop
  endfacet
  facet normal 0 1 -2.22045e-16
    outer loop
      vertex -2.75 0 0
      vertex -1.61641 -4.94005e-16 -2.2248
      vertex -2.2248 -3.58915e-16 -1.61641
    endloop
  endfacet
  facet normal 0 1 -2.22045e-16
    outer loop
      vertex -2.75 0 0
      vertex -2.2248 -3.58915e-16 -1.61641
      vertex -2.6154 -1.88693e-16 -0.849797
    endloop
  endfacet
  facet normal 0 1 -2.22045e-16
    outer loop
      vertex -1.39555 -2.25138e-16 -1.01393
      vertex -2.75 0 0
      vertex -1.64057 -1.18362e-16 -0.533054
    endloop
  endfacet
  facet normal 0 1 -2.22045e-16
    outer loop
      vertex 0 -3.83027e-16 -1.725
      vertex 0.849797 -5.80735e-16 -2.6154
      vertex -0.533054 -3.6428e-16 -1.64057
    endloop
  endfacet
  facet normal 0 1 -2.22045e-16
    outer loop
      vertex -2.75 0 0
      vertex -1.39555 -2.25138e-16 -1.01393
      vertex 0 -6.10623e-16 -2.75
    endloop
  endfacet
  facet normal 0 1 -2.22045e-16
    outer loop
      vertex -0.533054 -3.6428e-16 -1.64057
      vertex 0.849797 -5.80735e-16 -2.6154
      vertex -1.01393 -3.09874e-16 -1.39555
    endloop
  endfacet
  facet normal 0 1 -2.22045e-16
    outer loop
      vertex -1.39555 -2.25138e-16 -1.01393
      vertex -1.01393 -3.09874e-16 -1.39555
      vertex 0 -6.10623e-16 -2.75
    endloop
  endfacet
  facet normal 0 1 -2.22045e-16
    outer loop
      vertex 1.01393 -3.09874e-16 -1.39555
      vertex 2.2248 -3.58915e-16 -1.61641
      vertex 0.533054 -3.6428e-16 -1.64057
    endloop
  endfacet
  facet normal 0 1 -2.22045e-16
    outer loop
      vertex 1.39555 -2.25138e-16 -1.01393
      vertex 2.2248 -3.58915e-16 -1.61641
      vertex 1.01393 -3.09874e-16 -1.39555
    endloop
  endfacet
  facet normal 0 1 -2.22045e-16
    outer loop
      vertex 0.533054 -3.6428e-16 -1.64057
      vertex 1.61641 -4.94005e-16 -2.2248
      vertex 0 -3.83027e-16 -1.725
    endloop
  endfacet
  facet normal 0 1 -2.22045e-16
    outer loop
      vertex 1.725 0 0
      vertex 2.75 0 0
      vertex 1.64057 -1.18362e-16 -0.533054
    endloop
  endfacet
  facet normal 0 1 -2.22045e-16
    outer loop
      vertex 1.39555 2.25138e-16 1.01393
      vertex 2.6154 1.88693e-16 0.849797
      vertex 1.64057 1.18362e-16 0.533054
    endloop
  endfacet
  facet normal 0 1 -2.22045e-16
    outer loop
      vertex 2.6154 1.88693e-16 0.849797
      vertex 2.75 0 0
      vertex 1.725 0 0
    endloop
  endfacet
  facet normal 0 1 -2.22045e-16
    outer loop
      vertex 2.6154 1.88693e-16 0.849797
      vertex 1.725 0 0
      vertex 1.64057 1.18362e-16 0.533054
    endloop
  endfacet
  facet normal 0 1 -2.22045e-16
    outer loop
      vertex 1.64057 -1.18362e-16 -0.533054
      vertex 2.6154 -1.88693e-16 -0.849797
      vertex 1.39555 -2.25138e-16 -1.01393
    endloop
  endfacet
  facet normal 0 1 -2.22045e-16
    outer loop
      vertex 0.533054 3.6428e-16 1.64057
      vertex 1.61641 4.94005e-16 2.2248
      vertex 1.01393 3.09874e-16 1.39555
    endloop
  endfacet
  facet normal 0 1 -2.22045e-16
    outer loop
      vertex -0.533054 3.6428e-16 1.64057
      vertex 0.849797 5.80735e-16 2.6154
      vertex 0 3.83027e-16 1.725
    endloop
  endfacet
  facet normal 0 1 -2.22045e-16
    outer loop
      vertex -1.01393 3.09874e-16 1.39555
      vertex 0 6.10623e-16 2.75
      vertex -0.533054 3.6428e-16 1.64057
    endloop
  endfacet
  facet normal 0 1 -2.22045e-16
    outer loop
      vertex -1.64057 1.18362e-16 0.533054
      vertex -2.75 0 0
      vertex -1.39555 2.25138e-16 1.01393
    endloop
  endfacet
  facet normal 0 1 -2.22045e-16
    outer loop
      vertex -2.75 0 0
      vertex 0 6.10623e-16 2.75
      vertex -1.01393 3.09874e-16 1.39555
    endloop
  endfacet
  facet normal 0 1 -2.22045e-16
    outer loop
      vertex -2.75 0 0
      vertex -1.01393 3.09874e-16 1.39555
      vertex -1.39555 2.25138e-16 1.01393
    endloop
  endfacet
  facet normal 0 1 -2.22045e-16
    outer loop
      vertex -1.725 0 0
      vertex -2.75 0 0
      vertex -1.64057 1.18362e-16 0.533054
    endloop
  endfacet
  facet normal 0 1 -2.22045e-16
    outer loop
      vertex 0 3.83027e-16 1.725
      vertex 1.61641 4.94005e-16 2.2248
      vertex 0.533054 3.6428e-16 1.64057
    endloop
  endfacet
  facet normal 0 1 -2.22045e-16
    outer loop
      vertex 1.01393 3.09874e-16 1.39555
      vertex 2.2248 3.58915e-16 1.61641
      vertex 1.39555 2.25138e-16 1.01393
    endloop
  endfacet
  facet normal 0.987687 3.47368e-17 0.156441
    outer loop
      vertex -2.75 6 -1.33227e-15
      vertex -2.75 0 0
      vertex -2.6154 -1.88693e-16 -0.849797
    endloop
  endfacet
  facet normal 0.987687 3.47368e-17 0.156441
    outer loop
      vertex -2.6154 6 -0.849797
      vertex -2.75 6 -1.33227e-15
      vertex -2.6154 -1.88693e-16 -0.849797
    endloop
  endfacet
  facet normal 0.987687 -3.47368e-17 -0.156441
    outer loop
      vertex -2.75 6 -1.33227e-15
      vertex -2.6154 6 0.849797
      vertex -2.6154 1.88693e-16 0.849797
    endloop
  endfacet
  facet normal 0.987687 -3.47368e-17 -0.156441
    outer loop
      vertex -2.75 0 0
      vertex -2.75 6 -1.33227e-15
      vertex -2.6154 1.88693e-16 0.849797
    endloop
  endfacet
  facet normal 0.891011 1.00804e-16 0.453982
    outer loop
      vertex -2.6154 6 -0.849797
      vertex -2.6154 -1.88693e-16 -0.849797
      vertex -2.2248 -3.58915e-16 -1.61641
    endloop
  endfacet
  facet normal 0.891011 1.00804e-16 0.453982
    outer loop
      vertex -2.2248 6 -1.61641
      vertex -2.6154 6 -0.849797
      vertex -2.2248 -3.58915e-16 -1.61641
    endloop
  endfacet
  facet normal 0.707107 1.57009e-16 0.707107
    outer loop
      vertex -2.2248 6 -1.61641
      vertex -2.2248 -3.58915e-16 -1.61641
      vertex -1.61641 -4.94005e-16 -2.2248
    endloop
  endfacet
  facet normal 0.707107 1.57009e-16 0.707107
    outer loop
      vertex -1.61641 6 -2.2248
      vertex -2.2248 6 -1.61641
      vertex -1.61641 -4.94005e-16 -2.2248
    endloop
  endfacet
  facet normal 0.453992 1.97843e-16 0.891006
    outer loop
      vertex -1.61641 6 -2.2248
      vertex -1.61641 -4.94005e-16 -2.2248
      vertex -0.849797 6 -2.61541
    endloop
  endfacet
  facet normal 0.453982 1.48502e-06 0.891011
    outer loop
      vertex -1.61641 -4.94005e-16 -2.2248
      vertex -0.849797 -5.80735e-16 -2.6154
      vertex -0.849797 6 -2.61541
    endloop
  endfacet
  facet normal 0.156429 1.64615e-06 0.987689
    outer loop
      vertex -0.849797 6 -2.61541
      vertex -0.849797 -5.80735e-16 -2.6154
      vertex 0 6 -2.75
    endloop
  endfacet
  facet normal 0.156441 2.19311e-16 0.987687
    outer loop
      vertex -0.849797 -5.80735e-16 -2.6154
      vertex 0 -6.10623e-16 -2.75
      vertex 0 6 -2.75
    endloop
  endfacet
  facet normal -0.156429 2.19311e-16 0.987689
    outer loop
      vertex 0 6 -2.75
      vertex 0 -6.10623e-16 -2.75
      vertex 0.849797 6 -2.61541
    endloop
  endfacet
  facet normal -0.156441 1.64615e-06 0.987687
    outer loop
      vertex 0 -6.10623e-16 -2.75
      vertex 0.849797 -5.80735e-16 -2.6154
      vertex 0.849797 6 -2.61541
    endloop
  endfacet
  facet normal -0.453992 1.48501e-06 0.891006
    outer loop
      vertex 0.849797 6 -2.61541
      vertex 0.849797 -5.80735e-16 -2.6154
      vertex 1.61641 6 -2.2248
    endloop
  endfacet
  facet normal -0.453982 1.97844e-16 0.891011
    outer loop
      vertex 0.849797 -5.80735e-16 -2.6154
      vertex 1.61641 -4.94005e-16 -2.2248
      vertex 1.61641 6 -2.2248
    endloop
  endfacet
  facet normal -0.707107 1.57009e-16 0.707107
    outer loop
      vertex 1.61641 -4.94005e-16 -2.2248
      vertex 2.2248 -3.58915e-16 -1.61641
      vertex 1.61641 6 -2.2248
    endloop
  endfacet
  facet normal -0.707107 1.57009e-16 0.707107
    outer loop
      vertex 1.61641 6 -2.2248
      vertex 2.2248 -3.58915e-16 -1.61641
      vertex 2.2248 6 -1.61641
    endloop
  endfacet
  facet normal -0.891011 1.00804e-16 0.453982
    outer loop
      vertex 2.2248 -3.58915e-16 -1.61641
      vertex 2.6154 -1.88693e-16 -0.849797
      vertex 2.2248 6 -1.61641
    endloop
  endfacet
  facet normal -0.891011 1.00804e-16 0.453982
    outer loop
      vertex 2.2248 6 -1.61641
      vertex 2.6154 -1.88693e-16 -0.849797
      vertex 2.6154 6 -0.849797
    endloop
  endfacet
  facet normal -0.987687 3.47368e-17 0.156441
    outer loop
      vertex 2.6154 -1.88693e-16 -0.849797
      vertex 2.75 0 0
      vertex 2.6154 6 -0.849797
    endloop
  endfacet
  facet normal -0.987687 3.47368e-17 0.156441
    outer loop
      vertex 2.6154 6 -0.849797
      vertex 2.75 0 0
      vertex 2.75 6 -1.33227e-15
    endloop
  endfacet
  facet normal -0.987687 -3.47368e-17 -0.156441
    outer loop
      vertex 2.75 6 -1.33227e-15
      vertex 2.75 0 0
      vertex 2.6154 6 0.849797
    endloop
  endfacet
  facet normal -0.987687 -3.47368e-17 -0.156441
    outer loop
      vertex 2.6154 6 0.849797
      vertex 2.75 0 0
      vertex 2.6154 1.88693e-16 0.849797
    endloop
  endfacet
  facet normal -0.891011 -1.00804e-16 -0.453982
    outer loop
      vertex 2.6154 6 0.849797
      vertex 2.6154 1.88693e-16 0.849797
      vertex 2.2248 6 1.61641
    endloop
  endfacet
  facet normal -0.891011 -1.00804e-16 -0.453982
    outer loop
      vertex 2.2248 6 1.61641
      vertex 2.6154 1.88693e-16 0.849797
      vertex 2.2248 3.58915e-16 1.61641
    endloop
  endfacet
  facet normal -0.707107 -1.57009e-16 -0.707107
    outer loop
      vertex 2.2248 6 1.61641
      vertex 2.2248 3.58915e-16 1.61641
      vertex 1.61641 6 2.2248
    endloop
  endfacet
  facet normal -0.707107 -1.57009e-16 -0.707107
    outer loop
      vertex 1.61641 6 2.2248
      vertex 2.2248 3.58915e-16 1.61641
      vertex 1.61641 4.94005e-16 2.2248
    endloop
  endfacet
  facet normal -0.453982 -1.97844e-16 -0.891011
    outer loop
      vertex 1.61641 6 2.2248
      vertex 1.61641 4.94005e-16 2.2248
      vertex 0.849797 6 2.6154
    endloop
  endfacet
  facet normal -0.453982 -1.97844e-16 -0.891011
    outer loop
      vertex 0.849797 6 2.6154
      vertex 1.61641 4.94005e-16 2.2248
      vertex 0.849797 5.80735e-16 2.6154
    endloop
  endfacet
  facet normal -0.156441 -2.19311e-16 -0.987687
    outer loop
      vertex 0.849797 6 2.6154
      vertex 0.849797 5.80735e-16 2.6154
      vertex 0 6 2.75
    endloop
  endfacet
  facet normal -0.156441 -2.19311e-16 -0.987687
    outer loop
      vertex 0 6 2.75
      vertex 0.849797 5.80735e-16 2.6154
      vertex 0 6.10623e-16 2.75
    endloop
  endfacet
  facet normal 0.156441 -2.19311e-16 -0.987687
    outer loop
      vertex 0 6 2.75
      vertex 0 6.10623e-16 2.75
      vertex -0.849797 6 2.6154
    endloop
  endfacet
  facet normal 0.156441 -2.19311e-16 -0.987687
    outer loop
      vertex -0.849797 6 2.6154
      vertex 0 6.10623e-16 2.75
      vertex -0.849797 5.80735e-16 2.6154
    endloop
  endfacet
  facet normal 0.453982 -1.97844e-16 -0.891011
    outer loop
      vertex -0.849797 6 2.6154
      vertex -0.849797 5.80735e-16 2.6154
      vertex -1.61641 6 2.2248
    endloop
  endfacet
  facet normal 0.453982 -1.97844e-16 -0.891011
    outer loop
      vertex -1.61641 6 2.2248
      vertex -0.849797 5.80735e-16 2.6154
      vertex -1.61641 4.94005e-16 2.2248
    endloop
  endfacet
  facet normal 0.707107 -1.57009e-16 -0.707107
    outer loop
      vertex -2.2248 6 1.61641
      vertex -1.61641 6 2.2248
      vertex -1.61641 4.94005e-16 2.2248
    endloop
  endfacet
  facet normal 0.707107 -1.57009e-16 -0.707107
    outer loop
      vertex -2.2248 3.58915e-16 1.61641
      vertex -2.2248 6 1.61641
      vertex -1.61641 4.94005e-16 2.2248
    endloop
  endfacet
  facet normal 0.891011 -1.00804e-16 -0.453982
    outer loop
      vertex -2.6154 6 0.849797
      vertex -2.2248 6 1.61641
      vertex -2.2248 3.58915e-16 1.61641
    endloop
  endfacet
  facet normal 0.891011 -1.00804e-16 -0.453982
    outer loop
      vertex -2.6154 1.88693e-16 0.849797
      vertex -2.6154 6 0.849797
      vertex -2.2248 3.58915e-16 1.61641
    endloop
  endfacet
  facet normal 0 -1 2.22045e-16
    outer loop
      vertex -2.75 6 -1.33227e-15
      vertex -2.6154 6 -0.849797
      vertex -2.2248 6 -1.61641
    endloop
  endfacet
  facet normal 0 -1 2.22045e-16
    outer loop
      vertex -0.849797 6 -2.61541
      vertex -2.75 6 -1.33227e-15
      vertex -1.61641 6 -2.2248
    endloop
  endfacet
  facet normal 0 -1 2.22045e-16
    outer loop
      vertex -1.61641 6 -2.2248
      vertex -2.75 6 -1.33227e-15
      vertex -2.2248 6 -1.61641
    endloop
  endfacet
  facet normal 0 -1 2.22045e-16
    outer loop
      vertex 0 6 -2.75
      vertex -2.75 6 -1.33227e-15
      vertex -0.849797 6 -2.61541
    endloop
  endfacet
  facet normal 0 -1 2.22045e-16
    outer loop
      vertex 0.849797 6 -2.61541
      vertex -2.75 6 -1.33227e-15
      vertex 0 6 -2.75
    endloop
  endfacet
  facet normal 0 -1 2.22045e-16
    outer loop
      vertex 1.61641 6 -2.2248
      vertex -2.75 6 -1.33227e-15
      vertex 0.849797 6 -2.61541
    endloop
  endfacet
  facet normal 0 -1 2.22045e-16
    outer loop
      vertex 2.2248 6 -1.61641
      vertex -2.75 6 -1.33227e-15
      vertex 1.61641 6 -2.2248
    endloop
  endfacet
  facet normal 0 -1 2.22045e-16
    outer loop
      vertex 2.6154 6 -0.849797
      vertex -2.75 6 -1.33227e-15
      vertex 2.2248 6 -1.61641
    endloop
  endfacet
  facet normal 0 -1 2.22045e-16
    outer loop
      vertex 2.75 6 -1.33227e-15
      vertex -2.75 6 -1.33227e-15
      vertex 2.6154 6 -0.849797
    endloop
  endfacet
  facet normal 0 -1 2.22045e-16
    outer loop
      vertex 2.6154 6 0.849797
      vertex -2.75 6 -1.33227e-15
      vertex 2.75 6 -1.33227e-15
    endloop
  endfacet
  facet normal 0 -1 2.22045e-16
    outer loop
      vertex 2.2248 6 1.61641
      vertex -2.75 6 -1.33227e-15
      vertex 2.6154 6 0.849797
    endloop
  endfacet
  facet normal 0 -1 2.22045e-16
    outer loop
      vertex 1.61641 6 2.2248
      vertex -2.75 6 -1.33227e-15
      vertex 2.2248 6 1.61641
    endloop
  endfacet
  facet normal 0 -1 2.22045e-16
    outer loop
      vertex 0.849797 6 2.6154
      vertex -2.75 6 -1.33227e-15
      vertex 1.61641 6 2.2248
    endloop
  endfacet
  facet normal 0 -1 2.22045e-16
    outer loop
      vertex 0 6 2.75
      vertex -2.75 6 -1.33227e-15
      vertex 0.849797 6 2.6154
    endloop
  endfacet
  facet normal 0 -1 2.22045e-16
    outer loop
      vertex -0.849797 6 2.6154
      vertex -2.75 6 -1.33227e-15
      vertex 0 6 2.75
    endloop
  endfacet
  facet normal 0 -1 2.22045e-16
    outer loop
      vertex -1.61641 6 2.2248
      vertex -2.75 6 -1.33227e-15
      vertex -0.849797 6 2.6154
    endloop
  endfacet
  facet normal 0 -1 2.22045e-16
    outer loop
      vertex -2.2248 6 1.61641
      vertex -2.75 6 -1.33227e-15
      vertex -1.61641 6 2.2248
    endloop
  endfacet
  facet normal 0 -1 2.22045e-16
    outer loop
      vertex -2.6154 6 0.849797
      vertex -2.75 6 -1.33227e-15
      vertex -2.2248 6 1.61641
    endloop
  endfacet
endsolid OpenSCAD_Model
