solid OpenSCAD_Model
  facet normal -0.891008 1.00805e-16 0.453987
    outer loop
      vertex -2.97205 -111 0.965678
      vertex -2.52818 -111 1.83683
      vertex -2.97205 -1 0.965678
    endloop
  endfacet
  facet normal -0.891008 1.00805e-16 0.453987
    outer loop
      vertex -2.97205 -1 0.965678
      vertex -2.52818 -111 1.83683
      vertex -2.52818 -1 1.83683
    endloop
  endfacet
  facet normal -0.987688 3.47358e-17 0.156436
    outer loop
      vertex -3.125 -111 2.4647e-14
      vertex -2.97205 -111 0.965678
      vertex -3.125 -1 2.22045e-16
    endloop
  endfacet
  facet normal -0.987688 3.47358e-17 0.156436
    outer loop
      vertex -3.125 -1 2.22045e-16
      vertex -2.97205 -111 0.965678
      vertex -2.97205 -1 0.965678
    endloop
  endfacet
  facet normal 0 1 -2.22045e-16
    outer loop
      vertex -2.97205 -1 0.965678
      vertex -2.52818 -1 1.83683
      vertex -3.125 -1 2.22045e-16
    endloop
  endfacet
  facet normal 0 1 -2.22045e-16
    outer loop
      vertex -3.125 -1 2.22045e-16
      vertex -2.52818 -1 1.83683
      vertex -1.83683 -1 2.52818
    endloop
  endfacet
  facet normal 0 1 -2.22045e-16
    outer loop
      vertex -3.125 -1 2.22045e-16
      vertex -1.83683 -1 2.52818
      vertex -0.965678 -1 2.97205
    endloop
  endfacet
  facet normal 0 1 -2.22045e-16
    outer loop
      vertex -3.125 -1 2.22045e-16
      vertex -0.965678 -1 2.97205
      vertex 0 -1 3.125
    endloop
  endfacet
  facet normal 0 1 -2.22045e-16
    outer loop
      vertex -3.125 -1 2.22045e-16
      vertex 0 -1 3.125
      vertex 0.965678 -1 2.97205
    endloop
  endfacet
  facet normal 0 1 -2.22045e-16
    outer loop
      vertex -3.125 -1 2.22045e-16
      vertex 0.965678 -1 2.97205
      vertex 1.83683 -1 2.52818
    endloop
  endfacet
  facet normal 0 1 -2.22045e-16
    outer loop
      vertex -3.125 -1 2.22045e-16
      vertex 1.83683 -1 2.52818
      vertex 2.52818 -1 1.83683
    endloop
  endfacet
  facet normal 0 1 -2.22045e-16
    outer loop
      vertex -3.125 -1 2.22045e-16
      vertex 2.52818 -1 1.83683
      vertex 2.97205 -1 0.965678
    endloop
  endfacet
  facet normal 0 1 -2.22045e-16
    outer loop
      vertex -3.125 -1 2.22045e-16
      vertex 2.97205 -1 0.965678
      vertex 3.125 -1 2.22045e-16
    endloop
  endfacet
  facet normal 0 1 -2.22045e-16
    outer loop
      vertex -3.125 -1 2.22045e-16
      vertex 3.125 -1 2.22045e-16
      vertex 2.97205 -1 -0.965678
    endloop
  endfacet
  facet normal 0 1 -2.22045e-16
    outer loop
      vertex -3.125 -1 2.22045e-16
      vertex 2.97205 -1 -0.965678
      vertex 2.52818 -1 -1.83683
    endloop
  endfacet
  facet normal 0 1 -2.22045e-16
    outer loop
      vertex -3.125 -1 2.22045e-16
      vertex 2.52818 -1 -1.83683
      vertex 1.83683 -1 -2.52818
    endloop
  endfacet
  facet normal 0 1 -2.22045e-16
    outer loop
      vertex -3.125 -1 2.22045e-16
      vertex 1.83683 -1 -2.52818
      vertex 0.965678 -1 -2.97205
    endloop
  endfacet
  facet normal 0 1 -2.22045e-16
    outer loop
      vertex -3.125 -1 2.22045e-16
      vertex 0.965678 -1 -2.97205
      vertex 0 -1 -3.125
    endloop
  endfacet
  facet normal 0 1 -2.22045e-16
    outer loop
      vertex -3.125 -1 2.22045e-16
      vertex 0 -1 -3.125
      vertex -0.965678 -1 -2.97205
    endloop
  endfacet
  facet normal 0 1 -2.22045e-16
    outer loop
      vertex -3.125 -1 2.22045e-16
      vertex -0.965678 -1 -2.97205
      vertex -1.83683 -1 -2.52818
    endloop
  endfacet
  facet normal 0 1 -2.22045e-16
    outer loop
      vertex -3.125 -1 2.22045e-16
      vertex -1.83683 -1 -2.52818
      vertex -2.52818 -1 -1.83683
    endloop
  endfacet
  facet normal 0 1 -2.22045e-16
    outer loop
      vertex -3.125 -1 2.22045e-16
      vertex -2.52818 -1 -1.83683
      vertex -2.97205 -1 -0.965678
    endloop
  endfacet
  facet normal -0.707107 1.57009e-16 0.707107
    outer loop
      vertex -2.52818 -111 1.83683
      vertex -1.83683 -111 2.52818
      vertex -2.52818 -1 1.83683
    endloop
  endfacet
  facet normal -0.707107 1.57009e-16 0.707107
    outer loop
      vertex -2.52818 -1 1.83683
      vertex -1.83683 -111 2.52818
      vertex -1.83683 -1 2.52818
    endloop
  endfacet
  facet normal 0 -1 2.22045e-16
    outer loop
      vertex -3.125 -111 2.4647e-14
      vertex -2.97205 -111 -0.965678
      vertex -2.52818 -111 -1.83683
    endloop
  endfacet
  facet normal 0 -1 2.22045e-16
    outer loop
      vertex -0.965678 -111 -2.97205
      vertex -3.125 -111 2.4647e-14
      vertex -1.83683 -111 -2.52818
    endloop
  endfacet
  facet normal 0 -1 2.22045e-16
    outer loop
      vertex -1.83683 -111 -2.52818
      vertex -3.125 -111 2.4647e-14
      vertex -2.52818 -111 -1.83683
    endloop
  endfacet
  facet normal 0 -1 2.22045e-16
    outer loop
      vertex 0 -111 -3.125
      vertex -3.125 -111 2.4647e-14
      vertex -0.965678 -111 -2.97205
    endloop
  endfacet
  facet normal 0 -1 2.22045e-16
    outer loop
      vertex 0.965678 -111 -2.97205
      vertex -3.125 -111 2.4647e-14
      vertex 0 -111 -3.125
    endloop
  endfacet
  facet normal 0 -1 2.22045e-16
    outer loop
      vertex 1.83683 -111 -2.52818
      vertex -3.125 -111 2.4647e-14
      vertex 0.965678 -111 -2.97205
    endloop
  endfacet
  facet normal 0 -1 2.22045e-16
    outer loop
      vertex 2.52818 -111 -1.83683
      vertex -3.125 -111 2.4647e-14
      vertex 1.83683 -111 -2.52818
    endloop
  endfacet
  facet normal 0 -1 2.22045e-16
    outer loop
      vertex 2.97205 -111 -0.965678
      vertex -3.125 -111 2.4647e-14
      vertex 2.52818 -111 -1.83683
    endloop
  endfacet
  facet normal 0 -1 2.22045e-16
    outer loop
      vertex 3.125 -111 2.4647e-14
      vertex -3.125 -111 2.4647e-14
      vertex 2.97205 -111 -0.965678
    endloop
  endfacet
  facet normal 0 -1 2.22045e-16
    outer loop
      vertex 2.97205 -111 0.965678
      vertex -3.125 -111 2.4647e-14
      vertex 3.125 -111 2.4647e-14
    endloop
  endfacet
  facet normal 0 -1 2.22045e-16
    outer loop
      vertex 2.52818 -111 1.83683
      vertex -3.125 -111 2.4647e-14
      vertex 2.97205 -111 0.965678
    endloop
  endfacet
  facet normal 0 -1 2.22045e-16
    outer loop
      vertex 1.83683 -111 2.52818
      vertex -3.125 -111 2.4647e-14
      vertex 2.52818 -111 1.83683
    endloop
  endfacet
  facet normal 0 -1 2.22045e-16
    outer loop
      vertex 0.965678 -111 2.97205
      vertex -3.125 -111 2.4647e-14
      vertex 1.83683 -111 2.52818
    endloop
  endfacet
  facet normal 0 -1 2.22045e-16
    outer loop
      vertex 0 -111 3.125
      vertex -3.125 -111 2.4647e-14
      vertex 0.965678 -111 2.97205
    endloop
  endfacet
  facet normal 0 -1 2.22045e-16
    outer loop
      vertex -0.965678 -111 2.97205
      vertex -3.125 -111 2.4647e-14
      vertex 0 -111 3.125
    endloop
  endfacet
  facet normal 0 -1 2.22045e-16
    outer loop
      vertex -1.83683 -111 2.52818
      vertex -3.125 -111 2.4647e-14
      vertex -0.965678 -111 2.97205
    endloop
  endfacet
  facet normal 0 -1 2.22045e-16
    outer loop
      vertex -2.52818 -111 1.83683
      vertex -3.125 -111 2.4647e-14
      vertex -1.83683 -111 2.52818
    endloop
  endfacet
  facet normal 0 -1 2.22045e-16
    outer loop
      vertex -2.97205 -111 0.965678
      vertex -3.125 -111 2.4647e-14
      vertex -2.52818 -111 1.83683
    endloop
  endfacet
  facet normal -0.987688 -3.47358e-17 -0.156436
    outer loop
      vertex -2.97205 -1 -0.965678
      vertex -2.97205 -111 -0.965678
      vertex -3.125 -1 2.22045e-16
    endloop
  endfacet
  facet normal -0.987688 -3.47358e-17 -0.156436
    outer loop
      vertex -3.125 -1 2.22045e-16
      vertex -2.97205 -111 -0.965678
      vertex -3.125 -111 2.4647e-14
    endloop
  endfacet
  facet normal -0.891008 -1.00805e-16 -0.453987
    outer loop
      vertex -2.52818 -1 -1.83683
      vertex -2.52818 -111 -1.83683
      vertex -2.97205 -1 -0.965678
    endloop
  endfacet
  facet normal -0.891008 -1.00805e-16 -0.453987
    outer loop
      vertex -2.97205 -1 -0.965678
      vertex -2.52818 -111 -1.83683
      vertex -2.97205 -111 -0.965678
    endloop
  endfacet
  facet normal -0.707107 -1.57009e-16 -0.707107
    outer loop
      vertex -1.83683 -1 -2.52818
      vertex -1.83683 -111 -2.52818
      vertex -2.52818 -1 -1.83683
    endloop
  endfacet
  facet normal -0.707107 -1.57009e-16 -0.707107
    outer loop
      vertex -2.52818 -1 -1.83683
      vertex -1.83683 -111 -2.52818
      vertex -2.52818 -111 -1.83683
    endloop
  endfacet
  facet normal -0.453987 -1.97844e-16 -0.891008
    outer loop
      vertex -0.965678 -1 -2.97205
      vertex -0.965678 -111 -2.97205
      vertex -1.83683 -1 -2.52818
    endloop
  endfacet
  facet normal -0.453987 -1.97844e-16 -0.891008
    outer loop
      vertex -1.83683 -1 -2.52818
      vertex -0.965678 -111 -2.97205
      vertex -1.83683 -111 -2.52818
    endloop
  endfacet
  facet normal -0.156436 -2.19311e-16 -0.987688
    outer loop
      vertex 0 -1 -3.125
      vertex 0 -111 -3.125
      vertex -0.965678 -1 -2.97205
    endloop
  endfacet
  facet normal -0.156436 -2.19311e-16 -0.987688
    outer loop
      vertex -0.965678 -1 -2.97205
      vertex 0 -111 -3.125
      vertex -0.965678 -111 -2.97205
    endloop
  endfacet
  facet normal 0.156436 -2.19311e-16 -0.987688
    outer loop
      vertex 0.965678 -1 -2.97205
      vertex 0.965678 -111 -2.97205
      vertex 0 -1 -3.125
    endloop
  endfacet
  facet normal 0.156436 -2.19311e-16 -0.987688
    outer loop
      vertex 0 -1 -3.125
      vertex 0.965678 -111 -2.97205
      vertex 0 -111 -3.125
    endloop
  endfacet
  facet normal 0.453987 -1.97844e-16 -0.891008
    outer loop
      vertex 1.83683 -1 -2.52818
      vertex 1.83683 -111 -2.52818
      vertex 0.965678 -1 -2.97205
    endloop
  endfacet
  facet normal 0.453987 -1.97844e-16 -0.891008
    outer loop
      vertex 0.965678 -1 -2.97205
      vertex 1.83683 -111 -2.52818
      vertex 0.965678 -111 -2.97205
    endloop
  endfacet
  facet normal 0.707107 -1.57009e-16 -0.707107
    outer loop
      vertex 1.83683 -1 -2.52818
      vertex 2.52818 -1 -1.83683
      vertex 2.52818 -111 -1.83683
    endloop
  endfacet
  facet normal 0.707107 -1.57009e-16 -0.707107
    outer loop
      vertex 1.83683 -111 -2.52818
      vertex 1.83683 -1 -2.52818
      vertex 2.52818 -111 -1.83683
    endloop
  endfacet
  facet normal 0.891008 -1.00805e-16 -0.453987
    outer loop
      vertex 2.52818 -1 -1.83683
      vertex 2.97205 -1 -0.965678
      vertex 2.97205 -111 -0.965678
    endloop
  endfacet
  facet normal 0.891008 -1.00805e-16 -0.453987
    outer loop
      vertex 2.52818 -111 -1.83683
      vertex 2.52818 -1 -1.83683
      vertex 2.97205 -111 -0.965678
    endloop
  endfacet
  facet normal 0.987688 -3.47358e-17 -0.156436
    outer loop
      vertex 2.97205 -1 -0.965678
      vertex 3.125 -1 2.22045e-16
      vertex 3.125 -111 2.4647e-14
    endloop
  endfacet
  facet normal 0.987688 -3.47358e-17 -0.156436
    outer loop
      vertex 2.97205 -111 -0.965678
      vertex 2.97205 -1 -0.965678
      vertex 3.125 -111 2.4647e-14
    endloop
  endfacet
  facet normal 0.987688 3.47358e-17 0.156436
    outer loop
      vertex 2.97205 -1 0.965678
      vertex 2.97205 -111 0.965678
      vertex 3.125 -111 2.4647e-14
    endloop
  endfacet
  facet normal 0.987688 3.47358e-17 0.156436
    outer loop
      vertex 3.125 -1 2.22045e-16
      vertex 2.97205 -1 0.965678
      vertex 3.125 -111 2.4647e-14
    endloop
  endfacet
  facet normal 0.891008 1.00805e-16 0.453987
    outer loop
      vertex 2.52818 -1 1.83683
      vertex 2.52818 -111 1.83683
      vertex 2.97205 -111 0.965678
    endloop
  endfacet
  facet normal 0.891008 1.00805e-16 0.453987
    outer loop
      vertex 2.97205 -1 0.965678
      vertex 2.52818 -1 1.83683
      vertex 2.97205 -111 0.965678
    endloop
  endfacet
  facet normal 0.707107 1.57009e-16 0.707107
    outer loop
      vertex 1.83683 -1 2.52818
      vertex 1.83683 -111 2.52818
      vertex 2.52818 -111 1.83683
    endloop
  endfacet
  facet normal 0.707107 1.57009e-16 0.707107
    outer loop
      vertex 2.52818 -1 1.83683
      vertex 1.83683 -1 2.52818
      vertex 2.52818 -111 1.83683
    endloop
  endfacet
  facet normal 0.453987 1.97844e-16 0.891008
    outer loop
      vertex 0.965678 -1 2.97205
      vertex 0.965678 -111 2.97205
      vertex 1.83683 -111 2.52818
    endloop
  endfacet
  facet normal 0.453987 1.97844e-16 0.891008
    outer loop
      vertex 1.83683 -1 2.52818
      vertex 0.965678 -1 2.97205
      vertex 1.83683 -111 2.52818
    endloop
  endfacet
  facet normal 0.156436 2.19311e-16 0.987688
    outer loop
      vertex 0 -1 3.125
      vertex 0 -111 3.125
      vertex 0.965678 -111 2.97205
    endloop
  endfacet
  facet normal 0.156436 2.19311e-16 0.987688
    outer loop
      vertex 0.965678 -1 2.97205
      vertex 0 -1 3.125
      vertex 0.965678 -111 2.97205
    endloop
  endfacet
  facet normal -0.156436 2.19311e-16 0.987688
    outer loop
      vertex -0.965678 -1 2.97205
      vertex -0.965678 -111 2.97205
      vertex 0 -111 3.125
    endloop
  endfacet
  facet normal -0.156436 2.19311e-16 0.987688
    outer loop
      vertex 0 -1 3.125
      vertex -0.965678 -1 2.97205
      vertex 0 -111 3.125
    endloop
  endfacet
  facet normal -0.453987 1.97844e-16 0.891008
    outer loop
      vertex -1.83683 -1 2.52818
      vertex -1.83683 -111 2.52818
      vertex -0.965678 -111 2.97205
    endloop
  endfacet
  facet normal -0.453987 1.97844e-16 0.891008
    outer loop
      vertex -0.965678 -1 2.97205
      vertex -1.83683 -1 2.52818
      vertex -0.965678 -111 2.97205
    endloop
  endfacet
endsolid OpenSCAD_Model
