solid OpenSCAD_Model
  facet normal -0.987689 -3.47351e-17 -0.156433
    outer loop
      vertex -5.32592 1 -1.73049
      vertex -5.32592 -99 -1.73049
      vertex -5.6 1 -2.22045e-16
    endloop
  endfacet
  facet normal -0.987689 -3.47351e-17 -0.156433
    outer loop
      vertex -5.6 1 -2.22045e-16
      vertex -5.32592 -99 -1.73049
      vertex -5.6 -99 2.19824e-14
    endloop
  endfacet
  facet normal 0 1 -2.22045e-16
    outer loop
      vertex -5.32592 1 1.73049
      vertex -4.5305 1 3.2916
      vertex -5.6 1 -2.22045e-16
    endloop
  endfacet
  facet normal 0 1 -2.22045e-16
    outer loop
      vertex -4.12599 1 2.9977
      vertex -4.5305 1 3.2916
      vertex -3.2916 1 4.5305
    endloop
  endfacet
  facet normal 0 1 -2.22045e-16
    outer loop
      vertex -2.9977 1 4.12599
      vertex -3.2916 1 4.5305
      vertex -1.73049 1 5.32592
    endloop
  endfacet
  facet normal 0 1 -2.22045e-16
    outer loop
      vertex -1.57599 1 4.85039
      vertex -1.73049 1 5.32592
      vertex 0 1 5.6
    endloop
  endfacet
  facet normal 0 1 -2.22045e-16
    outer loop
      vertex 0 1 5.1
      vertex 0 1 5.6
      vertex 1.73049 1 5.32592
    endloop
  endfacet
  facet normal 0 1 -2.22045e-16
    outer loop
      vertex 1.57599 1 4.85039
      vertex 1.73049 1 5.32592
      vertex 3.2916 1 4.5305
    endloop
  endfacet
  facet normal 0 1 -2.22045e-16
    outer loop
      vertex 2.9977 1 4.12599
      vertex 3.2916 1 4.5305
      vertex 4.5305 1 3.2916
    endloop
  endfacet
  facet normal 0 1 -2.22045e-16
    outer loop
      vertex 4.12599 1 2.9977
      vertex 4.5305 1 3.2916
      vertex 5.32592 1 1.73049
    endloop
  endfacet
  facet normal 0 1 -2.22045e-16
    outer loop
      vertex -4.85039 1 -1.57599
      vertex -5.6 1 -2.22045e-16
      vertex -5.1 1 -2.22045e-16
    endloop
  endfacet
  facet normal 0 1 -2.22045e-16
    outer loop
      vertex 4.85039 1 -1.57599
      vertex 5.6 1 -2.22045e-16
      vertex 5.32592 1 -1.73049
    endloop
  endfacet
  facet normal 0 1 -2.22045e-16
    outer loop
      vertex 4.12599 1 -2.9977
      vertex 5.32592 1 -1.73049
      vertex 4.5305 1 -3.2916
    endloop
  endfacet
  facet normal 0 1 -2.22045e-16
    outer loop
      vertex 2.9977 1 -4.12599
      vertex 4.5305 1 -3.2916
      vertex 3.2916 1 -4.5305
    endloop
  endfacet
  facet normal 0 1 -2.22045e-16
    outer loop
      vertex 1.57599 1 -4.85039
      vertex 3.2916 1 -4.5305
      vertex 1.73049 1 -5.32592
    endloop
  endfacet
  facet normal 0 1 -2.22045e-16
    outer loop
      vertex 0 1 -5.1
      vertex 1.73049 1 -5.32592
      vertex 0 1 -5.6
    endloop
  endfacet
  facet normal 0 1 -2.22045e-16
    outer loop
      vertex -1.57599 1 -4.85039
      vertex 0 1 -5.6
      vertex -1.73049 1 -5.32592
    endloop
  endfacet
  facet normal 0 1 -2.22045e-16
    outer loop
      vertex -2.9977 1 -4.12599
      vertex -1.73049 1 -5.32592
      vertex -3.2916 1 -4.5305
    endloop
  endfacet
  facet normal 0 1 -2.22045e-16
    outer loop
      vertex -4.12599 1 -2.9977
      vertex -3.2916 1 -4.5305
      vertex -4.5305 1 -3.2916
    endloop
  endfacet
  facet normal 0 1 -2.22045e-16
    outer loop
      vertex -5.6 1 -2.22045e-16
      vertex -4.5305 1 -3.2916
      vertex -5.32592 1 -1.73049
    endloop
  endfacet
  facet normal 0 1 -2.22045e-16
    outer loop
      vertex -2.9977 1 -4.12599
      vertex -3.2916 1 -4.5305
      vertex -4.12599 1 -2.9977
    endloop
  endfacet
  facet normal 0 1 -2.22045e-16
    outer loop
      vertex -5.6 1 -2.22045e-16
      vertex -4.85039 1 -1.57599
      vertex -4.5305 1 -3.2916
    endloop
  endfacet
  facet normal 0 1 -2.22045e-16
    outer loop
      vertex -4.85039 1 -1.57599
      vertex -4.12599 1 -2.9977
      vertex -4.5305 1 -3.2916
    endloop
  endfacet
  facet normal 0 1 -2.22045e-16
    outer loop
      vertex 5.1 1 -2.22045e-16
      vertex 5.6 1 -2.22045e-16
      vertex 4.85039 1 -1.57599
    endloop
  endfacet
  facet normal 0 1 -2.22045e-16
    outer loop
      vertex 4.12599 1 2.9977
      vertex 5.32592 1 1.73049
      vertex 4.85039 1 1.57599
    endloop
  endfacet
  facet normal 0 1 -2.22045e-16
    outer loop
      vertex 5.32592 1 1.73049
      vertex 5.6 1 -2.22045e-16
      vertex 5.1 1 -2.22045e-16
    endloop
  endfacet
  facet normal 0 1 -2.22045e-16
    outer loop
      vertex 5.32592 1 1.73049
      vertex 5.1 1 -2.22045e-16
      vertex 4.85039 1 1.57599
    endloop
  endfacet
  facet normal 0 1 -2.22045e-16
    outer loop
      vertex 4.85039 1 -1.57599
      vertex 5.32592 1 -1.73049
      vertex 4.12599 1 -2.9977
    endloop
  endfacet
  facet normal 0 1 -2.22045e-16
    outer loop
      vertex 4.12599 1 -2.9977
      vertex 4.5305 1 -3.2916
      vertex 2.9977 1 -4.12599
    endloop
  endfacet
  facet normal 0 1 -2.22045e-16
    outer loop
      vertex 2.9977 1 -4.12599
      vertex 3.2916 1 -4.5305
      vertex 1.57599 1 -4.85039
    endloop
  endfacet
  facet normal 0 1 -2.22045e-16
    outer loop
      vertex 1.57599 1 -4.85039
      vertex 1.73049 1 -5.32592
      vertex 0 1 -5.1
    endloop
  endfacet
  facet normal 0 1 -2.22045e-16
    outer loop
      vertex 0 1 -5.1
      vertex 0 1 -5.6
      vertex -1.57599 1 -4.85039
    endloop
  endfacet
  facet normal 0 1 -2.22045e-16
    outer loop
      vertex -1.57599 1 -4.85039
      vertex -1.73049 1 -5.32592
      vertex -2.9977 1 -4.12599
    endloop
  endfacet
  facet normal 0 1 -2.22045e-16
    outer loop
      vertex -4.85039 1 1.57599
      vertex -4.5305 1 3.2916
      vertex -4.12599 1 2.9977
    endloop
  endfacet
  facet normal 0 1 -2.22045e-16
    outer loop
      vertex -5.6 1 -2.22045e-16
      vertex -4.5305 1 3.2916
      vertex -4.85039 1 1.57599
    endloop
  endfacet
  facet normal 0 1 -2.22045e-16
    outer loop
      vertex -5.1 1 -2.22045e-16
      vertex -5.6 1 -2.22045e-16
      vertex -4.85039 1 1.57599
    endloop
  endfacet
  facet normal 0 1 -2.22045e-16
    outer loop
      vertex -4.12599 1 2.9977
      vertex -3.2916 1 4.5305
      vertex -2.9977 1 4.12599
    endloop
  endfacet
  facet normal 0 1 -2.22045e-16
    outer loop
      vertex -2.9977 1 4.12599
      vertex -1.73049 1 5.32592
      vertex -1.57599 1 4.85039
    endloop
  endfacet
  facet normal 0 1 -2.22045e-16
    outer loop
      vertex -1.57599 1 4.85039
      vertex 0 1 5.6
      vertex 0 1 5.1
    endloop
  endfacet
  facet normal 0 1 -2.22045e-16
    outer loop
      vertex 0 1 5.1
      vertex 1.73049 1 5.32592
      vertex 1.57599 1 4.85039
    endloop
  endfacet
  facet normal 0 1 -2.22045e-16
    outer loop
      vertex 1.57599 1 4.85039
      vertex 3.2916 1 4.5305
      vertex 2.9977 1 4.12599
    endloop
  endfacet
  facet normal 0 1 -2.22045e-16
    outer loop
      vertex 2.9977 1 4.12599
      vertex 4.5305 1 3.2916
      vertex 4.12599 1 2.9977
    endloop
  endfacet
  facet normal -0.987689 3.47351e-17 0.156433
    outer loop
      vertex -5.6 -99 2.19824e-14
      vertex -5.32592 -99 1.73049
      vertex -5.6 1 -2.22045e-16
    endloop
  endfacet
  facet normal -0.987689 3.47351e-17 0.156433
    outer loop
      vertex -5.6 1 -2.22045e-16
      vertex -5.32592 -99 1.73049
      vertex -5.32592 1 1.73049
    endloop
  endfacet
  facet normal 0 -1 2.22045e-16
    outer loop
      vertex -5.6 -99 2.19824e-14
      vertex -5.32592 -99 -1.73049
      vertex -4.5305 -99 -3.2916
    endloop
  endfacet
  facet normal 0 -1 2.22045e-16
    outer loop
      vertex -1.73049 -99 -5.32592
      vertex -5.6 -99 2.19824e-14
      vertex -3.2916 -99 -4.5305
    endloop
  endfacet
  facet normal 0 -1 2.22045e-16
    outer loop
      vertex -3.2916 -99 -4.5305
      vertex -5.6 -99 2.19824e-14
      vertex -4.5305 -99 -3.2916
    endloop
  endfacet
  facet normal 0 -1 2.22045e-16
    outer loop
      vertex 0 -99 -5.6
      vertex -5.6 -99 2.19824e-14
      vertex -1.73049 -99 -5.32592
    endloop
  endfacet
  facet normal 0 -1 2.22045e-16
    outer loop
      vertex 1.73049 -99 -5.32592
      vertex -5.6 -99 2.19824e-14
      vertex 0 -99 -5.6
    endloop
  endfacet
  facet normal 0 -1 2.22045e-16
    outer loop
      vertex -1.83683 -99 -2.52818
      vertex -5.6 -99 2.19824e-14
      vertex 1.73049 -99 -5.32592
    endloop
  endfacet
  facet normal 0 -1 2.22045e-16
    outer loop
      vertex -1.83683 -99 -2.52818
      vertex -2.52818 -99 -1.83683
      vertex -5.6 -99 2.19824e-14
    endloop
  endfacet
  facet normal 0 -1 2.22045e-16
    outer loop
      vertex 2.97205 -99 -0.965678
      vertex 2.52818 -99 -1.83683
      vertex 5.32592 -99 -1.73049
    endloop
  endfacet
  facet normal 0 -1 2.22045e-16
    outer loop
      vertex 5.6 -99 2.19824e-14
      vertex 3.125 -99 2.19824e-14
      vertex 5.32592 -99 -1.73049
    endloop
  endfacet
  facet normal 0 -1 2.22045e-16
    outer loop
      vertex 0 -99 3.125
      vertex 0.965678 -99 2.97205
      vertex 3.2916 -99 4.5305
    endloop
  endfacet
  facet normal 0 -1 2.22045e-16
    outer loop
      vertex 1.83683 -99 2.52818
      vertex 2.52818 -99 1.83683
      vertex 4.5305 -99 3.2916
    endloop
  endfacet
  facet normal 0 -1 2.22045e-16
    outer loop
      vertex 0 -99 5.6
      vertex -5.6 -99 2.19824e-14
      vertex 1.73049 -99 5.32592
    endloop
  endfacet
  facet normal 0 -1 2.22045e-16
    outer loop
      vertex -1.73049 -99 5.32592
      vertex -5.6 -99 2.19824e-14
      vertex 0 -99 5.6
    endloop
  endfacet
  facet normal 0 -1 2.22045e-16
    outer loop
      vertex -3.2916 -99 4.5305
      vertex -5.6 -99 2.19824e-14
      vertex -1.73049 -99 5.32592
    endloop
  endfacet
  facet normal 0 -1 2.22045e-16
    outer loop
      vertex -4.5305 -99 3.2916
      vertex -5.6 -99 2.19824e-14
      vertex -3.2916 -99 4.5305
    endloop
  endfacet
  facet normal 0 -1 2.22045e-16
    outer loop
      vertex -5.32592 -99 1.73049
      vertex -5.6 -99 2.19824e-14
      vertex -4.5305 -99 3.2916
    endloop
  endfacet
  facet normal 0 -1 2.22045e-16
    outer loop
      vertex 2.52818 -99 -1.83683
      vertex 1.83683 -99 -2.52818
      vertex 4.5305 -99 -3.2916
    endloop
  endfacet
  facet normal 0 -1 2.22045e-16
    outer loop
      vertex -1.83683 -99 2.52818
      vertex -0.965678 -99 2.97205
      vertex 1.73049 -99 5.32592
    endloop
  endfacet
  facet normal 0 -1 2.22045e-16
    outer loop
      vertex 2.52818 -99 1.83683
      vertex 2.97205 -99 0.965678
      vertex 5.32592 -99 1.73049
    endloop
  endfacet
  facet normal 0 -1 2.22045e-16
    outer loop
      vertex -1.83683 -99 2.52818
      vertex -5.6 -99 2.19824e-14
      vertex -2.52818 -99 1.83683
    endloop
  endfacet
  facet normal 0 -1 2.22045e-16
    outer loop
      vertex 1.73049 -99 5.32592
      vertex -5.6 -99 2.19824e-14
      vertex -1.83683 -99 2.52818
    endloop
  endfacet
  facet normal 0 -1 2.22045e-16
    outer loop
      vertex 1.73049 -99 5.32592
      vertex -0.965678 -99 2.97205
      vertex 3.2916 -99 4.5305
    endloop
  endfacet
  facet normal 0 -1 2.22045e-16
    outer loop
      vertex -0.965678 -99 2.97205
      vertex 0 -99 3.125
      vertex 3.2916 -99 4.5305
    endloop
  endfacet
  facet normal 0 -1 2.22045e-16
    outer loop
      vertex 3.2916 -99 4.5305
      vertex 0.965678 -99 2.97205
      vertex 4.5305 -99 3.2916
    endloop
  endfacet
  facet normal 0 -1 2.22045e-16
    outer loop
      vertex 0.965678 -99 2.97205
      vertex 1.83683 -99 2.52818
      vertex 4.5305 -99 3.2916
    endloop
  endfacet
  facet normal 0 -1 2.22045e-16
    outer loop
      vertex 4.5305 -99 3.2916
      vertex 2.52818 -99 1.83683
      vertex 5.32592 -99 1.73049
    endloop
  endfacet
  facet normal 0 -1 2.22045e-16
    outer loop
      vertex -2.97205 -99 0.965678
      vertex -2.52818 -99 1.83683
      vertex -5.6 -99 2.19824e-14
    endloop
  endfacet
  facet normal 0 -1 2.22045e-16
    outer loop
      vertex 5.32592 -99 1.73049
      vertex 2.97205 -99 0.965678
      vertex 5.6 -99 2.19824e-14
    endloop
  endfacet
  facet normal 0 -1 2.22045e-16
    outer loop
      vertex 2.97205 -99 0.965678
      vertex 3.125 -99 2.19824e-14
      vertex 5.6 -99 2.19824e-14
    endloop
  endfacet
  facet normal 0 -1 2.22045e-16
    outer loop
      vertex 3.125 -99 2.19824e-14
      vertex 2.97205 -99 -0.965678
      vertex 5.32592 -99 -1.73049
    endloop
  endfacet
  facet normal 0 -1 2.22045e-16
    outer loop
      vertex 5.32592 -99 -1.73049
      vertex 2.52818 -99 -1.83683
      vertex 4.5305 -99 -3.2916
    endloop
  endfacet
  facet normal 0 -1 2.22045e-16
    outer loop
      vertex -2.52818 -99 -1.83683
      vertex -2.97205 -99 -0.965678
      vertex -5.6 -99 2.19824e-14
    endloop
  endfacet
  facet normal 0 -1 2.22045e-16
    outer loop
      vertex 4.5305 -99 -3.2916
      vertex 1.83683 -99 -2.52818
      vertex 3.2916 -99 -4.5305
    endloop
  endfacet
  facet normal 0 -1 2.22045e-16
    outer loop
      vertex -3.125 -99 2.19824e-14
      vertex -2.97205 -99 0.965678
      vertex -5.6 -99 2.19824e-14
    endloop
  endfacet
  facet normal 0 -1 2.22045e-16
    outer loop
      vertex 1.83683 -99 -2.52818
      vertex 0.965678 -99 -2.97205
      vertex 3.2916 -99 -4.5305
    endloop
  endfacet
  facet normal 0 -1 2.22045e-16
    outer loop
      vertex 3.2916 -99 -4.5305
      vertex 0 -99 -3.125
      vertex 1.73049 -99 -5.32592
    endloop
  endfacet
  facet normal 0 -1 2.22045e-16
    outer loop
      vertex 0 -99 -3.125
      vertex -0.965678 -99 -2.97205
      vertex 1.73049 -99 -5.32592
    endloop
  endfacet
  facet normal 0 -1 2.22045e-16
    outer loop
      vertex -0.965678 -99 -2.97205
      vertex -1.83683 -99 -2.52818
      vertex 1.73049 -99 -5.32592
    endloop
  endfacet
  facet normal 0 -1 2.22045e-16
    outer loop
      vertex 0.965678 -99 -2.97205
      vertex 0 -99 -3.125
      vertex 3.2916 -99 -4.5305
    endloop
  endfacet
  facet normal 0 -1 2.22045e-16
    outer loop
      vertex -2.97205 -99 -0.965678
      vertex -3.125 -99 2.19824e-14
      vertex -5.6 -99 2.19824e-14
    endloop
  endfacet
  facet normal -0.891008 -1.00806e-16 -0.453988
    outer loop
      vertex -4.5305 1 -3.2916
      vertex -4.5305 -99 -3.2916
      vertex -5.32592 1 -1.73049
    endloop
  endfacet
  facet normal -0.891008 -1.00806e-16 -0.453988
    outer loop
      vertex -5.32592 1 -1.73049
      vertex -4.5305 -99 -3.2916
      vertex -5.32592 -99 -1.73049
    endloop
  endfacet
  facet normal -0.707107 -1.57009e-16 -0.707107
    outer loop
      vertex -3.2916 1 -4.5305
      vertex -3.2916 -99 -4.5305
      vertex -4.5305 1 -3.2916
    endloop
  endfacet
  facet normal -0.707107 -1.57009e-16 -0.707107
    outer loop
      vertex -4.5305 1 -3.2916
      vertex -3.2916 -99 -4.5305
      vertex -4.5305 -99 -3.2916
    endloop
  endfacet
  facet normal -0.453988 -1.97843e-16 -0.891008
    outer loop
      vertex -1.73049 1 -5.32592
      vertex -1.73049 -99 -5.32592
      vertex -3.2916 1 -4.5305
    endloop
  endfacet
  facet normal -0.453988 -1.97843e-16 -0.891008
    outer loop
      vertex -3.2916 1 -4.5305
      vertex -1.73049 -99 -5.32592
      vertex -3.2916 -99 -4.5305
    endloop
  endfacet
  facet normal -0.156433 -2.19311e-16 -0.987689
    outer loop
      vertex 0 1 -5.6
      vertex 0 -99 -5.6
      vertex -1.73049 1 -5.32592
    endloop
  endfacet
  facet normal -0.156433 -2.19311e-16 -0.987689
    outer loop
      vertex -1.73049 1 -5.32592
      vertex 0 -99 -5.6
      vertex -1.73049 -99 -5.32592
    endloop
  endfacet
  facet normal 0.156433 -2.19311e-16 -0.987689
    outer loop
      vertex 1.73049 1 -5.32592
      vertex 1.73049 -99 -5.32592
      vertex 0 1 -5.6
    endloop
  endfacet
  facet normal 0.156433 -2.19311e-16 -0.987689
    outer loop
      vertex 0 1 -5.6
      vertex 1.73049 -99 -5.32592
      vertex 0 -99 -5.6
    endloop
  endfacet
  facet normal 0.453988 -1.97843e-16 -0.891008
    outer loop
      vertex 3.2916 1 -4.5305
      vertex 3.2916 -99 -4.5305
      vertex 1.73049 1 -5.32592
    endloop
  endfacet
  facet normal 0.453988 -1.97843e-16 -0.891008
    outer loop
      vertex 1.73049 1 -5.32592
      vertex 3.2916 -99 -4.5305
      vertex 1.73049 -99 -5.32592
    endloop
  endfacet
  facet normal 0.707107 -1.57009e-16 -0.707107
    outer loop
      vertex 3.2916 1 -4.5305
      vertex 4.5305 1 -3.2916
      vertex 4.5305 -99 -3.2916
    endloop
  endfacet
  facet normal 0.707107 -1.57009e-16 -0.707107
    outer loop
      vertex 3.2916 -99 -4.5305
      vertex 3.2916 1 -4.5305
      vertex 4.5305 -99 -3.2916
    endloop
  endfacet
  facet normal 0.891008 -1.00806e-16 -0.453988
    outer loop
      vertex 4.5305 1 -3.2916
      vertex 5.32592 1 -1.73049
      vertex 5.32592 -99 -1.73049
    endloop
  endfacet
  facet normal 0.891008 -1.00806e-16 -0.453988
    outer loop
      vertex 4.5305 -99 -3.2916
      vertex 4.5305 1 -3.2916
      vertex 5.32592 -99 -1.73049
    endloop
  endfacet
  facet normal 0.987689 -3.47351e-17 -0.156433
    outer loop
      vertex 5.32592 1 -1.73049
      vertex 5.6 1 -2.22045e-16
      vertex 5.6 -99 2.19824e-14
    endloop
  endfacet
  facet normal 0.987689 -3.47351e-17 -0.156433
    outer loop
      vertex 5.32592 -99 -1.73049
      vertex 5.32592 1 -1.73049
      vertex 5.6 -99 2.19824e-14
    endloop
  endfacet
  facet normal 0.987689 3.47351e-17 0.156433
    outer loop
      vertex 5.32592 1 1.73049
      vertex 5.32592 -99 1.73049
      vertex 5.6 -99 2.19824e-14
    endloop
  endfacet
  facet normal 0.987689 3.47351e-17 0.156433
    outer loop
      vertex 5.6 1 -2.22045e-16
      vertex 5.32592 1 1.73049
      vertex 5.6 -99 2.19824e-14
    endloop
  endfacet
  facet normal 0.891008 1.00806e-16 0.453988
    outer loop
      vertex 4.5305 1 3.2916
      vertex 4.5305 -99 3.2916
      vertex 5.32592 -99 1.73049
    endloop
  endfacet
  facet normal 0.891008 1.00806e-16 0.453988
    outer loop
      vertex 5.32592 1 1.73049
      vertex 4.5305 1 3.2916
      vertex 5.32592 -99 1.73049
    endloop
  endfacet
  facet normal 0.707107 1.57009e-16 0.707107
    outer loop
      vertex 3.2916 1 4.5305
      vertex 3.2916 -99 4.5305
      vertex 4.5305 -99 3.2916
    endloop
  endfacet
  facet normal 0.707107 1.57009e-16 0.707107
    outer loop
      vertex 4.5305 1 3.2916
      vertex 3.2916 1 4.5305
      vertex 4.5305 -99 3.2916
    endloop
  endfacet
  facet normal 0.453988 1.97843e-16 0.891008
    outer loop
      vertex 1.73049 1 5.32592
      vertex 1.73049 -99 5.32592
      vertex 3.2916 -99 4.5305
    endloop
  endfacet
  facet normal 0.453988 1.97843e-16 0.891008
    outer loop
      vertex 3.2916 1 4.5305
      vertex 1.73049 1 5.32592
      vertex 3.2916 -99 4.5305
    endloop
  endfacet
  facet normal 0.156433 2.19311e-16 0.987689
    outer loop
      vertex 0 1 5.6
      vertex 0 -99 5.6
      vertex 1.73049 -99 5.32592
    endloop
  endfacet
  facet normal 0.156433 2.19311e-16 0.987689
    outer loop
      vertex 1.73049 1 5.32592
      vertex 0 1 5.6
      vertex 1.73049 -99 5.32592
    endloop
  endfacet
  facet normal -0.156433 2.19311e-16 0.987689
    outer loop
      vertex -1.73049 1 5.32592
      vertex -1.73049 -99 5.32592
      vertex 0 -99 5.6
    endloop
  endfacet
  facet normal -0.156433 2.19311e-16 0.987689
    outer loop
      vertex 0 1 5.6
      vertex -1.73049 1 5.32592
      vertex 0 -99 5.6
    endloop
  endfacet
  facet normal -0.453988 1.97843e-16 0.891008
    outer loop
      vertex -3.2916 1 4.5305
      vertex -3.2916 -99 4.5305
      vertex -1.73049 -99 5.32592
    endloop
  endfacet
  facet normal -0.453988 1.97843e-16 0.891008
    outer loop
      vertex -1.73049 1 5.32592
      vertex -3.2916 1 4.5305
      vertex -1.73049 -99 5.32592
    endloop
  endfacet
  facet normal -0.707107 1.57009e-16 0.707107
    outer loop
      vertex -4.5305 -99 3.2916
      vertex -3.2916 -99 4.5305
      vertex -4.5305 1 3.2916
    endloop
  endfacet
  facet normal -0.707107 1.57009e-16 0.707107
    outer loop
      vertex -4.5305 1 3.2916
      vertex -3.2916 -99 4.5305
      vertex -3.2916 1 4.5305
    endloop
  endfacet
  facet normal -0.891008 1.00806e-16 0.453988
    outer loop
      vertex -5.32592 -99 1.73049
      vertex -4.5305 -99 3.2916
      vertex -5.32592 1 1.73049
    endloop
  endfacet
  facet normal -0.891008 1.00806e-16 0.453988
    outer loop
      vertex -5.32592 1 1.73049
      vertex -4.5305 -99 3.2916
      vertex -4.5305 1 3.2916
    endloop
  endfacet
  facet normal 0.987689 -3.47351e-17 -0.156433
    outer loop
      vertex -5.1 1 -2.22045e-16
      vertex -4.85039 1 1.57599
      vertex -4.85039 3.4994e-16 1.57599
    endloop
  endfacet
  facet normal 0.987689 -3.47351e-17 -0.156433
    outer loop
      vertex -5.1 0 0
      vertex -5.1 1 -2.22045e-16
      vertex -4.85039 3.4994e-16 1.57599
    endloop
  endfacet
  facet normal 0.987689 3.47351e-17 0.156433
    outer loop
      vertex -5.1 1 -2.22045e-16
      vertex -5.1 0 0
      vertex -4.85039 -3.4994e-16 -1.57599
    endloop
  endfacet
  facet normal 0.987689 3.47351e-17 0.156433
    outer loop
      vertex -4.85039 1 -1.57599
      vertex -5.1 1 -2.22045e-16
      vertex -4.85039 -3.4994e-16 -1.57599
    endloop
  endfacet
  facet normal 0.891006 -1.00806e-16 -0.453992
    outer loop
      vertex -4.85039 1 1.57599
      vertex -4.12599 1 2.9977
      vertex -4.12599 6.65623e-16 2.9977
    endloop
  endfacet
  facet normal 0.891006 -1.00806e-16 -0.453992
    outer loop
      vertex -4.85039 3.4994e-16 1.57599
      vertex -4.85039 1 1.57599
      vertex -4.12599 6.65623e-16 2.9977
    endloop
  endfacet
  facet normal 0.707107 -1.57009e-16 -0.707107
    outer loop
      vertex -4.12599 1 2.9977
      vertex -2.9977 1 4.12599
      vertex -2.9977 9.16154e-16 4.12599
    endloop
  endfacet
  facet normal 0.707107 -1.57009e-16 -0.707107
    outer loop
      vertex -4.12599 6.65623e-16 2.9977
      vertex -4.12599 1 2.9977
      vertex -2.9977 9.16154e-16 4.12599
    endloop
  endfacet
  facet normal 0.453992 -1.97843e-16 -0.891006
    outer loop
      vertex -1.57599 1 4.85039
      vertex -1.57599 1.077e-15 4.85039
      vertex -2.9977 1 4.12599
    endloop
  endfacet
  facet normal 0.453992 -1.97843e-16 -0.891006
    outer loop
      vertex -2.9977 1 4.12599
      vertex -1.57599 1.077e-15 4.85039
      vertex -2.9977 9.16154e-16 4.12599
    endloop
  endfacet
  facet normal 0.156433 -2.19311e-16 -0.987689
    outer loop
      vertex 0 1 5.1
      vertex 0 1.13243e-15 5.1
      vertex -1.57599 1 4.85039
    endloop
  endfacet
  facet normal 0.156433 -2.19311e-16 -0.987689
    outer loop
      vertex -1.57599 1 4.85039
      vertex 0 1.13243e-15 5.1
      vertex -1.57599 1.077e-15 4.85039
    endloop
  endfacet
  facet normal -0.156433 -2.19311e-16 -0.987689
    outer loop
      vertex 1.57599 1 4.85039
      vertex 1.57599 1.077e-15 4.85039
      vertex 0 1 5.1
    endloop
  endfacet
  facet normal -0.156433 -2.19311e-16 -0.987689
    outer loop
      vertex 0 1 5.1
      vertex 1.57599 1.077e-15 4.85039
      vertex 0 1.13243e-15 5.1
    endloop
  endfacet
  facet normal -0.453992 -1.97843e-16 -0.891006
    outer loop
      vertex 2.9977 1 4.12599
      vertex 2.9977 9.16154e-16 4.12599
      vertex 1.57599 1 4.85039
    endloop
  endfacet
  facet normal -0.453992 -1.97843e-16 -0.891006
    outer loop
      vertex 1.57599 1 4.85039
      vertex 2.9977 9.16154e-16 4.12599
      vertex 1.57599 1.077e-15 4.85039
    endloop
  endfacet
  facet normal -0.707107 -1.57009e-16 -0.707107
    outer loop
      vertex 4.12599 1 2.9977
      vertex 4.12599 6.65623e-16 2.9977
      vertex 2.9977 1 4.12599
    endloop
  endfacet
  facet normal -0.707107 -1.57009e-16 -0.707107
    outer loop
      vertex 2.9977 1 4.12599
      vertex 4.12599 6.65623e-16 2.9977
      vertex 2.9977 9.16154e-16 4.12599
    endloop
  endfacet
  facet normal -0.891006 -1.00806e-16 -0.453992
    outer loop
      vertex 4.85039 1 1.57599
      vertex 4.85039 3.4994e-16 1.57599
      vertex 4.12599 1 2.9977
    endloop
  endfacet
  facet normal -0.891006 -1.00806e-16 -0.453992
    outer loop
      vertex 4.12599 1 2.9977
      vertex 4.85039 3.4994e-16 1.57599
      vertex 4.12599 6.65623e-16 2.9977
    endloop
  endfacet
  facet normal -0.987689 -3.47351e-17 -0.156433
    outer loop
      vertex 5.1 1 -2.22045e-16
      vertex 5.1 0 0
      vertex 4.85039 1 1.57599
    endloop
  endfacet
  facet normal -0.987689 -3.47351e-17 -0.156433
    outer loop
      vertex 4.85039 1 1.57599
      vertex 5.1 0 0
      vertex 4.85039 3.4994e-16 1.57599
    endloop
  endfacet
  facet normal -0.987689 3.47351e-17 0.156433
    outer loop
      vertex 4.85039 -3.4994e-16 -1.57599
      vertex 5.1 0 0
      vertex 4.85039 1 -1.57599
    endloop
  endfacet
  facet normal -0.987689 3.47351e-17 0.156433
    outer loop
      vertex 4.85039 1 -1.57599
      vertex 5.1 0 0
      vertex 5.1 1 -2.22045e-16
    endloop
  endfacet
  facet normal -0.891006 1.00806e-16 0.453992
    outer loop
      vertex 4.12599 -6.65623e-16 -2.9977
      vertex 4.85039 -3.4994e-16 -1.57599
      vertex 4.12599 1 -2.9977
    endloop
  endfacet
  facet normal -0.891006 1.00806e-16 0.453992
    outer loop
      vertex 4.12599 1 -2.9977
      vertex 4.85039 -3.4994e-16 -1.57599
      vertex 4.85039 1 -1.57599
    endloop
  endfacet
  facet normal -0.707107 1.57009e-16 0.707107
    outer loop
      vertex 2.9977 -9.16154e-16 -4.12599
      vertex 4.12599 -6.65623e-16 -2.9977
      vertex 2.9977 1 -4.12599
    endloop
  endfacet
  facet normal -0.707107 1.57009e-16 0.707107
    outer loop
      vertex 2.9977 1 -4.12599
      vertex 4.12599 -6.65623e-16 -2.9977
      vertex 4.12599 1 -2.9977
    endloop
  endfacet
  facet normal -0.453992 1.97843e-16 0.891006
    outer loop
      vertex 1.57599 1 -4.85039
      vertex 1.57599 -1.077e-15 -4.85039
      vertex 2.9977 -9.16154e-16 -4.12599
    endloop
  endfacet
  facet normal -0.453992 1.97843e-16 0.891006
    outer loop
      vertex 2.9977 1 -4.12599
      vertex 1.57599 1 -4.85039
      vertex 2.9977 -9.16154e-16 -4.12599
    endloop
  endfacet
  facet normal -0.156433 2.19311e-16 0.987689
    outer loop
      vertex 0 1 -5.1
      vertex 0 -1.13243e-15 -5.1
      vertex 1.57599 -1.077e-15 -4.85039
    endloop
  endfacet
  facet normal -0.156433 2.19311e-16 0.987689
    outer loop
      vertex 1.57599 1 -4.85039
      vertex 0 1 -5.1
      vertex 1.57599 -1.077e-15 -4.85039
    endloop
  endfacet
  facet normal 0.156433 2.19311e-16 0.987689
    outer loop
      vertex -1.57599 1 -4.85039
      vertex -1.57599 -1.077e-15 -4.85039
      vertex 0 -1.13243e-15 -5.1
    endloop
  endfacet
  facet normal 0.156433 2.19311e-16 0.987689
    outer loop
      vertex 0 1 -5.1
      vertex -1.57599 1 -4.85039
      vertex 0 -1.13243e-15 -5.1
    endloop
  endfacet
  facet normal 0.453992 1.97843e-16 0.891006
    outer loop
      vertex -2.9977 1 -4.12599
      vertex -2.9977 -9.16154e-16 -4.12599
      vertex -1.57599 -1.077e-15 -4.85039
    endloop
  endfacet
  facet normal 0.453992 1.97843e-16 0.891006
    outer loop
      vertex -1.57599 1 -4.85039
      vertex -2.9977 1 -4.12599
      vertex -1.57599 -1.077e-15 -4.85039
    endloop
  endfacet
  facet normal 0.707107 1.57009e-16 0.707107
    outer loop
      vertex -4.12599 1 -2.9977
      vertex -4.12599 -6.65623e-16 -2.9977
      vertex -2.9977 -9.16154e-16 -4.12599
    endloop
  endfacet
  facet normal 0.707107 1.57009e-16 0.707107
    outer loop
      vertex -2.9977 1 -4.12599
      vertex -4.12599 1 -2.9977
      vertex -2.9977 -9.16154e-16 -4.12599
    endloop
  endfacet
  facet normal 0.891006 1.00806e-16 0.453992
    outer loop
      vertex -4.85039 1 -1.57599
      vertex -4.85039 -3.4994e-16 -1.57599
      vertex -4.12599 -6.65623e-16 -2.9977
    endloop
  endfacet
  facet normal 0.891006 1.00806e-16 0.453992
    outer loop
      vertex -4.12599 1 -2.9977
      vertex -4.85039 1 -1.57599
      vertex -4.12599 -6.65623e-16 -2.9977
    endloop
  endfacet
  facet normal 0.987688 -3.47358e-17 -0.156436
    outer loop
      vertex -3.125 -1 2.22045e-16
      vertex -2.97205 -1 0.965678
      vertex -2.97205 -99 0.965678
    endloop
  endfacet
  facet normal 0.987688 -3.47358e-17 -0.156436
    outer loop
      vertex -3.125 -99 2.19824e-14
      vertex -3.125 -1 2.22045e-16
      vertex -2.97205 -99 0.965678
    endloop
  endfacet
  facet normal 0.987688 3.47358e-17 0.156436
    outer loop
      vertex -3.125 -1 2.22045e-16
      vertex -3.125 -99 2.19824e-14
      vertex -2.97205 -99 -0.965678
    endloop
  endfacet
  facet normal 0.987688 3.47358e-17 0.156436
    outer loop
      vertex -2.97205 -1 -0.965678
      vertex -3.125 -1 2.22045e-16
      vertex -2.97205 -99 -0.965678
    endloop
  endfacet
  facet normal 0.891008 1.00805e-16 0.453987
    outer loop
      vertex -2.97205 -1 -0.965678
      vertex -2.97205 -99 -0.965678
      vertex -2.52818 -99 -1.83683
    endloop
  endfacet
  facet normal 0.891008 1.00805e-16 0.453987
    outer loop
      vertex -2.52818 -1 -1.83683
      vertex -2.97205 -1 -0.965678
      vertex -2.52818 -99 -1.83683
    endloop
  endfacet
  facet normal 0.707107 1.57009e-16 0.707107
    outer loop
      vertex -2.52818 -1 -1.83683
      vertex -2.52818 -99 -1.83683
      vertex -1.83683 -99 -2.52818
    endloop
  endfacet
  facet normal 0.707107 1.57009e-16 0.707107
    outer loop
      vertex -1.83683 -1 -2.52818
      vertex -2.52818 -1 -1.83683
      vertex -1.83683 -99 -2.52818
    endloop
  endfacet
  facet normal 0.453987 1.97844e-16 0.891008
    outer loop
      vertex -1.83683 -1 -2.52818
      vertex -1.83683 -99 -2.52818
      vertex -0.965678 -99 -2.97205
    endloop
  endfacet
  facet normal 0.453987 1.97844e-16 0.891008
    outer loop
      vertex -0.965678 -1 -2.97205
      vertex -1.83683 -1 -2.52818
      vertex -0.965678 -99 -2.97205
    endloop
  endfacet
  facet normal 0.156436 2.19311e-16 0.987688
    outer loop
      vertex -0.965678 -1 -2.97205
      vertex -0.965678 -99 -2.97205
      vertex 0 -99 -3.125
    endloop
  endfacet
  facet normal 0.156436 2.19311e-16 0.987688
    outer loop
      vertex 0 -1 -3.125
      vertex -0.965678 -1 -2.97205
      vertex 0 -99 -3.125
    endloop
  endfacet
  facet normal -0.156436 2.19311e-16 0.987688
    outer loop
      vertex 0 -1 -3.125
      vertex 0 -99 -3.125
      vertex 0.965678 -99 -2.97205
    endloop
  endfacet
  facet normal -0.156436 2.19311e-16 0.987688
    outer loop
      vertex 0.965678 -1 -2.97205
      vertex 0 -1 -3.125
      vertex 0.965678 -99 -2.97205
    endloop
  endfacet
  facet normal -0.453987 1.97844e-16 0.891008
    outer loop
      vertex 0.965678 -1 -2.97205
      vertex 0.965678 -99 -2.97205
      vertex 1.83683 -99 -2.52818
    endloop
  endfacet
  facet normal -0.453987 1.97844e-16 0.891008
    outer loop
      vertex 1.83683 -1 -2.52818
      vertex 0.965678 -1 -2.97205
      vertex 1.83683 -99 -2.52818
    endloop
  endfacet
  facet normal -0.707107 1.57009e-16 0.707107
    outer loop
      vertex 1.83683 -99 -2.52818
      vertex 2.52818 -99 -1.83683
      vertex 1.83683 -1 -2.52818
    endloop
  endfacet
  facet normal -0.707107 1.57009e-16 0.707107
    outer loop
      vertex 1.83683 -1 -2.52818
      vertex 2.52818 -99 -1.83683
      vertex 2.52818 -1 -1.83683
    endloop
  endfacet
  facet normal -0.891008 1.00805e-16 0.453987
    outer loop
      vertex 2.52818 -99 -1.83683
      vertex 2.97205 -99 -0.965678
      vertex 2.52818 -1 -1.83683
    endloop
  endfacet
  facet normal -0.891008 1.00805e-16 0.453987
    outer loop
      vertex 2.52818 -1 -1.83683
      vertex 2.97205 -99 -0.965678
      vertex 2.97205 -1 -0.965678
    endloop
  endfacet
  facet normal -0.987688 3.47358e-17 0.156436
    outer loop
      vertex 2.97205 -99 -0.965678
      vertex 3.125 -99 2.19824e-14
      vertex 2.97205 -1 -0.965678
    endloop
  endfacet
  facet normal -0.987688 3.47358e-17 0.156436
    outer loop
      vertex 2.97205 -1 -0.965678
      vertex 3.125 -99 2.19824e-14
      vertex 3.125 -1 2.22045e-16
    endloop
  endfacet
  facet normal -0.987688 -3.47358e-17 -0.156436
    outer loop
      vertex 3.125 -1 2.22045e-16
      vertex 3.125 -99 2.19824e-14
      vertex 2.97205 -1 0.965678
    endloop
  endfacet
  facet normal -0.987688 -3.47358e-17 -0.156436
    outer loop
      vertex 2.97205 -1 0.965678
      vertex 3.125 -99 2.19824e-14
      vertex 2.97205 -99 0.965678
    endloop
  endfacet
  facet normal -0.891008 -1.00805e-16 -0.453987
    outer loop
      vertex 2.97205 -1 0.965678
      vertex 2.97205 -99 0.965678
      vertex 2.52818 -1 1.83683
    endloop
  endfacet
  facet normal -0.891008 -1.00805e-16 -0.453987
    outer loop
      vertex 2.52818 -1 1.83683
      vertex 2.97205 -99 0.965678
      vertex 2.52818 -99 1.83683
    endloop
  endfacet
  facet normal -0.707107 -1.57009e-16 -0.707107
    outer loop
      vertex 2.52818 -1 1.83683
      vertex 2.52818 -99 1.83683
      vertex 1.83683 -1 2.52818
    endloop
  endfacet
  facet normal -0.707107 -1.57009e-16 -0.707107
    outer loop
      vertex 1.83683 -1 2.52818
      vertex 2.52818 -99 1.83683
      vertex 1.83683 -99 2.52818
    endloop
  endfacet
  facet normal -0.453987 -1.97844e-16 -0.891008
    outer loop
      vertex 1.83683 -1 2.52818
      vertex 1.83683 -99 2.52818
      vertex 0.965678 -1 2.97205
    endloop
  endfacet
  facet normal -0.453987 -1.97844e-16 -0.891008
    outer loop
      vertex 0.965678 -1 2.97205
      vertex 1.83683 -99 2.52818
      vertex 0.965678 -99 2.97205
    endloop
  endfacet
  facet normal -0.156436 -2.19311e-16 -0.987688
    outer loop
      vertex 0.965678 -1 2.97205
      vertex 0.965678 -99 2.97205
      vertex 0 -1 3.125
    endloop
  endfacet
  facet normal -0.156436 -2.19311e-16 -0.987688
    outer loop
      vertex 0 -1 3.125
      vertex 0.965678 -99 2.97205
      vertex 0 -99 3.125
    endloop
  endfacet
  facet normal 0.156436 -2.19311e-16 -0.987688
    outer loop
      vertex 0 -1 3.125
      vertex 0 -99 3.125
      vertex -0.965678 -1 2.97205
    endloop
  endfacet
  facet normal 0.156436 -2.19311e-16 -0.987688
    outer loop
      vertex -0.965678 -1 2.97205
      vertex 0 -99 3.125
      vertex -0.965678 -99 2.97205
    endloop
  endfacet
  facet normal 0.453987 -1.97844e-16 -0.891008
    outer loop
      vertex -0.965678 -1 2.97205
      vertex -0.965678 -99 2.97205
      vertex -1.83683 -1 2.52818
    endloop
  endfacet
  facet normal 0.453987 -1.97844e-16 -0.891008
    outer loop
      vertex -1.83683 -1 2.52818
      vertex -0.965678 -99 2.97205
      vertex -1.83683 -99 2.52818
    endloop
  endfacet
  facet normal 0.707107 -1.57009e-16 -0.707107
    outer loop
      vertex -2.52818 -1 1.83683
      vertex -1.83683 -1 2.52818
      vertex -1.83683 -99 2.52818
    endloop
  endfacet
  facet normal 0.707107 -1.57009e-16 -0.707107
    outer loop
      vertex -2.52818 -99 1.83683
      vertex -2.52818 -1 1.83683
      vertex -1.83683 -99 2.52818
    endloop
  endfacet
  facet normal 0.891008 -1.00805e-16 -0.453987
    outer loop
      vertex -2.97205 -1 0.965678
      vertex -2.52818 -1 1.83683
      vertex -2.52818 -99 1.83683
    endloop
  endfacet
  facet normal 0.891008 -1.00805e-16 -0.453987
    outer loop
      vertex -2.97205 -99 0.965678
      vertex -2.97205 -1 0.965678
      vertex -2.52818 -99 1.83683
    endloop
  endfacet
  facet normal 0 1 -2.22045e-16
    outer loop
      vertex -4.85039 3.4994e-16 1.57599
      vertex -4.12599 6.65623e-16 2.9977
      vertex -5.1 0 0
    endloop
  endfacet
  facet normal 0 1 -2.22045e-16
    outer loop
      vertex -5.1 0 0
      vertex -4.12599 6.65623e-16 2.9977
      vertex -2.9977 9.16154e-16 4.12599
    endloop
  endfacet
  facet normal 0 1 -2.22045e-16
    outer loop
      vertex -5.1 0 0
      vertex -2.9977 9.16154e-16 4.12599
      vertex -1.57599 1.077e-15 4.85039
    endloop
  endfacet
  facet normal 0 1 -2.22045e-16
    outer loop
      vertex -5.1 0 0
      vertex -1.57599 1.077e-15 4.85039
      vertex 0 1.13243e-15 5.1
    endloop
  endfacet
  facet normal 0 1 -2.22045e-16
    outer loop
      vertex -5.1 0 0
      vertex 0 1.13243e-15 5.1
      vertex 1.57599 1.077e-15 4.85039
    endloop
  endfacet
  facet normal 0 1 -2.22045e-16
    outer loop
      vertex -5.1 0 0
      vertex 1.57599 1.077e-15 4.85039
      vertex 2.9977 9.16154e-16 4.12599
    endloop
  endfacet
  facet normal 0 1 -2.22045e-16
    outer loop
      vertex 0 3.83027e-16 1.725
      vertex 2.9977 9.16154e-16 4.12599
      vertex 4.12599 6.65623e-16 2.9977
    endloop
  endfacet
  facet normal 0 1 -2.22045e-16
    outer loop
      vertex 1.01393 3.09874e-16 1.39555
      vertex 4.12599 6.65623e-16 2.9977
      vertex 4.85039 3.4994e-16 1.57599
    endloop
  endfacet
  facet normal 0 1 -2.22045e-16
    outer loop
      vertex 1.01393 3.09874e-16 1.39555
      vertex 4.85039 3.4994e-16 1.57599
      vertex 1.39555 2.25138e-16 1.01393
    endloop
  endfacet
  facet normal 0 1 -2.22045e-16
    outer loop
      vertex 1.64057 -1.18362e-16 -0.533054
      vertex 5.1 0 0
      vertex 4.85039 -3.4994e-16 -1.57599
    endloop
  endfacet
  facet normal 0 1 -2.22045e-16
    outer loop
      vertex 0.533054 -3.6428e-16 -1.64057
      vertex 4.85039 -3.4994e-16 -1.57599
      vertex 4.12599 -6.65623e-16 -2.9977
    endloop
  endfacet
  facet normal 0 1 -2.22045e-16
    outer loop
      vertex -0.533054 -3.6428e-16 -1.64057
      vertex 4.12599 -6.65623e-16 -2.9977
      vertex 2.9977 -9.16154e-16 -4.12599
    endloop
  endfacet
  facet normal 0 1 -2.22045e-16
    outer loop
      vertex -5.1 0 0
      vertex 2.9977 -9.16154e-16 -4.12599
      vertex 1.57599 -1.077e-15 -4.85039
    endloop
  endfacet
  facet normal 0 1 -2.22045e-16
    outer loop
      vertex -5.1 0 0
      vertex 1.57599 -1.077e-15 -4.85039
      vertex 0 -1.13243e-15 -5.1
    endloop
  endfacet
  facet normal 0 1 -2.22045e-16
    outer loop
      vertex -5.1 0 0
      vertex 0 -1.13243e-15 -5.1
      vertex -1.57599 -1.077e-15 -4.85039
    endloop
  endfacet
  facet normal 0 1 -2.22045e-16
    outer loop
      vertex -5.1 0 0
      vertex -1.57599 -1.077e-15 -4.85039
      vertex -2.9977 -9.16154e-16 -4.12599
    endloop
  endfacet
  facet normal 0 1 -2.22045e-16
    outer loop
      vertex -5.1 0 0
      vertex -2.9977 -9.16154e-16 -4.12599
      vertex -4.12599 -6.65623e-16 -2.9977
    endloop
  endfacet
  facet normal 0 1 -2.22045e-16
    outer loop
      vertex -5.1 0 0
      vertex -4.12599 -6.65623e-16 -2.9977
      vertex -4.85039 -3.4994e-16 -1.57599
    endloop
  endfacet
  facet normal 0 1 -2.22045e-16
    outer loop
      vertex -5.1 0 0
      vertex -1.725 0 0
      vertex -1.64057 -1.18362e-16 -0.533054
    endloop
  endfacet
  facet normal 0 1 -2.22045e-16
    outer loop
      vertex -1.01393 -3.09874e-16 -1.39555
      vertex -5.1 0 0
      vertex -1.39555 -2.25138e-16 -1.01393
    endloop
  endfacet
  facet normal 0 1 -2.22045e-16
    outer loop
      vertex 0.533054 -3.6428e-16 -1.64057
      vertex 4.12599 -6.65623e-16 -2.9977
      vertex 0 -3.83027e-16 -1.725
    endloop
  endfacet
  facet normal 0 1 -2.22045e-16
    outer loop
      vertex -5.1 0 0
      vertex -1.01393 -3.09874e-16 -1.39555
      vertex 2.9977 -9.16154e-16 -4.12599
    endloop
  endfacet
  facet normal 0 1 -2.22045e-16
    outer loop
      vertex 0 -3.83027e-16 -1.725
      vertex 4.12599 -6.65623e-16 -2.9977
      vertex -0.533054 -3.6428e-16 -1.64057
    endloop
  endfacet
  facet normal 0 1 -2.22045e-16
    outer loop
      vertex -1.01393 -3.09874e-16 -1.39555
      vertex -0.533054 -3.6428e-16 -1.64057
      vertex 2.9977 -9.16154e-16 -4.12599
    endloop
  endfacet
  facet normal 0 1 -2.22045e-16
    outer loop
      vertex 1.01393 -3.09874e-16 -1.39555
      vertex 4.85039 -3.4994e-16 -1.57599
      vertex 0.533054 -3.6428e-16 -1.64057
    endloop
  endfacet
  facet normal 0 1 -2.22045e-16
    outer loop
      vertex 1.39555 -2.25138e-16 -1.01393
      vertex 4.85039 -3.4994e-16 -1.57599
      vertex 1.01393 -3.09874e-16 -1.39555
    endloop
  endfacet
  facet normal 0 1 -2.22045e-16
    outer loop
      vertex 1.64057 -1.18362e-16 -0.533054
      vertex 4.85039 -3.4994e-16 -1.57599
      vertex 1.39555 -2.25138e-16 -1.01393
    endloop
  endfacet
  facet normal 0 1 -2.22045e-16
    outer loop
      vertex 1.725 0 0
      vertex 5.1 0 0
      vertex 1.64057 -1.18362e-16 -0.533054
    endloop
  endfacet
  facet normal 0 1 -2.22045e-16
    outer loop
      vertex 1.39555 2.25138e-16 1.01393
      vertex 4.85039 3.4994e-16 1.57599
      vertex 1.64057 1.18362e-16 0.533054
    endloop
  endfacet
  facet normal 0 1 -2.22045e-16
    outer loop
      vertex 4.85039 3.4994e-16 1.57599
      vertex 5.1 0 0
      vertex 1.725 0 0
    endloop
  endfacet
  facet normal 0 1 -2.22045e-16
    outer loop
      vertex 4.85039 3.4994e-16 1.57599
      vertex 1.725 0 0
      vertex 1.64057 1.18362e-16 0.533054
    endloop
  endfacet
  facet normal 0 1 -2.22045e-16
    outer loop
      vertex 0.533054 3.6428e-16 1.64057
      vertex 4.12599 6.65623e-16 2.9977
      vertex 1.01393 3.09874e-16 1.39555
    endloop
  endfacet
  facet normal 0 1 -2.22045e-16
    outer loop
      vertex 0 3.83027e-16 1.725
      vertex 4.12599 6.65623e-16 2.9977
      vertex 0.533054 3.6428e-16 1.64057
    endloop
  endfacet
  facet normal 0 1 -2.22045e-16
    outer loop
      vertex -0.533054 3.6428e-16 1.64057
      vertex 2.9977 9.16154e-16 4.12599
      vertex 0 3.83027e-16 1.725
    endloop
  endfacet
  facet normal 0 1 -2.22045e-16
    outer loop
      vertex -1.39555 2.25138e-16 1.01393
      vertex -5.1 0 0
      vertex -1.01393 3.09874e-16 1.39555
    endloop
  endfacet
  facet normal 0 1 -2.22045e-16
    outer loop
      vertex -5.1 0 0
      vertex 2.9977 9.16154e-16 4.12599
      vertex -0.533054 3.6428e-16 1.64057
    endloop
  endfacet
  facet normal 0 1 -2.22045e-16
    outer loop
      vertex -5.1 0 0
      vertex -0.533054 3.6428e-16 1.64057
      vertex -1.01393 3.09874e-16 1.39555
    endloop
  endfacet
  facet normal 0 1 -2.22045e-16
    outer loop
      vertex -1.64057 1.18362e-16 0.533054
      vertex -5.1 0 0
      vertex -1.39555 2.25138e-16 1.01393
    endloop
  endfacet
  facet normal 0 1 -2.22045e-16
    outer loop
      vertex -5.1 0 0
      vertex -1.64057 1.18362e-16 0.533054
      vertex -1.725 0 0
    endloop
  endfacet
  facet normal 0 1 -2.22045e-16
    outer loop
      vertex -1.39555 -2.25138e-16 -1.01393
      vertex -5.1 0 0
      vertex -1.64057 -1.18362e-16 -0.533054
    endloop
  endfacet
  facet normal 0 -1 2.22045e-16
    outer loop
      vertex -3.125 -1 2.22045e-16
      vertex -2.97205 -1 -0.965678
      vertex -2.52818 -1 -1.83683
    endloop
  endfacet
  facet normal 0 -1 2.22045e-16
    outer loop
      vertex -0.965678 -1 -2.97205
      vertex -3.125 -1 2.22045e-16
      vertex -1.83683 -1 -2.52818
    endloop
  endfacet
  facet normal 0 -1 2.22045e-16
    outer loop
      vertex -1.83683 -1 -2.52818
      vertex -3.125 -1 2.22045e-16
      vertex -2.52818 -1 -1.83683
    endloop
  endfacet
  facet normal 0 -1 2.22045e-16
    outer loop
      vertex 0 -1 -3.125
      vertex -3.125 -1 2.22045e-16
      vertex -0.965678 -1 -2.97205
    endloop
  endfacet
  facet normal 0 -1 2.22045e-16
    outer loop
      vertex 0.965678 -1 -2.97205
      vertex -3.125 -1 2.22045e-16
      vertex 0 -1 -3.125
    endloop
  endfacet
  facet normal 0 -1 2.22045e-16
    outer loop
      vertex -1.01393 -1 -1.39555
      vertex -3.125 -1 2.22045e-16
      vertex 0.965678 -1 -2.97205
    endloop
  endfacet
  facet normal 0 -1 2.22045e-16
    outer loop
      vertex -1.01393 -1 -1.39555
      vertex -1.39555 -1 -1.01393
      vertex -3.125 -1 2.22045e-16
    endloop
  endfacet
  facet normal 0 -1 2.22045e-16
    outer loop
      vertex 1.64057 -1 -0.533054
      vertex 1.39555 -1 -1.01393
      vertex 2.97205 -1 -0.965678
    endloop
  endfacet
  facet normal 0 -1 2.22045e-16
    outer loop
      vertex 3.125 -1 2.22045e-16
      vertex 1.725 -1 2.22045e-16
      vertex 2.97205 -1 -0.965678
    endloop
  endfacet
  facet normal 0 -1 2.22045e-16
    outer loop
      vertex 0 -1 1.725
      vertex 0.533054 -1 1.64057
      vertex 1.83683 -1 2.52818
    endloop
  endfacet
  facet normal 0 -1 2.22045e-16
    outer loop
      vertex 1.01393 -1 1.39555
      vertex 1.39555 -1 1.01393
      vertex 2.52818 -1 1.83683
    endloop
  endfacet
  facet normal 0 -1 2.22045e-16
    outer loop
      vertex 0 -1 3.125
      vertex -3.125 -1 2.22045e-16
      vertex 0.965678 -1 2.97205
    endloop
  endfacet
  facet normal 0 -1 2.22045e-16
    outer loop
      vertex -0.965678 -1 2.97205
      vertex -3.125 -1 2.22045e-16
      vertex 0 -1 3.125
    endloop
  endfacet
  facet normal 0 -1 2.22045e-16
    outer loop
      vertex -1.83683 -1 2.52818
      vertex -3.125 -1 2.22045e-16
      vertex -0.965678 -1 2.97205
    endloop
  endfacet
  facet normal 0 -1 2.22045e-16
    outer loop
      vertex -2.52818 -1 1.83683
      vertex -3.125 -1 2.22045e-16
      vertex -1.83683 -1 2.52818
    endloop
  endfacet
  facet normal 0 -1 2.22045e-16
    outer loop
      vertex -2.97205 -1 0.965678
      vertex -3.125 -1 2.22045e-16
      vertex -2.52818 -1 1.83683
    endloop
  endfacet
  facet normal 0 -1 2.22045e-16
    outer loop
      vertex 1.39555 -1 -1.01393
      vertex 1.01393 -1 -1.39555
      vertex 2.52818 -1 -1.83683
    endloop
  endfacet
  facet normal 0 -1 2.22045e-16
    outer loop
      vertex -1.01393 -1 1.39555
      vertex -0.533054 -1 1.64057
      vertex 0.965678 -1 2.97205
    endloop
  endfacet
  facet normal 0 -1 2.22045e-16
    outer loop
      vertex 1.39555 -1 1.01393
      vertex 1.64057 -1 0.533054
      vertex 2.97205 -1 0.965678
    endloop
  endfacet
  facet normal 0 -1 2.22045e-16
    outer loop
      vertex -1.01393 -1 1.39555
      vertex -3.125 -1 2.22045e-16
      vertex -1.39555 -1 1.01393
    endloop
  endfacet
  facet normal 0 -1 2.22045e-16
    outer loop
      vertex 0.965678 -1 2.97205
      vertex -3.125 -1 2.22045e-16
      vertex -1.01393 -1 1.39555
    endloop
  endfacet
  facet normal 0 -1 2.22045e-16
    outer loop
      vertex 0.965678 -1 2.97205
      vertex -0.533054 -1 1.64057
      vertex 1.83683 -1 2.52818
    endloop
  endfacet
  facet normal 0 -1 2.22045e-16
    outer loop
      vertex -0.533054 -1 1.64057
      vertex 0 -1 1.725
      vertex 1.83683 -1 2.52818
    endloop
  endfacet
  facet normal 0 -1 2.22045e-16
    outer loop
      vertex 1.83683 -1 2.52818
      vertex 0.533054 -1 1.64057
      vertex 2.52818 -1 1.83683
    endloop
  endfacet
  facet normal 0 -1 2.22045e-16
    outer loop
      vertex 0.533054 -1 1.64057
      vertex 1.01393 -1 1.39555
      vertex 2.52818 -1 1.83683
    endloop
  endfacet
  facet normal 0 -1 2.22045e-16
    outer loop
      vertex 2.52818 -1 1.83683
      vertex 1.39555 -1 1.01393
      vertex 2.97205 -1 0.965678
    endloop
  endfacet
  facet normal 0 -1 2.22045e-16
    outer loop
      vertex -1.64057 -1 0.533054
      vertex -1.39555 -1 1.01393
      vertex -3.125 -1 2.22045e-16
    endloop
  endfacet
  facet normal 0 -1 2.22045e-16
    outer loop
      vertex 2.97205 -1 0.965678
      vertex 1.64057 -1 0.533054
      vertex 3.125 -1 2.22045e-16
    endloop
  endfacet
  facet normal 0 -1 2.22045e-16
    outer loop
      vertex 1.64057 -1 0.533054
      vertex 1.725 -1 2.22045e-16
      vertex 3.125 -1 2.22045e-16
    endloop
  endfacet
  facet normal 0 -1 2.22045e-16
    outer loop
      vertex 1.725 -1 2.22045e-16
      vertex 1.64057 -1 -0.533054
      vertex 2.97205 -1 -0.965678
    endloop
  endfacet
  facet normal 0 -1 2.22045e-16
    outer loop
      vertex 2.97205 -1 -0.965678
      vertex 1.39555 -1 -1.01393
      vertex 2.52818 -1 -1.83683
    endloop
  endfacet
  facet normal 0 -1 2.22045e-16
    outer loop
      vertex -1.39555 -1 -1.01393
      vertex -1.64057 -1 -0.533054
      vertex -3.125 -1 2.22045e-16
    endloop
  endfacet
  facet normal 0 -1 2.22045e-16
    outer loop
      vertex 2.52818 -1 -1.83683
      vertex 1.01393 -1 -1.39555
      vertex 1.83683 -1 -2.52818
    endloop
  endfacet
  facet normal 0 -1 2.22045e-16
    outer loop
      vertex -1.725 -1 2.22045e-16
      vertex -1.64057 -1 0.533054
      vertex -3.125 -1 2.22045e-16
    endloop
  endfacet
  facet normal 0 -1 2.22045e-16
    outer loop
      vertex 1.01393 -1 -1.39555
      vertex 0.533054 -1 -1.64057
      vertex 1.83683 -1 -2.52818
    endloop
  endfacet
  facet normal 0 -1 2.22045e-16
    outer loop
      vertex 1.83683 -1 -2.52818
      vertex 0 -1 -1.725
      vertex 0.965678 -1 -2.97205
    endloop
  endfacet
  facet normal 0 -1 2.22045e-16
    outer loop
      vertex 0 -1 -1.725
      vertex -0.533054 -1 -1.64057
      vertex 0.965678 -1 -2.97205
    endloop
  endfacet
  facet normal 0 -1 2.22045e-16
    outer loop
      vertex -0.533054 -1 -1.64057
      vertex -1.01393 -1 -1.39555
      vertex 0.965678 -1 -2.97205
    endloop
  endfacet
  facet normal 0 -1 2.22045e-16
    outer loop
      vertex 0.533054 -1 -1.64057
      vertex 0 -1 -1.725
      vertex 1.83683 -1 -2.52818
    endloop
  endfacet
  facet normal 0 -1 2.22045e-16
    outer loop
      vertex -1.64057 -1 -0.533054
      vertex -1.725 -1 2.22045e-16
      vertex -3.125 -1 2.22045e-16
    endloop
  endfacet
  facet normal 0.987688 -3.47364e-17 -0.156439
    outer loop
      vertex -1.725 0 0
      vertex -1.64057 1.18362e-16 0.533054
      vertex -1.64057 -1 0.533054
    endloop
  endfacet
  facet normal 0.987688 -3.47364e-17 -0.156439
    outer loop
      vertex -1.725 -1 2.22045e-16
      vertex -1.725 0 0
      vertex -1.64057 -1 0.533054
    endloop
  endfacet
  facet normal 0.987688 3.47364e-17 0.156439
    outer loop
      vertex -1.725 0 0
      vertex -1.725 -1 2.22045e-16
      vertex -1.64057 -1 -0.533054
    endloop
  endfacet
  facet normal 0.987688 3.47364e-17 0.156439
    outer loop
      vertex -1.64057 -1.18362e-16 -0.533054
      vertex -1.725 0 0
      vertex -1.64057 -1 -0.533054
    endloop
  endfacet
  facet normal 0.891005 -1.00807e-16 -0.453993
    outer loop
      vertex -1.64057 1.18362e-16 0.533054
      vertex -1.39555 2.25138e-16 1.01393
      vertex -1.39555 -1 1.01393
    endloop
  endfacet
  facet normal 0.891005 -1.00807e-16 -0.453993
    outer loop
      vertex -1.64057 -1 0.533054
      vertex -1.64057 1.18362e-16 0.533054
      vertex -1.39555 -1 1.01393
    endloop
  endfacet
  facet normal 0.707107 -1.57009e-16 -0.707107
    outer loop
      vertex -1.39555 2.25138e-16 1.01393
      vertex -1.01393 3.09874e-16 1.39555
      vertex -1.01393 -1 1.39555
    endloop
  endfacet
  facet normal 0.707107 -1.57009e-16 -0.707107
    outer loop
      vertex -1.39555 -1 1.01393
      vertex -1.39555 2.25138e-16 1.01393
      vertex -1.01393 -1 1.39555
    endloop
  endfacet
  facet normal 0.453993 -1.97843e-16 -0.891005
    outer loop
      vertex -0.533054 3.6428e-16 1.64057
      vertex -0.533054 -1 1.64057
      vertex -1.01393 3.09874e-16 1.39555
    endloop
  endfacet
  facet normal 0.453993 -1.97843e-16 -0.891005
    outer loop
      vertex -1.01393 3.09874e-16 1.39555
      vertex -0.533054 -1 1.64057
      vertex -1.01393 -1 1.39555
    endloop
  endfacet
  facet normal 0.156439 -2.19311e-16 -0.987688
    outer loop
      vertex 0 3.83027e-16 1.725
      vertex 0 -1 1.725
      vertex -0.533054 3.6428e-16 1.64057
    endloop
  endfacet
  facet normal 0.156439 -2.19311e-16 -0.987688
    outer loop
      vertex -0.533054 3.6428e-16 1.64057
      vertex 0 -1 1.725
      vertex -0.533054 -1 1.64057
    endloop
  endfacet
  facet normal -0.156439 -2.19311e-16 -0.987688
    outer loop
      vertex 0.533054 3.6428e-16 1.64057
      vertex 0.533054 -1 1.64057
      vertex 0 3.83027e-16 1.725
    endloop
  endfacet
  facet normal -0.156439 -2.19311e-16 -0.987688
    outer loop
      vertex 0 3.83027e-16 1.725
      vertex 0.533054 -1 1.64057
      vertex 0 -1 1.725
    endloop
  endfacet
  facet normal -0.453993 -1.97843e-16 -0.891005
    outer loop
      vertex 1.01393 3.09874e-16 1.39555
      vertex 1.01393 -1 1.39555
      vertex 0.533054 3.6428e-16 1.64057
    endloop
  endfacet
  facet normal -0.453993 -1.97843e-16 -0.891005
    outer loop
      vertex 0.533054 3.6428e-16 1.64057
      vertex 1.01393 -1 1.39555
      vertex 0.533054 -1 1.64057
    endloop
  endfacet
  facet normal -0.707107 -1.57009e-16 -0.707107
    outer loop
      vertex 1.39555 2.25138e-16 1.01393
      vertex 1.39555 -1 1.01393
      vertex 1.01393 3.09874e-16 1.39555
    endloop
  endfacet
  facet normal -0.707107 -1.57009e-16 -0.707107
    outer loop
      vertex 1.01393 3.09874e-16 1.39555
      vertex 1.39555 -1 1.01393
      vertex 1.01393 -1 1.39555
    endloop
  endfacet
  facet normal -0.891005 -1.00807e-16 -0.453993
    outer loop
      vertex 1.64057 1.18362e-16 0.533054
      vertex 1.64057 -1 0.533054
      vertex 1.39555 2.25138e-16 1.01393
    endloop
  endfacet
  facet normal -0.891005 -1.00807e-16 -0.453993
    outer loop
      vertex 1.39555 2.25138e-16 1.01393
      vertex 1.64057 -1 0.533054
      vertex 1.39555 -1 1.01393
    endloop
  endfacet
  facet normal -0.987688 -3.47364e-17 -0.156439
    outer loop
      vertex 1.725 0 0
      vertex 1.725 -1 2.22045e-16
      vertex 1.64057 1.18362e-16 0.533054
    endloop
  endfacet
  facet normal -0.987688 -3.47364e-17 -0.156439
    outer loop
      vertex 1.64057 1.18362e-16 0.533054
      vertex 1.725 -1 2.22045e-16
      vertex 1.64057 -1 0.533054
    endloop
  endfacet
  facet normal -0.987688 3.47364e-17 0.156439
    outer loop
      vertex 1.64057 -1 -0.533054
      vertex 1.725 -1 2.22045e-16
      vertex 1.64057 -1.18362e-16 -0.533054
    endloop
  endfacet
  facet normal -0.987688 3.47364e-17 0.156439
    outer loop
      vertex 1.64057 -1.18362e-16 -0.533054
      vertex 1.725 -1 2.22045e-16
      vertex 1.725 0 0
    endloop
  endfacet
  facet normal -0.891005 1.00807e-16 0.453993
    outer loop
      vertex 1.39555 -1 -1.01393
      vertex 1.64057 -1 -0.533054
      vertex 1.39555 -2.25138e-16 -1.01393
    endloop
  endfacet
  facet normal -0.891005 1.00807e-16 0.453993
    outer loop
      vertex 1.39555 -2.25138e-16 -1.01393
      vertex 1.64057 -1 -0.533054
      vertex 1.64057 -1.18362e-16 -0.533054
    endloop
  endfacet
  facet normal -0.707107 1.57009e-16 0.707107
    outer loop
      vertex 1.01393 -1 -1.39555
      vertex 1.39555 -1 -1.01393
      vertex 1.01393 -3.09874e-16 -1.39555
    endloop
  endfacet
  facet normal -0.707107 1.57009e-16 0.707107
    outer loop
      vertex 1.01393 -3.09874e-16 -1.39555
      vertex 1.39555 -1 -1.01393
      vertex 1.39555 -2.25138e-16 -1.01393
    endloop
  endfacet
  facet normal -0.453993 1.97843e-16 0.891005
    outer loop
      vertex 0.533054 -3.6428e-16 -1.64057
      vertex 0.533054 -1 -1.64057
      vertex 1.01393 -1 -1.39555
    endloop
  endfacet
  facet normal -0.453993 1.97843e-16 0.891005
    outer loop
      vertex 1.01393 -3.09874e-16 -1.39555
      vertex 0.533054 -3.6428e-16 -1.64057
      vertex 1.01393 -1 -1.39555
    endloop
  endfacet
  facet normal -0.156439 2.19311e-16 0.987688
    outer loop
      vertex 0 -3.83027e-16 -1.725
      vertex 0 -1 -1.725
      vertex 0.533054 -1 -1.64057
    endloop
  endfacet
  facet normal -0.156439 2.19311e-16 0.987688
    outer loop
      vertex 0.533054 -3.6428e-16 -1.64057
      vertex 0 -3.83027e-16 -1.725
      vertex 0.533054 -1 -1.64057
    endloop
  endfacet
  facet normal 0.156439 2.19311e-16 0.987688
    outer loop
      vertex -0.533054 -3.6428e-16 -1.64057
      vertex -0.533054 -1 -1.64057
      vertex 0 -1 -1.725
    endloop
  endfacet
  facet normal 0.156439 2.19311e-16 0.987688
    outer loop
      vertex 0 -3.83027e-16 -1.725
      vertex -0.533054 -3.6428e-16 -1.64057
      vertex 0 -1 -1.725
    endloop
  endfacet
  facet normal 0.453993 1.97843e-16 0.891005
    outer loop
      vertex -1.01393 -3.09874e-16 -1.39555
      vertex -1.01393 -1 -1.39555
      vertex -0.533054 -1 -1.64057
    endloop
  endfacet
  facet normal 0.453993 1.97843e-16 0.891005
    outer loop
      vertex -0.533054 -3.6428e-16 -1.64057
      vertex -1.01393 -3.09874e-16 -1.39555
      vertex -0.533054 -1 -1.64057
    endloop
  endfacet
  facet normal 0.707107 1.57009e-16 0.707107
    outer loop
      vertex -1.39555 -2.25138e-16 -1.01393
      vertex -1.39555 -1 -1.01393
      vertex -1.01393 -1 -1.39555
    endloop
  endfacet
  facet normal 0.707107 1.57009e-16 0.707107
    outer loop
      vertex -1.01393 -3.09874e-16 -1.39555
      vertex -1.39555 -2.25138e-16 -1.01393
      vertex -1.01393 -1 -1.39555
    endloop
  endfacet
  facet normal 0.891005 1.00807e-16 0.453993
    outer loop
      vertex -1.64057 -1.18362e-16 -0.533054
      vertex -1.64057 -1 -0.533054
      vertex -1.39555 -1 -1.01393
    endloop
  endfacet
  facet normal 0.891005 1.00807e-16 0.453993
    outer loop
      vertex -1.39555 -2.25138e-16 -1.01393
      vertex -1.64057 -1.18362e-16 -0.533054
      vertex -1.39555 -1 -1.01393
    endloop
  endfacet
endsolid OpenSCAD_Model
