solid OpenSCAD_Model
  facet normal -1 0 0
    outer loop
      vertex -12.5 -12 -7
      vertex -12.5 -12 -6
      vertex -12.5 12 -7
    endloop
  endfacet
  facet normal -1 0 0
    outer loop
      vertex -12.5 12 -7
      vertex -12.5 -12 -6
      vertex -12.5 12 -6
    endloop
  endfacet
  facet normal 0 -1 0
    outer loop
      vertex -12.5 -12 -6
      vertex -12.5 -12 -7
      vertex -10 -12 -7
    endloop
  endfacet
  facet normal 0 -1 0
    outer loop
      vertex 10 -12 -6.5
      vertex -12.5 -12 -6
      vertex -10 -12 -6.5
    endloop
  endfacet
  facet normal 0 -1 0
    outer loop
      vertex -10 -12 -6.5
      vertex -12.5 -12 -6
      vertex -10 -12 -7
    endloop
  endfacet
  facet normal 0 -1 0
    outer loop
      vertex 12.5 -12 -6
      vertex -12.5 -12 -6
      vertex 10 -12 -6.5
    endloop
  endfacet
  facet normal 0 -1 0
    outer loop
      vertex 12.5 -12 -7
      vertex 10 -12 -6.5
      vertex 10 -12 -7
    endloop
  endfacet
  facet normal 0 -1 0
    outer loop
      vertex 12.5 -12 -6
      vertex 10 -12 -6.5
      vertex 12.5 -12 -7
    endloop
  endfacet
  facet normal 0 0 -1
    outer loop
      vertex -12.5 -12 -7
      vertex -12.5 12 -7
      vertex -10 -12 -7
    endloop
  endfacet
  facet normal 0 0 -1
    outer loop
      vertex -10 -6 -7
      vertex -12.5 12 -7
      vertex 12.5 12 -7
    endloop
  endfacet
  facet normal 0 0 -1
    outer loop
      vertex 10 -12 -7
      vertex 12.5 12 -7
      vertex 12.5 -12 -7
    endloop
  endfacet
  facet normal 0 0 -1
    outer loop
      vertex 10 -6 -7
      vertex 12.5 12 -7
      vertex 10 -12 -7
    endloop
  endfacet
  facet normal 0 0 -1
    outer loop
      vertex -10 -12 -7
      vertex -12.5 12 -7
      vertex -10 -6 -7
    endloop
  endfacet
  facet normal 0 0 -1
    outer loop
      vertex -10 -6 -7
      vertex 12.5 12 -7
      vertex 10 -6 -7
    endloop
  endfacet
  facet normal 0 1 0
    outer loop
      vertex -12.5 12 -7
      vertex -12.5 12 -6
      vertex 12.5 12 -7
    endloop
  endfacet
  facet normal 0 1 0
    outer loop
      vertex 12.5 12 -7
      vertex -12.5 12 -6
      vertex 12.5 12 -6
    endloop
  endfacet
  facet normal 0 0 1
    outer loop
      vertex -5 -7.5 -6
      vertex -12.5 -12 -6
      vertex 12.5 -12 -6
    endloop
  endfacet
  facet normal 0 0 1
    outer loop
      vertex 5 -7.5 -6
      vertex -5 -7.5 -6
      vertex 12.5 -12 -6
    endloop
  endfacet
  facet normal 0 0 1
    outer loop
      vertex -12.5 12 -6
      vertex -12.5 -12 -6
      vertex -5 -7.5 -6
    endloop
  endfacet
  facet normal 0 0 1
    outer loop
      vertex 5 2.5 -6
      vertex 5 -7.5 -6
      vertex 12.5 -12 -6
    endloop
  endfacet
  facet normal 0 0 1
    outer loop
      vertex -12.5 12 -6
      vertex -5 -7.5 -6
      vertex -5 2.5 -6
    endloop
  endfacet
  facet normal 0 0 1
    outer loop
      vertex 12.5 12 -6
      vertex 5 2.5 -6
      vertex 12.5 -12 -6
    endloop
  endfacet
  facet normal 0 0 1
    outer loop
      vertex 12.5 12 -6
      vertex -12.5 12 -6
      vertex 5 2.5 -6
    endloop
  endfacet
  facet normal 0 0 1
    outer loop
      vertex -5 2.5 -6
      vertex 5 2.5 -6
      vertex -12.5 12 -6
    endloop
  endfacet
  facet normal 1 0 0
    outer loop
      vertex 12.5 -12 -6
      vertex 12.5 -12 -7
      vertex 12.5 12 -7
    endloop
  endfacet
  facet normal 1 0 0
    outer loop
      vertex 12.5 12 -6
      vertex 12.5 -12 -6
      vertex 12.5 12 -7
    endloop
  endfacet
  facet normal 1 0 0
    outer loop
      vertex 10 -20 -6.5
      vertex 10 -20 -9.5
      vertex 10 -6 -9.5
    endloop
  endfacet
  facet normal 1 0 0
    outer loop
      vertex 10 -12 -7
      vertex 10 -20 -6.5
      vertex 10 -6 -9.5
    endloop
  endfacet
  facet normal 1 0 0
    outer loop
      vertex 10 -6 -7
      vertex 10 -12 -7
      vertex 10 -6 -9.5
    endloop
  endfacet
  facet normal 1 0 0
    outer loop
      vertex 10 -12 -7
      vertex 10 -12 -6.5
      vertex 10 -20 -6.5
    endloop
  endfacet
  facet normal 0 0 1
    outer loop
      vertex -10 -12 -6.5
      vertex -10 -20 -6.5
      vertex 10 -20 -6.5
    endloop
  endfacet
  facet normal 0 0 1
    outer loop
      vertex 10 -12 -6.5
      vertex -10 -12 -6.5
      vertex 10 -20 -6.5
    endloop
  endfacet
  facet normal -1 0 0
    outer loop
      vertex -10 -20 -9.5
      vertex -10 -20 -6.5
      vertex -10 -6 -9.5
    endloop
  endfacet
  facet normal -1 0 0
    outer loop
      vertex -10 -12 -7
      vertex -10 -20 -6.5
      vertex -10 -12 -6.5
    endloop
  endfacet
  facet normal -1 0 0
    outer loop
      vertex -10 -6 -9.5
      vertex -10 -20 -6.5
      vertex -10 -12 -7
    endloop
  endfacet
  facet normal -1 0 0
    outer loop
      vertex -10 -6 -7
      vertex -10 -6 -9.5
      vertex -10 -12 -7
    endloop
  endfacet
  facet normal 0 1 0
    outer loop
      vertex -10 -6 -9.5
      vertex -10 -6 -7
      vertex 10 -6 -9.5
    endloop
  endfacet
  facet normal 0 1 0
    outer loop
      vertex 10 -6 -9.5
      vertex -10 -6 -7
      vertex 10 -6 -7
    endloop
  endfacet
  facet normal -1 0 0
    outer loop
      vertex -5 -7.5 -6
      vertex -5 -7.5 -0.7
      vertex -5 2.5 -6
    endloop
  endfacet
  facet normal -1 0 0
    outer loop
      vertex -5 2.5 -6
      vertex -5 -7.5 -0.7
      vertex -5 2.5 -0.7
    endloop
  endfacet
  facet normal 0 -1 0
    outer loop
      vertex -5 -7.5 -0.7
      vertex -5 -7.5 -6
      vertex 5 -7.5 -6
    endloop
  endfacet
  facet normal 0 -1 0
    outer loop
      vertex 5 -7.5 -0.7
      vertex -5 -7.5 -0.7
      vertex 5 -7.5 -6
    endloop
  endfacet
  facet normal 1 0 0
    outer loop
      vertex 5 -7.5 -0.7
      vertex 5 -7.5 -6
      vertex 5 2.5 -6
    endloop
  endfacet
  facet normal 1 0 0
    outer loop
      vertex 5 2.5 -0.7
      vertex 5 -7.5 -0.7
      vertex 5 2.5 -6
    endloop
  endfacet
  facet normal 0 1 0
    outer loop
      vertex -5 2.5 -6
      vertex -5 2.5 -0.7
      vertex 5 2.5 -6
    endloop
  endfacet
  facet normal 0 1 0
    outer loop
      vertex 5 2.5 -6
      vertex -5 2.5 -0.7
      vertex 5 2.5 -0.7
    endloop
  endfacet
  facet normal 0 -1 0
    outer loop
      vertex -10 -20 -6.5
      vertex -10 -20 -9.5
      vertex 10 -20 -9.5
    endloop
  endfacet
  facet normal 0 -1 0
    outer loop
      vertex 10 -20 -6.5
      vertex -10 -20 -6.5
      vertex 10 -20 -9.5
    endloop
  endfacet
  facet normal 0 0 -1
    outer loop
      vertex -10 -20 -9.5
      vertex -10 -6 -9.5
      vertex 10 -20 -9.5
    endloop
  endfacet
  facet normal 0 0 -1
    outer loop
      vertex 10 -20 -9.5
      vertex -10 -6 -9.5
      vertex 10 -6 -9.5
    endloop
  endfacet
  facet normal 0 0 1
    outer loop
      vertex 0 -7 -0.7
      vertex -5 -7.5 -0.7
      vertex 5 -7.5 -0.7
    endloop
  endfacet
  facet normal 0 0 1
    outer loop
      vertex 0 -7 -0.7
      vertex -1.39058 -6.77975 -0.7
      vertex -5 -7.5 -0.7
    endloop
  endfacet
  facet normal 0 0 1
    outer loop
      vertex -4.5 -2.5 -0.7
      vertex -5 -7.5 -0.7
      vertex -4.27975 -3.89058 -0.7
    endloop
  endfacet
  facet normal 0 0 1
    outer loop
      vertex -3.64058 0.145034 -0.7
      vertex -2.64503 1.14058 -0.7
      vertex -5 2.5 -0.7
    endloop
  endfacet
  facet normal 0 0 1
    outer loop
      vertex -5 2.5 -0.7
      vertex -5 -7.5 -0.7
      vertex -4.5 -2.5 -0.7
    endloop
  endfacet
  facet normal 0 0 1
    outer loop
      vertex 2.64503 -6.14058 -0.7
      vertex 1.39058 -6.77975 -0.7
      vertex 5 -7.5 -0.7
    endloop
  endfacet
  facet normal 0 0 1
    outer loop
      vertex -5 2.5 -0.7
      vertex -4.27975 -1.10942 -0.7
      vertex -3.64058 0.145034 -0.7
    endloop
  endfacet
  facet normal 0 0 1
    outer loop
      vertex -1.39058 1.77975 -0.7
      vertex -5 2.5 -0.7
      vertex -2.64503 1.14058 -0.7
    endloop
  endfacet
  facet normal 0 0 1
    outer loop
      vertex 0 2 -0.7
      vertex -5 2.5 -0.7
      vertex -1.39058 1.77975 -0.7
    endloop
  endfacet
  facet normal 0 0 1
    outer loop
      vertex 4.5 -2.5 -0.7
      vertex 4.27975 -3.89058 -0.7
      vertex 5 -7.5 -0.7
    endloop
  endfacet
  facet normal 0 0 1
    outer loop
      vertex 5 2.5 -0.7
      vertex -5 2.5 -0.7
      vertex 0 2 -0.7
    endloop
  endfacet
  facet normal 0 0 1
    outer loop
      vertex 5 2.5 -0.7
      vertex 1.39058 1.77975 -0.7
      vertex 2.64503 1.14058 -0.7
    endloop
  endfacet
  facet normal 0 0 1
    outer loop
      vertex 5 2.5 -0.7
      vertex 2.64503 1.14058 -0.7
      vertex 3.64058 0.145034 -0.7
    endloop
  endfacet
  facet normal 0 0 1
    outer loop
      vertex 4.27975 -3.89058 -0.7
      vertex 3.64058 -5.14503 -0.7
      vertex 5 -7.5 -0.7
    endloop
  endfacet
  facet normal 0 0 1
    outer loop
      vertex 5 2.5 -0.7
      vertex 3.64058 0.145034 -0.7
      vertex 4.27975 -1.10942 -0.7
    endloop
  endfacet
  facet normal 0 0 1
    outer loop
      vertex 5 2.5 -0.7
      vertex 4.5 -2.5 -0.7
      vertex 5 -7.5 -0.7
    endloop
  endfacet
  facet normal 0 0 1
    outer loop
      vertex 5 2.5 -0.7
      vertex 4.27975 -1.10942 -0.7
      vertex 4.5 -2.5 -0.7
    endloop
  endfacet
  facet normal 0 0 1
    outer loop
      vertex 1.39058 -6.77975 -0.7
      vertex 0 -7 -0.7
      vertex 5 -7.5 -0.7
    endloop
  endfacet
  facet normal 0 0 1
    outer loop
      vertex -2.64503 -6.14058 -0.7
      vertex -5 -7.5 -0.7
      vertex -1.39058 -6.77975 -0.7
    endloop
  endfacet
  facet normal 0 0 1
    outer loop
      vertex -3.64058 -5.14503 -0.7
      vertex -5 -7.5 -0.7
      vertex -2.64503 -6.14058 -0.7
    endloop
  endfacet
  facet normal 0 0 1
    outer loop
      vertex -4.27975 -3.89058 -0.7
      vertex -5 -7.5 -0.7
      vertex -3.64058 -5.14503 -0.7
    endloop
  endfacet
  facet normal 0 0 1
    outer loop
      vertex -4.5 -2.5 -0.7
      vertex -4.27975 -1.10942 -0.7
      vertex -5 2.5 -0.7
    endloop
  endfacet
  facet normal 0 0 1
    outer loop
      vertex 0 2 -0.7
      vertex 1.39058 1.77975 -0.7
      vertex 5 2.5 -0.7
    endloop
  endfacet
  facet normal 0 0 1
    outer loop
      vertex 3.64058 -5.14503 -0.7
      vertex 2.64503 -6.14058 -0.7
      vertex 5 -7.5 -0.7
    endloop
  endfacet
  facet normal -0.987688 -0.156435 0
    outer loop
      vertex -4.5 -2.5 -0.7
      vertex -4.27975 -3.89058 -0.7
      vertex -4.5 -2.5 18.5
    endloop
  endfacet
  facet normal -0.987688 -0.156435 0
    outer loop
      vertex -4.5 -2.5 18.5
      vertex -4.27975 -3.89058 -0.7
      vertex -4.27975 -3.89058 18.5
    endloop
  endfacet
  facet normal -0.891007 -0.45399 0
    outer loop
      vertex -4.27975 -3.89058 -0.7
      vertex -3.64058 -5.14503 -0.7
      vertex -4.27975 -3.89058 18.5
    endloop
  endfacet
  facet normal -0.891007 -0.45399 0
    outer loop
      vertex -4.27975 -3.89058 18.5
      vertex -3.64058 -5.14503 -0.7
      vertex -3.64058 -5.14503 18.5
    endloop
  endfacet
  facet normal -0.707107 -0.707107 0
    outer loop
      vertex -3.64058 -5.14503 18.5
      vertex -3.64058 -5.14503 -0.7
      vertex -2.64503 -6.14058 -0.7
    endloop
  endfacet
  facet normal -0.707107 -0.707107 0
    outer loop
      vertex -2.64503 -6.14058 18.5
      vertex -3.64058 -5.14503 18.5
      vertex -2.64503 -6.14058 -0.7
    endloop
  endfacet
  facet normal -0.45399 -0.891007 0
    outer loop
      vertex -2.64503 -6.14058 18.5
      vertex -2.64503 -6.14058 -0.7
      vertex -1.39058 -6.77975 -0.7
    endloop
  endfacet
  facet normal -0.45399 -0.891007 0
    outer loop
      vertex -1.39058 -6.77975 18.5
      vertex -2.64503 -6.14058 18.5
      vertex -1.39058 -6.77975 -0.7
    endloop
  endfacet
  facet normal -0.156435 -0.987688 0
    outer loop
      vertex -1.39058 -6.77975 18.5
      vertex -1.39058 -6.77975 -0.7
      vertex 0 -7 -0.7
    endloop
  endfacet
  facet normal -0.156435 -0.987688 0
    outer loop
      vertex 0 -7 18.5
      vertex -1.39058 -6.77975 18.5
      vertex 0 -7 -0.7
    endloop
  endfacet
  facet normal 0.156435 -0.987688 0
    outer loop
      vertex 0 -7 18.5
      vertex 0 -7 -0.7
      vertex 1.39058 -6.77975 -0.7
    endloop
  endfacet
  facet normal 0.156435 -0.987688 0
    outer loop
      vertex 1.39058 -6.77975 18.5
      vertex 0 -7 18.5
      vertex 1.39058 -6.77975 -0.7
    endloop
  endfacet
  facet normal 0.45399 -0.891007 0
    outer loop
      vertex 1.39058 -6.77975 18.5
      vertex 1.39058 -6.77975 -0.7
      vertex 2.64503 -6.14058 -0.7
    endloop
  endfacet
  facet normal 0.45399 -0.891007 0
    outer loop
      vertex 2.64503 -6.14058 18.5
      vertex 1.39058 -6.77975 18.5
      vertex 2.64503 -6.14058 -0.7
    endloop
  endfacet
  facet normal 0.707107 -0.707107 0
    outer loop
      vertex 2.64503 -6.14058 18.5
      vertex 2.64503 -6.14058 -0.7
      vertex 3.64058 -5.14503 -0.7
    endloop
  endfacet
  facet normal 0.707107 -0.707107 0
    outer loop
      vertex 3.64058 -5.14503 18.5
      vertex 2.64503 -6.14058 18.5
      vertex 3.64058 -5.14503 -0.7
    endloop
  endfacet
  facet normal 0.891007 -0.45399 0
    outer loop
      vertex 3.64058 -5.14503 18.5
      vertex 3.64058 -5.14503 -0.7
      vertex 4.27975 -3.89058 -0.7
    endloop
  endfacet
  facet normal 0.891007 -0.45399 0
    outer loop
      vertex 4.27975 -3.89058 18.5
      vertex 3.64058 -5.14503 18.5
      vertex 4.27975 -3.89058 -0.7
    endloop
  endfacet
  facet normal 0.987688 -0.156435 0
    outer loop
      vertex 4.27975 -3.89058 18.5
      vertex 4.27975 -3.89058 -0.7
      vertex 4.5 -2.5 -0.7
    endloop
  endfacet
  facet normal 0.987688 -0.156435 0
    outer loop
      vertex 4.5 -2.5 18.5
      vertex 4.27975 -3.89058 18.5
      vertex 4.5 -2.5 -0.7
    endloop
  endfacet
  facet normal 0.987688 0.156435 0
    outer loop
      vertex 4.5 -2.5 -0.7
      vertex 4.27975 -1.10942 -0.7
      vertex 4.27975 -1.10942 18.5
    endloop
  endfacet
  facet normal 0.987688 0.156435 0
    outer loop
      vertex 4.5 -2.5 18.5
      vertex 4.5 -2.5 -0.7
      vertex 4.27975 -1.10942 18.5
    endloop
  endfacet
  facet normal 0.891007 0.45399 0
    outer loop
      vertex 4.27975 -1.10942 -0.7
      vertex 3.64058 0.145034 -0.7
      vertex 3.64058 0.145034 18.5
    endloop
  endfacet
  facet normal 0.891007 0.45399 0
    outer loop
      vertex 4.27975 -1.10942 18.5
      vertex 4.27975 -1.10942 -0.7
      vertex 3.64058 0.145034 18.5
    endloop
  endfacet
  facet normal 0.707107 0.707107 0
    outer loop
      vertex 2.64503 1.14058 -0.7
      vertex 2.64503 1.14058 18.5
      vertex 3.64058 0.145034 -0.7
    endloop
  endfacet
  facet normal 0.707107 0.707107 0
    outer loop
      vertex 3.64058 0.145034 -0.7
      vertex 2.64503 1.14058 18.5
      vertex 3.64058 0.145034 18.5
    endloop
  endfacet
  facet normal 0.45399 0.891007 0
    outer loop
      vertex 1.39058 1.77975 -0.7
      vertex 1.39058 1.77975 18.5
      vertex 2.64503 1.14058 -0.7
    endloop
  endfacet
  facet normal 0.45399 0.891007 0
    outer loop
      vertex 2.64503 1.14058 -0.7
      vertex 1.39058 1.77975 18.5
      vertex 2.64503 1.14058 18.5
    endloop
  endfacet
  facet normal 0.156435 0.987688 0
    outer loop
      vertex 0 2 -0.7
      vertex 0 2 18.5
      vertex 1.39058 1.77975 -0.7
    endloop
  endfacet
  facet normal 0.156435 0.987688 0
    outer loop
      vertex 1.39058 1.77975 -0.7
      vertex 0 2 18.5
      vertex 1.39058 1.77975 18.5
    endloop
  endfacet
  facet normal -0.156435 0.987688 0
    outer loop
      vertex -1.39058 1.77975 -0.7
      vertex -1.39058 1.77975 18.5
      vertex 0 2 -0.7
    endloop
  endfacet
  facet normal -0.156435 0.987688 0
    outer loop
      vertex 0 2 -0.7
      vertex -1.39058 1.77975 18.5
      vertex 0 2 18.5
    endloop
  endfacet
  facet normal -0.45399 0.891007 0
    outer loop
      vertex -2.64503 1.14058 -0.7
      vertex -2.64503 1.14058 18.5
      vertex -1.39058 1.77975 -0.7
    endloop
  endfacet
  facet normal -0.45399 0.891007 0
    outer loop
      vertex -1.39058 1.77975 -0.7
      vertex -2.64503 1.14058 18.5
      vertex -1.39058 1.77975 18.5
    endloop
  endfacet
  facet normal -0.707107 0.707107 0
    outer loop
      vertex -3.64058 0.145034 -0.7
      vertex -3.64058 0.145034 18.5
      vertex -2.64503 1.14058 -0.7
    endloop
  endfacet
  facet normal -0.707107 0.707107 0
    outer loop
      vertex -2.64503 1.14058 -0.7
      vertex -3.64058 0.145034 18.5
      vertex -2.64503 1.14058 18.5
    endloop
  endfacet
  facet normal -0.891007 0.45399 0
    outer loop
      vertex -4.27975 -1.10942 -0.7
      vertex -4.27975 -1.10942 18.5
      vertex -3.64058 0.145034 -0.7
    endloop
  endfacet
  facet normal -0.891007 0.45399 0
    outer loop
      vertex -3.64058 0.145034 -0.7
      vertex -4.27975 -1.10942 18.5
      vertex -3.64058 0.145034 18.5
    endloop
  endfacet
  facet normal -0.987688 0.156435 0
    outer loop
      vertex -4.5 -2.5 -0.7
      vertex -4.5 -2.5 18.5
      vertex -4.27975 -1.10942 -0.7
    endloop
  endfacet
  facet normal -0.987688 0.156435 0
    outer loop
      vertex -4.27975 -1.10942 -0.7
      vertex -4.5 -2.5 18.5
      vertex -4.27975 -1.10942 18.5
    endloop
  endfacet
  facet normal 0 0 1
    outer loop
      vertex -4.27975 -1.10942 18.5
      vertex -4.5 -2.5 18.5
      vertex -4.27975 -3.89058 18.5
    endloop
  endfacet
  facet normal 0 0 1
    outer loop
      vertex -2.64503 -6.14058 18.5
      vertex -4.27975 -1.10942 18.5
      vertex -3.64058 -5.14503 18.5
    endloop
  endfacet
  facet normal 0 0 1
    outer loop
      vertex -3.64058 -5.14503 18.5
      vertex -4.27975 -1.10942 18.5
      vertex -4.27975 -3.89058 18.5
    endloop
  endfacet
  facet normal 0 0 1
    outer loop
      vertex -1.39058 -6.77975 18.5
      vertex -4.27975 -1.10942 18.5
      vertex -2.64503 -6.14058 18.5
    endloop
  endfacet
  facet normal 0 0 1
    outer loop
      vertex 0 -7 18.5
      vertex -4.27975 -1.10942 18.5
      vertex -1.39058 -6.77975 18.5
    endloop
  endfacet
  facet normal 0 0 1
    outer loop
      vertex 1.39058 -6.77975 18.5
      vertex -4.27975 -1.10942 18.5
      vertex 0 -7 18.5
    endloop
  endfacet
  facet normal 0 0 1
    outer loop
      vertex 2.64503 -6.14058 18.5
      vertex -4.27975 -1.10942 18.5
      vertex 1.39058 -6.77975 18.5
    endloop
  endfacet
  facet normal 0 0 1
    outer loop
      vertex 3.64058 -5.14503 18.5
      vertex -4.27975 -1.10942 18.5
      vertex 2.64503 -6.14058 18.5
    endloop
  endfacet
  facet normal 0 0 1
    outer loop
      vertex 4.27975 -3.89058 18.5
      vertex -4.27975 -1.10942 18.5
      vertex 3.64058 -5.14503 18.5
    endloop
  endfacet
  facet normal 0 0 1
    outer loop
      vertex 4.5 -2.5 18.5
      vertex -4.27975 -1.10942 18.5
      vertex 4.27975 -3.89058 18.5
    endloop
  endfacet
  facet normal 0 0 1
    outer loop
      vertex 4.27975 -1.10942 18.5
      vertex -4.27975 -1.10942 18.5
      vertex 4.5 -2.5 18.5
    endloop
  endfacet
  facet normal 0 0 1
    outer loop
      vertex 3.64058 0.145034 18.5
      vertex -4.27975 -1.10942 18.5
      vertex 4.27975 -1.10942 18.5
    endloop
  endfacet
  facet normal 0 0 1
    outer loop
      vertex 2.64503 1.14058 18.5
      vertex -4.27975 -1.10942 18.5
      vertex 3.64058 0.145034 18.5
    endloop
  endfacet
  facet normal 0 0 1
    outer loop
      vertex 1.39058 1.77975 18.5
      vertex -4.27975 -1.10942 18.5
      vertex 2.64503 1.14058 18.5
    endloop
  endfacet
  facet normal 0 0 1
    outer loop
      vertex 0 2 18.5
      vertex -4.27975 -1.10942 18.5
      vertex 1.39058 1.77975 18.5
    endloop
  endfacet
  facet normal 0 0 1
    outer loop
      vertex -1.39058 1.77975 18.5
      vertex -4.27975 -1.10942 18.5
      vertex 0 2 18.5
    endloop
  endfacet
  facet normal 0 0 1
    outer loop
      vertex -2.64503 1.14058 18.5
      vertex -4.27975 -1.10942 18.5
      vertex -1.39058 1.77975 18.5
    endloop
  endfacet
  facet normal 0 0 1
    outer loop
      vertex -3.64058 0.145034 18.5
      vertex -4.27975 -1.10942 18.5
      vertex -2.64503 1.14058 18.5
    endloop
  endfacet
endsolid OpenSCAD_Model
