solid OpenSCAD_Model
  facet normal -1 0 0
    outer loop
      vertex -14.5 -21 0
      vertex -14.5 13 0
      vertex -14.5 -21 -15
    endloop
  endfacet
  facet normal -1 0 0
    outer loop
      vertex -14.5 -21 -15
      vertex -14.5 13 0
      vertex -14.5 13 -15
    endloop
  endfacet
  facet normal 0 0 1
    outer loop
      vertex -14.5 -21 0
      vertex 14.5 -21 0
      vertex 14.5 13 0
    endloop
  endfacet
  facet normal 0 0 1
    outer loop
      vertex -14.5 13 0
      vertex -14.5 -21 0
      vertex 14.5 13 0
    endloop
  endfacet
  facet normal 0 -1 0
    outer loop
      vertex -14.5 -21 -15
      vertex 14.5 -21 -15
      vertex 14.5 -21 0
    endloop
  endfacet
  facet normal 0 -1 0
    outer loop
      vertex -14.5 -21 0
      vertex -14.5 -21 -15
      vertex 14.5 -21 0
    endloop
  endfacet
  facet normal 0 0 -1
    outer loop
      vertex -14.5 13 -15
      vertex 14.5 13 -15
      vertex -14.5 -21 -15
    endloop
  endfacet
  facet normal 0 0 -1
    outer loop
      vertex -14.5 -21 -15
      vertex 14.5 13 -15
      vertex 14.5 -21 -15
    endloop
  endfacet
  facet normal 0 1 0
    outer loop
      vertex -14.5 13 0
      vertex 14.5 13 0
      vertex -14.5 13 -15
    endloop
  endfacet
  facet normal 0 1 0
    outer loop
      vertex -14.5 13 -15
      vertex 14.5 13 0
      vertex 14.5 13 -15
    endloop
  endfacet
  facet normal 1 0 0
    outer loop
      vertex 14.5 -21 -15
      vertex 14.5 13 -15
      vertex 14.5 13 0
    endloop
  endfacet
  facet normal 1 0 0
    outer loop
      vertex 14.5 -21 0
      vertex 14.5 -21 -15
      vertex 14.5 13 0
    endloop
  endfacet
endsolid OpenSCAD_Model
