solid OpenSCAD_Model
  facet normal -1 0 0
    outer loop
      vertex -10000 0 190000
      vertex -10000 200000 190000
      vertex -10000 0 -10000
    endloop
  endfacet
  facet normal -1 0 0
    outer loop
      vertex -10000 0 -10000
      vertex -10000 200000 190000
      vertex -10000 200000 -10000
    endloop
  endfacet
  facet normal 0 0 1
    outer loop
      vertex -10000 0 190000
      vertex 190000 0 190000
      vertex 190000 200000 190000
    endloop
  endfacet
  facet normal 0 0 1
    outer loop
      vertex -10000 200000 190000
      vertex -10000 0 190000
      vertex 190000 200000 190000
    endloop
  endfacet
  facet normal 0 -1 0
    outer loop
      vertex -10000 0 -10000
      vertex 190000 0 -10000
      vertex 190000 0 190000
    endloop
  endfacet
  facet normal 0 -1 0
    outer loop
      vertex -10000 0 190000
      vertex -10000 0 -10000
      vertex 190000 0 190000
    endloop
  endfacet
  facet normal 0 0 -1
    outer loop
      vertex -10000 200000 -10000
      vertex 190000 200000 -10000
      vertex -10000 0 -10000
    endloop
  endfacet
  facet normal 0 0 -1
    outer loop
      vertex -10000 0 -10000
      vertex 190000 200000 -10000
      vertex 190000 0 -10000
    endloop
  endfacet
  facet normal 0 1 0
    outer loop
      vertex -10000 200000 190000
      vertex 190000 200000 190000
      vertex -10000 200000 -10000
    endloop
  endfacet
  facet normal 0 1 0
    outer loop
      vertex -10000 200000 -10000
      vertex 190000 200000 190000
      vertex 190000 200000 -10000
    endloop
  endfacet
  facet normal 1 0 0
    outer loop
      vertex 190000 0 -10000
      vertex 190000 200000 -10000
      vertex 190000 200000 190000
    endloop
  endfacet
  facet normal 1 0 0
    outer loop
      vertex 190000 0 190000
      vertex 190000 0 -10000
      vertex 190000 200000 190000
    endloop
  endfacet
endsolid OpenSCAD_Model
