solid OpenSCAD_Model
  facet normal 0 -2.22045e-16 -1
    outer loop
      vertex 190000 10000 -2.22045e-12
      vertex 190000 -190000 4.21885e-11
      vertex -10000 10000 -2.22045e-12
    endloop
  endfacet
  facet normal 0 -2.22045e-16 -1
    outer loop
      vertex -10000 10000 -2.22045e-12
      vertex 190000 -190000 4.21885e-11
      vertex -10000 -190000 4.21885e-11
    endloop
  endfacet
  facet normal -1 0 0
    outer loop
      vertex -10000 -190000 4.21885e-11
      vertex -10000 -190000 200000
      vertex -10000 10000 -2.22045e-12
    endloop
  endfacet
  facet normal -1 0 0
    outer loop
      vertex -10000 10000 -2.22045e-12
      vertex -10000 -190000 200000
      vertex -10000 10000 200000
    endloop
  endfacet
  facet normal 0 -1 2.22045e-16
    outer loop
      vertex -10000 -190000 4.21885e-11
      vertex 190000 -190000 4.21885e-11
      vertex 190000 -190000 200000
    endloop
  endfacet
  facet normal 0 -1 2.22045e-16
    outer loop
      vertex -10000 -190000 200000
      vertex -10000 -190000 4.21885e-11
      vertex 190000 -190000 200000
    endloop
  endfacet
  facet normal 0 1 -2.22045e-16
    outer loop
      vertex -10000 10000 200000
      vertex 190000 10000 200000
      vertex -10000 10000 -2.22045e-12
    endloop
  endfacet
  facet normal 0 1 -2.22045e-16
    outer loop
      vertex -10000 10000 -2.22045e-12
      vertex 190000 10000 200000
      vertex 190000 10000 -2.22045e-12
    endloop
  endfacet
  facet normal 1 0 0
    outer loop
      vertex 190000 10000 -2.22045e-12
      vertex 190000 10000 200000
      vertex 190000 -190000 200000
    endloop
  endfacet
  facet normal 1 0 0
    outer loop
      vertex 190000 -190000 4.21885e-11
      vertex 190000 10000 -2.22045e-12
      vertex 190000 -190000 200000
    endloop
  endfacet
  facet normal 0 2.22045e-16 1
    outer loop
      vertex -10000 10000 200000
      vertex -10000 -190000 200000
      vertex 190000 -190000 200000
    endloop
  endfacet
  facet normal 0 2.22045e-16 1
    outer loop
      vertex 190000 10000 200000
      vertex -10000 10000 200000
      vertex 190000 -190000 200000
    endloop
  endfacet
endsolid OpenSCAD_Model
