solid OpenSCAD_Model
  facet normal -1 0 0
    outer loop
      vertex -19.665 -14 -3
      vertex -19.665 14 -3
      vertex -19.665 -14 -18
    endloop
  endfacet
  facet normal -1 0 0
    outer loop
      vertex -19.665 -14 -18
      vertex -19.665 14 -3
      vertex -19.665 14 -18
    endloop
  endfacet
  facet normal 0 0 1
    outer loop
      vertex -19.665 -14 -3
      vertex 19.665 -14 -3
      vertex 19.665 14 -3
    endloop
  endfacet
  facet normal 0 0 1
    outer loop
      vertex -19.665 14 -3
      vertex -19.665 -14 -3
      vertex 19.665 14 -3
    endloop
  endfacet
  facet normal 0 -1 0
    outer loop
      vertex -19.665 -14 -18
      vertex 19.665 -14 -18
      vertex 19.665 -14 -3
    endloop
  endfacet
  facet normal 0 -1 0
    outer loop
      vertex -19.665 -14 -3
      vertex -19.665 -14 -18
      vertex 19.665 -14 -3
    endloop
  endfacet
  facet normal 0 0 -1
    outer loop
      vertex -19.665 14 -18
      vertex 19.665 14 -18
      vertex -19.665 -14 -18
    endloop
  endfacet
  facet normal 0 0 -1
    outer loop
      vertex -19.665 -14 -18
      vertex 19.665 14 -18
      vertex 19.665 -14 -18
    endloop
  endfacet
  facet normal 0 1 0
    outer loop
      vertex -19.665 14 -3
      vertex 19.665 14 -3
      vertex -19.665 14 -18
    endloop
  endfacet
  facet normal 0 1 0
    outer loop
      vertex -19.665 14 -18
      vertex 19.665 14 -3
      vertex 19.665 14 -18
    endloop
  endfacet
  facet normal 1 0 0
    outer loop
      vertex 19.665 -14 -18
      vertex 19.665 14 -18
      vertex 19.665 14 -3
    endloop
  endfacet
  facet normal 1 0 0
    outer loop
      vertex 19.665 -14 -3
      vertex 19.665 -14 -18
      vertex 19.665 14 -3
    endloop
  endfacet
endsolid OpenSCAD_Model
