solid OpenSCAD_Model
  facet normal 0.999507 0.0314109 0
    outer loop
      vertex 3.175 0 0.5
      vertex 3.16873 0.19936 0
      vertex 3.16873 0.19936 0.5
    endloop
  endfacet
  facet normal 0.999507 0.0314109 0
    outer loop
      vertex 3.16873 0.19936 0
      vertex 3.175 0 0.5
      vertex 3.175 0 0
    endloop
  endfacet
  facet normal 0.995562 0.0941084 0
    outer loop
      vertex 3.16873 0.19936 0.5
      vertex 3.14996 0.397933 0
      vertex 3.14996 0.397933 0.5
    endloop
  endfacet
  facet normal 0.995562 0.0941084 0
    outer loop
      vertex 3.14996 0.397933 0
      vertex 3.16873 0.19936 0.5
      vertex 3.16873 0.19936 0
    endloop
  endfacet
  facet normal 0.987688 0.156434 0
    outer loop
      vertex 3.14996 0.397933 0.5
      vertex 3.11876 0.594936 0
      vertex 3.11876 0.594936 0.5
    endloop
  endfacet
  facet normal 0.987688 0.156434 0
    outer loop
      vertex 3.11876 0.594936 0
      vertex 3.14996 0.397933 0.5
      vertex 3.14996 0.397933 0
    endloop
  endfacet
  facet normal 0.975917 0.218143 0
    outer loop
      vertex 3.11876 0.594936 0.5
      vertex 3.07525 0.78959 0
      vertex 3.07525 0.78959 0.5
    endloop
  endfacet
  facet normal 0.975917 0.218143 0
    outer loop
      vertex 3.07525 0.78959 0
      vertex 3.11876 0.594936 0.5
      vertex 3.11876 0.594936 0
    endloop
  endfacet
  facet normal 0.960294 0.278991 0
    outer loop
      vertex 3.07525 0.78959 0.5
      vertex 3.0196 0.981129 0
      vertex 3.0196 0.981129 0.5
    endloop
  endfacet
  facet normal 0.960294 0.278991 0
    outer loop
      vertex 3.0196 0.981129 0
      vertex 3.07525 0.78959 0.5
      vertex 3.07525 0.78959 0
    endloop
  endfacet
  facet normal 0.940881 0.338737 0
    outer loop
      vertex 3.0196 0.981129 0.5
      vertex 2.95204 1.1688 0
      vertex 2.95204 1.1688 0.5
    endloop
  endfacet
  facet normal 0.940881 0.338737 0
    outer loop
      vertex 2.95204 1.1688 0
      vertex 3.0196 0.981129 0.5
      vertex 3.0196 0.981129 0
    endloop
  endfacet
  facet normal 0.917754 0.397149 0
    outer loop
      vertex 2.95204 1.1688 0.5
      vertex 2.87283 1.35185 0
      vertex 2.87283 1.35185 0.5
    endloop
  endfacet
  facet normal 0.917754 0.397149 0
    outer loop
      vertex 2.87283 1.35185 0
      vertex 2.95204 1.1688 0.5
      vertex 2.95204 1.1688 0
    endloop
  endfacet
  facet normal 0.891007 0.45399 0
    outer loop
      vertex 2.87283 1.35185 0.5
      vertex 2.78227 1.52957 0
      vertex 2.78227 1.52957 0.5
    endloop
  endfacet
  facet normal 0.891007 0.45399 0
    outer loop
      vertex 2.78227 1.52957 0
      vertex 2.87283 1.35185 0.5
      vertex 2.87283 1.35185 0
    endloop
  endfacet
  facet normal 0.860742 0.509042 0
    outer loop
      vertex 2.78227 1.52957 0.5
      vertex 2.68074 1.70125 0
      vertex 2.68074 1.70125 0.5
    endloop
  endfacet
  facet normal 0.860742 0.509042 0
    outer loop
      vertex 2.68074 1.70125 0
      vertex 2.78227 1.52957 0.5
      vertex 2.78227 1.52957 0
    endloop
  endfacet
  facet normal 0.827081 0.562083 0
    outer loop
      vertex 2.68074 1.70125 0.5
      vertex 2.56863 1.86622 0
      vertex 2.56863 1.86622 0.5
    endloop
  endfacet
  facet normal 0.827081 0.562083 0
    outer loop
      vertex 2.56863 1.86622 0
      vertex 2.68074 1.70125 0.5
      vertex 2.68074 1.70125 0
    endloop
  endfacet
  facet normal 0.790155 0.612907 0
    outer loop
      vertex 2.56863 1.86622 0.5
      vertex 2.44638 2.02382 0
      vertex 2.44638 2.02382 0.5
    endloop
  endfacet
  facet normal 0.790155 0.612907 0
    outer loop
      vertex 2.44638 2.02382 0
      vertex 2.56863 1.86622 0.5
      vertex 2.56863 1.86622 0
    endloop
  endfacet
  facet normal 0.750111 0.661312 0
    outer loop
      vertex 2.44638 2.02382 0.5
      vertex 2.31448 2.17344 0
      vertex 2.31448 2.17344 0.5
    endloop
  endfacet
  facet normal 0.750111 0.661312 0
    outer loop
      vertex 2.31448 2.17344 0
      vertex 2.44638 2.02382 0.5
      vertex 2.44638 2.02382 0
    endloop
  endfacet
  facet normal 0.707107 0.707107 0
    outer loop
      vertex 2.31448 2.17344 0.5
      vertex 2.17344 2.31448 0
      vertex 2.17344 2.31448 0.5
    endloop
  endfacet
  facet normal 0.707107 0.707107 0
    outer loop
      vertex 2.17344 2.31448 0
      vertex 2.31448 2.17344 0.5
      vertex 2.31448 2.17344 0
    endloop
  endfacet
  facet normal 0.661312 0.750111 -0
    outer loop
      vertex 2.17344 2.31448 0
      vertex 2.02382 2.44638 0.5
      vertex 2.17344 2.31448 0.5
    endloop
  endfacet
  facet normal 0.661312 0.750111 0
    outer loop
      vertex 2.02382 2.44638 0.5
      vertex 2.17344 2.31448 0
      vertex 2.02382 2.44638 0
    endloop
  endfacet
  facet normal 0.612907 0.790155 -0
    outer loop
      vertex 2.02382 2.44638 0
      vertex 1.86622 2.56863 0.5
      vertex 2.02382 2.44638 0.5
    endloop
  endfacet
  facet normal 0.612907 0.790155 0
    outer loop
      vertex 1.86622 2.56863 0.5
      vertex 2.02382 2.44638 0
      vertex 1.86622 2.56863 0
    endloop
  endfacet
  facet normal 0.562083 0.827081 -0
    outer loop
      vertex 1.86622 2.56863 0
      vertex 1.70125 2.68074 0.5
      vertex 1.86622 2.56863 0.5
    endloop
  endfacet
  facet normal 0.562083 0.827081 0
    outer loop
      vertex 1.70125 2.68074 0.5
      vertex 1.86622 2.56863 0
      vertex 1.70125 2.68074 0
    endloop
  endfacet
  facet normal 0.509042 0.860742 -0
    outer loop
      vertex 1.70125 2.68074 0
      vertex 1.52957 2.78227 0.5
      vertex 1.70125 2.68074 0.5
    endloop
  endfacet
  facet normal 0.509042 0.860742 0
    outer loop
      vertex 1.52957 2.78227 0.5
      vertex 1.70125 2.68074 0
      vertex 1.52957 2.78227 0
    endloop
  endfacet
  facet normal 0.45399 0.891007 -0
    outer loop
      vertex 1.52957 2.78227 0
      vertex 1.35185 2.87283 0.5
      vertex 1.52957 2.78227 0.5
    endloop
  endfacet
  facet normal 0.45399 0.891007 0
    outer loop
      vertex 1.35185 2.87283 0.5
      vertex 1.52957 2.78227 0
      vertex 1.35185 2.87283 0
    endloop
  endfacet
  facet normal 0.397149 0.917754 -0
    outer loop
      vertex 1.35185 2.87283 0
      vertex 1.1688 2.95204 0.5
      vertex 1.35185 2.87283 0.5
    endloop
  endfacet
  facet normal 0.397149 0.917754 0
    outer loop
      vertex 1.1688 2.95204 0.5
      vertex 1.35185 2.87283 0
      vertex 1.1688 2.95204 0
    endloop
  endfacet
  facet normal 0.338737 0.940881 -0
    outer loop
      vertex 1.1688 2.95204 0
      vertex 0.981129 3.0196 0.5
      vertex 1.1688 2.95204 0.5
    endloop
  endfacet
  facet normal 0.338737 0.940881 0
    outer loop
      vertex 0.981129 3.0196 0.5
      vertex 1.1688 2.95204 0
      vertex 0.981129 3.0196 0
    endloop
  endfacet
  facet normal 0.278991 0.960294 -0
    outer loop
      vertex 0.981129 3.0196 0
      vertex 0.78959 3.07525 0.5
      vertex 0.981129 3.0196 0.5
    endloop
  endfacet
  facet normal 0.278991 0.960294 0
    outer loop
      vertex 0.78959 3.07525 0.5
      vertex 0.981129 3.0196 0
      vertex 0.78959 3.07525 0
    endloop
  endfacet
  facet normal 0.218143 0.975917 -0
    outer loop
      vertex 0.78959 3.07525 0
      vertex 0.594936 3.11876 0.5
      vertex 0.78959 3.07525 0.5
    endloop
  endfacet
  facet normal 0.218143 0.975917 0
    outer loop
      vertex 0.594936 3.11876 0.5
      vertex 0.78959 3.07525 0
      vertex 0.594936 3.11876 0
    endloop
  endfacet
  facet normal 0.156434 0.987688 -0
    outer loop
      vertex 0.594936 3.11876 0
      vertex 0.397933 3.14996 0.5
      vertex 0.594936 3.11876 0.5
    endloop
  endfacet
  facet normal 0.156434 0.987688 0
    outer loop
      vertex 0.397933 3.14996 0.5
      vertex 0.594936 3.11876 0
      vertex 0.397933 3.14996 0
    endloop
  endfacet
  facet normal 0.0941084 0.995562 -0
    outer loop
      vertex 0.397933 3.14996 0
      vertex 0.19936 3.16873 0.5
      vertex 0.397933 3.14996 0.5
    endloop
  endfacet
  facet normal 0.0941084 0.995562 0
    outer loop
      vertex 0.19936 3.16873 0.5
      vertex 0.397933 3.14996 0
      vertex 0.19936 3.16873 0
    endloop
  endfacet
  facet normal 0.0314109 0.999507 -0
    outer loop
      vertex 0.19936 3.16873 0
      vertex 1.94413e-16 3.175 0.5
      vertex 0.19936 3.16873 0.5
    endloop
  endfacet
  facet normal 0.0314109 0.999507 0
    outer loop
      vertex 1.94413e-16 3.175 0.5
      vertex 0.19936 3.16873 0
      vertex 1.94413e-16 3.175 0
    endloop
  endfacet
  facet normal -0.0314109 0.999507 0
    outer loop
      vertex 1.94413e-16 3.175 0
      vertex -0.19936 3.16873 0.5
      vertex 1.94413e-16 3.175 0.5
    endloop
  endfacet
  facet normal -0.0314109 0.999507 0
    outer loop
      vertex -0.19936 3.16873 0.5
      vertex 1.94413e-16 3.175 0
      vertex -0.19936 3.16873 0
    endloop
  endfacet
  facet normal -0.0941084 0.995562 0
    outer loop
      vertex -0.19936 3.16873 0
      vertex -0.397933 3.14996 0.5
      vertex -0.19936 3.16873 0.5
    endloop
  endfacet
  facet normal -0.0941084 0.995562 0
    outer loop
      vertex -0.397933 3.14996 0.5
      vertex -0.19936 3.16873 0
      vertex -0.397933 3.14996 0
    endloop
  endfacet
  facet normal -0.156434 0.987688 0
    outer loop
      vertex -0.397933 3.14996 0
      vertex -0.594936 3.11876 0.5
      vertex -0.397933 3.14996 0.5
    endloop
  endfacet
  facet normal -0.156434 0.987688 0
    outer loop
      vertex -0.594936 3.11876 0.5
      vertex -0.397933 3.14996 0
      vertex -0.594936 3.11876 0
    endloop
  endfacet
  facet normal -0.218143 0.975917 0
    outer loop
      vertex -0.594936 3.11876 0
      vertex -0.78959 3.07525 0.5
      vertex -0.594936 3.11876 0.5
    endloop
  endfacet
  facet normal -0.218143 0.975917 0
    outer loop
      vertex -0.78959 3.07525 0.5
      vertex -0.594936 3.11876 0
      vertex -0.78959 3.07525 0
    endloop
  endfacet
  facet normal -0.278991 0.960294 0
    outer loop
      vertex -0.78959 3.07525 0
      vertex -0.981129 3.0196 0.5
      vertex -0.78959 3.07525 0.5
    endloop
  endfacet
  facet normal -0.278991 0.960294 0
    outer loop
      vertex -0.981129 3.0196 0.5
      vertex -0.78959 3.07525 0
      vertex -0.981129 3.0196 0
    endloop
  endfacet
  facet normal -0.338737 0.940881 0
    outer loop
      vertex -0.981129 3.0196 0
      vertex -1.1688 2.95204 0.5
      vertex -0.981129 3.0196 0.5
    endloop
  endfacet
  facet normal -0.338737 0.940881 0
    outer loop
      vertex -1.1688 2.95204 0.5
      vertex -0.981129 3.0196 0
      vertex -1.1688 2.95204 0
    endloop
  endfacet
  facet normal -0.397149 0.917754 0
    outer loop
      vertex -1.1688 2.95204 0
      vertex -1.35185 2.87283 0.5
      vertex -1.1688 2.95204 0.5
    endloop
  endfacet
  facet normal -0.397149 0.917754 0
    outer loop
      vertex -1.35185 2.87283 0.5
      vertex -1.1688 2.95204 0
      vertex -1.35185 2.87283 0
    endloop
  endfacet
  facet normal -0.45399 0.891007 0
    outer loop
      vertex -1.35185 2.87283 0
      vertex -1.52957 2.78227 0.5
      vertex -1.35185 2.87283 0.5
    endloop
  endfacet
  facet normal -0.45399 0.891007 0
    outer loop
      vertex -1.52957 2.78227 0.5
      vertex -1.35185 2.87283 0
      vertex -1.52957 2.78227 0
    endloop
  endfacet
  facet normal -0.509042 0.860742 0
    outer loop
      vertex -1.52957 2.78227 0
      vertex -1.70125 2.68074 0.5
      vertex -1.52957 2.78227 0.5
    endloop
  endfacet
  facet normal -0.509042 0.860742 0
    outer loop
      vertex -1.70125 2.68074 0.5
      vertex -1.52957 2.78227 0
      vertex -1.70125 2.68074 0
    endloop
  endfacet
  facet normal -0.562083 0.827081 0
    outer loop
      vertex -1.70125 2.68074 0
      vertex -1.86622 2.56863 0.5
      vertex -1.70125 2.68074 0.5
    endloop
  endfacet
  facet normal -0.562083 0.827081 0
    outer loop
      vertex -1.86622 2.56863 0.5
      vertex -1.70125 2.68074 0
      vertex -1.86622 2.56863 0
    endloop
  endfacet
  facet normal -0.612907 0.790155 0
    outer loop
      vertex -1.86622 2.56863 0
      vertex -2.02382 2.44638 0.5
      vertex -1.86622 2.56863 0.5
    endloop
  endfacet
  facet normal -0.612907 0.790155 0
    outer loop
      vertex -2.02382 2.44638 0.5
      vertex -1.86622 2.56863 0
      vertex -2.02382 2.44638 0
    endloop
  endfacet
  facet normal -0.661312 0.750111 0
    outer loop
      vertex -2.02382 2.44638 0
      vertex -2.17344 2.31448 0.5
      vertex -2.02382 2.44638 0.5
    endloop
  endfacet
  facet normal -0.661312 0.750111 0
    outer loop
      vertex -2.17344 2.31448 0.5
      vertex -2.02382 2.44638 0
      vertex -2.17344 2.31448 0
    endloop
  endfacet
  facet normal -0.707107 0.707107 0
    outer loop
      vertex -2.31448 2.17344 0
      vertex -2.17344 2.31448 0.5
      vertex -2.17344 2.31448 0
    endloop
  endfacet
  facet normal -0.707107 0.707107 0
    outer loop
      vertex -2.17344 2.31448 0.5
      vertex -2.31448 2.17344 0
      vertex -2.31448 2.17344 0.5
    endloop
  endfacet
  facet normal -0.750111 0.661312 0
    outer loop
      vertex -2.44638 2.02382 0
      vertex -2.31448 2.17344 0.5
      vertex -2.31448 2.17344 0
    endloop
  endfacet
  facet normal -0.750111 0.661312 0
    outer loop
      vertex -2.31448 2.17344 0.5
      vertex -2.44638 2.02382 0
      vertex -2.44638 2.02382 0.5
    endloop
  endfacet
  facet normal -0.790155 0.612907 0
    outer loop
      vertex -2.56863 1.86622 0
      vertex -2.44638 2.02382 0.5
      vertex -2.44638 2.02382 0
    endloop
  endfacet
  facet normal -0.790155 0.612907 0
    outer loop
      vertex -2.44638 2.02382 0.5
      vertex -2.56863 1.86622 0
      vertex -2.56863 1.86622 0.5
    endloop
  endfacet
  facet normal -0.827081 0.562083 0
    outer loop
      vertex -2.68074 1.70125 0
      vertex -2.56863 1.86622 0.5
      vertex -2.56863 1.86622 0
    endloop
  endfacet
  facet normal -0.827081 0.562083 0
    outer loop
      vertex -2.56863 1.86622 0.5
      vertex -2.68074 1.70125 0
      vertex -2.68074 1.70125 0.5
    endloop
  endfacet
  facet normal -0.860742 0.509042 0
    outer loop
      vertex -2.78227 1.52957 0
      vertex -2.68074 1.70125 0.5
      vertex -2.68074 1.70125 0
    endloop
  endfacet
  facet normal -0.860742 0.509042 0
    outer loop
      vertex -2.68074 1.70125 0.5
      vertex -2.78227 1.52957 0
      vertex -2.78227 1.52957 0.5
    endloop
  endfacet
  facet normal -0.891007 0.45399 0
    outer loop
      vertex -2.87283 1.35185 0
      vertex -2.78227 1.52957 0.5
      vertex -2.78227 1.52957 0
    endloop
  endfacet
  facet normal -0.891007 0.45399 0
    outer loop
      vertex -2.78227 1.52957 0.5
      vertex -2.87283 1.35185 0
      vertex -2.87283 1.35185 0.5
    endloop
  endfacet
  facet normal -0.917754 0.397149 0
    outer loop
      vertex -2.95204 1.1688 0
      vertex -2.87283 1.35185 0.5
      vertex -2.87283 1.35185 0
    endloop
  endfacet
  facet normal -0.917754 0.397149 0
    outer loop
      vertex -2.87283 1.35185 0.5
      vertex -2.95204 1.1688 0
      vertex -2.95204 1.1688 0.5
    endloop
  endfacet
  facet normal -0.940881 0.338737 0
    outer loop
      vertex -3.0196 0.981129 0
      vertex -2.95204 1.1688 0.5
      vertex -2.95204 1.1688 0
    endloop
  endfacet
  facet normal -0.940881 0.338737 0
    outer loop
      vertex -2.95204 1.1688 0.5
      vertex -3.0196 0.981129 0
      vertex -3.0196 0.981129 0.5
    endloop
  endfacet
  facet normal -0.960294 0.278991 0
    outer loop
      vertex -3.07525 0.78959 0
      vertex -3.0196 0.981129 0.5
      vertex -3.0196 0.981129 0
    endloop
  endfacet
  facet normal -0.960294 0.278991 0
    outer loop
      vertex -3.0196 0.981129 0.5
      vertex -3.07525 0.78959 0
      vertex -3.07525 0.78959 0.5
    endloop
  endfacet
  facet normal -0.975917 0.218143 0
    outer loop
      vertex -3.11876 0.594936 0
      vertex -3.07525 0.78959 0.5
      vertex -3.07525 0.78959 0
    endloop
  endfacet
  facet normal -0.975917 0.218143 0
    outer loop
      vertex -3.07525 0.78959 0.5
      vertex -3.11876 0.594936 0
      vertex -3.11876 0.594936 0.5
    endloop
  endfacet
  facet normal -0.987688 0.156434 0
    outer loop
      vertex -3.14996 0.397933 0
      vertex -3.11876 0.594936 0.5
      vertex -3.11876 0.594936 0
    endloop
  endfacet
  facet normal -0.987688 0.156434 0
    outer loop
      vertex -3.11876 0.594936 0.5
      vertex -3.14996 0.397933 0
      vertex -3.14996 0.397933 0.5
    endloop
  endfacet
  facet normal -0.995562 0.0941084 0
    outer loop
      vertex -3.16873 0.19936 0
      vertex -3.14996 0.397933 0.5
      vertex -3.14996 0.397933 0
    endloop
  endfacet
  facet normal -0.995562 0.0941084 0
    outer loop
      vertex -3.14996 0.397933 0.5
      vertex -3.16873 0.19936 0
      vertex -3.16873 0.19936 0.5
    endloop
  endfacet
  facet normal -0.999507 0.0314109 0
    outer loop
      vertex -3.175 3.88825e-16 0
      vertex -3.16873 0.19936 0.5
      vertex -3.16873 0.19936 0
    endloop
  endfacet
  facet normal -0.999507 0.0314109 0
    outer loop
      vertex -3.16873 0.19936 0.5
      vertex -3.175 3.88825e-16 0
      vertex -3.175 3.88825e-16 0.5
    endloop
  endfacet
  facet normal -0.999507 -0.0314109 0
    outer loop
      vertex -3.16873 -0.19936 0
      vertex -3.175 3.88825e-16 0.5
      vertex -3.175 3.88825e-16 0
    endloop
  endfacet
  facet normal -0.999507 -0.0314109 0
    outer loop
      vertex -3.175 3.88825e-16 0.5
      vertex -3.16873 -0.19936 0
      vertex -3.16873 -0.19936 0.5
    endloop
  endfacet
  facet normal -0.995562 -0.0941084 0
    outer loop
      vertex -3.14996 -0.397933 0
      vertex -3.16873 -0.19936 0.5
      vertex -3.16873 -0.19936 0
    endloop
  endfacet
  facet normal -0.995562 -0.0941084 0
    outer loop
      vertex -3.16873 -0.19936 0.5
      vertex -3.14996 -0.397933 0
      vertex -3.14996 -0.397933 0.5
    endloop
  endfacet
  facet normal -0.987688 -0.156434 0
    outer loop
      vertex -3.11876 -0.594936 0
      vertex -3.14996 -0.397933 0.5
      vertex -3.14996 -0.397933 0
    endloop
  endfacet
  facet normal -0.987688 -0.156434 0
    outer loop
      vertex -3.14996 -0.397933 0.5
      vertex -3.11876 -0.594936 0
      vertex -3.11876 -0.594936 0.5
    endloop
  endfacet
  facet normal -0.975917 -0.218143 0
    outer loop
      vertex -3.07525 -0.78959 0
      vertex -3.11876 -0.594936 0.5
      vertex -3.11876 -0.594936 0
    endloop
  endfacet
  facet normal -0.975917 -0.218143 0
    outer loop
      vertex -3.11876 -0.594936 0.5
      vertex -3.07525 -0.78959 0
      vertex -3.07525 -0.78959 0.5
    endloop
  endfacet
  facet normal -0.960294 -0.278991 0
    outer loop
      vertex -3.0196 -0.981129 0
      vertex -3.07525 -0.78959 0.5
      vertex -3.07525 -0.78959 0
    endloop
  endfacet
  facet normal -0.960294 -0.278991 0
    outer loop
      vertex -3.07525 -0.78959 0.5
      vertex -3.0196 -0.981129 0
      vertex -3.0196 -0.981129 0.5
    endloop
  endfacet
  facet normal -0.940881 -0.338737 0
    outer loop
      vertex -2.95204 -1.1688 0
      vertex -3.0196 -0.981129 0.5
      vertex -3.0196 -0.981129 0
    endloop
  endfacet
  facet normal -0.940881 -0.338737 0
    outer loop
      vertex -3.0196 -0.981129 0.5
      vertex -2.95204 -1.1688 0
      vertex -2.95204 -1.1688 0.5
    endloop
  endfacet
  facet normal -0.917754 -0.397149 0
    outer loop
      vertex -2.87283 -1.35185 0
      vertex -2.95204 -1.1688 0.5
      vertex -2.95204 -1.1688 0
    endloop
  endfacet
  facet normal -0.917754 -0.397149 0
    outer loop
      vertex -2.95204 -1.1688 0.5
      vertex -2.87283 -1.35185 0
      vertex -2.87283 -1.35185 0.5
    endloop
  endfacet
  facet normal -0.891007 -0.45399 0
    outer loop
      vertex -2.78227 -1.52957 0
      vertex -2.87283 -1.35185 0.5
      vertex -2.87283 -1.35185 0
    endloop
  endfacet
  facet normal -0.891007 -0.45399 0
    outer loop
      vertex -2.87283 -1.35185 0.5
      vertex -2.78227 -1.52957 0
      vertex -2.78227 -1.52957 0.5
    endloop
  endfacet
  facet normal -0.860742 -0.509042 0
    outer loop
      vertex -2.68074 -1.70125 0
      vertex -2.78227 -1.52957 0.5
      vertex -2.78227 -1.52957 0
    endloop
  endfacet
  facet normal -0.860742 -0.509042 0
    outer loop
      vertex -2.78227 -1.52957 0.5
      vertex -2.68074 -1.70125 0
      vertex -2.68074 -1.70125 0.5
    endloop
  endfacet
  facet normal -0.827081 -0.562083 0
    outer loop
      vertex -2.56863 -1.86622 0
      vertex -2.68074 -1.70125 0.5
      vertex -2.68074 -1.70125 0
    endloop
  endfacet
  facet normal -0.827081 -0.562083 0
    outer loop
      vertex -2.68074 -1.70125 0.5
      vertex -2.56863 -1.86622 0
      vertex -2.56863 -1.86622 0.5
    endloop
  endfacet
  facet normal -0.790155 -0.612907 0
    outer loop
      vertex -2.44638 -2.02382 0
      vertex -2.56863 -1.86622 0.5
      vertex -2.56863 -1.86622 0
    endloop
  endfacet
  facet normal -0.790155 -0.612907 0
    outer loop
      vertex -2.56863 -1.86622 0.5
      vertex -2.44638 -2.02382 0
      vertex -2.44638 -2.02382 0.5
    endloop
  endfacet
  facet normal -0.750111 -0.661312 0
    outer loop
      vertex -2.31448 -2.17344 0
      vertex -2.44638 -2.02382 0.5
      vertex -2.44638 -2.02382 0
    endloop
  endfacet
  facet normal -0.750111 -0.661312 0
    outer loop
      vertex -2.44638 -2.02382 0.5
      vertex -2.31448 -2.17344 0
      vertex -2.31448 -2.17344 0.5
    endloop
  endfacet
  facet normal -0.707107 -0.707107 0
    outer loop
      vertex -2.17344 -2.31448 0
      vertex -2.31448 -2.17344 0.5
      vertex -2.31448 -2.17344 0
    endloop
  endfacet
  facet normal -0.707107 -0.707107 0
    outer loop
      vertex -2.31448 -2.17344 0.5
      vertex -2.17344 -2.31448 0
      vertex -2.17344 -2.31448 0.5
    endloop
  endfacet
  facet normal -0.661312 -0.750111 0
    outer loop
      vertex -2.17344 -2.31448 0
      vertex -2.02382 -2.44638 0.5
      vertex -2.17344 -2.31448 0.5
    endloop
  endfacet
  facet normal -0.661312 -0.750111 -0
    outer loop
      vertex -2.02382 -2.44638 0.5
      vertex -2.17344 -2.31448 0
      vertex -2.02382 -2.44638 0
    endloop
  endfacet
  facet normal -0.612907 -0.790155 0
    outer loop
      vertex -2.02382 -2.44638 0
      vertex -1.86622 -2.56863 0.5
      vertex -2.02382 -2.44638 0.5
    endloop
  endfacet
  facet normal -0.612907 -0.790155 -0
    outer loop
      vertex -1.86622 -2.56863 0.5
      vertex -2.02382 -2.44638 0
      vertex -1.86622 -2.56863 0
    endloop
  endfacet
  facet normal -0.562083 -0.827081 0
    outer loop
      vertex -1.86622 -2.56863 0
      vertex -1.70125 -2.68074 0.5
      vertex -1.86622 -2.56863 0.5
    endloop
  endfacet
  facet normal -0.562083 -0.827081 -0
    outer loop
      vertex -1.70125 -2.68074 0.5
      vertex -1.86622 -2.56863 0
      vertex -1.70125 -2.68074 0
    endloop
  endfacet
  facet normal -0.509042 -0.860742 0
    outer loop
      vertex -1.70125 -2.68074 0
      vertex -1.52957 -2.78227 0.5
      vertex -1.70125 -2.68074 0.5
    endloop
  endfacet
  facet normal -0.509042 -0.860742 -0
    outer loop
      vertex -1.52957 -2.78227 0.5
      vertex -1.70125 -2.68074 0
      vertex -1.52957 -2.78227 0
    endloop
  endfacet
  facet normal -0.45399 -0.891007 0
    outer loop
      vertex -1.52957 -2.78227 0
      vertex -1.35185 -2.87283 0.5
      vertex -1.52957 -2.78227 0.5
    endloop
  endfacet
  facet normal -0.45399 -0.891007 -0
    outer loop
      vertex -1.35185 -2.87283 0.5
      vertex -1.52957 -2.78227 0
      vertex -1.35185 -2.87283 0
    endloop
  endfacet
  facet normal -0.397149 -0.917754 0
    outer loop
      vertex -1.35185 -2.87283 0
      vertex -1.1688 -2.95204 0.5
      vertex -1.35185 -2.87283 0.5
    endloop
  endfacet
  facet normal -0.397149 -0.917754 -0
    outer loop
      vertex -1.1688 -2.95204 0.5
      vertex -1.35185 -2.87283 0
      vertex -1.1688 -2.95204 0
    endloop
  endfacet
  facet normal -0.338737 -0.940881 0
    outer loop
      vertex -1.1688 -2.95204 0
      vertex -0.981129 -3.0196 0.5
      vertex -1.1688 -2.95204 0.5
    endloop
  endfacet
  facet normal -0.338737 -0.940881 -0
    outer loop
      vertex -0.981129 -3.0196 0.5
      vertex -1.1688 -2.95204 0
      vertex -0.981129 -3.0196 0
    endloop
  endfacet
  facet normal -0.278991 -0.960294 0
    outer loop
      vertex -0.981129 -3.0196 0
      vertex -0.78959 -3.07525 0.5
      vertex -0.981129 -3.0196 0.5
    endloop
  endfacet
  facet normal -0.278991 -0.960294 -0
    outer loop
      vertex -0.78959 -3.07525 0.5
      vertex -0.981129 -3.0196 0
      vertex -0.78959 -3.07525 0
    endloop
  endfacet
  facet normal -0.218143 -0.975917 0
    outer loop
      vertex -0.78959 -3.07525 0
      vertex -0.594936 -3.11876 0.5
      vertex -0.78959 -3.07525 0.5
    endloop
  endfacet
  facet normal -0.218143 -0.975917 -0
    outer loop
      vertex -0.594936 -3.11876 0.5
      vertex -0.78959 -3.07525 0
      vertex -0.594936 -3.11876 0
    endloop
  endfacet
  facet normal -0.156434 -0.987688 0
    outer loop
      vertex -0.594936 -3.11876 0
      vertex -0.397933 -3.14996 0.5
      vertex -0.594936 -3.11876 0.5
    endloop
  endfacet
  facet normal -0.156434 -0.987688 -0
    outer loop
      vertex -0.397933 -3.14996 0.5
      vertex -0.594936 -3.11876 0
      vertex -0.397933 -3.14996 0
    endloop
  endfacet
  facet normal -0.0941084 -0.995562 0
    outer loop
      vertex -0.397933 -3.14996 0
      vertex -0.19936 -3.16873 0.5
      vertex -0.397933 -3.14996 0.5
    endloop
  endfacet
  facet normal -0.0941084 -0.995562 -0
    outer loop
      vertex -0.19936 -3.16873 0.5
      vertex -0.397933 -3.14996 0
      vertex -0.19936 -3.16873 0
    endloop
  endfacet
  facet normal -0.0314109 -0.999507 0
    outer loop
      vertex -0.19936 -3.16873 0
      vertex -5.83238e-16 -3.175 0.5
      vertex -0.19936 -3.16873 0.5
    endloop
  endfacet
  facet normal -0.0314109 -0.999507 -0
    outer loop
      vertex -5.83238e-16 -3.175 0.5
      vertex -0.19936 -3.16873 0
      vertex -5.83238e-16 -3.175 0
    endloop
  endfacet
  facet normal 0.0314109 -0.999507 0
    outer loop
      vertex -5.83238e-16 -3.175 0
      vertex 0.19936 -3.16873 0.5
      vertex -5.83238e-16 -3.175 0.5
    endloop
  endfacet
  facet normal 0.0314109 -0.999507 0
    outer loop
      vertex 0.19936 -3.16873 0.5
      vertex -5.83238e-16 -3.175 0
      vertex 0.19936 -3.16873 0
    endloop
  endfacet
  facet normal 0.0941084 -0.995562 0
    outer loop
      vertex 0.19936 -3.16873 0
      vertex 0.397933 -3.14996 0.5
      vertex 0.19936 -3.16873 0.5
    endloop
  endfacet
  facet normal 0.0941084 -0.995562 0
    outer loop
      vertex 0.397933 -3.14996 0.5
      vertex 0.19936 -3.16873 0
      vertex 0.397933 -3.14996 0
    endloop
  endfacet
  facet normal 0.156434 -0.987688 0
    outer loop
      vertex 0.397933 -3.14996 0
      vertex 0.594936 -3.11876 0.5
      vertex 0.397933 -3.14996 0.5
    endloop
  endfacet
  facet normal 0.156434 -0.987688 0
    outer loop
      vertex 0.594936 -3.11876 0.5
      vertex 0.397933 -3.14996 0
      vertex 0.594936 -3.11876 0
    endloop
  endfacet
  facet normal 0.218143 -0.975917 0
    outer loop
      vertex 0.594936 -3.11876 0
      vertex 0.78959 -3.07525 0.5
      vertex 0.594936 -3.11876 0.5
    endloop
  endfacet
  facet normal 0.218143 -0.975917 0
    outer loop
      vertex 0.78959 -3.07525 0.5
      vertex 0.594936 -3.11876 0
      vertex 0.78959 -3.07525 0
    endloop
  endfacet
  facet normal 0.278991 -0.960294 0
    outer loop
      vertex 0.78959 -3.07525 0
      vertex 0.981129 -3.0196 0.5
      vertex 0.78959 -3.07525 0.5
    endloop
  endfacet
  facet normal 0.278991 -0.960294 0
    outer loop
      vertex 0.981129 -3.0196 0.5
      vertex 0.78959 -3.07525 0
      vertex 0.981129 -3.0196 0
    endloop
  endfacet
  facet normal 0.338737 -0.940881 0
    outer loop
      vertex 0.981129 -3.0196 0
      vertex 1.1688 -2.95204 0.5
      vertex 0.981129 -3.0196 0.5
    endloop
  endfacet
  facet normal 0.338737 -0.940881 0
    outer loop
      vertex 1.1688 -2.95204 0.5
      vertex 0.981129 -3.0196 0
      vertex 1.1688 -2.95204 0
    endloop
  endfacet
  facet normal 0.397149 -0.917754 0
    outer loop
      vertex 1.1688 -2.95204 0
      vertex 1.35185 -2.87283 0.5
      vertex 1.1688 -2.95204 0.5
    endloop
  endfacet
  facet normal 0.397149 -0.917754 0
    outer loop
      vertex 1.35185 -2.87283 0.5
      vertex 1.1688 -2.95204 0
      vertex 1.35185 -2.87283 0
    endloop
  endfacet
  facet normal 0.45399 -0.891007 0
    outer loop
      vertex 1.35185 -2.87283 0
      vertex 1.52957 -2.78227 0.5
      vertex 1.35185 -2.87283 0.5
    endloop
  endfacet
  facet normal 0.45399 -0.891007 0
    outer loop
      vertex 1.52957 -2.78227 0.5
      vertex 1.35185 -2.87283 0
      vertex 1.52957 -2.78227 0
    endloop
  endfacet
  facet normal 0.509042 -0.860742 0
    outer loop
      vertex 1.52957 -2.78227 0
      vertex 1.70125 -2.68074 0.5
      vertex 1.52957 -2.78227 0.5
    endloop
  endfacet
  facet normal 0.509042 -0.860742 0
    outer loop
      vertex 1.70125 -2.68074 0.5
      vertex 1.52957 -2.78227 0
      vertex 1.70125 -2.68074 0
    endloop
  endfacet
  facet normal 0.562083 -0.827081 0
    outer loop
      vertex 1.70125 -2.68074 0
      vertex 1.86622 -2.56863 0.5
      vertex 1.70125 -2.68074 0.5
    endloop
  endfacet
  facet normal 0.562083 -0.827081 0
    outer loop
      vertex 1.86622 -2.56863 0.5
      vertex 1.70125 -2.68074 0
      vertex 1.86622 -2.56863 0
    endloop
  endfacet
  facet normal 0.612907 -0.790155 0
    outer loop
      vertex 1.86622 -2.56863 0
      vertex 2.02382 -2.44638 0.5
      vertex 1.86622 -2.56863 0.5
    endloop
  endfacet
  facet normal 0.612907 -0.790155 0
    outer loop
      vertex 2.02382 -2.44638 0.5
      vertex 1.86622 -2.56863 0
      vertex 2.02382 -2.44638 0
    endloop
  endfacet
  facet normal 0.661312 -0.750111 0
    outer loop
      vertex 2.02382 -2.44638 0
      vertex 2.17344 -2.31448 0.5
      vertex 2.02382 -2.44638 0.5
    endloop
  endfacet
  facet normal 0.661312 -0.750111 0
    outer loop
      vertex 2.17344 -2.31448 0.5
      vertex 2.02382 -2.44638 0
      vertex 2.17344 -2.31448 0
    endloop
  endfacet
  facet normal 0.707107 -0.707107 0
    outer loop
      vertex 2.17344 -2.31448 0.5
      vertex 2.31448 -2.17344 0
      vertex 2.31448 -2.17344 0.5
    endloop
  endfacet
  facet normal 0.707107 -0.707107 0
    outer loop
      vertex 2.31448 -2.17344 0
      vertex 2.17344 -2.31448 0.5
      vertex 2.17344 -2.31448 0
    endloop
  endfacet
  facet normal 0.750111 -0.661312 0
    outer loop
      vertex 2.31448 -2.17344 0.5
      vertex 2.44638 -2.02382 0
      vertex 2.44638 -2.02382 0.5
    endloop
  endfacet
  facet normal 0.750111 -0.661312 0
    outer loop
      vertex 2.44638 -2.02382 0
      vertex 2.31448 -2.17344 0.5
      vertex 2.31448 -2.17344 0
    endloop
  endfacet
  facet normal 0.790155 -0.612907 0
    outer loop
      vertex 2.44638 -2.02382 0.5
      vertex 2.56863 -1.86622 0
      vertex 2.56863 -1.86622 0.5
    endloop
  endfacet
  facet normal 0.790155 -0.612907 0
    outer loop
      vertex 2.56863 -1.86622 0
      vertex 2.44638 -2.02382 0.5
      vertex 2.44638 -2.02382 0
    endloop
  endfacet
  facet normal 0.827081 -0.562083 0
    outer loop
      vertex 2.56863 -1.86622 0.5
      vertex 2.68074 -1.70125 0
      vertex 2.68074 -1.70125 0.5
    endloop
  endfacet
  facet normal 0.827081 -0.562083 0
    outer loop
      vertex 2.68074 -1.70125 0
      vertex 2.56863 -1.86622 0.5
      vertex 2.56863 -1.86622 0
    endloop
  endfacet
  facet normal 0.860742 -0.509042 0
    outer loop
      vertex 2.68074 -1.70125 0.5
      vertex 2.78227 -1.52957 0
      vertex 2.78227 -1.52957 0.5
    endloop
  endfacet
  facet normal 0.860742 -0.509042 0
    outer loop
      vertex 2.78227 -1.52957 0
      vertex 2.68074 -1.70125 0.5
      vertex 2.68074 -1.70125 0
    endloop
  endfacet
  facet normal 0.891007 -0.45399 0
    outer loop
      vertex 2.78227 -1.52957 0.5
      vertex 2.87283 -1.35185 0
      vertex 2.87283 -1.35185 0.5
    endloop
  endfacet
  facet normal 0.891007 -0.45399 0
    outer loop
      vertex 2.87283 -1.35185 0
      vertex 2.78227 -1.52957 0.5
      vertex 2.78227 -1.52957 0
    endloop
  endfacet
  facet normal 0.917754 -0.397149 0
    outer loop
      vertex 2.87283 -1.35185 0.5
      vertex 2.95204 -1.1688 0
      vertex 2.95204 -1.1688 0.5
    endloop
  endfacet
  facet normal 0.917754 -0.397149 0
    outer loop
      vertex 2.95204 -1.1688 0
      vertex 2.87283 -1.35185 0.5
      vertex 2.87283 -1.35185 0
    endloop
  endfacet
  facet normal 0.940881 -0.338737 0
    outer loop
      vertex 2.95204 -1.1688 0.5
      vertex 3.0196 -0.981129 0
      vertex 3.0196 -0.981129 0.5
    endloop
  endfacet
  facet normal 0.940881 -0.338737 0
    outer loop
      vertex 3.0196 -0.981129 0
      vertex 2.95204 -1.1688 0.5
      vertex 2.95204 -1.1688 0
    endloop
  endfacet
  facet normal 0.960294 -0.278991 0
    outer loop
      vertex 3.0196 -0.981129 0.5
      vertex 3.07525 -0.78959 0
      vertex 3.07525 -0.78959 0.5
    endloop
  endfacet
  facet normal 0.960294 -0.278991 0
    outer loop
      vertex 3.07525 -0.78959 0
      vertex 3.0196 -0.981129 0.5
      vertex 3.0196 -0.981129 0
    endloop
  endfacet
  facet normal 0.975917 -0.218143 0
    outer loop
      vertex 3.07525 -0.78959 0.5
      vertex 3.11876 -0.594936 0
      vertex 3.11876 -0.594936 0.5
    endloop
  endfacet
  facet normal 0.975917 -0.218143 0
    outer loop
      vertex 3.11876 -0.594936 0
      vertex 3.07525 -0.78959 0.5
      vertex 3.07525 -0.78959 0
    endloop
  endfacet
  facet normal 0.987688 -0.156434 0
    outer loop
      vertex 3.11876 -0.594936 0.5
      vertex 3.14996 -0.397933 0
      vertex 3.14996 -0.397933 0.5
    endloop
  endfacet
  facet normal 0.987688 -0.156434 0
    outer loop
      vertex 3.14996 -0.397933 0
      vertex 3.11876 -0.594936 0.5
      vertex 3.11876 -0.594936 0
    endloop
  endfacet
  facet normal 0.995562 -0.0941084 0
    outer loop
      vertex 3.14996 -0.397933 0.5
      vertex 3.16873 -0.19936 0
      vertex 3.16873 -0.19936 0.5
    endloop
  endfacet
  facet normal 0.995562 -0.0941084 0
    outer loop
      vertex 3.16873 -0.19936 0
      vertex 3.14996 -0.397933 0.5
      vertex 3.14996 -0.397933 0
    endloop
  endfacet
  facet normal 0.999507 -0.0314109 0
    outer loop
      vertex 3.16873 -0.19936 0.5
      vertex 3.175 0 0
      vertex 3.175 0 0.5
    endloop
  endfacet
  facet normal 0.999507 -0.0314109 0
    outer loop
      vertex 3.175 0 0
      vertex 3.16873 -0.19936 0.5
      vertex 3.16873 -0.19936 0
    endloop
  endfacet
  facet normal 0 0 -1
    outer loop
      vertex 3.16873 -0.19936 0
      vertex 3.16873 0.19936 0
      vertex 3.175 0 0
    endloop
  endfacet
  facet normal 0 0 -1
    outer loop
      vertex 3.14996 -0.397933 0
      vertex 3.16873 0.19936 0
      vertex 3.16873 -0.19936 0
    endloop
  endfacet
  facet normal 0 0 -1
    outer loop
      vertex 3.14996 -0.397933 0
      vertex 3.14996 0.397933 0
      vertex 3.16873 0.19936 0
    endloop
  endfacet
  facet normal 0 0 -1
    outer loop
      vertex 3.11876 -0.594936 0
      vertex 3.14996 0.397933 0
      vertex 3.14996 -0.397933 0
    endloop
  endfacet
  facet normal 0 0 -1
    outer loop
      vertex 3.11876 -0.594936 0
      vertex 3.11876 0.594936 0
      vertex 3.14996 0.397933 0
    endloop
  endfacet
  facet normal 0 0 -1
    outer loop
      vertex 3.07525 -0.78959 0
      vertex 3.11876 0.594936 0
      vertex 3.11876 -0.594936 0
    endloop
  endfacet
  facet normal 0 0 -1
    outer loop
      vertex 3.07525 -0.78959 0
      vertex 3.07525 0.78959 0
      vertex 3.11876 0.594936 0
    endloop
  endfacet
  facet normal 0 0 -1
    outer loop
      vertex 3.0196 -0.981129 0
      vertex 3.07525 0.78959 0
      vertex 3.07525 -0.78959 0
    endloop
  endfacet
  facet normal 0 0 -1
    outer loop
      vertex 3.0196 -0.981129 0
      vertex 3.0196 0.981129 0
      vertex 3.07525 0.78959 0
    endloop
  endfacet
  facet normal 0 0 -1
    outer loop
      vertex 2.95204 -1.1688 0
      vertex 3.0196 0.981129 0
      vertex 3.0196 -0.981129 0
    endloop
  endfacet
  facet normal 0 0 -1
    outer loop
      vertex 2.95204 -1.1688 0
      vertex 2.95204 1.1688 0
      vertex 3.0196 0.981129 0
    endloop
  endfacet
  facet normal 0 0 -1
    outer loop
      vertex 2.87283 -1.35185 0
      vertex 2.95204 1.1688 0
      vertex 2.95204 -1.1688 0
    endloop
  endfacet
  facet normal 0 0 -1
    outer loop
      vertex 2.87283 -1.35185 0
      vertex 2.87283 1.35185 0
      vertex 2.95204 1.1688 0
    endloop
  endfacet
  facet normal 0 0 -1
    outer loop
      vertex 2.78227 -1.52957 0
      vertex 2.87283 1.35185 0
      vertex 2.87283 -1.35185 0
    endloop
  endfacet
  facet normal 0 0 -1
    outer loop
      vertex 2.78227 -1.52957 0
      vertex 2.78227 1.52957 0
      vertex 2.87283 1.35185 0
    endloop
  endfacet
  facet normal 0 0 -1
    outer loop
      vertex 2.68074 -1.70125 0
      vertex 2.78227 1.52957 0
      vertex 2.78227 -1.52957 0
    endloop
  endfacet
  facet normal 0 0 -1
    outer loop
      vertex 2.68074 -1.70125 0
      vertex 2.68074 1.70125 0
      vertex 2.78227 1.52957 0
    endloop
  endfacet
  facet normal 0 0 -1
    outer loop
      vertex 2.56863 -1.86622 0
      vertex 2.68074 1.70125 0
      vertex 2.68074 -1.70125 0
    endloop
  endfacet
  facet normal 0 0 -1
    outer loop
      vertex 2.56863 -1.86622 0
      vertex 2.56863 1.86622 0
      vertex 2.68074 1.70125 0
    endloop
  endfacet
  facet normal 0 0 -1
    outer loop
      vertex 2.44638 -2.02382 0
      vertex 2.56863 1.86622 0
      vertex 2.56863 -1.86622 0
    endloop
  endfacet
  facet normal 0 0 -1
    outer loop
      vertex 2.44638 -2.02382 0
      vertex 2.44638 2.02382 0
      vertex 2.56863 1.86622 0
    endloop
  endfacet
  facet normal 0 0 -1
    outer loop
      vertex 2.31448 -2.17344 0
      vertex 2.44638 2.02382 0
      vertex 2.44638 -2.02382 0
    endloop
  endfacet
  facet normal 0 0 -1
    outer loop
      vertex 2.31448 -2.17344 0
      vertex 2.31448 2.17344 0
      vertex 2.44638 2.02382 0
    endloop
  endfacet
  facet normal 0 0 -1
    outer loop
      vertex 2.17344 -2.31448 0
      vertex 2.31448 2.17344 0
      vertex 2.31448 -2.17344 0
    endloop
  endfacet
  facet normal 0 0 -1
    outer loop
      vertex 2.17344 -2.31448 0
      vertex 2.17344 2.31448 0
      vertex 2.31448 2.17344 0
    endloop
  endfacet
  facet normal 0 0 -1
    outer loop
      vertex 2.02382 -2.44638 0
      vertex 2.17344 2.31448 0
      vertex 2.17344 -2.31448 0
    endloop
  endfacet
  facet normal 0 0 -1
    outer loop
      vertex 2.02382 -2.44638 0
      vertex 2.02382 2.44638 0
      vertex 2.17344 2.31448 0
    endloop
  endfacet
  facet normal 0 0 -1
    outer loop
      vertex 1.86622 -2.56863 0
      vertex 2.02382 2.44638 0
      vertex 2.02382 -2.44638 0
    endloop
  endfacet
  facet normal 0 0 -1
    outer loop
      vertex 1.86622 -2.56863 0
      vertex 1.86622 2.56863 0
      vertex 2.02382 2.44638 0
    endloop
  endfacet
  facet normal 0 0 -1
    outer loop
      vertex 1.70125 -2.68074 0
      vertex 1.86622 2.56863 0
      vertex 1.86622 -2.56863 0
    endloop
  endfacet
  facet normal 0 0 -1
    outer loop
      vertex 1.70125 -2.68074 0
      vertex 1.70125 2.68074 0
      vertex 1.86622 2.56863 0
    endloop
  endfacet
  facet normal 0 0 -1
    outer loop
      vertex 1.52957 -2.78227 0
      vertex 1.70125 2.68074 0
      vertex 1.70125 -2.68074 0
    endloop
  endfacet
  facet normal 0 0 -1
    outer loop
      vertex 1.52957 -2.78227 0
      vertex 1.52957 2.78227 0
      vertex 1.70125 2.68074 0
    endloop
  endfacet
  facet normal 0 0 -1
    outer loop
      vertex 1.35185 -2.87283 0
      vertex 1.52957 2.78227 0
      vertex 1.52957 -2.78227 0
    endloop
  endfacet
  facet normal 0 0 -1
    outer loop
      vertex 1.35185 -2.87283 0
      vertex 1.35185 2.87283 0
      vertex 1.52957 2.78227 0
    endloop
  endfacet
  facet normal 0 0 -1
    outer loop
      vertex 1.1688 -2.95204 0
      vertex 1.35185 2.87283 0
      vertex 1.35185 -2.87283 0
    endloop
  endfacet
  facet normal 0 0 -1
    outer loop
      vertex 1.1688 -2.95204 0
      vertex 1.1688 2.95204 0
      vertex 1.35185 2.87283 0
    endloop
  endfacet
  facet normal 0 0 -1
    outer loop
      vertex 0.981129 -3.0196 0
      vertex 1.1688 2.95204 0
      vertex 1.1688 -2.95204 0
    endloop
  endfacet
  facet normal 0 0 -1
    outer loop
      vertex 0.981129 -3.0196 0
      vertex 0.981129 3.0196 0
      vertex 1.1688 2.95204 0
    endloop
  endfacet
  facet normal 0 0 -1
    outer loop
      vertex 0.78959 -3.07525 0
      vertex 0.981129 3.0196 0
      vertex 0.981129 -3.0196 0
    endloop
  endfacet
  facet normal 0 0 -1
    outer loop
      vertex 0.78959 -3.07525 0
      vertex 0.78959 3.07525 0
      vertex 0.981129 3.0196 0
    endloop
  endfacet
  facet normal 0 0 -1
    outer loop
      vertex 0.594936 -3.11876 0
      vertex 0.78959 3.07525 0
      vertex 0.78959 -3.07525 0
    endloop
  endfacet
  facet normal 0 0 -1
    outer loop
      vertex 0.594936 -3.11876 0
      vertex 0.594936 3.11876 0
      vertex 0.78959 3.07525 0
    endloop
  endfacet
  facet normal 0 0 -1
    outer loop
      vertex 0.397933 -3.14996 0
      vertex 0.594936 3.11876 0
      vertex 0.594936 -3.11876 0
    endloop
  endfacet
  facet normal 0 0 -1
    outer loop
      vertex 0.397933 -3.14996 0
      vertex 0.397933 3.14996 0
      vertex 0.594936 3.11876 0
    endloop
  endfacet
  facet normal 0 0 -1
    outer loop
      vertex 0.19936 -3.16873 0
      vertex 0.397933 3.14996 0
      vertex 0.397933 -3.14996 0
    endloop
  endfacet
  facet normal 0 0 -1
    outer loop
      vertex 0.19936 -3.16873 0
      vertex 0.19936 3.16873 0
      vertex 0.397933 3.14996 0
    endloop
  endfacet
  facet normal 0 0 -1
    outer loop
      vertex 0.19936 -3.16873 0
      vertex 1.94413e-16 3.175 0
      vertex 0.19936 3.16873 0
    endloop
  endfacet
  facet normal 0 0 -1
    outer loop
      vertex -5.83238e-16 -3.175 0
      vertex 1.94413e-16 3.175 0
      vertex 0.19936 -3.16873 0
    endloop
  endfacet
  facet normal 0 0 -1
    outer loop
      vertex -0.19936 -3.16873 0
      vertex 1.94413e-16 3.175 0
      vertex -5.83238e-16 -3.175 0
    endloop
  endfacet
  facet normal 0 0 -1
    outer loop
      vertex -0.19936 -3.16873 0
      vertex -0.19936 3.16873 0
      vertex 1.94413e-16 3.175 0
    endloop
  endfacet
  facet normal 0 0 -1
    outer loop
      vertex -0.397933 -3.14996 0
      vertex -0.19936 3.16873 0
      vertex -0.19936 -3.16873 0
    endloop
  endfacet
  facet normal 0 0 -1
    outer loop
      vertex -0.397933 -3.14996 0
      vertex -0.397933 3.14996 0
      vertex -0.19936 3.16873 0
    endloop
  endfacet
  facet normal 0 0 -1
    outer loop
      vertex -0.594936 -3.11876 0
      vertex -0.397933 3.14996 0
      vertex -0.397933 -3.14996 0
    endloop
  endfacet
  facet normal 0 0 -1
    outer loop
      vertex -0.594936 -3.11876 0
      vertex -0.594936 3.11876 0
      vertex -0.397933 3.14996 0
    endloop
  endfacet
  facet normal 0 0 -1
    outer loop
      vertex -0.78959 -3.07525 0
      vertex -0.594936 3.11876 0
      vertex -0.594936 -3.11876 0
    endloop
  endfacet
  facet normal 0 0 -1
    outer loop
      vertex -0.78959 -3.07525 0
      vertex -0.78959 3.07525 0
      vertex -0.594936 3.11876 0
    endloop
  endfacet
  facet normal 0 0 -1
    outer loop
      vertex -0.981129 -3.0196 0
      vertex -0.78959 3.07525 0
      vertex -0.78959 -3.07525 0
    endloop
  endfacet
  facet normal 0 0 -1
    outer loop
      vertex -0.981129 -3.0196 0
      vertex -0.981129 3.0196 0
      vertex -0.78959 3.07525 0
    endloop
  endfacet
  facet normal 0 0 -1
    outer loop
      vertex -1.1688 -2.95204 0
      vertex -0.981129 3.0196 0
      vertex -0.981129 -3.0196 0
    endloop
  endfacet
  facet normal 0 0 -1
    outer loop
      vertex -1.1688 -2.95204 0
      vertex -1.1688 2.95204 0
      vertex -0.981129 3.0196 0
    endloop
  endfacet
  facet normal 0 0 -1
    outer loop
      vertex -1.35185 -2.87283 0
      vertex -1.1688 2.95204 0
      vertex -1.1688 -2.95204 0
    endloop
  endfacet
  facet normal 0 0 -1
    outer loop
      vertex -1.35185 -2.87283 0
      vertex -1.35185 2.87283 0
      vertex -1.1688 2.95204 0
    endloop
  endfacet
  facet normal 0 0 -1
    outer loop
      vertex -1.52957 -2.78227 0
      vertex -1.35185 2.87283 0
      vertex -1.35185 -2.87283 0
    endloop
  endfacet
  facet normal 0 0 -1
    outer loop
      vertex -1.52957 -2.78227 0
      vertex -1.52957 2.78227 0
      vertex -1.35185 2.87283 0
    endloop
  endfacet
  facet normal 0 0 -1
    outer loop
      vertex -1.70125 -2.68074 0
      vertex -1.52957 2.78227 0
      vertex -1.52957 -2.78227 0
    endloop
  endfacet
  facet normal 0 0 -1
    outer loop
      vertex -1.70125 -2.68074 0
      vertex -1.70125 2.68074 0
      vertex -1.52957 2.78227 0
    endloop
  endfacet
  facet normal 0 0 -1
    outer loop
      vertex -1.86622 -2.56863 0
      vertex -1.70125 2.68074 0
      vertex -1.70125 -2.68074 0
    endloop
  endfacet
  facet normal 0 0 -1
    outer loop
      vertex -1.86622 -2.56863 0
      vertex -1.86622 2.56863 0
      vertex -1.70125 2.68074 0
    endloop
  endfacet
  facet normal 0 0 -1
    outer loop
      vertex -2.02382 -2.44638 0
      vertex -1.86622 2.56863 0
      vertex -1.86622 -2.56863 0
    endloop
  endfacet
  facet normal 0 0 -1
    outer loop
      vertex -2.02382 -2.44638 0
      vertex -2.02382 2.44638 0
      vertex -1.86622 2.56863 0
    endloop
  endfacet
  facet normal 0 0 -1
    outer loop
      vertex -2.17344 -2.31448 0
      vertex -2.02382 2.44638 0
      vertex -2.02382 -2.44638 0
    endloop
  endfacet
  facet normal 0 0 -1
    outer loop
      vertex -2.17344 -2.31448 0
      vertex -2.17344 2.31448 0
      vertex -2.02382 2.44638 0
    endloop
  endfacet
  facet normal 0 0 -1
    outer loop
      vertex -2.31448 -2.17344 0
      vertex -2.17344 2.31448 0
      vertex -2.17344 -2.31448 0
    endloop
  endfacet
  facet normal 0 0 -1
    outer loop
      vertex -2.31448 -2.17344 0
      vertex -2.31448 2.17344 0
      vertex -2.17344 2.31448 0
    endloop
  endfacet
  facet normal 0 0 -1
    outer loop
      vertex -2.44638 -2.02382 0
      vertex -2.31448 2.17344 0
      vertex -2.31448 -2.17344 0
    endloop
  endfacet
  facet normal 0 0 -1
    outer loop
      vertex -2.44638 -2.02382 0
      vertex -2.44638 2.02382 0
      vertex -2.31448 2.17344 0
    endloop
  endfacet
  facet normal 0 0 -1
    outer loop
      vertex -2.56863 -1.86622 0
      vertex -2.44638 2.02382 0
      vertex -2.44638 -2.02382 0
    endloop
  endfacet
  facet normal 0 0 -1
    outer loop
      vertex -2.56863 -1.86622 0
      vertex -2.56863 1.86622 0
      vertex -2.44638 2.02382 0
    endloop
  endfacet
  facet normal 0 0 -1
    outer loop
      vertex -2.68074 -1.70125 0
      vertex -2.56863 1.86622 0
      vertex -2.56863 -1.86622 0
    endloop
  endfacet
  facet normal 0 0 -1
    outer loop
      vertex -2.68074 -1.70125 0
      vertex -2.68074 1.70125 0
      vertex -2.56863 1.86622 0
    endloop
  endfacet
  facet normal 0 0 -1
    outer loop
      vertex -2.78227 -1.52957 0
      vertex -2.68074 1.70125 0
      vertex -2.68074 -1.70125 0
    endloop
  endfacet
  facet normal 0 0 -1
    outer loop
      vertex -2.78227 -1.52957 0
      vertex -2.78227 1.52957 0
      vertex -2.68074 1.70125 0
    endloop
  endfacet
  facet normal 0 0 -1
    outer loop
      vertex -2.87283 -1.35185 0
      vertex -2.78227 1.52957 0
      vertex -2.78227 -1.52957 0
    endloop
  endfacet
  facet normal 0 0 -1
    outer loop
      vertex -2.87283 -1.35185 0
      vertex -2.87283 1.35185 0
      vertex -2.78227 1.52957 0
    endloop
  endfacet
  facet normal 0 0 -1
    outer loop
      vertex -2.95204 -1.1688 0
      vertex -2.87283 1.35185 0
      vertex -2.87283 -1.35185 0
    endloop
  endfacet
  facet normal 0 0 -1
    outer loop
      vertex -2.95204 -1.1688 0
      vertex -2.95204 1.1688 0
      vertex -2.87283 1.35185 0
    endloop
  endfacet
  facet normal 0 0 -1
    outer loop
      vertex -3.0196 -0.981129 0
      vertex -2.95204 1.1688 0
      vertex -2.95204 -1.1688 0
    endloop
  endfacet
  facet normal 0 0 -1
    outer loop
      vertex -3.0196 -0.981129 0
      vertex -3.0196 0.981129 0
      vertex -2.95204 1.1688 0
    endloop
  endfacet
  facet normal 0 0 -1
    outer loop
      vertex -3.07525 -0.78959 0
      vertex -3.0196 0.981129 0
      vertex -3.0196 -0.981129 0
    endloop
  endfacet
  facet normal 0 0 -1
    outer loop
      vertex -3.07525 -0.78959 0
      vertex -3.07525 0.78959 0
      vertex -3.0196 0.981129 0
    endloop
  endfacet
  facet normal 0 0 -1
    outer loop
      vertex -3.11876 -0.594936 0
      vertex -3.07525 0.78959 0
      vertex -3.07525 -0.78959 0
    endloop
  endfacet
  facet normal 0 0 -1
    outer loop
      vertex -3.11876 -0.594936 0
      vertex -3.11876 0.594936 0
      vertex -3.07525 0.78959 0
    endloop
  endfacet
  facet normal 0 0 -1
    outer loop
      vertex -3.14996 -0.397933 0
      vertex -3.11876 0.594936 0
      vertex -3.11876 -0.594936 0
    endloop
  endfacet
  facet normal 0 0 -1
    outer loop
      vertex -3.14996 -0.397933 0
      vertex -3.14996 0.397933 0
      vertex -3.11876 0.594936 0
    endloop
  endfacet
  facet normal 0 0 -1
    outer loop
      vertex -3.16873 -0.19936 0
      vertex -3.14996 0.397933 0
      vertex -3.14996 -0.397933 0
    endloop
  endfacet
  facet normal 0 0 -1
    outer loop
      vertex -3.16873 -0.19936 0
      vertex -3.16873 0.19936 0
      vertex -3.14996 0.397933 0
    endloop
  endfacet
  facet normal 0 -0 -1
    outer loop
      vertex -3.16873 0.19936 0
      vertex -3.16873 -0.19936 0
      vertex -3.175 3.88825e-16 0
    endloop
  endfacet
  facet normal 0 0 1
    outer loop
      vertex 3.16873 0.19936 0.5
      vertex 3.16873 -0.19936 0.5
      vertex 3.175 0 0.5
    endloop
  endfacet
  facet normal 0 0 1
    outer loop
      vertex 3.14996 0.397933 0.5
      vertex 3.16873 -0.19936 0.5
      vertex 3.16873 0.19936 0.5
    endloop
  endfacet
  facet normal 0 0 1
    outer loop
      vertex 3.14996 0.397933 0.5
      vertex 3.14996 -0.397933 0.5
      vertex 3.16873 -0.19936 0.5
    endloop
  endfacet
  facet normal 0 0 1
    outer loop
      vertex 3.11876 0.594936 0.5
      vertex 3.14996 -0.397933 0.5
      vertex 3.14996 0.397933 0.5
    endloop
  endfacet
  facet normal 0 0 1
    outer loop
      vertex 3.11876 0.594936 0.5
      vertex 3.11876 -0.594936 0.5
      vertex 3.14996 -0.397933 0.5
    endloop
  endfacet
  facet normal 0 0 1
    outer loop
      vertex 3.07525 0.78959 0.5
      vertex 3.11876 -0.594936 0.5
      vertex 3.11876 0.594936 0.5
    endloop
  endfacet
  facet normal 0 0 1
    outer loop
      vertex 3.07525 0.78959 0.5
      vertex 3.07525 -0.78959 0.5
      vertex 3.11876 -0.594936 0.5
    endloop
  endfacet
  facet normal 0 0 1
    outer loop
      vertex 3.0196 0.981129 0.5
      vertex 3.07525 -0.78959 0.5
      vertex 3.07525 0.78959 0.5
    endloop
  endfacet
  facet normal 0 0 1
    outer loop
      vertex 3.0196 0.981129 0.5
      vertex 3.0196 -0.981129 0.5
      vertex 3.07525 -0.78959 0.5
    endloop
  endfacet
  facet normal 0 0 1
    outer loop
      vertex 2.95204 1.1688 0.5
      vertex 3.0196 -0.981129 0.5
      vertex 3.0196 0.981129 0.5
    endloop
  endfacet
  facet normal 0 0 1
    outer loop
      vertex 2.95204 1.1688 0.5
      vertex 2.95204 -1.1688 0.5
      vertex 3.0196 -0.981129 0.5
    endloop
  endfacet
  facet normal 0 0 1
    outer loop
      vertex 2.87283 1.35185 0.5
      vertex 2.95204 -1.1688 0.5
      vertex 2.95204 1.1688 0.5
    endloop
  endfacet
  facet normal 0 0 1
    outer loop
      vertex 2.87283 1.35185 0.5
      vertex 2.87283 -1.35185 0.5
      vertex 2.95204 -1.1688 0.5
    endloop
  endfacet
  facet normal 0 0 1
    outer loop
      vertex 2.78227 1.52957 0.5
      vertex 2.87283 -1.35185 0.5
      vertex 2.87283 1.35185 0.5
    endloop
  endfacet
  facet normal 0 0 1
    outer loop
      vertex 2.78227 1.52957 0.5
      vertex 2.78227 -1.52957 0.5
      vertex 2.87283 -1.35185 0.5
    endloop
  endfacet
  facet normal 0 0 1
    outer loop
      vertex 2.68074 1.70125 0.5
      vertex 2.78227 -1.52957 0.5
      vertex 2.78227 1.52957 0.5
    endloop
  endfacet
  facet normal 0 0 1
    outer loop
      vertex 2.68074 1.70125 0.5
      vertex 2.68074 -1.70125 0.5
      vertex 2.78227 -1.52957 0.5
    endloop
  endfacet
  facet normal 0 0 1
    outer loop
      vertex 2.56863 1.86622 0.5
      vertex 2.68074 -1.70125 0.5
      vertex 2.68074 1.70125 0.5
    endloop
  endfacet
  facet normal 0 0 1
    outer loop
      vertex 2.56863 1.86622 0.5
      vertex 2.56863 -1.86622 0.5
      vertex 2.68074 -1.70125 0.5
    endloop
  endfacet
  facet normal 0 0 1
    outer loop
      vertex 2.44638 2.02382 0.5
      vertex 2.56863 -1.86622 0.5
      vertex 2.56863 1.86622 0.5
    endloop
  endfacet
  facet normal 0 0 1
    outer loop
      vertex 2.44638 2.02382 0.5
      vertex 2.44638 -2.02382 0.5
      vertex 2.56863 -1.86622 0.5
    endloop
  endfacet
  facet normal 0 0 1
    outer loop
      vertex 2.31448 2.17344 0.5
      vertex 2.44638 -2.02382 0.5
      vertex 2.44638 2.02382 0.5
    endloop
  endfacet
  facet normal 0 0 1
    outer loop
      vertex 2.31448 2.17344 0.5
      vertex 2.31448 -2.17344 0.5
      vertex 2.44638 -2.02382 0.5
    endloop
  endfacet
  facet normal 0 0 1
    outer loop
      vertex 2.17344 2.31448 0.5
      vertex 2.31448 -2.17344 0.5
      vertex 2.31448 2.17344 0.5
    endloop
  endfacet
  facet normal 0 0 1
    outer loop
      vertex 2.17344 2.31448 0.5
      vertex 2.17344 -2.31448 0.5
      vertex 2.31448 -2.17344 0.5
    endloop
  endfacet
  facet normal 0 0 1
    outer loop
      vertex 2.02382 2.44638 0.5
      vertex 2.17344 -2.31448 0.5
      vertex 2.17344 2.31448 0.5
    endloop
  endfacet
  facet normal 0 0 1
    outer loop
      vertex 2.02382 2.44638 0.5
      vertex 2.02382 -2.44638 0.5
      vertex 2.17344 -2.31448 0.5
    endloop
  endfacet
  facet normal 0 0 1
    outer loop
      vertex 1.86622 2.56863 0.5
      vertex 2.02382 -2.44638 0.5
      vertex 2.02382 2.44638 0.5
    endloop
  endfacet
  facet normal 0 0 1
    outer loop
      vertex 1.86622 2.56863 0.5
      vertex 1.86622 -2.56863 0.5
      vertex 2.02382 -2.44638 0.5
    endloop
  endfacet
  facet normal 0 0 1
    outer loop
      vertex 1.70125 2.68074 0.5
      vertex 1.86622 -2.56863 0.5
      vertex 1.86622 2.56863 0.5
    endloop
  endfacet
  facet normal 0 0 1
    outer loop
      vertex 1.70125 2.68074 0.5
      vertex 1.70125 -2.68074 0.5
      vertex 1.86622 -2.56863 0.5
    endloop
  endfacet
  facet normal 0 0 1
    outer loop
      vertex 1.52957 2.78227 0.5
      vertex 1.70125 -2.68074 0.5
      vertex 1.70125 2.68074 0.5
    endloop
  endfacet
  facet normal 0 0 1
    outer loop
      vertex 1.52957 2.78227 0.5
      vertex 1.52957 -2.78227 0.5
      vertex 1.70125 -2.68074 0.5
    endloop
  endfacet
  facet normal 0 0 1
    outer loop
      vertex 1.35185 2.87283 0.5
      vertex 1.52957 -2.78227 0.5
      vertex 1.52957 2.78227 0.5
    endloop
  endfacet
  facet normal 0 0 1
    outer loop
      vertex 1.35185 2.87283 0.5
      vertex 1.35185 -2.87283 0.5
      vertex 1.52957 -2.78227 0.5
    endloop
  endfacet
  facet normal 0 0 1
    outer loop
      vertex 1.1688 2.95204 0.5
      vertex 1.35185 -2.87283 0.5
      vertex 1.35185 2.87283 0.5
    endloop
  endfacet
  facet normal 0 0 1
    outer loop
      vertex 1.1688 2.95204 0.5
      vertex 1.1688 -2.95204 0.5
      vertex 1.35185 -2.87283 0.5
    endloop
  endfacet
  facet normal 0 0 1
    outer loop
      vertex 0.981129 3.0196 0.5
      vertex 1.1688 -2.95204 0.5
      vertex 1.1688 2.95204 0.5
    endloop
  endfacet
  facet normal 0 0 1
    outer loop
      vertex 0.981129 3.0196 0.5
      vertex 0.981129 -3.0196 0.5
      vertex 1.1688 -2.95204 0.5
    endloop
  endfacet
  facet normal 0 0 1
    outer loop
      vertex 0.78959 3.07525 0.5
      vertex 0.981129 -3.0196 0.5
      vertex 0.981129 3.0196 0.5
    endloop
  endfacet
  facet normal 0 0 1
    outer loop
      vertex 0.78959 3.07525 0.5
      vertex 0.78959 -3.07525 0.5
      vertex 0.981129 -3.0196 0.5
    endloop
  endfacet
  facet normal 0 0 1
    outer loop
      vertex 0.594936 3.11876 0.5
      vertex 0.78959 -3.07525 0.5
      vertex 0.78959 3.07525 0.5
    endloop
  endfacet
  facet normal 0 0 1
    outer loop
      vertex 0.594936 3.11876 0.5
      vertex 0.594936 -3.11876 0.5
      vertex 0.78959 -3.07525 0.5
    endloop
  endfacet
  facet normal 0 0 1
    outer loop
      vertex 0.397933 3.14996 0.5
      vertex 0.594936 -3.11876 0.5
      vertex 0.594936 3.11876 0.5
    endloop
  endfacet
  facet normal 0 0 1
    outer loop
      vertex 0.397933 3.14996 0.5
      vertex 0.397933 -3.14996 0.5
      vertex 0.594936 -3.11876 0.5
    endloop
  endfacet
  facet normal 0 0 1
    outer loop
      vertex 0.19936 3.16873 0.5
      vertex 0.397933 -3.14996 0.5
      vertex 0.397933 3.14996 0.5
    endloop
  endfacet
  facet normal 0 0 1
    outer loop
      vertex 0.19936 3.16873 0.5
      vertex 0.19936 -3.16873 0.5
      vertex 0.397933 -3.14996 0.5
    endloop
  endfacet
  facet normal 0 0 1
    outer loop
      vertex 1.94413e-16 3.175 0.5
      vertex 0.19936 -3.16873 0.5
      vertex 0.19936 3.16873 0.5
    endloop
  endfacet
  facet normal 0 0 1
    outer loop
      vertex 1.94413e-16 3.175 0.5
      vertex -5.83238e-16 -3.175 0.5
      vertex 0.19936 -3.16873 0.5
    endloop
  endfacet
  facet normal -0 0 1
    outer loop
      vertex -0.19936 3.16873 0.5
      vertex -5.83238e-16 -3.175 0.5
      vertex 1.94413e-16 3.175 0.5
    endloop
  endfacet
  facet normal 0 0 1
    outer loop
      vertex -0.19936 3.16873 0.5
      vertex -0.19936 -3.16873 0.5
      vertex -5.83238e-16 -3.175 0.5
    endloop
  endfacet
  facet normal -0 0 1
    outer loop
      vertex -0.397933 3.14996 0.5
      vertex -0.19936 -3.16873 0.5
      vertex -0.19936 3.16873 0.5
    endloop
  endfacet
  facet normal 0 0 1
    outer loop
      vertex -0.397933 3.14996 0.5
      vertex -0.397933 -3.14996 0.5
      vertex -0.19936 -3.16873 0.5
    endloop
  endfacet
  facet normal -0 0 1
    outer loop
      vertex -0.594936 3.11876 0.5
      vertex -0.397933 -3.14996 0.5
      vertex -0.397933 3.14996 0.5
    endloop
  endfacet
  facet normal 0 0 1
    outer loop
      vertex -0.594936 3.11876 0.5
      vertex -0.594936 -3.11876 0.5
      vertex -0.397933 -3.14996 0.5
    endloop
  endfacet
  facet normal -0 0 1
    outer loop
      vertex -0.78959 3.07525 0.5
      vertex -0.594936 -3.11876 0.5
      vertex -0.594936 3.11876 0.5
    endloop
  endfacet
  facet normal 0 0 1
    outer loop
      vertex -0.78959 3.07525 0.5
      vertex -0.78959 -3.07525 0.5
      vertex -0.594936 -3.11876 0.5
    endloop
  endfacet
  facet normal -0 0 1
    outer loop
      vertex -0.981129 3.0196 0.5
      vertex -0.78959 -3.07525 0.5
      vertex -0.78959 3.07525 0.5
    endloop
  endfacet
  facet normal 0 0 1
    outer loop
      vertex -0.981129 3.0196 0.5
      vertex -0.981129 -3.0196 0.5
      vertex -0.78959 -3.07525 0.5
    endloop
  endfacet
  facet normal -0 0 1
    outer loop
      vertex -1.1688 2.95204 0.5
      vertex -0.981129 -3.0196 0.5
      vertex -0.981129 3.0196 0.5
    endloop
  endfacet
  facet normal 0 0 1
    outer loop
      vertex -1.1688 2.95204 0.5
      vertex -1.1688 -2.95204 0.5
      vertex -0.981129 -3.0196 0.5
    endloop
  endfacet
  facet normal -0 0 1
    outer loop
      vertex -1.35185 2.87283 0.5
      vertex -1.1688 -2.95204 0.5
      vertex -1.1688 2.95204 0.5
    endloop
  endfacet
  facet normal 0 0 1
    outer loop
      vertex -1.35185 2.87283 0.5
      vertex -1.35185 -2.87283 0.5
      vertex -1.1688 -2.95204 0.5
    endloop
  endfacet
  facet normal -0 0 1
    outer loop
      vertex -1.52957 2.78227 0.5
      vertex -1.35185 -2.87283 0.5
      vertex -1.35185 2.87283 0.5
    endloop
  endfacet
  facet normal 0 0 1
    outer loop
      vertex -1.52957 2.78227 0.5
      vertex -1.52957 -2.78227 0.5
      vertex -1.35185 -2.87283 0.5
    endloop
  endfacet
  facet normal -0 0 1
    outer loop
      vertex -1.70125 2.68074 0.5
      vertex -1.52957 -2.78227 0.5
      vertex -1.52957 2.78227 0.5
    endloop
  endfacet
  facet normal 0 0 1
    outer loop
      vertex -1.70125 2.68074 0.5
      vertex -1.70125 -2.68074 0.5
      vertex -1.52957 -2.78227 0.5
    endloop
  endfacet
  facet normal -0 0 1
    outer loop
      vertex -1.86622 2.56863 0.5
      vertex -1.70125 -2.68074 0.5
      vertex -1.70125 2.68074 0.5
    endloop
  endfacet
  facet normal 0 0 1
    outer loop
      vertex -1.86622 2.56863 0.5
      vertex -1.86622 -2.56863 0.5
      vertex -1.70125 -2.68074 0.5
    endloop
  endfacet
  facet normal -0 0 1
    outer loop
      vertex -2.02382 2.44638 0.5
      vertex -1.86622 -2.56863 0.5
      vertex -1.86622 2.56863 0.5
    endloop
  endfacet
  facet normal 0 0 1
    outer loop
      vertex -2.02382 2.44638 0.5
      vertex -2.02382 -2.44638 0.5
      vertex -1.86622 -2.56863 0.5
    endloop
  endfacet
  facet normal -0 0 1
    outer loop
      vertex -2.17344 2.31448 0.5
      vertex -2.02382 -2.44638 0.5
      vertex -2.02382 2.44638 0.5
    endloop
  endfacet
  facet normal 0 0 1
    outer loop
      vertex -2.17344 2.31448 0.5
      vertex -2.17344 -2.31448 0.5
      vertex -2.02382 -2.44638 0.5
    endloop
  endfacet
  facet normal -0 0 1
    outer loop
      vertex -2.31448 2.17344 0.5
      vertex -2.17344 -2.31448 0.5
      vertex -2.17344 2.31448 0.5
    endloop
  endfacet
  facet normal 0 0 1
    outer loop
      vertex -2.31448 2.17344 0.5
      vertex -2.31448 -2.17344 0.5
      vertex -2.17344 -2.31448 0.5
    endloop
  endfacet
  facet normal -0 0 1
    outer loop
      vertex -2.44638 2.02382 0.5
      vertex -2.31448 -2.17344 0.5
      vertex -2.31448 2.17344 0.5
    endloop
  endfacet
  facet normal 0 0 1
    outer loop
      vertex -2.44638 2.02382 0.5
      vertex -2.44638 -2.02382 0.5
      vertex -2.31448 -2.17344 0.5
    endloop
  endfacet
  facet normal -0 0 1
    outer loop
      vertex -2.56863 1.86622 0.5
      vertex -2.44638 -2.02382 0.5
      vertex -2.44638 2.02382 0.5
    endloop
  endfacet
  facet normal 0 0 1
    outer loop
      vertex -2.56863 1.86622 0.5
      vertex -2.56863 -1.86622 0.5
      vertex -2.44638 -2.02382 0.5
    endloop
  endfacet
  facet normal -0 0 1
    outer loop
      vertex -2.68074 1.70125 0.5
      vertex -2.56863 -1.86622 0.5
      vertex -2.56863 1.86622 0.5
    endloop
  endfacet
  facet normal 0 0 1
    outer loop
      vertex -2.68074 1.70125 0.5
      vertex -2.68074 -1.70125 0.5
      vertex -2.56863 -1.86622 0.5
    endloop
  endfacet
  facet normal -0 0 1
    outer loop
      vertex -2.78227 1.52957 0.5
      vertex -2.68074 -1.70125 0.5
      vertex -2.68074 1.70125 0.5
    endloop
  endfacet
  facet normal 0 0 1
    outer loop
      vertex -2.78227 1.52957 0.5
      vertex -2.78227 -1.52957 0.5
      vertex -2.68074 -1.70125 0.5
    endloop
  endfacet
  facet normal -0 0 1
    outer loop
      vertex -2.87283 1.35185 0.5
      vertex -2.78227 -1.52957 0.5
      vertex -2.78227 1.52957 0.5
    endloop
  endfacet
  facet normal 0 0 1
    outer loop
      vertex -2.87283 1.35185 0.5
      vertex -2.87283 -1.35185 0.5
      vertex -2.78227 -1.52957 0.5
    endloop
  endfacet
  facet normal -0 0 1
    outer loop
      vertex -2.95204 1.1688 0.5
      vertex -2.87283 -1.35185 0.5
      vertex -2.87283 1.35185 0.5
    endloop
  endfacet
  facet normal 0 0 1
    outer loop
      vertex -2.95204 1.1688 0.5
      vertex -2.95204 -1.1688 0.5
      vertex -2.87283 -1.35185 0.5
    endloop
  endfacet
  facet normal -0 0 1
    outer loop
      vertex -3.0196 0.981129 0.5
      vertex -2.95204 -1.1688 0.5
      vertex -2.95204 1.1688 0.5
    endloop
  endfacet
  facet normal 0 0 1
    outer loop
      vertex -3.0196 0.981129 0.5
      vertex -3.0196 -0.981129 0.5
      vertex -2.95204 -1.1688 0.5
    endloop
  endfacet
  facet normal -0 0 1
    outer loop
      vertex -3.07525 0.78959 0.5
      vertex -3.0196 -0.981129 0.5
      vertex -3.0196 0.981129 0.5
    endloop
  endfacet
  facet normal 0 0 1
    outer loop
      vertex -3.07525 0.78959 0.5
      vertex -3.07525 -0.78959 0.5
      vertex -3.0196 -0.981129 0.5
    endloop
  endfacet
  facet normal -0 0 1
    outer loop
      vertex -3.11876 0.594936 0.5
      vertex -3.07525 -0.78959 0.5
      vertex -3.07525 0.78959 0.5
    endloop
  endfacet
  facet normal 0 0 1
    outer loop
      vertex -3.11876 0.594936 0.5
      vertex -3.11876 -0.594936 0.5
      vertex -3.07525 -0.78959 0.5
    endloop
  endfacet
  facet normal -0 0 1
    outer loop
      vertex -3.14996 0.397933 0.5
      vertex -3.11876 -0.594936 0.5
      vertex -3.11876 0.594936 0.5
    endloop
  endfacet
  facet normal 0 0 1
    outer loop
      vertex -3.14996 0.397933 0.5
      vertex -3.14996 -0.397933 0.5
      vertex -3.11876 -0.594936 0.5
    endloop
  endfacet
  facet normal -0 0 1
    outer loop
      vertex -3.16873 0.19936 0.5
      vertex -3.14996 -0.397933 0.5
      vertex -3.14996 0.397933 0.5
    endloop
  endfacet
  facet normal 0 0 1
    outer loop
      vertex -3.16873 0.19936 0.5
      vertex -3.16873 -0.19936 0.5
      vertex -3.14996 -0.397933 0.5
    endloop
  endfacet
  facet normal 0 -0 1
    outer loop
      vertex -3.16873 -0.19936 0.5
      vertex -3.16873 0.19936 0.5
      vertex -3.175 3.88825e-16 0.5
    endloop
  endfacet
endsolid OpenSCAD_Model
