solid OpenSCAD_Model
  facet normal -1 0 0
    outer loop
      vertex -19 -20 0
      vertex -19 20 0
      vertex -19 -20 -22
    endloop
  endfacet
  facet normal -1 0 0
    outer loop
      vertex -19 -20 -22
      vertex -19 20 0
      vertex -19 20 -22
    endloop
  endfacet
  facet normal 0 0 1
    outer loop
      vertex -19 -20 0
      vertex 19 -20 0
      vertex 19 20 0
    endloop
  endfacet
  facet normal 0 0 1
    outer loop
      vertex -19 20 0
      vertex -19 -20 0
      vertex 19 20 0
    endloop
  endfacet
  facet normal 0 -1 0
    outer loop
      vertex -19 -20 -22
      vertex 19 -20 -22
      vertex 19 -20 0
    endloop
  endfacet
  facet normal 0 -1 0
    outer loop
      vertex -19 -20 0
      vertex -19 -20 -22
      vertex 19 -20 0
    endloop
  endfacet
  facet normal 0 0 -1
    outer loop
      vertex -19 20 -22
      vertex 19 20 -22
      vertex -19 -20 -22
    endloop
  endfacet
  facet normal 0 0 -1
    outer loop
      vertex -19 -20 -22
      vertex 19 20 -22
      vertex 19 -20 -22
    endloop
  endfacet
  facet normal 0 1 0
    outer loop
      vertex -19 20 0
      vertex 19 20 0
      vertex -19 20 -22
    endloop
  endfacet
  facet normal 0 1 0
    outer loop
      vertex -19 20 -22
      vertex 19 20 0
      vertex 19 20 -22
    endloop
  endfacet
  facet normal 1 0 0
    outer loop
      vertex 19 -20 -22
      vertex 19 20 -22
      vertex 19 20 0
    endloop
  endfacet
  facet normal 1 0 0
    outer loop
      vertex 19 -20 0
      vertex 19 -20 -22
      vertex 19 20 0
    endloop
  endfacet
endsolid OpenSCAD_Model
