solid OpenSCAD_Model
  facet normal -1 0 0
    outer loop
      vertex -7.75 -15 0
      vertex -7.75 15 0
      vertex -7.75 -15 -15
    endloop
  endfacet
  facet normal -1 0 0
    outer loop
      vertex -7.75 -15 -15
      vertex -7.75 15 0
      vertex -7.75 15 -15
    endloop
  endfacet
  facet normal 0 0 1
    outer loop
      vertex -7.75 -15 0
      vertex 7.75 -15 0
      vertex 7.75 15 0
    endloop
  endfacet
  facet normal 0 0 1
    outer loop
      vertex -7.75 15 0
      vertex -7.75 -15 0
      vertex 7.75 15 0
    endloop
  endfacet
  facet normal 0 -1 0
    outer loop
      vertex -7.75 -15 -15
      vertex 7.75 -15 -15
      vertex 7.75 -15 0
    endloop
  endfacet
  facet normal 0 -1 0
    outer loop
      vertex -7.75 -15 0
      vertex -7.75 -15 -15
      vertex 7.75 -15 0
    endloop
  endfacet
  facet normal 0 0 -1
    outer loop
      vertex -7.75 15 -15
      vertex 7.75 15 -15
      vertex -7.75 -15 -15
    endloop
  endfacet
  facet normal 0 0 -1
    outer loop
      vertex -7.75 -15 -15
      vertex 7.75 15 -15
      vertex 7.75 -15 -15
    endloop
  endfacet
  facet normal 0 1 0
    outer loop
      vertex -7.75 15 0
      vertex 7.75 15 0
      vertex -7.75 15 -15
    endloop
  endfacet
  facet normal 0 1 0
    outer loop
      vertex -7.75 15 -15
      vertex 7.75 15 0
      vertex 7.75 15 -15
    endloop
  endfacet
  facet normal 1 0 0
    outer loop
      vertex 7.75 -15 -15
      vertex 7.75 15 -15
      vertex 7.75 15 0
    endloop
  endfacet
  facet normal 1 0 0
    outer loop
      vertex 7.75 -15 0
      vertex 7.75 -15 -15
      vertex 7.75 15 0
    endloop
  endfacet
endsolid OpenSCAD_Model
