solid OpenSCAD_Model
  facet normal 1 0 0
    outer loop
      vertex 7.75 15 -8.87869e-16
      vertex 7.75 -15 2.78607e-15
      vertex 7.75 15 -15
    endloop
  endfacet
  facet normal 1 0 0
    outer loop
      vertex 7.75 15 -15
      vertex 7.75 -15 2.78607e-15
      vertex 7.75 -15 -15
    endloop
  endfacet
  facet normal -1.22465e-16 1.22465e-16 1
    outer loop
      vertex 7.75 15 -8.87869e-16
      vertex -7.75 15 -2.78607e-15
      vertex -7.75 -15 8.87869e-16
    endloop
  endfacet
  facet normal -1.22465e-16 1.22465e-16 1
    outer loop
      vertex 7.75 -15 2.78607e-15
      vertex 7.75 15 -8.87869e-16
      vertex -7.75 -15 8.87869e-16
    endloop
  endfacet
  facet normal 0 1 -1.18424e-16
    outer loop
      vertex 7.75 15 -15
      vertex -7.75 15 -15
      vertex -7.75 15 -2.78607e-15
    endloop
  endfacet
  facet normal 1.45027e-32 1 -1.18424e-16
    outer loop
      vertex 7.75 15 -8.87869e-16
      vertex 7.75 15 -15
      vertex -7.75 15 -2.78607e-15
    endloop
  endfacet
  facet normal -0 -1.18424e-16 -1
    outer loop
      vertex 7.75 -15 -15
      vertex -7.75 -15 -15
      vertex 7.75 15 -15
    endloop
  endfacet
  facet normal -0 -1.18424e-16 -1
    outer loop
      vertex 7.75 15 -15
      vertex -7.75 -15 -15
      vertex -7.75 15 -15
    endloop
  endfacet
  facet normal -1.45027e-32 -1 1.18424e-16
    outer loop
      vertex 7.75 -15 2.78607e-15
      vertex -7.75 -15 8.87869e-16
      vertex 7.75 -15 -15
    endloop
  endfacet
  facet normal 0 -1 1.18424e-16
    outer loop
      vertex 7.75 -15 -15
      vertex -7.75 -15 8.87869e-16
      vertex -7.75 -15 -15
    endloop
  endfacet
  facet normal -1 0 0
    outer loop
      vertex -7.75 15 -15
      vertex -7.75 -15 -15
      vertex -7.75 -15 8.87869e-16
    endloop
  endfacet
  facet normal -1 -0 0
    outer loop
      vertex -7.75 15 -2.78607e-15
      vertex -7.75 15 -15
      vertex -7.75 -15 8.87869e-16
    endloop
  endfacet
endsolid OpenSCAD_Model
