solid OpenSCAD_Model
  facet normal -2.22045e-16 -1 0
    outer loop
      vertex -7.75 -3.5 24.5
      vertex -7.75 -3.5 -3.5
      vertex -7.5 -3.5 -3.5
    endloop
  endfacet
  facet normal -2.22045e-16 -1 0
    outer loop
      vertex -7.5 -3.5 24.5
      vertex -7.75 -3.5 24.5
      vertex -7.5 -3.5 -3.5
    endloop
  endfacet
  facet normal 0 0 -1
    outer loop
      vertex -7.75 -3.5 -3.5
      vertex -7.75 3.5 -3.5
      vertex -7.5 -3.5 -3.5
    endloop
  endfacet
  facet normal 0 0 -1
    outer loop
      vertex -7.5 -3.5 -3.5
      vertex -7.75 3.5 -3.5
      vertex -7.5 3.5 -3.5
    endloop
  endfacet
  facet normal -1 2.22045e-16 0
    outer loop
      vertex -7.75 -3.5 -3.5
      vertex -7.75 -3.5 24.5
      vertex -7.75 3.5 -3.5
    endloop
  endfacet
  facet normal -1 2.22045e-16 0
    outer loop
      vertex -7.75 3.5 -3.5
      vertex -7.75 -3.5 24.5
      vertex -7.75 3.5 24.5
    endloop
  endfacet
  facet normal 0 0 1
    outer loop
      vertex -7.75 3.5 24.5
      vertex -7.75 -3.5 24.5
      vertex -7.5 -3.5 24.5
    endloop
  endfacet
  facet normal 0 0 1
    outer loop
      vertex 1.8 -9 24.5
      vertex 1.7119 -9.55623 24.5
      vertex 7.5 -15 24.5
    endloop
  endfacet
  facet normal 0 0 1
    outer loop
      vertex -3.25 7.325 24.5
      vertex 3.25 7.325 24.5
      vertex 7.5 15 24.5
    endloop
  endfacet
  facet normal 0 0 1
    outer loop
      vertex -3.25 -7.075 24.5
      vertex -7.75 3.5 24.5
      vertex -7.5 -3.5 24.5
    endloop
  endfacet
  facet normal 0 0 1
    outer loop
      vertex 3.25 7.325 24.5
      vertex 3.25 -7.075 24.5
      vertex 7.5 -3.5 24.5
    endloop
  endfacet
  facet normal 0 0 1
    outer loop
      vertex 7.75 -3.5 24.5
      vertex 7.75 3.5 24.5
      vertex 7.5 3.5 24.5
    endloop
  endfacet
  facet normal 0 0 1
    outer loop
      vertex -3.25 7.325 24.5
      vertex 7.5 15 24.5
      vertex -7.5 15 24.5
    endloop
  endfacet
  facet normal 0 0 1
    outer loop
      vertex 3.25 7.325 24.5
      vertex 7.75 -3.5 24.5
      vertex 7.5 3.5 24.5
    endloop
  endfacet
  facet normal 0 0 1
    outer loop
      vertex -7.5 -15 24.5
      vertex -3.25 -7.075 24.5
      vertex -7.5 -3.5 24.5
    endloop
  endfacet
  facet normal 0 0 1
    outer loop
      vertex 1.45623 -7.94199 24.5
      vertex 1.7119 -8.44377 24.5
      vertex 7.5 -15 24.5
    endloop
  endfacet
  facet normal 0 0 1
    outer loop
      vertex 3.25 -7.075 24.5
      vertex 1.45623 -7.94199 24.5
      vertex 7.5 -15 24.5
    endloop
  endfacet
  facet normal 0 0 1
    outer loop
      vertex 3.25 7.325 24.5
      vertex 7.5 -3.5 24.5
      vertex 7.75 -3.5 24.5
    endloop
  endfacet
  facet normal 0 0 1
    outer loop
      vertex 7.5 3.5 24.5
      vertex 7.5 15 24.5
      vertex 3.25 7.325 24.5
    endloop
  endfacet
  facet normal 0 0 1
    outer loop
      vertex 7.5 -15 24.5
      vertex 7.5 -3.5 24.5
      vertex 3.25 -7.075 24.5
    endloop
  endfacet
  facet normal 0 0 1
    outer loop
      vertex -7.5 -15 24.5
      vertex -1.7119 -9.55623 24.5
      vertex -3.25 -7.075 24.5
    endloop
  endfacet
  facet normal 0 0 1
    outer loop
      vertex -1.7119 -9.55623 24.5
      vertex -1.8 -9 24.5
      vertex -3.25 -7.075 24.5
    endloop
  endfacet
  facet normal 0 0 1
    outer loop
      vertex -1.8 -9 24.5
      vertex -1.7119 -8.44377 24.5
      vertex -3.25 -7.075 24.5
    endloop
  endfacet
  facet normal 0 0 1
    outer loop
      vertex -1.7119 -8.44377 24.5
      vertex -1.45623 -7.94199 24.5
      vertex -3.25 -7.075 24.5
    endloop
  endfacet
  facet normal 0 0 1
    outer loop
      vertex 1.05801 -10.4562 24.5
      vertex 0.556231 -10.7119 24.5
      vertex 7.5 -15 24.5
    endloop
  endfacet
  facet normal 0 0 1
    outer loop
      vertex 1.7119 -9.55623 24.5
      vertex 1.45623 -10.058 24.5
      vertex 7.5 -15 24.5
    endloop
  endfacet
  facet normal 0 0 1
    outer loop
      vertex -3.25 -7.075 24.5
      vertex -7.5 3.5 24.5
      vertex -7.75 3.5 24.5
    endloop
  endfacet
  facet normal 0 0 1
    outer loop
      vertex -3.25 -7.075 24.5
      vertex -3.25 7.325 24.5
      vertex -7.5 3.5 24.5
    endloop
  endfacet
  facet normal 0 0 1
    outer loop
      vertex 1.7119 -8.44377 24.5
      vertex 1.8 -9 24.5
      vertex 7.5 -15 24.5
    endloop
  endfacet
  facet normal 0 0 1
    outer loop
      vertex 1.45623 -10.058 24.5
      vertex 1.05801 -10.4562 24.5
      vertex 7.5 -15 24.5
    endloop
  endfacet
  facet normal 0 0 1
    outer loop
      vertex 0.556231 -10.7119 24.5
      vertex 0 -10.8 24.5
      vertex 7.5 -15 24.5
    endloop
  endfacet
  facet normal 0 0 1
    outer loop
      vertex -7.5 -15 24.5
      vertex 7.5 -15 24.5
      vertex 0 -10.8 24.5
    endloop
  endfacet
  facet normal 0 0 1
    outer loop
      vertex -7.5 -15 24.5
      vertex 0 -10.8 24.5
      vertex -0.556231 -10.7119 24.5
    endloop
  endfacet
  facet normal 0 0 1
    outer loop
      vertex -7.5 -15 24.5
      vertex -0.556231 -10.7119 24.5
      vertex -1.05801 -10.4562 24.5
    endloop
  endfacet
  facet normal 0 0 1
    outer loop
      vertex -7.5 -15 24.5
      vertex -1.45623 -10.058 24.5
      vertex -1.7119 -9.55623 24.5
    endloop
  endfacet
  facet normal 0 0 1
    outer loop
      vertex -7.5 -15 24.5
      vertex -1.05801 -10.4562 24.5
      vertex -1.45623 -10.058 24.5
    endloop
  endfacet
  facet normal 0 0 1
    outer loop
      vertex -7.5 15 24.5
      vertex -7.5 3.5 24.5
      vertex -3.25 7.325 24.5
    endloop
  endfacet
  facet normal 0 0 1
    outer loop
      vertex 3.25 -7.075 24.5
      vertex 1.05801 -7.54377 24.5
      vertex 1.45623 -7.94199 24.5
    endloop
  endfacet
  facet normal 0 0 1
    outer loop
      vertex 3.25 -7.075 24.5
      vertex 0.556231 -7.2881 24.5
      vertex 1.05801 -7.54377 24.5
    endloop
  endfacet
  facet normal 0 0 1
    outer loop
      vertex 3.25 -7.075 24.5
      vertex 0 -7.2 24.5
      vertex 0.556231 -7.2881 24.5
    endloop
  endfacet
  facet normal 0 0 1
    outer loop
      vertex -1.05801 -7.54377 24.5
      vertex -3.25 -7.075 24.5
      vertex -1.45623 -7.94199 24.5
    endloop
  endfacet
  facet normal 0 0 1
    outer loop
      vertex -0.556231 -7.2881 24.5
      vertex -3.25 -7.075 24.5
      vertex -1.05801 -7.54377 24.5
    endloop
  endfacet
  facet normal 0 0 1
    outer loop
      vertex 0 -7.2 24.5
      vertex -3.25 -7.075 24.5
      vertex -0.556231 -7.2881 24.5
    endloop
  endfacet
  facet normal 0 0 1
    outer loop
      vertex 3.25 -7.075 24.5
      vertex -3.25 -7.075 24.5
      vertex 0 -7.2 24.5
    endloop
  endfacet
  facet normal -1 0 0
    outer loop
      vertex -7.5 -15 -5.5
      vertex -7.5 -15 24.5
      vertex -7.5 -3.5 -3.5
    endloop
  endfacet
  facet normal -1 0 0
    outer loop
      vertex -7.5 -15 -5.5
      vertex -7.5 -3.5 -3.5
      vertex -7.5 15 -5.5
    endloop
  endfacet
  facet normal -1 0 0
    outer loop
      vertex -7.5 3.5 24.5
      vertex -7.5 15 -5.5
      vertex -7.5 3.5 -3.5
    endloop
  endfacet
  facet normal -1 0 0
    outer loop
      vertex -7.5 -3.5 -3.5
      vertex -7.5 3.5 -3.5
      vertex -7.5 15 -5.5
    endloop
  endfacet
  facet normal -1 0 0
    outer loop
      vertex -7.5 15 -5.5
      vertex -7.5 3.5 24.5
      vertex -7.5 15 24.5
    endloop
  endfacet
  facet normal -1 0 0
    outer loop
      vertex -7.5 -3.5 -3.5
      vertex -7.5 -15 24.5
      vertex -7.5 -3.5 24.5
    endloop
  endfacet
  facet normal 2.22045e-16 1 0
    outer loop
      vertex -7.75 3.5 -3.5
      vertex -7.75 3.5 24.5
      vertex -7.5 3.5 -3.5
    endloop
  endfacet
  facet normal 2.22045e-16 1 0
    outer loop
      vertex -7.5 3.5 -3.5
      vertex -7.75 3.5 24.5
      vertex -7.5 3.5 24.5
    endloop
  endfacet
  facet normal 0 1 0
    outer loop
      vertex -7.5 15 -5.5
      vertex -7.5 15 24.5
      vertex 7.5 15 -5.5
    endloop
  endfacet
  facet normal 0 1 0
    outer loop
      vertex 7.5 15 -5.5
      vertex -7.5 15 24.5
      vertex 7.5 15 24.5
    endloop
  endfacet
  facet normal 1 0 0
    outer loop
      vertex 7.5 3.5 -3.5
      vertex 7.5 -15 -5.5
      vertex 7.5 15 -5.5
    endloop
  endfacet
  facet normal 1 0 0
    outer loop
      vertex 7.5 -3.5 -3.5
      vertex 7.5 -3.5 24.5
      vertex 7.5 -15 24.5
    endloop
  endfacet
  facet normal 1 0 0
    outer loop
      vertex 7.5 15 24.5
      vertex 7.5 3.5 24.5
      vertex 7.5 15 -5.5
    endloop
  endfacet
  facet normal 1 0 0
    outer loop
      vertex 7.5 -3.5 -3.5
      vertex 7.5 -15 -5.5
      vertex 7.5 3.5 -3.5
    endloop
  endfacet
  facet normal 1 0 0
    outer loop
      vertex 7.5 -15 24.5
      vertex 7.5 -15 -5.5
      vertex 7.5 -3.5 -3.5
    endloop
  endfacet
  facet normal 1 0 0
    outer loop
      vertex 7.5 3.5 24.5
      vertex 7.5 3.5 -3.5
      vertex 7.5 15 -5.5
    endloop
  endfacet
  facet normal 2.22045e-16 1 0
    outer loop
      vertex 7.5 3.5 -3.5
      vertex 7.5 3.5 24.5
      vertex 7.75 3.5 -3.5
    endloop
  endfacet
  facet normal 2.22045e-16 1 0
    outer loop
      vertex 7.75 3.5 -3.5
      vertex 7.5 3.5 24.5
      vertex 7.75 3.5 24.5
    endloop
  endfacet
  facet normal 1 -2.22045e-16 0
    outer loop
      vertex 7.75 -3.5 24.5
      vertex 7.75 -3.5 -3.5
      vertex 7.75 3.5 -3.5
    endloop
  endfacet
  facet normal 1 -2.22045e-16 0
    outer loop
      vertex 7.75 3.5 24.5
      vertex 7.75 -3.5 24.5
      vertex 7.75 3.5 -3.5
    endloop
  endfacet
  facet normal -2.22045e-16 -1 0
    outer loop
      vertex 7.5 -3.5 24.5
      vertex 7.5 -3.5 -3.5
      vertex 7.75 -3.5 -3.5
    endloop
  endfacet
  facet normal -2.22045e-16 -1 0
    outer loop
      vertex 7.75 -3.5 24.5
      vertex 7.5 -3.5 24.5
      vertex 7.75 -3.5 -3.5
    endloop
  endfacet
  facet normal 0 -1 0
    outer loop
      vertex -7.5 -15 24.5
      vertex -7.5 -15 -5.5
      vertex 7.5 -15 -5.5
    endloop
  endfacet
  facet normal 0 -1 0
    outer loop
      vertex 7.5 -15 24.5
      vertex -7.5 -15 24.5
      vertex 7.5 -15 -5.5
    endloop
  endfacet
  facet normal 0 1 0
    outer loop
      vertex -3.25 -7.075 -1.5
      vertex -3.25 -7.075 24.5
      vertex 3.25 -7.075 24.5
    endloop
  endfacet
  facet normal 0 1 0
    outer loop
      vertex -3.25 -7.075 -1.5
      vertex 3.25 -7.075 24.5
      vertex 3.25 -7.075 -1.5
    endloop
  endfacet
  facet normal 0 1 0
    outer loop
      vertex -3.25 -7.075 -1.5
      vertex 3.6 -7.075 -4.9
      vertex -3.6 -7.075 -1.5
    endloop
  endfacet
  facet normal 0 1 0
    outer loop
      vertex 3.25 -7.075 -1.5
      vertex 3.6 -7.075 -1.5
      vertex 3.6 -7.075 -4.9
    endloop
  endfacet
  facet normal 0 1 0
    outer loop
      vertex 3.25 -7.075 -1.5
      vertex 3.6 -7.075 -4.9
      vertex -3.25 -7.075 -1.5
    endloop
  endfacet
  facet normal 0 1 0
    outer loop
      vertex 3.6 -7.075 -4.9
      vertex 3.25 -7.075 -4.9
      vertex -3.6 -7.075 -1.5
    endloop
  endfacet
  facet normal 0 1 0
    outer loop
      vertex 3.25 -7.075 -4.9
      vertex -3.25 -7.075 -4.9
      vertex -3.6 -7.075 -1.5
    endloop
  endfacet
  facet normal 0 1 0
    outer loop
      vertex -3.6 -7.075 -4.9
      vertex -3.6 -7.075 -1.5
      vertex -3.25 -7.075 -4.9
    endloop
  endfacet
  facet normal 1 0 0
    outer loop
      vertex -3.25 7.325 -1.5
      vertex -3.25 7.325 24.5
      vertex -3.25 -7.075 24.5
    endloop
  endfacet
  facet normal 1 0 0
    outer loop
      vertex -3.25 -7.075 -1.5
      vertex -3.25 7.325 -1.5
      vertex -3.25 -7.075 24.5
    endloop
  endfacet
  facet normal -1 0 0
    outer loop
      vertex 3.25 7.325 24.5
      vertex 3.25 7.325 -1.5
      vertex 3.25 -7.075 24.5
    endloop
  endfacet
  facet normal -1 0 0
    outer loop
      vertex 3.25 -7.075 24.5
      vertex 3.25 7.325 -1.5
      vertex 3.25 -7.075 -1.5
    endloop
  endfacet
  facet normal 0 -1 0
    outer loop
      vertex 3.6 7.325 -1.5
      vertex -3.25 7.325 -4.9
      vertex 3.25 7.325 -4.9
    endloop
  endfacet
  facet normal 0 -1 0
    outer loop
      vertex 3.6 7.325 -1.5
      vertex 3.25 7.325 -4.9
      vertex 3.6 7.325 -4.9
    endloop
  endfacet
  facet normal 0 -1 0
    outer loop
      vertex 3.25 7.325 -1.5
      vertex -3.25 7.325 -4.9
      vertex 3.6 7.325 -1.5
    endloop
  endfacet
  facet normal 0 -1 0
    outer loop
      vertex 3.25 7.325 24.5
      vertex -3.25 7.325 -4.9
      vertex 3.25 7.325 -1.5
    endloop
  endfacet
  facet normal 0 -1 0
    outer loop
      vertex -3.25 7.325 -1.5
      vertex -3.25 7.325 -4.9
      vertex 3.25 7.325 24.5
    endloop
  endfacet
  facet normal 0 -1 0
    outer loop
      vertex -3.6 7.325 -1.5
      vertex -3.25 7.325 -4.9
      vertex -3.25 7.325 -1.5
    endloop
  endfacet
  facet normal 0 -1 0
    outer loop
      vertex -3.25 7.325 24.5
      vertex -3.25 7.325 -1.5
      vertex 3.25 7.325 24.5
    endloop
  endfacet
  facet normal 0 -1 0
    outer loop
      vertex -3.6 7.325 -4.9
      vertex -3.25 7.325 -4.9
      vertex -3.6 7.325 -1.5
    endloop
  endfacet
  facet normal -0.987688 -0.156434 0
    outer loop
      vertex -1.8 -9 24.5
      vertex -1.7119 -9.55623 24.5
      vertex -1.8 -9 25
    endloop
  endfacet
  facet normal -0.987688 -0.156434 0
    outer loop
      vertex -1.8 -9 25
      vertex -1.7119 -9.55623 24.5
      vertex -1.7119 -9.55623 25
    endloop
  endfacet
  facet normal -0.891006 -0.453991 0
    outer loop
      vertex -1.7119 -9.55623 24.5
      vertex -1.45623 -10.058 24.5
      vertex -1.7119 -9.55623 25
    endloop
  endfacet
  facet normal -0.891006 -0.453991 0
    outer loop
      vertex -1.7119 -9.55623 25
      vertex -1.45623 -10.058 24.5
      vertex -1.45623 -10.058 25
    endloop
  endfacet
  facet normal -0.707107 -0.707107 0
    outer loop
      vertex -1.45623 -10.058 25
      vertex -1.45623 -10.058 24.5
      vertex -1.05801 -10.4562 24.5
    endloop
  endfacet
  facet normal -0.707107 -0.707107 0
    outer loop
      vertex -1.05801 -10.4562 25
      vertex -1.45623 -10.058 25
      vertex -1.05801 -10.4562 24.5
    endloop
  endfacet
  facet normal -0.453991 -0.891006 0
    outer loop
      vertex -1.05801 -10.4562 25
      vertex -1.05801 -10.4562 24.5
      vertex -0.556231 -10.7119 24.5
    endloop
  endfacet
  facet normal -0.453991 -0.891006 0
    outer loop
      vertex -0.556231 -10.7119 25
      vertex -1.05801 -10.4562 25
      vertex -0.556231 -10.7119 24.5
    endloop
  endfacet
  facet normal -0.156434 -0.987688 0
    outer loop
      vertex -0.556231 -10.7119 25
      vertex -0.556231 -10.7119 24.5
      vertex 0 -10.8 24.5
    endloop
  endfacet
  facet normal -0.156434 -0.987688 0
    outer loop
      vertex 0 -10.8 25
      vertex -0.556231 -10.7119 25
      vertex 0 -10.8 24.5
    endloop
  endfacet
  facet normal 0.156434 -0.987688 0
    outer loop
      vertex 0 -10.8 25
      vertex 0 -10.8 24.5
      vertex 0.556231 -10.7119 24.5
    endloop
  endfacet
  facet normal 0.156434 -0.987688 0
    outer loop
      vertex 0.556231 -10.7119 25
      vertex 0 -10.8 25
      vertex 0.556231 -10.7119 24.5
    endloop
  endfacet
  facet normal 0.453991 -0.891006 0
    outer loop
      vertex 0.556231 -10.7119 25
      vertex 0.556231 -10.7119 24.5
      vertex 1.05801 -10.4562 24.5
    endloop
  endfacet
  facet normal 0.453991 -0.891006 0
    outer loop
      vertex 1.05801 -10.4562 25
      vertex 0.556231 -10.7119 25
      vertex 1.05801 -10.4562 24.5
    endloop
  endfacet
  facet normal 0.707107 -0.707107 0
    outer loop
      vertex 1.05801 -10.4562 25
      vertex 1.05801 -10.4562 24.5
      vertex 1.45623 -10.058 24.5
    endloop
  endfacet
  facet normal 0.707107 -0.707107 0
    outer loop
      vertex 1.45623 -10.058 25
      vertex 1.05801 -10.4562 25
      vertex 1.45623 -10.058 24.5
    endloop
  endfacet
  facet normal 0.891006 -0.453991 0
    outer loop
      vertex 1.45623 -10.058 25
      vertex 1.45623 -10.058 24.5
      vertex 1.7119 -9.55623 24.5
    endloop
  endfacet
  facet normal 0.891006 -0.453991 0
    outer loop
      vertex 1.7119 -9.55623 25
      vertex 1.45623 -10.058 25
      vertex 1.7119 -9.55623 24.5
    endloop
  endfacet
  facet normal 0.987688 -0.156434 0
    outer loop
      vertex 1.7119 -9.55623 25
      vertex 1.7119 -9.55623 24.5
      vertex 1.8 -9 24.5
    endloop
  endfacet
  facet normal 0.987688 -0.156434 0
    outer loop
      vertex 1.8 -9 25
      vertex 1.7119 -9.55623 25
      vertex 1.8 -9 24.5
    endloop
  endfacet
  facet normal 0.987688 0.156434 0
    outer loop
      vertex 1.8 -9 24.5
      vertex 1.7119 -8.44377 24.5
      vertex 1.7119 -8.44377 25
    endloop
  endfacet
  facet normal 0.987688 0.156434 0
    outer loop
      vertex 1.8 -9 25
      vertex 1.8 -9 24.5
      vertex 1.7119 -8.44377 25
    endloop
  endfacet
  facet normal 0.891006 0.453991 0
    outer loop
      vertex 1.7119 -8.44377 24.5
      vertex 1.45623 -7.94199 24.5
      vertex 1.45623 -7.94199 25
    endloop
  endfacet
  facet normal 0.891006 0.453991 0
    outer loop
      vertex 1.7119 -8.44377 25
      vertex 1.7119 -8.44377 24.5
      vertex 1.45623 -7.94199 25
    endloop
  endfacet
  facet normal 0.707107 0.707107 0
    outer loop
      vertex 1.05801 -7.54377 24.5
      vertex 1.05801 -7.54377 25
      vertex 1.45623 -7.94199 24.5
    endloop
  endfacet
  facet normal 0.707107 0.707107 0
    outer loop
      vertex 1.45623 -7.94199 24.5
      vertex 1.05801 -7.54377 25
      vertex 1.45623 -7.94199 25
    endloop
  endfacet
  facet normal 0.453991 0.891006 0
    outer loop
      vertex 0.556231 -7.2881 24.5
      vertex 0.556231 -7.2881 25
      vertex 1.05801 -7.54377 24.5
    endloop
  endfacet
  facet normal 0.453991 0.891006 0
    outer loop
      vertex 1.05801 -7.54377 24.5
      vertex 0.556231 -7.2881 25
      vertex 1.05801 -7.54377 25
    endloop
  endfacet
  facet normal 0.156434 0.987688 0
    outer loop
      vertex 0 -7.2 24.5
      vertex 0 -7.2 25
      vertex 0.556231 -7.2881 24.5
    endloop
  endfacet
  facet normal 0.156434 0.987688 0
    outer loop
      vertex 0.556231 -7.2881 24.5
      vertex 0 -7.2 25
      vertex 0.556231 -7.2881 25
    endloop
  endfacet
  facet normal -0.156434 0.987688 0
    outer loop
      vertex -0.556231 -7.2881 24.5
      vertex -0.556231 -7.2881 25
      vertex 0 -7.2 24.5
    endloop
  endfacet
  facet normal -0.156434 0.987688 0
    outer loop
      vertex 0 -7.2 24.5
      vertex -0.556231 -7.2881 25
      vertex 0 -7.2 25
    endloop
  endfacet
  facet normal -0.453991 0.891006 0
    outer loop
      vertex -1.05801 -7.54377 24.5
      vertex -1.05801 -7.54377 25
      vertex -0.556231 -7.2881 24.5
    endloop
  endfacet
  facet normal -0.453991 0.891006 0
    outer loop
      vertex -0.556231 -7.2881 24.5
      vertex -1.05801 -7.54377 25
      vertex -0.556231 -7.2881 25
    endloop
  endfacet
  facet normal -0.707107 0.707107 0
    outer loop
      vertex -1.45623 -7.94199 24.5
      vertex -1.45623 -7.94199 25
      vertex -1.05801 -7.54377 24.5
    endloop
  endfacet
  facet normal -0.707107 0.707107 0
    outer loop
      vertex -1.05801 -7.54377 24.5
      vertex -1.45623 -7.94199 25
      vertex -1.05801 -7.54377 25
    endloop
  endfacet
  facet normal -0.891006 0.453991 0
    outer loop
      vertex -1.7119 -8.44377 24.5
      vertex -1.7119 -8.44377 25
      vertex -1.45623 -7.94199 24.5
    endloop
  endfacet
  facet normal -0.891006 0.453991 0
    outer loop
      vertex -1.45623 -7.94199 24.5
      vertex -1.7119 -8.44377 25
      vertex -1.45623 -7.94199 25
    endloop
  endfacet
  facet normal -0.987688 0.156434 0
    outer loop
      vertex -1.8 -9 24.5
      vertex -1.8 -9 25
      vertex -1.7119 -8.44377 24.5
    endloop
  endfacet
  facet normal -0.987688 0.156434 0
    outer loop
      vertex -1.7119 -8.44377 24.5
      vertex -1.8 -9 25
      vertex -1.7119 -8.44377 25
    endloop
  endfacet
  facet normal 0 0 -1
    outer loop
      vertex 4.75 11.5 -5.5
      vertex -7.5 15 -5.5
      vertex 7.5 15 -5.5
    endloop
  endfacet
  facet normal 0 0 -1
    outer loop
      vertex -7.5 -15 -5.5
      vertex -7.5 15 -5.5
      vertex -5.75 3.5 -5.5
    endloop
  endfacet
  facet normal 0 0 -1
    outer loop
      vertex -7.5 -15 -5.5
      vertex -5.75 3.5 -5.5
      vertex -5.75 -3.5 -5.5
    endloop
  endfacet
  facet normal 0 0 -1
    outer loop
      vertex 4.75 -11.5 -5.5
      vertex 7.5 -15 -5.5
      vertex -4.75 -11.5 -5.5
    endloop
  endfacet
  facet normal 0 0 -1
    outer loop
      vertex -7.5 -15 -5.5
      vertex -5.75 -3.5 -5.5
      vertex -4.75 -11.5 -5.5
    endloop
  endfacet
  facet normal 0 0 -1
    outer loop
      vertex -7.5 -15 -5.5
      vertex -4.75 -11.5 -5.5
      vertex 7.5 -15 -5.5
    endloop
  endfacet
  facet normal 0 0 -1
    outer loop
      vertex 4.75 -3.5 -5.5
      vertex 7.5 -15 -5.5
      vertex 4.75 -11.5 -5.5
    endloop
  endfacet
  facet normal 0 0 -1
    outer loop
      vertex 5.75 3.5 -5.5
      vertex 7.5 15 -5.5
      vertex 5.75 -3.5 -5.5
    endloop
  endfacet
  facet normal 0 0 -1
    outer loop
      vertex 4.75 11.5 -5.5
      vertex 4.75 3.5 -5.5
      vertex 4.75 -1.05471e-15 -5.5
    endloop
  endfacet
  facet normal 0 0 -1
    outer loop
      vertex 7.5 -15 -5.5
      vertex 4.75 -3.5 -5.5
      vertex 5.75 -3.5 -5.5
    endloop
  endfacet
  facet normal 0 0 -1
    outer loop
      vertex 7.5 -15 -5.5
      vertex 5.75 -3.5 -5.5
      vertex 7.5 15 -5.5
    endloop
  endfacet
  facet normal 0 0 -1
    outer loop
      vertex 4.75 11.5 -5.5
      vertex 5.75 3.5 -5.5
      vertex 4.75 3.5 -5.5
    endloop
  endfacet
  facet normal 0 0 -1
    outer loop
      vertex -4.75 3.5 -5.5
      vertex -7.5 15 -5.5
      vertex -4.75 11.5 -5.5
    endloop
  endfacet
  facet normal 0 0 -1
    outer loop
      vertex -4.75 11.5 -5.5
      vertex -7.5 15 -5.5
      vertex 4.75 11.5 -5.5
    endloop
  endfacet
  facet normal 0 0 -1
    outer loop
      vertex 5.75 3.5 -5.5
      vertex 4.75 11.5 -5.5
      vertex 7.5 15 -5.5
    endloop
  endfacet
  facet normal 0 0 -1
    outer loop
      vertex -5.75 3.5 -5.5
      vertex -7.5 15 -5.5
      vertex -4.75 3.5 -5.5
    endloop
  endfacet
  facet normal 0 0 -1
    outer loop
      vertex -4.75 -11.5 -5.5
      vertex -5.75 -3.5 -5.5
      vertex -4.75 -3.5 -5.5
    endloop
  endfacet
  facet normal 0 0 -1
    outer loop
      vertex -4.75 -11.5 -5.5
      vertex -4.75 -3.5 -5.5
      vertex -4.75 1.05471e-15 -5.5
    endloop
  endfacet
  facet normal 0 0 -1
    outer loop
      vertex 7.5 -3.5 -3.5
      vertex 7.5 3.5 -3.5
      vertex 7.75 -3.5 -3.5
    endloop
  endfacet
  facet normal 0 0 -1
    outer loop
      vertex 7.75 -3.5 -3.5
      vertex 7.5 3.5 -3.5
      vertex 7.75 3.5 -3.5
    endloop
  endfacet
  facet normal 1 0 0
    outer loop
      vertex -3.6 7.325 -4.9
      vertex -3.6 7.325 -1.5
      vertex -3.6 -7.075 -1.5
    endloop
  endfacet
  facet normal 1 0 0
    outer loop
      vertex -3.6 -7.075 -4.9
      vertex -3.6 7.325 -4.9
      vertex -3.6 -7.075 -1.5
    endloop
  endfacet
  facet normal 0 0 -1
    outer loop
      vertex -3.25 7.325 -1.5
      vertex -3.25 -7.075 -1.5
      vertex -3.6 7.325 -1.5
    endloop
  endfacet
  facet normal 0 0 -1
    outer loop
      vertex -3.6 7.325 -1.5
      vertex -3.25 -7.075 -1.5
      vertex -3.6 -7.075 -1.5
    endloop
  endfacet
  facet normal 0 0 1
    outer loop
      vertex -3.25 -7.075 -4.9
      vertex -3.25 7.325 -4.9
      vertex -3.6 7.325 -4.9
    endloop
  endfacet
  facet normal 0 0 1
    outer loop
      vertex -3.6 -7.075 -4.9
      vertex -3.25 -7.075 -4.9
      vertex -3.6 7.325 -4.9
    endloop
  endfacet
  facet normal 0 0 -1
    outer loop
      vertex -4 11 -4.9
      vertex -4.75 11.5 -4.9
      vertex 4.75 11.5 -4.9
    endloop
  endfacet
  facet normal 0 0 -1
    outer loop
      vertex -3.25 7.325 -4.9
      vertex 4 8 -4.9
      vertex 3.25 7.325 -4.9
    endloop
  endfacet
  facet normal 0 0 -1
    outer loop
      vertex -3.25 -7.075 -4.9
      vertex -4.75 -11.5 -4.9
      vertex -4.75 1.05471e-15 -4.9
    endloop
  endfacet
  facet normal 0 0 -1
    outer loop
      vertex -4.75 3.5 -4.9
      vertex -4.75 11.5 -4.9
      vertex -4 8 -4.9
    endloop
  endfacet
  facet normal 0 0 -1
    outer loop
      vertex -3.25 -7.075 -4.9
      vertex -4.75 3.5 -4.9
      vertex -3.25 7.325 -4.9
    endloop
  endfacet
  facet normal 0 0 -1
    outer loop
      vertex 4.75 11.5 -4.9
      vertex 4.75 -1.05471e-15 -4.9
      vertex 4 8 -4.9
    endloop
  endfacet
  facet normal 0 0 -1
    outer loop
      vertex 3.25 7.325 -4.9
      vertex 4 8 -4.9
      vertex 4.75 -1.05471e-15 -4.9
    endloop
  endfacet
  facet normal 0 0 -1
    outer loop
      vertex -4 8 -4.9
      vertex -4.75 11.5 -4.9
      vertex -4 11 -4.9
    endloop
  endfacet
  facet normal 0 0 -1
    outer loop
      vertex -3.25 -7.075 -4.9
      vertex -4.75 1.05471e-15 -4.9
      vertex -4.75 3.5 -4.9
    endloop
  endfacet
  facet normal 0 0 -1
    outer loop
      vertex -1.7119 -9.55623 -4.9
      vertex -4.75 -11.5 -4.9
      vertex -3.25 -7.075 -4.9
    endloop
  endfacet
  facet normal 0 0 -1
    outer loop
      vertex 3.25 -7.075 -4.9
      vertex 4.75 -11.5 -4.9
      vertex 1.45623 -7.94199 -4.9
    endloop
  endfacet
  facet normal 0 0 -1
    outer loop
      vertex 4.75 -11.5 -4.9
      vertex 3.25 -7.075 -4.9
      vertex 4.75 -3.5 -4.9
    endloop
  endfacet
  facet normal 0 0 -1
    outer loop
      vertex -4 11 -4.9
      vertex 4.75 11.5 -4.9
      vertex 4 11 -4.9
    endloop
  endfacet
  facet normal 0 0 -1
    outer loop
      vertex -4.75 3.5 -4.9
      vertex -4 8 -4.9
      vertex -3.25 7.325 -4.9
    endloop
  endfacet
  facet normal 0 0 -1
    outer loop
      vertex 0.556231 -10.7119 -4.9
      vertex 4.75 -11.5 -4.9
      vertex 0 -10.8 -4.9
    endloop
  endfacet
  facet normal 0 0 -1
    outer loop
      vertex -1.45623 -10.058 -4.9
      vertex -4.75 -11.5 -4.9
      vertex -1.7119 -9.55623 -4.9
    endloop
  endfacet
  facet normal 0 0 -1
    outer loop
      vertex -1.8 -9 -4.9
      vertex -1.7119 -9.55623 -4.9
      vertex -3.25 -7.075 -4.9
    endloop
  endfacet
  facet normal 0 0 -1
    outer loop
      vertex -1.05801 -10.4562 -4.9
      vertex -4.75 -11.5 -4.9
      vertex -1.45623 -10.058 -4.9
    endloop
  endfacet
  facet normal 0 0 -1
    outer loop
      vertex -0.556231 -10.7119 -4.9
      vertex -4.75 -11.5 -4.9
      vertex -1.05801 -10.4562 -4.9
    endloop
  endfacet
  facet normal 0 0 -1
    outer loop
      vertex 0 -10.8 -4.9
      vertex -4.75 -11.5 -4.9
      vertex -0.556231 -10.7119 -4.9
    endloop
  endfacet
  facet normal 0 0 -1
    outer loop
      vertex 4.75 -11.5 -4.9
      vertex -4.75 -11.5 -4.9
      vertex 0 -10.8 -4.9
    endloop
  endfacet
  facet normal 0 0 -1
    outer loop
      vertex 1.05801 -10.4562 -4.9
      vertex 4.75 -11.5 -4.9
      vertex 0.556231 -10.7119 -4.9
    endloop
  endfacet
  facet normal 0 0 -1
    outer loop
      vertex 1.45623 -10.058 -4.9
      vertex 4.75 -11.5 -4.9
      vertex 1.05801 -10.4562 -4.9
    endloop
  endfacet
  facet normal 0 0 -1
    outer loop
      vertex 1.7119 -9.55623 -4.9
      vertex 4.75 -11.5 -4.9
      vertex 1.45623 -10.058 -4.9
    endloop
  endfacet
  facet normal 0 0 -1
    outer loop
      vertex -1.7119 -8.44377 -4.9
      vertex -3.25 -7.075 -4.9
      vertex -1.45623 -7.94199 -4.9
    endloop
  endfacet
  facet normal 0 0 -1
    outer loop
      vertex 3.25 -7.075 -4.9
      vertex 1.05801 -7.54377 -4.9
      vertex 0.556231 -7.2881 -4.9
    endloop
  endfacet
  facet normal 0 0 -1
    outer loop
      vertex 4.75 -11.5 -4.9
      vertex 1.7119 -9.55623 -4.9
      vertex 1.8 -9 -4.9
    endloop
  endfacet
  facet normal 0 0 -1
    outer loop
      vertex 3.25 -7.075 -4.9
      vertex 0.556231 -7.2881 -4.9
      vertex 0 -7.2 -4.9
    endloop
  endfacet
  facet normal 0 0 -1
    outer loop
      vertex 4.75 -11.5 -4.9
      vertex 1.8 -9 -4.9
      vertex 1.7119 -8.44377 -4.9
    endloop
  endfacet
  facet normal 0 0 -1
    outer loop
      vertex 4.75 -11.5 -4.9
      vertex 1.7119 -8.44377 -4.9
      vertex 1.45623 -7.94199 -4.9
    endloop
  endfacet
  facet normal 0 0 -1
    outer loop
      vertex 3.25 -7.075 -4.9
      vertex 0 -7.2 -4.9
      vertex -3.25 -7.075 -4.9
    endloop
  endfacet
  facet normal 0 0 -1
    outer loop
      vertex -0.556231 -7.2881 -4.9
      vertex -3.25 -7.075 -4.9
      vertex 0 -7.2 -4.9
    endloop
  endfacet
  facet normal 0 0 -1
    outer loop
      vertex 3.25 -7.075 -4.9
      vertex 1.45623 -7.94199 -4.9
      vertex 1.05801 -7.54377 -4.9
    endloop
  endfacet
  facet normal 0 0 -1
    outer loop
      vertex -1.05801 -7.54377 -4.9
      vertex -3.25 -7.075 -4.9
      vertex -0.556231 -7.2881 -4.9
    endloop
  endfacet
  facet normal 0 0 -1
    outer loop
      vertex -1.45623 -7.94199 -4.9
      vertex -3.25 -7.075 -4.9
      vertex -1.05801 -7.54377 -4.9
    endloop
  endfacet
  facet normal 0 0 -1
    outer loop
      vertex -1.7119 -8.44377 -4.9
      vertex -1.8 -9 -4.9
      vertex -3.25 -7.075 -4.9
    endloop
  endfacet
  facet normal 0 0 -1
    outer loop
      vertex 4 8 -4.9
      vertex -3.25 7.325 -4.9
      vertex -4 8 -4.9
    endloop
  endfacet
  facet normal 0 0 -1
    outer loop
      vertex 4 11 -4.9
      vertex 4.75 11.5 -4.9
      vertex 4 8 -4.9
    endloop
  endfacet
  facet normal 0 0 -1
    outer loop
      vertex 3.25 7.325 -4.9
      vertex 4.75 -1.05471e-15 -4.9
      vertex 4.75 -3.5 -4.9
    endloop
  endfacet
  facet normal 0 0 -1
    outer loop
      vertex 3.25 7.325 -4.9
      vertex 4.75 -3.5 -4.9
      vertex 3.25 -7.075 -4.9
    endloop
  endfacet
  facet normal 0 0 1
    outer loop
      vertex 3.6 -7.075 -4.9
      vertex 3.6 7.325 -4.9
      vertex 3.25 7.325 -4.9
    endloop
  endfacet
  facet normal 0 0 1
    outer loop
      vertex 3.25 -7.075 -4.9
      vertex 3.6 -7.075 -4.9
      vertex 3.25 7.325 -4.9
    endloop
  endfacet
  facet normal -1 0 0
    outer loop
      vertex 3.6 7.325 -1.5
      vertex 3.6 7.325 -4.9
      vertex 3.6 -7.075 -1.5
    endloop
  endfacet
  facet normal -1 0 0
    outer loop
      vertex 3.6 -7.075 -1.5
      vertex 3.6 7.325 -4.9
      vertex 3.6 -7.075 -4.9
    endloop
  endfacet
  facet normal 0 0 -1
    outer loop
      vertex 3.6 7.325 -1.5
      vertex 3.6 -7.075 -1.5
      vertex 3.25 7.325 -1.5
    endloop
  endfacet
  facet normal 0 0 -1
    outer loop
      vertex 3.25 7.325 -1.5
      vertex 3.6 -7.075 -1.5
      vertex 3.25 -7.075 -1.5
    endloop
  endfacet
  facet normal 0 0 1
    outer loop
      vertex -1.7119 -8.44377 25
      vertex -1.8 -9 25
      vertex -1.7119 -9.55623 25
    endloop
  endfacet
  facet normal 0 0 1
    outer loop
      vertex -1.05801 -10.4562 25
      vertex -1.7119 -8.44377 25
      vertex -1.45623 -10.058 25
    endloop
  endfacet
  facet normal 0 0 1
    outer loop
      vertex -1.45623 -10.058 25
      vertex -1.7119 -8.44377 25
      vertex -1.7119 -9.55623 25
    endloop
  endfacet
  facet normal 0 0 1
    outer loop
      vertex -0.556231 -10.7119 25
      vertex -1.7119 -8.44377 25
      vertex -1.05801 -10.4562 25
    endloop
  endfacet
  facet normal 0 0 1
    outer loop
      vertex 0 -10.8 25
      vertex -1.7119 -8.44377 25
      vertex -0.556231 -10.7119 25
    endloop
  endfacet
  facet normal 0 0 1
    outer loop
      vertex 0.556231 -10.7119 25
      vertex -1.7119 -8.44377 25
      vertex 0 -10.8 25
    endloop
  endfacet
  facet normal 0 0 1
    outer loop
      vertex 1.05801 -10.4562 25
      vertex -1.7119 -8.44377 25
      vertex 0.556231 -10.7119 25
    endloop
  endfacet
  facet normal 0 0 1
    outer loop
      vertex 1.45623 -10.058 25
      vertex -1.7119 -8.44377 25
      vertex 1.05801 -10.4562 25
    endloop
  endfacet
  facet normal 0 0 1
    outer loop
      vertex 1.7119 -9.55623 25
      vertex -1.7119 -8.44377 25
      vertex 1.45623 -10.058 25
    endloop
  endfacet
  facet normal 0 0 1
    outer loop
      vertex 1.8 -9 25
      vertex -1.7119 -8.44377 25
      vertex 1.7119 -9.55623 25
    endloop
  endfacet
  facet normal 0 0 1
    outer loop
      vertex 1.7119 -8.44377 25
      vertex -1.7119 -8.44377 25
      vertex 1.8 -9 25
    endloop
  endfacet
  facet normal 0 0 1
    outer loop
      vertex 1.45623 -7.94199 25
      vertex -1.7119 -8.44377 25
      vertex 1.7119 -8.44377 25
    endloop
  endfacet
  facet normal 0 0 1
    outer loop
      vertex 1.05801 -7.54377 25
      vertex -1.7119 -8.44377 25
      vertex 1.45623 -7.94199 25
    endloop
  endfacet
  facet normal 0 0 1
    outer loop
      vertex 0.556231 -7.2881 25
      vertex -1.7119 -8.44377 25
      vertex 1.05801 -7.54377 25
    endloop
  endfacet
  facet normal 0 0 1
    outer loop
      vertex 0 -7.2 25
      vertex -1.7119 -8.44377 25
      vertex 0.556231 -7.2881 25
    endloop
  endfacet
  facet normal 0 0 1
    outer loop
      vertex -0.556231 -7.2881 25
      vertex -1.7119 -8.44377 25
      vertex 0 -7.2 25
    endloop
  endfacet
  facet normal 0 0 1
    outer loop
      vertex -1.05801 -7.54377 25
      vertex -1.7119 -8.44377 25
      vertex -0.556231 -7.2881 25
    endloop
  endfacet
  facet normal 0 0 1
    outer loop
      vertex -1.45623 -7.94199 25
      vertex -1.7119 -8.44377 25
      vertex -1.05801 -7.54377 25
    endloop
  endfacet
  facet normal -1 2.22045e-16 0
    outer loop
      vertex -5.75 -3.5 -7.5
      vertex -5.75 -3.5 -5.5
      vertex -5.75 3.5 -7.5
    endloop
  endfacet
  facet normal -1 2.22045e-16 0
    outer loop
      vertex -5.75 3.5 -7.5
      vertex -5.75 -3.5 -5.5
      vertex -5.75 3.5 -5.5
    endloop
  endfacet
  facet normal 2.22045e-16 1 0
    outer loop
      vertex -5.75 3.5 -7.5
      vertex -5.75 3.5 -5.5
      vertex -5.21066 3.5 -7.5
    endloop
  endfacet
  facet normal 2.22045e-16 1 0
    outer loop
      vertex -5.21066 3.5 -7.5
      vertex -5.75 3.5 -5.5
      vertex -4.75 3.5 -5.5
    endloop
  endfacet
  facet normal 2.22045e-16 1 0
    outer loop
      vertex -4.75 3.5 -5.5
      vertex -4.75 3.5 -4.9
      vertex -4.75 3.5 -6.5
    endloop
  endfacet
  facet normal 2.22045e-16 1 0
    outer loop
      vertex -4.75 3.5 -5.5
      vertex -4.75 3.5 -6.5
      vertex -5.21066 3.5 -7.5
    endloop
  endfacet
  facet normal 2.22045e-16 1 0
    outer loop
      vertex -4.75 3.5 -6.5
      vertex -4.25 3.5 -6.5
      vertex -5.21066 3.5 -7.5
    endloop
  endfacet
  facet normal 2.22045e-16 1 0
    outer loop
      vertex -5.21066 3.5 -7.5
      vertex -4.25 3.5 -6.5
      vertex -4.25 3.5 -6.53934
    endloop
  endfacet
  facet normal 1 0 0
    outer loop
      vertex -4.75 11.5 -5.5
      vertex -4.75 11.5 -4.9
      vertex -4.75 3.5 -4.9
    endloop
  endfacet
  facet normal 1 0 0
    outer loop
      vertex -4.75 3.5 -5.5
      vertex -4.75 11.5 -5.5
      vertex -4.75 3.5 -4.9
    endloop
  endfacet
  facet normal 0 -1 0
    outer loop
      vertex 4.75 11.5 -5.5
      vertex 4.75 11.5 -4.9
      vertex -4.75 11.5 -4.9
    endloop
  endfacet
  facet normal 0 -1 0
    outer loop
      vertex -4.75 11.5 -5.5
      vertex 4.75 11.5 -5.5
      vertex -4.75 11.5 -4.9
    endloop
  endfacet
  facet normal -1 0 0
    outer loop
      vertex 4.75 11.5 -4.9
      vertex 4.75 11.5 -5.5
      vertex 4.75 -1.05471e-15 -4.9
    endloop
  endfacet
  facet normal -1 0 0
    outer loop
      vertex 4.75 -1.05471e-15 -4.9
      vertex 4.75 11.5 -5.5
      vertex 4.75 -1.05471e-15 -5.5
    endloop
  endfacet
  facet normal -1 2.22045e-16 0
    outer loop
      vertex 4.75 -3.5 -6.5
      vertex 4.75 -3.5 -4.9
      vertex 4.75 3.5 -6.5
    endloop
  endfacet
  facet normal -1 2.22045e-16 0
    outer loop
      vertex 4.75 -1.05471e-15 -5.5
      vertex 4.75 -3.5 -4.9
      vertex 4.75 -1.05471e-15 -4.9
    endloop
  endfacet
  facet normal -1 2.22045e-16 0
    outer loop
      vertex 4.75 3.5 -6.5
      vertex 4.75 -3.5 -4.9
      vertex 4.75 -1.05471e-15 -5.5
    endloop
  endfacet
  facet normal -1 2.22045e-16 0
    outer loop
      vertex 4.75 3.5 -5.5
      vertex 4.75 3.5 -6.5
      vertex 4.75 -1.05471e-15 -5.5
    endloop
  endfacet
  facet normal 2.22045e-16 1 0
    outer loop
      vertex 4.25 3.5 -6.53934
      vertex 4.25 3.5 -6.5
      vertex 5.21066 3.5 -7.5
    endloop
  endfacet
  facet normal 2.22045e-16 1 0
    outer loop
      vertex 5.21066 3.5 -7.5
      vertex 4.25 3.5 -6.5
      vertex 4.75 3.5 -6.5
    endloop
  endfacet
  facet normal 2.22045e-16 1 0
    outer loop
      vertex 5.21066 3.5 -7.5
      vertex 4.75 3.5 -6.5
      vertex 4.75 3.5 -5.5
    endloop
  endfacet
  facet normal 2.22045e-16 1 0
    outer loop
      vertex 5.21066 3.5 -7.5
      vertex 4.75 3.5 -5.5
      vertex 5.75 3.5 -5.5
    endloop
  endfacet
  facet normal 2.22045e-16 1 0
    outer loop
      vertex 5.21066 3.5 -7.5
      vertex 5.75 3.5 -5.5
      vertex 5.75 3.5 -7.5
    endloop
  endfacet
  facet normal 1 -2.22045e-16 0
    outer loop
      vertex 5.75 -3.5 -5.5
      vertex 5.75 -3.5 -7.5
      vertex 5.75 3.5 -7.5
    endloop
  endfacet
  facet normal 1 -2.22045e-16 0
    outer loop
      vertex 5.75 3.5 -5.5
      vertex 5.75 -3.5 -5.5
      vertex 5.75 3.5 -7.5
    endloop
  endfacet
  facet normal -2.22045e-16 -1 0
    outer loop
      vertex 4.25 -3.5 -6.5
      vertex 4.25 -3.5 -6.53934
      vertex 5.21066 -3.5 -7.5
    endloop
  endfacet
  facet normal -2.22045e-16 -1 0
    outer loop
      vertex 4.75 -3.5 -6.5
      vertex 4.25 -3.5 -6.5
      vertex 5.75 -3.5 -7.5
    endloop
  endfacet
  facet normal -2.22045e-16 -1 0
    outer loop
      vertex 5.75 -3.5 -7.5
      vertex 4.25 -3.5 -6.5
      vertex 5.21066 -3.5 -7.5
    endloop
  endfacet
  facet normal -2.22045e-16 -1 0
    outer loop
      vertex 5.75 -3.5 -5.5
      vertex 4.75 -3.5 -6.5
      vertex 5.75 -3.5 -7.5
    endloop
  endfacet
  facet normal -2.22045e-16 -1 0
    outer loop
      vertex 4.75 -3.5 -5.5
      vertex 4.75 -3.5 -6.5
      vertex 5.75 -3.5 -5.5
    endloop
  endfacet
  facet normal -2.22045e-16 -1 0
    outer loop
      vertex 4.75 -3.5 -4.9
      vertex 4.75 -3.5 -6.5
      vertex 4.75 -3.5 -5.5
    endloop
  endfacet
  facet normal -1 0 0
    outer loop
      vertex 4.75 -3.5 -4.9
      vertex 4.75 -3.5 -5.5
      vertex 4.75 -11.5 -4.9
    endloop
  endfacet
  facet normal -1 0 0
    outer loop
      vertex 4.75 -11.5 -4.9
      vertex 4.75 -3.5 -5.5
      vertex 4.75 -11.5 -5.5
    endloop
  endfacet
  facet normal 0 1 0
    outer loop
      vertex 4.75 -11.5 -4.9
      vertex 4.75 -11.5 -5.5
      vertex -4.75 -11.5 -4.9
    endloop
  endfacet
  facet normal 0 1 0
    outer loop
      vertex -4.75 -11.5 -4.9
      vertex 4.75 -11.5 -5.5
      vertex -4.75 -11.5 -5.5
    endloop
  endfacet
  facet normal 1 0 0
    outer loop
      vertex -4.75 1.05471e-15 -5.5
      vertex -4.75 1.05471e-15 -4.9
      vertex -4.75 -11.5 -4.9
    endloop
  endfacet
  facet normal 1 0 0
    outer loop
      vertex -4.75 -11.5 -5.5
      vertex -4.75 1.05471e-15 -5.5
      vertex -4.75 -11.5 -4.9
    endloop
  endfacet
  facet normal 1 -2.22045e-16 0
    outer loop
      vertex -4.75 -3.5 -5.5
      vertex -4.75 -3.5 -6.5
      vertex -4.75 3.5 -6.5
    endloop
  endfacet
  facet normal 1 -2.22045e-16 0
    outer loop
      vertex -4.75 1.05471e-15 -5.5
      vertex -4.75 -3.5 -5.5
      vertex -4.75 3.5 -6.5
    endloop
  endfacet
  facet normal 1 -2.22045e-16 0
    outer loop
      vertex -4.75 3.5 -4.9
      vertex -4.75 1.05471e-15 -5.5
      vertex -4.75 3.5 -6.5
    endloop
  endfacet
  facet normal 1 -2.22045e-16 0
    outer loop
      vertex -4.75 1.05471e-15 -4.9
      vertex -4.75 1.05471e-15 -5.5
      vertex -4.75 3.5 -4.9
    endloop
  endfacet
  facet normal -2.22045e-16 -1 0
    outer loop
      vertex -5.75 -3.5 -5.5
      vertex -5.75 -3.5 -7.5
      vertex -5.21066 -3.5 -7.5
    endloop
  endfacet
  facet normal -2.22045e-16 -1 0
    outer loop
      vertex -4.75 -3.5 -6.5
      vertex -4.75 -3.5 -5.5
      vertex -5.75 -3.5 -5.5
    endloop
  endfacet
  facet normal -2.22045e-16 -1 0
    outer loop
      vertex -4.75 -3.5 -6.5
      vertex -5.75 -3.5 -5.5
      vertex -5.21066 -3.5 -7.5
    endloop
  endfacet
  facet normal -2.22045e-16 -1 0
    outer loop
      vertex -4.25 -3.5 -6.53934
      vertex -4.75 -3.5 -6.5
      vertex -5.21066 -3.5 -7.5
    endloop
  endfacet
  facet normal -2.22045e-16 -1 0
    outer loop
      vertex -4.25 -3.5 -6.5
      vertex -4.75 -3.5 -6.5
      vertex -4.25 -3.5 -6.53934
    endloop
  endfacet
  facet normal 1 0 0
    outer loop
      vertex -4 11 -4.9
      vertex -4 11 -2.95
      vertex -4 8 -2.95
    endloop
  endfacet
  facet normal 1 0 0
    outer loop
      vertex -4 8 -4.9
      vertex -4 11 -4.9
      vertex -4 8 -2.95
    endloop
  endfacet
  facet normal 0 1 0
    outer loop
      vertex 4 8 -2.95
      vertex 4 8 -4.9
      vertex -4 8 -2.95
    endloop
  endfacet
  facet normal 0 1 0
    outer loop
      vertex -4 8 -2.95
      vertex 4 8 -4.9
      vertex -4 8 -4.9
    endloop
  endfacet
  facet normal 0 -1 0
    outer loop
      vertex 4 11 -4.9
      vertex 4 11 -2.95
      vertex -4 11 -2.95
    endloop
  endfacet
  facet normal 0 -1 0
    outer loop
      vertex -4 11 -4.9
      vertex 4 11 -4.9
      vertex -4 11 -2.95
    endloop
  endfacet
  facet normal -1 0 0
    outer loop
      vertex 4 11 -2.95
      vertex 4 11 -4.9
      vertex 4 8 -2.95
    endloop
  endfacet
  facet normal -1 0 0
    outer loop
      vertex 4 8 -2.95
      vertex 4 11 -4.9
      vertex 4 8 -4.9
    endloop
  endfacet
  facet normal -0.987688 -0.156434 0
    outer loop
      vertex -1.8 -9 -5
      vertex -1.7119 -9.55623 -5
      vertex -1.8 -9 -4.9
    endloop
  endfacet
  facet normal -0.987688 -0.156434 0
    outer loop
      vertex -1.8 -9 -4.9
      vertex -1.7119 -9.55623 -5
      vertex -1.7119 -9.55623 -4.9
    endloop
  endfacet
  facet normal -0.891006 -0.453991 0
    outer loop
      vertex -1.7119 -9.55623 -5
      vertex -1.45623 -10.058 -5
      vertex -1.7119 -9.55623 -4.9
    endloop
  endfacet
  facet normal -0.891006 -0.453991 0
    outer loop
      vertex -1.7119 -9.55623 -4.9
      vertex -1.45623 -10.058 -5
      vertex -1.45623 -10.058 -4.9
    endloop
  endfacet
  facet normal -0.987688 0.156434 0
    outer loop
      vertex -1.8 -9 -5
      vertex -1.8 -9 -4.9
      vertex -1.7119 -8.44377 -5
    endloop
  endfacet
  facet normal -0.987688 0.156434 0
    outer loop
      vertex -1.7119 -8.44377 -5
      vertex -1.8 -9 -4.9
      vertex -1.7119 -8.44377 -4.9
    endloop
  endfacet
  facet normal -0.891006 0.453991 0
    outer loop
      vertex -1.7119 -8.44377 -5
      vertex -1.7119 -8.44377 -4.9
      vertex -1.45623 -7.94199 -5
    endloop
  endfacet
  facet normal -0.891006 0.453991 0
    outer loop
      vertex -1.45623 -7.94199 -5
      vertex -1.7119 -8.44377 -4.9
      vertex -1.45623 -7.94199 -4.9
    endloop
  endfacet
  facet normal -0.707107 0.707107 0
    outer loop
      vertex -1.45623 -7.94199 -5
      vertex -1.45623 -7.94199 -4.9
      vertex -1.05801 -7.54377 -5
    endloop
  endfacet
  facet normal -0.707107 0.707107 0
    outer loop
      vertex -1.05801 -7.54377 -5
      vertex -1.45623 -7.94199 -4.9
      vertex -1.05801 -7.54377 -4.9
    endloop
  endfacet
  facet normal -0.453991 0.891006 0
    outer loop
      vertex -1.05801 -7.54377 -5
      vertex -1.05801 -7.54377 -4.9
      vertex -0.556231 -7.2881 -5
    endloop
  endfacet
  facet normal -0.453991 0.891006 0
    outer loop
      vertex -0.556231 -7.2881 -5
      vertex -1.05801 -7.54377 -4.9
      vertex -0.556231 -7.2881 -4.9
    endloop
  endfacet
  facet normal -0.156434 0.987688 0
    outer loop
      vertex -0.556231 -7.2881 -5
      vertex -0.556231 -7.2881 -4.9
      vertex 0 -7.2 -5
    endloop
  endfacet
  facet normal -0.156434 0.987688 0
    outer loop
      vertex 0 -7.2 -5
      vertex -0.556231 -7.2881 -4.9
      vertex 0 -7.2 -4.9
    endloop
  endfacet
  facet normal 0.156434 0.987688 0
    outer loop
      vertex 0 -7.2 -5
      vertex 0 -7.2 -4.9
      vertex 0.556231 -7.2881 -5
    endloop
  endfacet
  facet normal 0.156434 0.987688 0
    outer loop
      vertex 0.556231 -7.2881 -5
      vertex 0 -7.2 -4.9
      vertex 0.556231 -7.2881 -4.9
    endloop
  endfacet
  facet normal 0.453991 0.891006 0
    outer loop
      vertex 0.556231 -7.2881 -5
      vertex 0.556231 -7.2881 -4.9
      vertex 1.05801 -7.54377 -5
    endloop
  endfacet
  facet normal 0.453991 0.891006 0
    outer loop
      vertex 1.05801 -7.54377 -5
      vertex 0.556231 -7.2881 -4.9
      vertex 1.05801 -7.54377 -4.9
    endloop
  endfacet
  facet normal 0.707107 0.707107 0
    outer loop
      vertex 1.05801 -7.54377 -5
      vertex 1.05801 -7.54377 -4.9
      vertex 1.45623 -7.94199 -5
    endloop
  endfacet
  facet normal 0.707107 0.707107 0
    outer loop
      vertex 1.45623 -7.94199 -5
      vertex 1.05801 -7.54377 -4.9
      vertex 1.45623 -7.94199 -4.9
    endloop
  endfacet
  facet normal 0.891006 0.453991 0
    outer loop
      vertex 1.7119 -8.44377 -5
      vertex 1.45623 -7.94199 -5
      vertex 1.45623 -7.94199 -4.9
    endloop
  endfacet
  facet normal 0.891006 0.453991 0
    outer loop
      vertex 1.7119 -8.44377 -4.9
      vertex 1.7119 -8.44377 -5
      vertex 1.45623 -7.94199 -4.9
    endloop
  endfacet
  facet normal 0.987688 0.156434 0
    outer loop
      vertex 1.8 -9 -5
      vertex 1.7119 -8.44377 -5
      vertex 1.7119 -8.44377 -4.9
    endloop
  endfacet
  facet normal 0.987688 0.156434 0
    outer loop
      vertex 1.8 -9 -4.9
      vertex 1.8 -9 -5
      vertex 1.7119 -8.44377 -4.9
    endloop
  endfacet
  facet normal 0.987688 -0.156434 0
    outer loop
      vertex 1.7119 -9.55623 -4.9
      vertex 1.7119 -9.55623 -5
      vertex 1.8 -9 -5
    endloop
  endfacet
  facet normal 0.987688 -0.156434 0
    outer loop
      vertex 1.8 -9 -4.9
      vertex 1.7119 -9.55623 -4.9
      vertex 1.8 -9 -5
    endloop
  endfacet
  facet normal 0.891006 -0.453991 0
    outer loop
      vertex 1.45623 -10.058 -4.9
      vertex 1.45623 -10.058 -5
      vertex 1.7119 -9.55623 -5
    endloop
  endfacet
  facet normal 0.891006 -0.453991 0
    outer loop
      vertex 1.7119 -9.55623 -4.9
      vertex 1.45623 -10.058 -4.9
      vertex 1.7119 -9.55623 -5
    endloop
  endfacet
  facet normal 0.707107 -0.707107 0
    outer loop
      vertex 1.05801 -10.4562 -4.9
      vertex 1.05801 -10.4562 -5
      vertex 1.45623 -10.058 -5
    endloop
  endfacet
  facet normal 0.707107 -0.707107 0
    outer loop
      vertex 1.45623 -10.058 -4.9
      vertex 1.05801 -10.4562 -4.9
      vertex 1.45623 -10.058 -5
    endloop
  endfacet
  facet normal 0.453991 -0.891006 0
    outer loop
      vertex 0.556231 -10.7119 -4.9
      vertex 0.556231 -10.7119 -5
      vertex 1.05801 -10.4562 -5
    endloop
  endfacet
  facet normal 0.453991 -0.891006 0
    outer loop
      vertex 1.05801 -10.4562 -4.9
      vertex 0.556231 -10.7119 -4.9
      vertex 1.05801 -10.4562 -5
    endloop
  endfacet
  facet normal 0.156434 -0.987688 0
    outer loop
      vertex 0 -10.8 -4.9
      vertex 0 -10.8 -5
      vertex 0.556231 -10.7119 -5
    endloop
  endfacet
  facet normal 0.156434 -0.987688 0
    outer loop
      vertex 0.556231 -10.7119 -4.9
      vertex 0 -10.8 -4.9
      vertex 0.556231 -10.7119 -5
    endloop
  endfacet
  facet normal -0.156434 -0.987688 0
    outer loop
      vertex -0.556231 -10.7119 -4.9
      vertex -0.556231 -10.7119 -5
      vertex 0 -10.8 -5
    endloop
  endfacet
  facet normal -0.156434 -0.987688 0
    outer loop
      vertex 0 -10.8 -4.9
      vertex -0.556231 -10.7119 -4.9
      vertex 0 -10.8 -5
    endloop
  endfacet
  facet normal -0.453991 -0.891006 0
    outer loop
      vertex -1.05801 -10.4562 -4.9
      vertex -1.05801 -10.4562 -5
      vertex -0.556231 -10.7119 -5
    endloop
  endfacet
  facet normal -0.453991 -0.891006 0
    outer loop
      vertex -0.556231 -10.7119 -4.9
      vertex -1.05801 -10.4562 -4.9
      vertex -0.556231 -10.7119 -5
    endloop
  endfacet
  facet normal -0.707107 -0.707107 0
    outer loop
      vertex -1.45623 -10.058 -4.9
      vertex -1.45623 -10.058 -5
      vertex -1.05801 -10.4562 -5
    endloop
  endfacet
  facet normal -0.707107 -0.707107 0
    outer loop
      vertex -1.05801 -10.4562 -4.9
      vertex -1.45623 -10.058 -4.9
      vertex -1.05801 -10.4562 -5
    endloop
  endfacet
  facet normal 0 0 -1
    outer loop
      vertex -5.75 -3.5 -7.5
      vertex -5.75 3.5 -7.5
      vertex -5.21066 -3.5 -7.5
    endloop
  endfacet
  facet normal 0 0 -1
    outer loop
      vertex -5.21066 -3.5 -7.5
      vertex -5.75 3.5 -7.5
      vertex -5.21066 3.5 -7.5
    endloop
  endfacet
  facet normal 0.707107 -1.57009e-16 -0.707107
    outer loop
      vertex -4.25 3.5 -6.53934
      vertex -4.25 -3.5 -6.53934
      vertex -5.21066 3.5 -7.5
    endloop
  endfacet
  facet normal 0.707107 -1.57009e-16 -0.707107
    outer loop
      vertex -5.21066 3.5 -7.5
      vertex -4.25 -3.5 -6.53934
      vertex -5.21066 -3.5 -7.5
    endloop
  endfacet
  facet normal 1 -2.22045e-16 0
    outer loop
      vertex -4.25 -3.5 -6.5
      vertex -4.25 -3.5 -6.53934
      vertex -4.25 3.5 -6.53934
    endloop
  endfacet
  facet normal 1 -2.22045e-16 0
    outer loop
      vertex -4.25 3.5 -6.5
      vertex -4.25 -3.5 -6.5
      vertex -4.25 3.5 -6.53934
    endloop
  endfacet
  facet normal 0 0 1
    outer loop
      vertex -4.25 -3.5 -6.5
      vertex -4.25 3.5 -6.5
      vertex -4.75 3.5 -6.5
    endloop
  endfacet
  facet normal 0 0 1
    outer loop
      vertex -4.75 -3.5 -6.5
      vertex -4.25 -3.5 -6.5
      vertex -4.75 3.5 -6.5
    endloop
  endfacet
  facet normal 0 0 1
    outer loop
      vertex 4.75 -3.5 -6.5
      vertex 4.75 3.5 -6.5
      vertex 4.25 3.5 -6.5
    endloop
  endfacet
  facet normal 0 0 1
    outer loop
      vertex 4.25 -3.5 -6.5
      vertex 4.75 -3.5 -6.5
      vertex 4.25 3.5 -6.5
    endloop
  endfacet
  facet normal -0.707107 1.57009e-16 -0.707107
    outer loop
      vertex 5.21066 3.5 -7.5
      vertex 5.21066 -3.5 -7.5
      vertex 4.25 3.5 -6.53934
    endloop
  endfacet
  facet normal -0.707107 1.57009e-16 -0.707107
    outer loop
      vertex 4.25 3.5 -6.53934
      vertex 5.21066 -3.5 -7.5
      vertex 4.25 -3.5 -6.53934
    endloop
  endfacet
  facet normal 0 0 -1
    outer loop
      vertex 5.21066 -3.5 -7.5
      vertex 5.21066 3.5 -7.5
      vertex 5.75 -3.5 -7.5
    endloop
  endfacet
  facet normal 0 0 -1
    outer loop
      vertex 5.75 -3.5 -7.5
      vertex 5.21066 3.5 -7.5
      vertex 5.75 3.5 -7.5
    endloop
  endfacet
  facet normal -1 2.22045e-16 0
    outer loop
      vertex 4.25 -3.5 -6.53934
      vertex 4.25 -3.5 -6.5
      vertex 4.25 3.5 -6.53934
    endloop
  endfacet
  facet normal -1 2.22045e-16 0
    outer loop
      vertex 4.25 3.5 -6.53934
      vertex 4.25 -3.5 -6.5
      vertex 4.25 3.5 -6.5
    endloop
  endfacet
  facet normal 0 0 -1
    outer loop
      vertex 4 11 -2.95
      vertex 4 8 -2.95
      vertex -4 11 -2.95
    endloop
  endfacet
  facet normal 0 0 -1
    outer loop
      vertex -4 11 -2.95
      vertex 4 8 -2.95
      vertex -4 8 -2.95
    endloop
  endfacet
  facet normal 0 0 -1
    outer loop
      vertex -1.8 -9 -5
      vertex -1.7119 -8.44377 -5
      vertex -1.7119 -9.55623 -5
    endloop
  endfacet
  facet normal 0 0 -1
    outer loop
      vertex -1.7119 -9.55623 -5
      vertex -1.7119 -8.44377 -5
      vertex -1.45623 -7.94199 -5
    endloop
  endfacet
  facet normal 0 0 -1
    outer loop
      vertex -1.7119 -9.55623 -5
      vertex -1.45623 -7.94199 -5
      vertex -1.05801 -7.54377 -5
    endloop
  endfacet
  facet normal 0 0 -1
    outer loop
      vertex -1.7119 -9.55623 -5
      vertex -1.05801 -7.54377 -5
      vertex -0.556231 -7.2881 -5
    endloop
  endfacet
  facet normal 0 0 -1
    outer loop
      vertex -1.7119 -9.55623 -5
      vertex -0.556231 -7.2881 -5
      vertex 0 -7.2 -5
    endloop
  endfacet
  facet normal 0 0 -1
    outer loop
      vertex -0.529007 -8.27188 -5
      vertex 0 -7.2 -5
      vertex 0.556231 -7.2881 -5
    endloop
  endfacet
  facet normal 0 0 -1
    outer loop
      vertex 0 -8.1 -5
      vertex 0.556231 -7.2881 -5
      vertex 1.05801 -7.54377 -5
    endloop
  endfacet
  facet normal 0 0 -1
    outer loop
      vertex 0.529007 -8.27188 -5
      vertex 1.05801 -7.54377 -5
      vertex 1.45623 -7.94199 -5
    endloop
  endfacet
  facet normal 0 0 -1
    outer loop
      vertex 0.728115 -8.47099 -5
      vertex 1.45623 -7.94199 -5
      vertex 1.7119 -8.44377 -5
    endloop
  endfacet
  facet normal 0 0 -1
    outer loop
      vertex 0.9 -9 -5
      vertex 1.7119 -8.44377 -5
      vertex 1.8 -9 -5
    endloop
  endfacet
  facet normal 0 0 -1
    outer loop
      vertex 0.728115 -9.52901 -5
      vertex 1.8 -9 -5
      vertex 1.7119 -9.55623 -5
    endloop
  endfacet
  facet normal 0 0 -1
    outer loop
      vertex 0.278115 -9.85595 -5
      vertex 1.7119 -9.55623 -5
      vertex 1.45623 -10.058 -5
    endloop
  endfacet
  facet normal 0 0 -1
    outer loop
      vertex 0 -9.9 -5
      vertex 1.45623 -10.058 -5
      vertex 1.05801 -10.4562 -5
    endloop
  endfacet
  facet normal 0 0 -1
    outer loop
      vertex -1.7119 -9.55623 -5
      vertex 1.05801 -10.4562 -5
      vertex 0.556231 -10.7119 -5
    endloop
  endfacet
  facet normal 0 0 -1
    outer loop
      vertex -1.7119 -9.55623 -5
      vertex 0.556231 -10.7119 -5
      vertex 0 -10.8 -5
    endloop
  endfacet
  facet normal 0 0 -1
    outer loop
      vertex -1.7119 -9.55623 -5
      vertex 0 -10.8 -5
      vertex -0.556231 -10.7119 -5
    endloop
  endfacet
  facet normal 0 0 -1
    outer loop
      vertex -1.7119 -9.55623 -5
      vertex -0.556231 -10.7119 -5
      vertex -1.05801 -10.4562 -5
    endloop
  endfacet
  facet normal 0 0 -1
    outer loop
      vertex -1.7119 -9.55623 -5
      vertex -1.05801 -10.4562 -5
      vertex -1.45623 -10.058 -5
    endloop
  endfacet
  facet normal 0 0 -1
    outer loop
      vertex -0.855951 -9.27811 -5
      vertex -1.7119 -9.55623 -5
      vertex -0.9 -9 -5
    endloop
  endfacet
  facet normal 0 0 -1
    outer loop
      vertex -0.728115 -9.52901 -5
      vertex -1.7119 -9.55623 -5
      vertex -0.855951 -9.27811 -5
    endloop
  endfacet
  facet normal 0 0 -1
    outer loop
      vertex -0.529007 -9.72811 -5
      vertex -1.7119 -9.55623 -5
      vertex -0.728115 -9.52901 -5
    endloop
  endfacet
  facet normal 0 0 -1
    outer loop
      vertex -0.278115 -9.85595 -5
      vertex -1.7119 -9.55623 -5
      vertex -0.529007 -9.72811 -5
    endloop
  endfacet
  facet normal 0 0 -1
    outer loop
      vertex 0.278115 -9.85595 -5
      vertex 1.45623 -10.058 -5
      vertex 0 -9.9 -5
    endloop
  endfacet
  facet normal 0 0 -1
    outer loop
      vertex -1.7119 -9.55623 -5
      vertex -0.278115 -9.85595 -5
      vertex 1.05801 -10.4562 -5
    endloop
  endfacet
  facet normal 0 0 -1
    outer loop
      vertex -0.278115 -9.85595 -5
      vertex 0 -9.9 -5
      vertex 1.05801 -10.4562 -5
    endloop
  endfacet
  facet normal 0 0 -1
    outer loop
      vertex 0.529007 -9.72811 -5
      vertex 1.7119 -9.55623 -5
      vertex 0.278115 -9.85595 -5
    endloop
  endfacet
  facet normal 0 0 -1
    outer loop
      vertex 0.728115 -9.52901 -5
      vertex 1.7119 -9.55623 -5
      vertex 0.529007 -9.72811 -5
    endloop
  endfacet
  facet normal 0 0 -1
    outer loop
      vertex 0.855951 -9.27811 -5
      vertex 1.8 -9 -5
      vertex 0.728115 -9.52901 -5
    endloop
  endfacet
  facet normal 0 0 -1
    outer loop
      vertex 0.9 -9 -5
      vertex 1.8 -9 -5
      vertex 0.855951 -9.27811 -5
    endloop
  endfacet
  facet normal 0 0 -1
    outer loop
      vertex 0.855951 -8.72188 -5
      vertex 1.7119 -8.44377 -5
      vertex 0.9 -9 -5
    endloop
  endfacet
  facet normal 0 0 -1
    outer loop
      vertex 0.529007 -8.27188 -5
      vertex 1.45623 -7.94199 -5
      vertex 0.728115 -8.47099 -5
    endloop
  endfacet
  facet normal 0 0 -1
    outer loop
      vertex 0.278115 -8.14405 -5
      vertex 1.05801 -7.54377 -5
      vertex 0.529007 -8.27188 -5
    endloop
  endfacet
  facet normal 0 0 -1
    outer loop
      vertex 0 -8.1 -5
      vertex 1.05801 -7.54377 -5
      vertex 0.278115 -8.14405 -5
    endloop
  endfacet
  facet normal 0 0 -1
    outer loop
      vertex -0.278115 -8.14405 -5
      vertex 0.556231 -7.2881 -5
      vertex 0 -8.1 -5
    endloop
  endfacet
  facet normal 0 0 -1
    outer loop
      vertex -0.728115 -8.47099 -5
      vertex 0 -7.2 -5
      vertex -0.529007 -8.27188 -5
    endloop
  endfacet
  facet normal 0 0 -1
    outer loop
      vertex -0.855951 -8.72188 -5
      vertex -1.7119 -9.55623 -5
      vertex -0.728115 -8.47099 -5
    endloop
  endfacet
  facet normal 0 0 -1
    outer loop
      vertex -1.7119 -9.55623 -5
      vertex 0 -7.2 -5
      vertex -0.728115 -8.47099 -5
    endloop
  endfacet
  facet normal 0 0 -1
    outer loop
      vertex -0.9 -9 -5
      vertex -1.7119 -9.55623 -5
      vertex -0.855951 -8.72188 -5
    endloop
  endfacet
  facet normal 0 0 -1
    outer loop
      vertex -0.529007 -8.27188 -5
      vertex 0.556231 -7.2881 -5
      vertex -0.278115 -8.14405 -5
    endloop
  endfacet
  facet normal 0 0 -1
    outer loop
      vertex 0.728115 -8.47099 -5
      vertex 1.7119 -8.44377 -5
      vertex 0.855951 -8.72188 -5
    endloop
  endfacet
  facet normal -0.987688 -0.156434 0
    outer loop
      vertex -0.9 -9 -7
      vertex -0.855951 -9.27811 -7
      vertex -0.9 -9 -5
    endloop
  endfacet
  facet normal -0.987688 -0.156434 0
    outer loop
      vertex -0.9 -9 -5
      vertex -0.855951 -9.27811 -7
      vertex -0.855951 -9.27811 -5
    endloop
  endfacet
  facet normal -0.987688 0.156434 0
    outer loop
      vertex -0.9 -9 -7
      vertex -0.9 -9 -5
      vertex -0.855951 -8.72188 -7
    endloop
  endfacet
  facet normal -0.987688 0.156434 0
    outer loop
      vertex -0.855951 -8.72188 -7
      vertex -0.9 -9 -5
      vertex -0.855951 -8.72188 -5
    endloop
  endfacet
  facet normal -0.891006 0.453991 0
    outer loop
      vertex -0.855951 -8.72188 -7
      vertex -0.855951 -8.72188 -5
      vertex -0.728115 -8.47099 -7
    endloop
  endfacet
  facet normal -0.891006 0.453991 0
    outer loop
      vertex -0.728115 -8.47099 -7
      vertex -0.855951 -8.72188 -5
      vertex -0.728115 -8.47099 -5
    endloop
  endfacet
  facet normal -0.707107 0.707107 0
    outer loop
      vertex -0.728115 -8.47099 -7
      vertex -0.728115 -8.47099 -5
      vertex -0.529007 -8.27188 -7
    endloop
  endfacet
  facet normal -0.707107 0.707107 0
    outer loop
      vertex -0.529007 -8.27188 -7
      vertex -0.728115 -8.47099 -5
      vertex -0.529007 -8.27188 -5
    endloop
  endfacet
  facet normal -0.453991 0.891006 0
    outer loop
      vertex -0.529007 -8.27188 -7
      vertex -0.529007 -8.27188 -5
      vertex -0.278115 -8.14405 -7
    endloop
  endfacet
  facet normal -0.453991 0.891006 0
    outer loop
      vertex -0.278115 -8.14405 -7
      vertex -0.529007 -8.27188 -5
      vertex -0.278115 -8.14405 -5
    endloop
  endfacet
  facet normal -0.156434 0.987688 0
    outer loop
      vertex -0.278115 -8.14405 -7
      vertex -0.278115 -8.14405 -5
      vertex 0 -8.1 -7
    endloop
  endfacet
  facet normal -0.156434 0.987688 0
    outer loop
      vertex 0 -8.1 -7
      vertex -0.278115 -8.14405 -5
      vertex 0 -8.1 -5
    endloop
  endfacet
  facet normal 0.156434 0.987688 0
    outer loop
      vertex 0 -8.1 -7
      vertex 0 -8.1 -5
      vertex 0.278115 -8.14405 -7
    endloop
  endfacet
  facet normal 0.156434 0.987688 0
    outer loop
      vertex 0.278115 -8.14405 -7
      vertex 0 -8.1 -5
      vertex 0.278115 -8.14405 -5
    endloop
  endfacet
  facet normal 0.453991 0.891006 0
    outer loop
      vertex 0.278115 -8.14405 -7
      vertex 0.278115 -8.14405 -5
      vertex 0.529007 -8.27188 -7
    endloop
  endfacet
  facet normal 0.453991 0.891006 0
    outer loop
      vertex 0.529007 -8.27188 -7
      vertex 0.278115 -8.14405 -5
      vertex 0.529007 -8.27188 -5
    endloop
  endfacet
  facet normal 0.707107 0.707107 0
    outer loop
      vertex 0.529007 -8.27188 -7
      vertex 0.529007 -8.27188 -5
      vertex 0.728115 -8.47099 -7
    endloop
  endfacet
  facet normal 0.707107 0.707107 0
    outer loop
      vertex 0.728115 -8.47099 -7
      vertex 0.529007 -8.27188 -5
      vertex 0.728115 -8.47099 -5
    endloop
  endfacet
  facet normal 0.891006 0.453991 0
    outer loop
      vertex 0.855951 -8.72188 -7
      vertex 0.728115 -8.47099 -7
      vertex 0.728115 -8.47099 -5
    endloop
  endfacet
  facet normal 0.891006 0.453991 0
    outer loop
      vertex 0.855951 -8.72188 -5
      vertex 0.855951 -8.72188 -7
      vertex 0.728115 -8.47099 -5
    endloop
  endfacet
  facet normal 0.987688 0.156434 0
    outer loop
      vertex 0.9 -9 -7
      vertex 0.855951 -8.72188 -7
      vertex 0.855951 -8.72188 -5
    endloop
  endfacet
  facet normal 0.987688 0.156434 0
    outer loop
      vertex 0.9 -9 -5
      vertex 0.9 -9 -7
      vertex 0.855951 -8.72188 -5
    endloop
  endfacet
  facet normal 0.987688 -0.156434 0
    outer loop
      vertex 0.855951 -9.27811 -5
      vertex 0.855951 -9.27811 -7
      vertex 0.9 -9 -7
    endloop
  endfacet
  facet normal 0.987688 -0.156434 0
    outer loop
      vertex 0.9 -9 -5
      vertex 0.855951 -9.27811 -5
      vertex 0.9 -9 -7
    endloop
  endfacet
  facet normal 0.891006 -0.453991 0
    outer loop
      vertex 0.728115 -9.52901 -5
      vertex 0.728115 -9.52901 -7
      vertex 0.855951 -9.27811 -7
    endloop
  endfacet
  facet normal 0.891006 -0.453991 0
    outer loop
      vertex 0.855951 -9.27811 -5
      vertex 0.728115 -9.52901 -5
      vertex 0.855951 -9.27811 -7
    endloop
  endfacet
  facet normal 0.707107 -0.707107 0
    outer loop
      vertex 0.529007 -9.72811 -5
      vertex 0.529007 -9.72811 -7
      vertex 0.728115 -9.52901 -7
    endloop
  endfacet
  facet normal 0.707107 -0.707107 0
    outer loop
      vertex 0.728115 -9.52901 -5
      vertex 0.529007 -9.72811 -5
      vertex 0.728115 -9.52901 -7
    endloop
  endfacet
  facet normal 0.453991 -0.891006 0
    outer loop
      vertex 0.278115 -9.85595 -5
      vertex 0.278115 -9.85595 -7
      vertex 0.529007 -9.72811 -7
    endloop
  endfacet
  facet normal 0.453991 -0.891006 0
    outer loop
      vertex 0.529007 -9.72811 -5
      vertex 0.278115 -9.85595 -5
      vertex 0.529007 -9.72811 -7
    endloop
  endfacet
  facet normal 0.156434 -0.987688 0
    outer loop
      vertex 0 -9.9 -5
      vertex 0 -9.9 -7
      vertex 0.278115 -9.85595 -7
    endloop
  endfacet
  facet normal 0.156434 -0.987688 0
    outer loop
      vertex 0.278115 -9.85595 -5
      vertex 0 -9.9 -5
      vertex 0.278115 -9.85595 -7
    endloop
  endfacet
  facet normal -0.156434 -0.987688 0
    outer loop
      vertex -0.278115 -9.85595 -5
      vertex -0.278115 -9.85595 -7
      vertex 0 -9.9 -7
    endloop
  endfacet
  facet normal -0.156434 -0.987688 0
    outer loop
      vertex 0 -9.9 -5
      vertex -0.278115 -9.85595 -5
      vertex 0 -9.9 -7
    endloop
  endfacet
  facet normal -0.453991 -0.891006 0
    outer loop
      vertex -0.529007 -9.72811 -5
      vertex -0.529007 -9.72811 -7
      vertex -0.278115 -9.85595 -7
    endloop
  endfacet
  facet normal -0.453991 -0.891006 0
    outer loop
      vertex -0.278115 -9.85595 -5
      vertex -0.529007 -9.72811 -5
      vertex -0.278115 -9.85595 -7
    endloop
  endfacet
  facet normal -0.707107 -0.707107 0
    outer loop
      vertex -0.728115 -9.52901 -5
      vertex -0.728115 -9.52901 -7
      vertex -0.529007 -9.72811 -7
    endloop
  endfacet
  facet normal -0.707107 -0.707107 0
    outer loop
      vertex -0.529007 -9.72811 -5
      vertex -0.728115 -9.52901 -5
      vertex -0.529007 -9.72811 -7
    endloop
  endfacet
  facet normal -0.891006 -0.453991 0
    outer loop
      vertex -0.855951 -9.27811 -7
      vertex -0.728115 -9.52901 -7
      vertex -0.855951 -9.27811 -5
    endloop
  endfacet
  facet normal -0.891006 -0.453991 0
    outer loop
      vertex -0.855951 -9.27811 -5
      vertex -0.728115 -9.52901 -7
      vertex -0.728115 -9.52901 -5
    endloop
  endfacet
  facet normal 0 0 -1
    outer loop
      vertex -0.9 -9 -7
      vertex -0.855951 -8.72188 -7
      vertex -0.855951 -9.27811 -7
    endloop
  endfacet
  facet normal 0 0 -1
    outer loop
      vertex -0.855951 -9.27811 -7
      vertex -0.855951 -8.72188 -7
      vertex -0.728115 -8.47099 -7
    endloop
  endfacet
  facet normal 0 0 -1
    outer loop
      vertex -0.855951 -9.27811 -7
      vertex -0.728115 -8.47099 -7
      vertex -0.529007 -8.27188 -7
    endloop
  endfacet
  facet normal 0 0 -1
    outer loop
      vertex -0.855951 -9.27811 -7
      vertex -0.529007 -8.27188 -7
      vertex -0.278115 -8.14405 -7
    endloop
  endfacet
  facet normal 0 0 -1
    outer loop
      vertex -0.855951 -9.27811 -7
      vertex -0.278115 -8.14405 -7
      vertex 0 -8.1 -7
    endloop
  endfacet
  facet normal 0 0 -1
    outer loop
      vertex -0.855951 -9.27811 -7
      vertex 0 -8.1 -7
      vertex 0.278115 -8.14405 -7
    endloop
  endfacet
  facet normal 0 0 -1
    outer loop
      vertex -0.855951 -9.27811 -7
      vertex 0.278115 -8.14405 -7
      vertex 0.529007 -8.27188 -7
    endloop
  endfacet
  facet normal 0 0 -1
    outer loop
      vertex -0.855951 -9.27811 -7
      vertex 0.529007 -8.27188 -7
      vertex 0.728115 -8.47099 -7
    endloop
  endfacet
  facet normal 0 0 -1
    outer loop
      vertex -0.855951 -9.27811 -7
      vertex 0.728115 -8.47099 -7
      vertex 0.855951 -8.72188 -7
    endloop
  endfacet
  facet normal 0 0 -1
    outer loop
      vertex -0.855951 -9.27811 -7
      vertex 0.855951 -8.72188 -7
      vertex 0.9 -9 -7
    endloop
  endfacet
  facet normal 0 0 -1
    outer loop
      vertex -0.855951 -9.27811 -7
      vertex 0.9 -9 -7
      vertex 0.855951 -9.27811 -7
    endloop
  endfacet
  facet normal 0 0 -1
    outer loop
      vertex -0.855951 -9.27811 -7
      vertex 0.855951 -9.27811 -7
      vertex 0.728115 -9.52901 -7
    endloop
  endfacet
  facet normal 0 0 -1
    outer loop
      vertex -0.855951 -9.27811 -7
      vertex 0.728115 -9.52901 -7
      vertex 0.529007 -9.72811 -7
    endloop
  endfacet
  facet normal 0 0 -1
    outer loop
      vertex -0.855951 -9.27811 -7
      vertex 0.529007 -9.72811 -7
      vertex 0.278115 -9.85595 -7
    endloop
  endfacet
  facet normal 0 0 -1
    outer loop
      vertex -0.855951 -9.27811 -7
      vertex 0.278115 -9.85595 -7
      vertex 0 -9.9 -7
    endloop
  endfacet
  facet normal 0 0 -1
    outer loop
      vertex -0.855951 -9.27811 -7
      vertex 0 -9.9 -7
      vertex -0.278115 -9.85595 -7
    endloop
  endfacet
  facet normal 0 0 -1
    outer loop
      vertex -0.855951 -9.27811 -7
      vertex -0.278115 -9.85595 -7
      vertex -0.529007 -9.72811 -7
    endloop
  endfacet
  facet normal 0 0 -1
    outer loop
      vertex -0.855951 -9.27811 -7
      vertex -0.529007 -9.72811 -7
      vertex -0.728115 -9.52901 -7
    endloop
  endfacet
endsolid OpenSCAD_Model
