solid OpenSCAD_Model
  facet normal -1 0 0
    outer loop
      vertex -4.75 -11.5 -6.5
      vertex -4.75 -11.5 -4.9
      vertex -4.75 11.5 -6.5
    endloop
  endfacet
  facet normal -1 0 0
    outer loop
      vertex -4.75 11.5 -6.5
      vertex -4.75 -11.5 -4.9
      vertex -4.75 11.5 -4.9
    endloop
  endfacet
  facet normal 0 -1 0
    outer loop
      vertex -4.75 -11.5 -4.9
      vertex -4.75 -11.5 -6.5
      vertex 4.75 -11.5 -6.5
    endloop
  endfacet
  facet normal 0 -1 0
    outer loop
      vertex 4.75 -11.5 -4.9
      vertex -4.75 -11.5 -4.9
      vertex 4.75 -11.5 -6.5
    endloop
  endfacet
  facet normal 0 0 -1
    outer loop
      vertex -4 11 -6.5
      vertex -4.75 11.5 -6.5
      vertex 4.75 11.5 -6.5
    endloop
  endfacet
  facet normal 0 0 -1
    outer loop
      vertex 4 8 -6.5
      vertex 3.25 7.325 -6.5
      vertex -3.25 7.325 -6.5
    endloop
  endfacet
  facet normal 0 0 -1
    outer loop
      vertex 4 11 -6.5
      vertex -4 11 -6.5
      vertex 4.75 11.5 -6.5
    endloop
  endfacet
  facet normal 0 0 -1
    outer loop
      vertex -4.75 -11.5 -6.5
      vertex -4.75 11.5 -6.5
      vertex -4 8 -6.5
    endloop
  endfacet
  facet normal 0 0 -1
    outer loop
      vertex 3.25 -7.075 -6.5
      vertex 4.75 -11.5 -6.5
      vertex -3.25 -7.075 -6.5
    endloop
  endfacet
  facet normal 0 0 -1
    outer loop
      vertex -3.25 -7.075 -6.5
      vertex -4 8 -6.5
      vertex -3.25 7.325 -6.5
    endloop
  endfacet
  facet normal 0 0 -1
    outer loop
      vertex 4.75 -11.5 -6.5
      vertex 4 8 -6.5
      vertex 4.75 11.5 -6.5
    endloop
  endfacet
  facet normal 0 0 -1
    outer loop
      vertex 4 8 -6.5
      vertex 4 11 -6.5
      vertex 4.75 11.5 -6.5
    endloop
  endfacet
  facet normal 0 0 -1
    outer loop
      vertex -4.75 -11.5 -6.5
      vertex -4 8 -6.5
      vertex -3.25 -7.075 -6.5
    endloop
  endfacet
  facet normal 0 0 -1
    outer loop
      vertex -4.75 -11.5 -6.5
      vertex -3.25 -7.075 -6.5
      vertex 4.75 -11.5 -6.5
    endloop
  endfacet
  facet normal 0 0 -1
    outer loop
      vertex 4.75 -11.5 -6.5
      vertex 3.25 -7.075 -6.5
      vertex 4 8 -6.5
    endloop
  endfacet
  facet normal 0 0 -1
    outer loop
      vertex 3.25 -7.075 -6.5
      vertex 3.25 7.325 -6.5
      vertex 4 8 -6.5
    endloop
  endfacet
  facet normal 0 0 -1
    outer loop
      vertex -4 8 -6.5
      vertex -4.75 11.5 -6.5
      vertex -4 11 -6.5
    endloop
  endfacet
  facet normal 0 0 -1
    outer loop
      vertex 4 8 -6.5
      vertex -3.25 7.325 -6.5
      vertex -4 8 -6.5
    endloop
  endfacet
  facet normal 0 1 0
    outer loop
      vertex -4.75 11.5 -6.5
      vertex -4.75 11.5 -4.9
      vertex 4.75 11.5 -6.5
    endloop
  endfacet
  facet normal 0 1 0
    outer loop
      vertex 4.75 11.5 -6.5
      vertex -4.75 11.5 -4.9
      vertex 4.75 11.5 -4.9
    endloop
  endfacet
  facet normal 0 0 1
    outer loop
      vertex -3.25 -7.075 -4.9
      vertex -4.75 -11.5 -4.9
      vertex 4.75 -11.5 -4.9
    endloop
  endfacet
  facet normal 0 0 1
    outer loop
      vertex 3.25 -7.075 -4.9
      vertex -3.25 -7.075 -4.9
      vertex 4.75 -11.5 -4.9
    endloop
  endfacet
  facet normal 0 0 1
    outer loop
      vertex -4.75 11.5 -4.9
      vertex -4.75 -11.5 -4.9
      vertex -4 8 -4.9
    endloop
  endfacet
  facet normal 0 0 1
    outer loop
      vertex 4.75 11.5 -4.9
      vertex -4.75 11.5 -4.9
      vertex -4 11 -4.9
    endloop
  endfacet
  facet normal 0 0 1
    outer loop
      vertex 4.75 11.5 -4.9
      vertex 4 11 -4.9
      vertex 4.75 -11.5 -4.9
    endloop
  endfacet
  facet normal 0 0 1
    outer loop
      vertex 4.75 11.5 -4.9
      vertex -4 11 -4.9
      vertex 4 11 -4.9
    endloop
  endfacet
  facet normal 0 0 1
    outer loop
      vertex 4 11 -4.9
      vertex 4 8 -4.9
      vertex 4.75 -11.5 -4.9
    endloop
  endfacet
  facet normal 0 0 1
    outer loop
      vertex -4 8 -4.9
      vertex -4.75 -11.5 -4.9
      vertex -3.25 -7.075 -4.9
    endloop
  endfacet
  facet normal 0 0 1
    outer loop
      vertex -3.25 -7.075 -4.9
      vertex -3.25 7.325 -4.9
      vertex -4 8 -4.9
    endloop
  endfacet
  facet normal 0 0 1
    outer loop
      vertex 4 8 -4.9
      vertex 3.25 7.325 -4.9
      vertex 4.75 -11.5 -4.9
    endloop
  endfacet
  facet normal 0 0 1
    outer loop
      vertex 3.25 7.325 -4.9
      vertex 3.25 -7.075 -4.9
      vertex 4.75 -11.5 -4.9
    endloop
  endfacet
  facet normal 0 0 1
    outer loop
      vertex -4 8 -4.9
      vertex -4 11 -4.9
      vertex -4.75 11.5 -4.9
    endloop
  endfacet
  facet normal 0 0 1
    outer loop
      vertex 4 8 -4.9
      vertex -3.25 7.325 -4.9
      vertex 3.25 7.325 -4.9
    endloop
  endfacet
  facet normal 0 0 1
    outer loop
      vertex 4 8 -4.9
      vertex -4 8 -4.9
      vertex -3.25 7.325 -4.9
    endloop
  endfacet
  facet normal 1 0 0
    outer loop
      vertex 4.75 -11.5 -4.9
      vertex 4.75 -11.5 -6.5
      vertex 4.75 11.5 -6.5
    endloop
  endfacet
  facet normal 1 0 0
    outer loop
      vertex 4.75 11.5 -4.9
      vertex 4.75 -11.5 -4.9
      vertex 4.75 11.5 -6.5
    endloop
  endfacet
  facet normal -1 0 0
    outer loop
      vertex -4 8 -14.95
      vertex -4 8 -6.5
      vertex -4 11 -14.95
    endloop
  endfacet
  facet normal -1 0 0
    outer loop
      vertex -4 11 -14.95
      vertex -4 8 -6.5
      vertex -4 11 -6.5
    endloop
  endfacet
  facet normal 0 1 0
    outer loop
      vertex -4 11 -14.95
      vertex -4 11 -6.5
      vertex 4 11 -14.95
    endloop
  endfacet
  facet normal 0 1 0
    outer loop
      vertex 4 11 -14.95
      vertex -4 11 -6.5
      vertex 4 11 -6.5
    endloop
  endfacet
  facet normal 1 0 0
    outer loop
      vertex 4 8 -6.5
      vertex 4 8 -14.95
      vertex 4 11 -14.95
    endloop
  endfacet
  facet normal 1 0 0
    outer loop
      vertex 4 11 -6.5
      vertex 4 8 -6.5
      vertex 4 11 -14.95
    endloop
  endfacet
  facet normal 0 -1 0
    outer loop
      vertex -4 8 -6.5
      vertex -4 8 -14.95
      vertex 4 8 -14.95
    endloop
  endfacet
  facet normal 0 -1 0
    outer loop
      vertex 4 8 -6.5
      vertex -4 8 -6.5
      vertex 4 8 -14.95
    endloop
  endfacet
  facet normal -1 0 0
    outer loop
      vertex -3.25 -7.075 -7.4
      vertex -3.25 -7.075 -6.5
      vertex -3.25 7.325 -7.4
    endloop
  endfacet
  facet normal -1 0 0
    outer loop
      vertex -3.25 7.325 -7.4
      vertex -3.25 -7.075 -6.5
      vertex -3.25 7.325 -6.5
    endloop
  endfacet
  facet normal 0 1 0
    outer loop
      vertex -3.25 7.325 -7.4
      vertex -3.25 7.325 -6.5
      vertex 3.25 7.325 -7.4
    endloop
  endfacet
  facet normal 0 1 0
    outer loop
      vertex 3.25 7.325 -7.4
      vertex -3.25 7.325 -6.5
      vertex 3.25 7.325 -6.5
    endloop
  endfacet
  facet normal 1 0 0
    outer loop
      vertex 3.25 -7.075 -6.5
      vertex 3.25 -7.075 -7.4
      vertex 3.25 7.325 -7.4
    endloop
  endfacet
  facet normal 1 0 0
    outer loop
      vertex 3.25 7.325 -6.5
      vertex 3.25 -7.075 -6.5
      vertex 3.25 7.325 -7.4
    endloop
  endfacet
  facet normal 0 -1 0
    outer loop
      vertex -3.25 -7.075 -6.5
      vertex -3.25 -7.075 -7.4
      vertex 3.25 -7.075 -7.4
    endloop
  endfacet
  facet normal 0 -1 0
    outer loop
      vertex 3.25 -7.075 -6.5
      vertex -3.25 -7.075 -6.5
      vertex 3.25 -7.075 -7.4
    endloop
  endfacet
  facet normal -1 0 0
    outer loop
      vertex -4 8 -4.9
      vertex -4 8 -2.95
      vertex -4 11 -4.9
    endloop
  endfacet
  facet normal -1 0 0
    outer loop
      vertex -4 11 -4.9
      vertex -4 8 -2.95
      vertex -4 11 -2.95
    endloop
  endfacet
  facet normal 0 -1 0
    outer loop
      vertex -4 8 -2.95
      vertex -4 8 -4.9
      vertex 4 8 -4.9
    endloop
  endfacet
  facet normal 0 -1 0
    outer loop
      vertex 4 8 -2.95
      vertex -4 8 -2.95
      vertex 4 8 -4.9
    endloop
  endfacet
  facet normal 1 0 0
    outer loop
      vertex 4 8 -2.95
      vertex 4 8 -4.9
      vertex 4 11 -4.9
    endloop
  endfacet
  facet normal 1 0 0
    outer loop
      vertex 4 11 -2.95
      vertex 4 8 -2.95
      vertex 4 11 -4.9
    endloop
  endfacet
  facet normal 0 1 0
    outer loop
      vertex -4 11 -4.9
      vertex -4 11 -2.95
      vertex 4 11 -4.9
    endloop
  endfacet
  facet normal 0 1 0
    outer loop
      vertex 4 11 -4.9
      vertex -4 11 -2.95
      vertex 4 11 -2.95
    endloop
  endfacet
  facet normal 0 -1 0
    outer loop
      vertex 3.25 -7.075 -4.9
      vertex 3.6 -7.075 -4.9
      vertex -3.6 -7.075 -1.5
    endloop
  endfacet
  facet normal 0 -1 0
    outer loop
      vertex -3.6 -7.075 -1.5
      vertex -3.6 -7.075 -4.9
      vertex -3.25 -7.075 -4.9
    endloop
  endfacet
  facet normal 0 -1 0
    outer loop
      vertex 3.25 -7.075 -4.9
      vertex -3.6 -7.075 -1.5
      vertex -3.25 -7.075 -4.9
    endloop
  endfacet
  facet normal 0 -1 0
    outer loop
      vertex 3.6 -7.075 -4.9
      vertex 3.25 -7.075 -1.5
      vertex -3.25 -7.075 -1.5
    endloop
  endfacet
  facet normal 0 -1 0
    outer loop
      vertex 3.6 -7.075 -4.9
      vertex 3.6 -7.075 -1.5
      vertex 3.25 -7.075 -1.5
    endloop
  endfacet
  facet normal 0 -1 0
    outer loop
      vertex 3.6 -7.075 -4.9
      vertex -3.25 -7.075 -1.5
      vertex -3.6 -7.075 -1.5
    endloop
  endfacet
  facet normal 0 -1 0
    outer loop
      vertex 3.25 -7.075 -1.5
      vertex 3.25 -7.075 27.6
      vertex -3.25 -7.075 -1.5
    endloop
  endfacet
  facet normal 0 -1 0
    outer loop
      vertex -3.25 -7.075 27.6
      vertex -3.25 -7.075 -1.5
      vertex 3.25 -7.075 27.6
    endloop
  endfacet
  facet normal 0 1 0
    outer loop
      vertex -3.6 7.325 -4.9
      vertex -3.6 7.325 -1.5
      vertex -3.25 7.325 -4.9
    endloop
  endfacet
  facet normal 0 1 0
    outer loop
      vertex -3.25 7.325 -4.9
      vertex -3.6 7.325 -1.5
      vertex -3.25 7.325 -1.5
    endloop
  endfacet
  facet normal 0 1 0
    outer loop
      vertex -3.25 7.325 -1.5
      vertex -3.25 7.325 27.6
      vertex 3.25 7.325 27.6
    endloop
  endfacet
  facet normal 0 1 0
    outer loop
      vertex -3.25 7.325 -1.5
      vertex 3.25 7.325 27.6
      vertex -3.25 7.325 -4.9
    endloop
  endfacet
  facet normal 0 1 0
    outer loop
      vertex -3.25 7.325 -4.9
      vertex 3.25 7.325 27.6
      vertex 3.25 7.325 -1.5
    endloop
  endfacet
  facet normal 0 1 0
    outer loop
      vertex -3.25 7.325 -4.9
      vertex 3.25 7.325 -1.5
      vertex 3.6 7.325 -1.5
    endloop
  endfacet
  facet normal 0 1 0
    outer loop
      vertex 3.25 7.325 -4.9
      vertex 3.6 7.325 -1.5
      vertex 3.6 7.325 -4.9
    endloop
  endfacet
  facet normal 0 1 0
    outer loop
      vertex -3.25 7.325 -4.9
      vertex 3.6 7.325 -1.5
      vertex 3.25 7.325 -4.9
    endloop
  endfacet
  facet normal 0 0 -1
    outer loop
      vertex -4 8 -14.95
      vertex -4 11 -14.95
      vertex 4 8 -14.95
    endloop
  endfacet
  facet normal 0 0 -1
    outer loop
      vertex 4 8 -14.95
      vertex -4 11 -14.95
      vertex 4 11 -14.95
    endloop
  endfacet
  facet normal 0 0 -1
    outer loop
      vertex -3.25 -7.075 -7.4
      vertex -3.25 7.325 -7.4
      vertex 3.25 -7.075 -7.4
    endloop
  endfacet
  facet normal 0 0 -1
    outer loop
      vertex 3.25 -7.075 -7.4
      vertex -3.25 7.325 -7.4
      vertex 3.25 7.325 -7.4
    endloop
  endfacet
  facet normal 0 0 1
    outer loop
      vertex -4 11 -2.95
      vertex -4 8 -2.95
      vertex 4 8 -2.95
    endloop
  endfacet
  facet normal 0 0 1
    outer loop
      vertex 4 11 -2.95
      vertex -4 11 -2.95
      vertex 4 8 -2.95
    endloop
  endfacet
  facet normal 0 0 -1
    outer loop
      vertex -3.6 -7.075 -4.9
      vertex -3.6 7.325 -4.9
      vertex -3.25 -7.075 -4.9
    endloop
  endfacet
  facet normal 0 0 -1
    outer loop
      vertex -3.25 -7.075 -4.9
      vertex -3.6 7.325 -4.9
      vertex -3.25 7.325 -4.9
    endloop
  endfacet
  facet normal -1 0 0
    outer loop
      vertex -3.6 -7.075 -4.9
      vertex -3.6 -7.075 -1.5
      vertex -3.6 7.325 -4.9
    endloop
  endfacet
  facet normal -1 0 0
    outer loop
      vertex -3.6 7.325 -4.9
      vertex -3.6 -7.075 -1.5
      vertex -3.6 7.325 -1.5
    endloop
  endfacet
  facet normal 0 0 1
    outer loop
      vertex -3.6 7.325 -1.5
      vertex -3.6 -7.075 -1.5
      vertex -3.25 -7.075 -1.5
    endloop
  endfacet
  facet normal 0 0 1
    outer loop
      vertex -3.25 7.325 -1.5
      vertex -3.6 7.325 -1.5
      vertex -3.25 -7.075 -1.5
    endloop
  endfacet
  facet normal -1 0 0
    outer loop
      vertex -3.25 -7.075 -1.5
      vertex -3.25 -7.075 27.6
      vertex -3.25 7.325 -1.5
    endloop
  endfacet
  facet normal -1 0 0
    outer loop
      vertex -3.25 7.325 -1.5
      vertex -3.25 -7.075 27.6
      vertex -3.25 7.325 27.6
    endloop
  endfacet
  facet normal 0 0 1
    outer loop
      vertex -3.25 7.325 27.6
      vertex -3.25 -7.075 27.6
      vertex 3.25 -7.075 27.6
    endloop
  endfacet
  facet normal 0 0 1
    outer loop
      vertex 3.25 7.325 27.6
      vertex -3.25 7.325 27.6
      vertex 3.25 -7.075 27.6
    endloop
  endfacet
  facet normal 1 0 0
    outer loop
      vertex 3.25 -7.075 27.6
      vertex 3.25 -7.075 -1.5
      vertex 3.25 7.325 -1.5
    endloop
  endfacet
  facet normal 1 0 0
    outer loop
      vertex 3.25 7.325 27.6
      vertex 3.25 -7.075 27.6
      vertex 3.25 7.325 -1.5
    endloop
  endfacet
  facet normal 0 0 1
    outer loop
      vertex 3.25 7.325 -1.5
      vertex 3.25 -7.075 -1.5
      vertex 3.6 -7.075 -1.5
    endloop
  endfacet
  facet normal 0 0 1
    outer loop
      vertex 3.6 7.325 -1.5
      vertex 3.25 7.325 -1.5
      vertex 3.6 -7.075 -1.5
    endloop
  endfacet
  facet normal 1 0 0
    outer loop
      vertex 3.6 -7.075 -1.5
      vertex 3.6 -7.075 -4.9
      vertex 3.6 7.325 -4.9
    endloop
  endfacet
  facet normal 1 0 0
    outer loop
      vertex 3.6 7.325 -1.5
      vertex 3.6 -7.075 -1.5
      vertex 3.6 7.325 -4.9
    endloop
  endfacet
  facet normal 0 0 -1
    outer loop
      vertex 3.25 -7.075 -4.9
      vertex 3.25 7.325 -4.9
      vertex 3.6 -7.075 -4.9
    endloop
  endfacet
  facet normal 0 0 -1
    outer loop
      vertex 3.6 -7.075 -4.9
      vertex 3.25 7.325 -4.9
      vertex 3.6 7.325 -4.9
    endloop
  endfacet
endsolid OpenSCAD_Model
