solid OpenSCAD_Model
  facet normal -1 0 0
    outer loop
      vertex -24.5 -31.5 0
      vertex -24.5 31.5 0
      vertex -24.5 -31.5 -15
    endloop
  endfacet
  facet normal -1 0 0
    outer loop
      vertex -24.5 -31.5 -15
      vertex -24.5 31.5 0
      vertex -24.5 31.5 -15
    endloop
  endfacet
  facet normal 0 0 1
    outer loop
      vertex -24.5 -31.5 0
      vertex 24.5 -31.5 0
      vertex 24.5 31.5 0
    endloop
  endfacet
  facet normal 0 0 1
    outer loop
      vertex -24.5 31.5 0
      vertex -24.5 -31.5 0
      vertex 24.5 31.5 0
    endloop
  endfacet
  facet normal 0 -1 0
    outer loop
      vertex -24.5 -31.5 -15
      vertex 24.5 -31.5 -15
      vertex 24.5 -31.5 0
    endloop
  endfacet
  facet normal 0 -1 0
    outer loop
      vertex -24.5 -31.5 0
      vertex -24.5 -31.5 -15
      vertex 24.5 -31.5 0
    endloop
  endfacet
  facet normal 0 0 -1
    outer loop
      vertex -24.5 31.5 -15
      vertex 24.5 31.5 -15
      vertex -24.5 -31.5 -15
    endloop
  endfacet
  facet normal 0 0 -1
    outer loop
      vertex -24.5 -31.5 -15
      vertex 24.5 31.5 -15
      vertex 24.5 -31.5 -15
    endloop
  endfacet
  facet normal 0 1 0
    outer loop
      vertex -24.5 31.5 0
      vertex 24.5 31.5 0
      vertex -24.5 31.5 -15
    endloop
  endfacet
  facet normal 0 1 0
    outer loop
      vertex -24.5 31.5 -15
      vertex 24.5 31.5 0
      vertex 24.5 31.5 -15
    endloop
  endfacet
  facet normal 1 0 0
    outer loop
      vertex 24.5 -31.5 -15
      vertex 24.5 31.5 -15
      vertex 24.5 31.5 0
    endloop
  endfacet
  facet normal 1 0 0
    outer loop
      vertex 24.5 -31.5 0
      vertex 24.5 -31.5 -15
      vertex 24.5 31.5 0
    endloop
  endfacet
endsolid OpenSCAD_Model
