solid OpenSCAD_Model
  facet normal -1 0 0
    outer loop
      vertex -23.5 -28.5 -3.4
      vertex -23.5 -28.5 -1.8
      vertex -23.5 28.5 -3.4
    endloop
  endfacet
  facet normal -1 0 0
    outer loop
      vertex -23.5 28.5 -3.4
      vertex -23.5 -28.5 -1.8
      vertex -23.5 28.5 -1.8
    endloop
  endfacet
  facet normal 0 -1 0
    outer loop
      vertex -23.5 -28.5 -1.8
      vertex -23.5 -28.5 -3.4
      vertex 23.5 -28.5 -3.4
    endloop
  endfacet
  facet normal 0 -1 0
    outer loop
      vertex 23.5 -28.5 -1.8
      vertex -23.5 -28.5 -1.8
      vertex 23.5 -28.5 -3.4
    endloop
  endfacet
  facet normal 0 0 -1
    outer loop
      vertex 19.5 -20.5 -3.4
      vertex 23.5 -28.5 -3.4
      vertex -19.5 -20.5 -3.4
    endloop
  endfacet
  facet normal 0 0 -1
    outer loop
      vertex 19.5 20.5 -3.4
      vertex -23.5 28.5 -3.4
      vertex 23.5 28.5 -3.4
    endloop
  endfacet
  facet normal 0 0 -1
    outer loop
      vertex -23.5 -28.5 -3.4
      vertex -23.5 28.5 -3.4
      vertex -19.5 20.5 -3.4
    endloop
  endfacet
  facet normal 0 0 -1
    outer loop
      vertex -23.5 -28.5 -3.4
      vertex -19.5 20.5 -3.4
      vertex -19.5 -20.5 -3.4
    endloop
  endfacet
  facet normal 0 0 -1
    outer loop
      vertex -23.5 -28.5 -3.4
      vertex -19.5 -20.5 -3.4
      vertex 23.5 -28.5 -3.4
    endloop
  endfacet
  facet normal 0 0 -1
    outer loop
      vertex 23.5 -28.5 -3.4
      vertex 19.5 -20.5 -3.4
      vertex 23.5 28.5 -3.4
    endloop
  endfacet
  facet normal 0 0 -1
    outer loop
      vertex 19.5 -20.5 -3.4
      vertex 19.5 20.5 -3.4
      vertex 23.5 28.5 -3.4
    endloop
  endfacet
  facet normal 0 0 -1
    outer loop
      vertex -19.5 20.5 -3.4
      vertex -23.5 28.5 -3.4
      vertex 19.5 20.5 -3.4
    endloop
  endfacet
  facet normal 0 1 0
    outer loop
      vertex -23.5 28.5 -3.4
      vertex -23.5 28.5 -1.8
      vertex 23.5 28.5 -3.4
    endloop
  endfacet
  facet normal 0 1 0
    outer loop
      vertex 23.5 28.5 -3.4
      vertex -23.5 28.5 -1.8
      vertex 23.5 28.5 -1.8
    endloop
  endfacet
  facet normal 0 0 1
    outer loop
      vertex -23.5 28.5 -1.8
      vertex -23.5 -28.5 -1.8
      vertex 23.5 -28.5 -1.8
    endloop
  endfacet
  facet normal 0 0 1
    outer loop
      vertex 23.5 28.5 -1.8
      vertex -23.5 28.5 -1.8
      vertex 23.5 -28.5 -1.8
    endloop
  endfacet
  facet normal 1 0 0
    outer loop
      vertex 23.5 -28.5 -1.8
      vertex 23.5 -28.5 -3.4
      vertex 23.5 28.5 -3.4
    endloop
  endfacet
  facet normal 1 0 0
    outer loop
      vertex 23.5 28.5 -1.8
      vertex 23.5 -28.5 -1.8
      vertex 23.5 28.5 -3.4
    endloop
  endfacet
  facet normal -1 0 0
    outer loop
      vertex -19.5 -20.5 -9.2
      vertex -19.5 -20.5 -3.4
      vertex -19.5 20.5 -9.2
    endloop
  endfacet
  facet normal -1 0 0
    outer loop
      vertex -19.5 20.5 -9.2
      vertex -19.5 -20.5 -3.4
      vertex -19.5 20.5 -3.4
    endloop
  endfacet
  facet normal 0 1 0
    outer loop
      vertex -19.5 20.5 -9.2
      vertex -19.5 20.5 -3.4
      vertex 19.5 20.5 -9.2
    endloop
  endfacet
  facet normal 0 1 0
    outer loop
      vertex 19.5 20.5 -9.2
      vertex -19.5 20.5 -3.4
      vertex 19.5 20.5 -3.4
    endloop
  endfacet
  facet normal 1 0 0
    outer loop
      vertex 19.5 -20.5 -3.4
      vertex 19.5 -20.5 -9.2
      vertex 19.5 20.5 -9.2
    endloop
  endfacet
  facet normal 1 0 0
    outer loop
      vertex 19.5 20.5 -3.4
      vertex 19.5 -20.5 -3.4
      vertex 19.5 20.5 -9.2
    endloop
  endfacet
  facet normal 0 -1 0
    outer loop
      vertex -19.5 -20.5 -3.4
      vertex -19.5 -20.5 -9.2
      vertex 19.5 -20.5 -9.2
    endloop
  endfacet
  facet normal 0 -1 0
    outer loop
      vertex 19.5 -20.5 -3.4
      vertex -19.5 -20.5 -3.4
      vertex 19.5 -20.5 -9.2
    endloop
  endfacet
  facet normal 0 0 -1
    outer loop
      vertex -19.5 -20.5 -9.2
      vertex -19.5 20.5 -9.2
      vertex 19.5 -20.5 -9.2
    endloop
  endfacet
  facet normal 0 0 -1
    outer loop
      vertex 19.5 -20.5 -9.2
      vertex -19.5 20.5 -9.2
      vertex 19.5 20.5 -9.2
    endloop
  endfacet
  facet normal -1 0 0
    outer loop
      vertex 24.5 -21 -7.6
      vertex 24.5 -21 32.4
      vertex 24.5 -7.5 -7.6
    endloop
  endfacet
  facet normal -1 0 0
    outer loop
      vertex 24.5 -7.5 -7.6
      vertex 24.5 -21 32.4
      vertex 24.5 -7.5 32.4
    endloop
  endfacet
  facet normal 0 -1 0
    outer loop
      vertex 24.5 -21 32.4
      vertex 24.5 -21 -7.6
      vertex 30.5 -21 -7.6
    endloop
  endfacet
  facet normal 0 -1 0
    outer loop
      vertex 30.5 -21 32.4
      vertex 24.5 -21 32.4
      vertex 30.5 -21 -7.6
    endloop
  endfacet
  facet normal 0 0 -1
    outer loop
      vertex 24.5 -21 -7.6
      vertex 24.5 -7.5 -7.6
      vertex 30.5 -21 -7.6
    endloop
  endfacet
  facet normal 0 0 -1
    outer loop
      vertex 30.5 -21 -7.6
      vertex 24.5 -7.5 -7.6
      vertex 30.5 -7.5 -7.6
    endloop
  endfacet
  facet normal 0 1 0
    outer loop
      vertex 24.5 -7.5 -7.6
      vertex 24.5 -7.5 32.4
      vertex 30.5 -7.5 -7.6
    endloop
  endfacet
  facet normal 0 1 0
    outer loop
      vertex 30.5 -7.5 -7.6
      vertex 24.5 -7.5 32.4
      vertex 30.5 -7.5 32.4
    endloop
  endfacet
  facet normal 0 0 1
    outer loop
      vertex 24.5 -7.5 32.4
      vertex 24.5 -21 32.4
      vertex 30.5 -21 32.4
    endloop
  endfacet
  facet normal 0 0 1
    outer loop
      vertex 30.5 -7.5 32.4
      vertex 24.5 -7.5 32.4
      vertex 30.5 -21 32.4
    endloop
  endfacet
  facet normal 1 0 0
    outer loop
      vertex 30.5 -21 32.4
      vertex 30.5 -21 -7.6
      vertex 30.5 -7.5 -7.6
    endloop
  endfacet
  facet normal 1 0 0
    outer loop
      vertex 30.5 -7.5 32.4
      vertex 30.5 -21 32.4
      vertex 30.5 -7.5 -7.6
    endloop
  endfacet
endsolid OpenSCAD_Model
