solid OpenSCAD_Model
  facet normal -1 0 0
    outer loop
      vertex -10000 -10000 20000
      vertex -10000 10000 20000
      vertex -10000 -10000 0
    endloop
  endfacet
  facet normal -1 0 0
    outer loop
      vertex -10000 -10000 0
      vertex -10000 10000 20000
      vertex -10000 10000 0
    endloop
  endfacet
  facet normal 0 0 1
    outer loop
      vertex -10000 -10000 20000
      vertex 10000 -10000 20000
      vertex 10000 10000 20000
    endloop
  endfacet
  facet normal 0 0 1
    outer loop
      vertex -10000 10000 20000
      vertex -10000 -10000 20000
      vertex 10000 10000 20000
    endloop
  endfacet
  facet normal 0 -1 0
    outer loop
      vertex -10000 -10000 0
      vertex 10000 -10000 0
      vertex 10000 -10000 20000
    endloop
  endfacet
  facet normal 0 -1 0
    outer loop
      vertex -10000 -10000 20000
      vertex -10000 -10000 0
      vertex 10000 -10000 20000
    endloop
  endfacet
  facet normal 0 0 -1
    outer loop
      vertex -10000 10000 0
      vertex 10000 10000 0
      vertex -10000 -10000 0
    endloop
  endfacet
  facet normal 0 0 -1
    outer loop
      vertex -10000 -10000 0
      vertex 10000 10000 0
      vertex 10000 -10000 0
    endloop
  endfacet
  facet normal 0 1 0
    outer loop
      vertex -10000 10000 20000
      vertex 10000 10000 20000
      vertex -10000 10000 0
    endloop
  endfacet
  facet normal 0 1 0
    outer loop
      vertex -10000 10000 0
      vertex 10000 10000 20000
      vertex 10000 10000 0
    endloop
  endfacet
  facet normal 1 0 0
    outer loop
      vertex 10000 -10000 0
      vertex 10000 10000 0
      vertex 10000 10000 20000
    endloop
  endfacet
  facet normal 1 0 0
    outer loop
      vertex 10000 -10000 20000
      vertex 10000 -10000 0
      vertex 10000 10000 20000
    endloop
  endfacet
endsolid OpenSCAD_Model
