solid OpenSCAD_Model
  facet normal -0 0 1
    outer loop
      vertex -2500 15 2500
      vertex 2500 -15 2500
      vertex 2500 15 2500
    endloop
  endfacet
  facet normal 0 0 1
    outer loop
      vertex 2500 -15 2500
      vertex -2500 15 2500
      vertex -2500 -15 2500
    endloop
  endfacet
  facet normal 0 0 -1
    outer loop
      vertex -2500 -15 -2500
      vertex 2500 15 -2500
      vertex 2500 -15 -2500
    endloop
  endfacet
  facet normal -0 0 -1
    outer loop
      vertex 2500 15 -2500
      vertex -2500 -15 -2500
      vertex -2500 15 -2500
    endloop
  endfacet
  facet normal 0 -1 0
    outer loop
      vertex -2500 -15 -2500
      vertex 2500 -15 2500
      vertex -2500 -15 2500
    endloop
  endfacet
  facet normal 0 -1 -0
    outer loop
      vertex 2500 -15 2500
      vertex -2500 -15 -2500
      vertex 2500 -15 -2500
    endloop
  endfacet
  facet normal 1 -0 0
    outer loop
      vertex 2500 -15 2500
      vertex 2500 15 -2500
      vertex 2500 15 2500
    endloop
  endfacet
  facet normal 1 0 0
    outer loop
      vertex 2500 15 -2500
      vertex 2500 -15 2500
      vertex 2500 -15 -2500
    endloop
  endfacet
  facet normal 0 1 -0
    outer loop
      vertex 2500 15 -2500
      vertex -2500 15 2500
      vertex 2500 15 2500
    endloop
  endfacet
  facet normal 0 1 0
    outer loop
      vertex -2500 15 2500
      vertex 2500 15 -2500
      vertex -2500 15 -2500
    endloop
  endfacet
  facet normal -1 0 0
    outer loop
      vertex -2500 -15 -2500
      vertex -2500 15 2500
      vertex -2500 15 -2500
    endloop
  endfacet
  facet normal -1 -0 0
    outer loop
      vertex -2500 15 2500
      vertex -2500 -15 -2500
      vertex -2500 -15 2500
    endloop
  endfacet
endsolid OpenSCAD_Model
