solid OpenSCAD_Model
  facet normal -1 0 0
    outer loop
      vertex -32.5 -28 -3.4
      vertex -32.5 -28 -1.8
      vertex -32.5 28 -3.4
    endloop
  endfacet
  facet normal -1 0 0
    outer loop
      vertex -32.5 28 -3.4
      vertex -32.5 -28 -1.8
      vertex -32.5 28 -1.8
    endloop
  endfacet
  facet normal 0 -1 0
    outer loop
      vertex -32.5 -28 -1.8
      vertex -32.5 -28 -3.4
      vertex 52.5 -28 -3.4
    endloop
  endfacet
  facet normal 0 -1 0
    outer loop
      vertex 52.5 -28 -1.8
      vertex -32.5 -28 -1.8
      vertex 52.5 -28 -3.4
    endloop
  endfacet
  facet normal 0 0 -1
    outer loop
      vertex -30 22.5 -3.4
      vertex -32.5 28 -3.4
      vertex -28 23.5 -3.4
    endloop
  endfacet
  facet normal 0 0 -1
    outer loop
      vertex 50 22.5 -3.4
      vertex 52.5 -5 -3.4
      vertex 50 -5 -3.4
    endloop
  endfacet
  facet normal 0 0 -1
    outer loop
      vertex 50 22.5 -3.4
      vertex -18 28 -3.4
      vertex 52.5 28 -3.4
    endloop
  endfacet
  facet normal 0 0 -1
    outer loop
      vertex -18 23.5 -3.4
      vertex -18 28 -3.4
      vertex 50 22.5 -3.4
    endloop
  endfacet
  facet normal 0 0 -1
    outer loop
      vertex -30 22.5 -3.4
      vertex -28 23.5 -3.4
      vertex -18 23.5 -3.4
    endloop
  endfacet
  facet normal 0 0 -1
    outer loop
      vertex 52.5 -5 -3.4
      vertex 50 22.5 -3.4
      vertex 52.5 28 -3.4
    endloop
  endfacet
  facet normal 0 0 -1
    outer loop
      vertex -32.5 -28 -3.4
      vertex -32.5 28 -3.4
      vertex -30 22.5 -3.4
    endloop
  endfacet
  facet normal 0 0 -1
    outer loop
      vertex 52.5 -25 -3.4
      vertex 52.5 -28 -3.4
      vertex 32.5 -25 -3.4
    endloop
  endfacet
  facet normal 0 0 -1
    outer loop
      vertex -32.5 -28 -3.4
      vertex -30 -22.5 -3.4
      vertex 52.5 -28 -3.4
    endloop
  endfacet
  facet normal 0 0 -1
    outer loop
      vertex -30 -22.5 -3.4
      vertex 32.5 -22.5 -3.4
      vertex 32.5 -25 -3.4
    endloop
  endfacet
  facet normal 0 0 -1
    outer loop
      vertex -30 -22.5 -3.4
      vertex 32.5 -25 -3.4
      vertex 52.5 -28 -3.4
    endloop
  endfacet
  facet normal 0 0 -1
    outer loop
      vertex -28 23.5 -3.4
      vertex -32.5 28 -3.4
      vertex -28 28 -3.4
    endloop
  endfacet
  facet normal 0 0 -1
    outer loop
      vertex -30 22.5 -3.4
      vertex -18 23.5 -3.4
      vertex 50 22.5 -3.4
    endloop
  endfacet
  facet normal 0 0 -1
    outer loop
      vertex -30 -22.5 -3.4
      vertex -32.5 -28 -3.4
      vertex -30 22.5 -3.4
    endloop
  endfacet
  facet normal 0 1 0
    outer loop
      vertex -32.5 28 -3.4
      vertex -32.5 28 -1.8
      vertex -28 28 -3.4
    endloop
  endfacet
  facet normal 0 1 0
    outer loop
      vertex -18 28 -2.6
      vertex -32.5 28 -1.8
      vertex 52.5 28 -1.8
    endloop
  endfacet
  facet normal 0 1 0
    outer loop
      vertex -18 28 -3.4
      vertex 52.5 28 -1.8
      vertex 52.5 28 -3.4
    endloop
  endfacet
  facet normal 0 1 0
    outer loop
      vertex -28 28 -2.6
      vertex -32.5 28 -1.8
      vertex -18 28 -2.6
    endloop
  endfacet
  facet normal 0 1 0
    outer loop
      vertex -28 28 -3.4
      vertex -32.5 28 -1.8
      vertex -28 28 -2.6
    endloop
  endfacet
  facet normal 0 1 0
    outer loop
      vertex -18 28 -2.6
      vertex 52.5 28 -1.8
      vertex -18 28 -3.4
    endloop
  endfacet
  facet normal 0 0 1
    outer loop
      vertex -32.5 28 -1.8
      vertex -32.5 -28 -1.8
      vertex 52.5 -28 -1.8
    endloop
  endfacet
  facet normal 0 0 1
    outer loop
      vertex 52.5 28 -1.8
      vertex -32.5 28 -1.8
      vertex 52.5 -28 -1.8
    endloop
  endfacet
  facet normal 1 0 0
    outer loop
      vertex 52.5 -28 -1.8
      vertex 52.5 -28 -3.4
      vertex 52.5 -25 -3.4
    endloop
  endfacet
  facet normal 1 0 0
    outer loop
      vertex 52.5 -5 -3.4
      vertex 52.5 -28 -1.8
      vertex 52.5 -25 -3.4
    endloop
  endfacet
  facet normal 1 0 0
    outer loop
      vertex 52.5 -25 -15.6
      vertex 52.5 -5 -15.6
      vertex 52.5 -25 -3.4
    endloop
  endfacet
  facet normal 1 0 0
    outer loop
      vertex 52.5 -5 -15.6
      vertex 52.5 -5 -3.4
      vertex 52.5 -25 -3.4
    endloop
  endfacet
  facet normal 1 0 0
    outer loop
      vertex 52.5 -5 -3.4
      vertex 52.5 28 -3.4
      vertex 52.5 -28 -1.8
    endloop
  endfacet
  facet normal 1 0 0
    outer loop
      vertex 52.5 28 -3.4
      vertex 52.5 28 -1.8
      vertex 52.5 -28 -1.8
    endloop
  endfacet
  facet normal 0 -1 0
    outer loop
      vertex 32.5 -25 -3.4
      vertex 32.5 -25 -25.1
      vertex 52.5 -25 -25.1
    endloop
  endfacet
  facet normal 0 -1 0
    outer loop
      vertex 52.5 -25 -15.6
      vertex 32.5 -25 -3.4
      vertex 52.5 -25 -25.1
    endloop
  endfacet
  facet normal 0 -1 0
    outer loop
      vertex 52.5 -25 -25.6
      vertex 80.5 -25 -25.6
      vertex 52.5 -25 -25.1
    endloop
  endfacet
  facet normal 0 -1 0
    outer loop
      vertex 52.5 -25 -15.6
      vertex 52.5 -25 -3.4
      vertex 32.5 -25 -3.4
    endloop
  endfacet
  facet normal 0 -1 0
    outer loop
      vertex 80.5 -25 -25.6
      vertex 52.5 -25 -15.6
      vertex 52.5 -25 -25.1
    endloop
  endfacet
  facet normal 0 -1 0
    outer loop
      vertex 80.5 -25 -15.6
      vertex 52.5 -25 -15.6
      vertex 80.5 -25 -25.6
    endloop
  endfacet
  facet normal -1 0 0
    outer loop
      vertex 32.5 -5 -17.6
      vertex 32.5 -5 -25.1
      vertex 32.5 -22.5 -17.6
    endloop
  endfacet
  facet normal -1 0 0
    outer loop
      vertex 32.5 -25 -25.1
      vertex 32.5 -25 -3.4
      vertex 32.5 -22.5 -17.6
    endloop
  endfacet
  facet normal -1 0 0
    outer loop
      vertex 32.5 -25 -25.1
      vertex 32.5 -22.5 -17.6
      vertex 32.5 -5 -25.1
    endloop
  endfacet
  facet normal -1 0 0
    outer loop
      vertex 32.5 -22.5 -17.6
      vertex 32.5 -25 -3.4
      vertex 32.5 -22.5 -3.4
    endloop
  endfacet
  facet normal 0 -1 0
    outer loop
      vertex -30 -22.5 -3.4
      vertex -30 -22.5 -17.6
      vertex 32.5 -22.5 -17.6
    endloop
  endfacet
  facet normal 0 -1 0
    outer loop
      vertex 32.5 -22.5 -3.4
      vertex -30 -22.5 -3.4
      vertex 32.5 -22.5 -17.6
    endloop
  endfacet
  facet normal -1 0 0
    outer loop
      vertex -30 -22.5 -17.6
      vertex -30 -22.5 -3.4
      vertex -30 22.5 -17.6
    endloop
  endfacet
  facet normal -1 0 0
    outer loop
      vertex -30 22.5 -17.6
      vertex -30 -22.5 -3.4
      vertex -30 22.5 -3.4
    endloop
  endfacet
  facet normal 0 1 0
    outer loop
      vertex -30 22.5 -17.6
      vertex -30 22.5 -3.4
      vertex 50 22.5 -17.6
    endloop
  endfacet
  facet normal 0 1 0
    outer loop
      vertex 50 22.5 -17.6
      vertex -30 22.5 -3.4
      vertex 50 22.5 -3.4
    endloop
  endfacet
  facet normal 1 0 0
    outer loop
      vertex 50 -5 -3.4
      vertex 50 -5 -17.6
      vertex 50 22.5 -17.6
    endloop
  endfacet
  facet normal 1 0 0
    outer loop
      vertex 50 22.5 -3.4
      vertex 50 -5 -3.4
      vertex 50 22.5 -17.6
    endloop
  endfacet
  facet normal 0 1 0
    outer loop
      vertex 32.5 -5 -25.1
      vertex 32.5 -5 -17.6
      vertex 52.5 -5 -25.1
    endloop
  endfacet
  facet normal 0 1 0
    outer loop
      vertex 52.5 -5 -25.1
      vertex 32.5 -5 -17.6
      vertex 50 -5 -17.6
    endloop
  endfacet
  facet normal 0 1 0
    outer loop
      vertex 52.5 -5 -25.1
      vertex 50 -5 -17.6
      vertex 50 -5 -3.4
    endloop
  endfacet
  facet normal 0 1 0
    outer loop
      vertex 52.5 -5 -15.6
      vertex 50 -5 -3.4
      vertex 52.5 -5 -3.4
    endloop
  endfacet
  facet normal 0 1 0
    outer loop
      vertex 52.5 -5 -25.1
      vertex 50 -5 -3.4
      vertex 52.5 -5 -15.6
    endloop
  endfacet
  facet normal 0 1 0
    outer loop
      vertex 52.5 -5 -15.6
      vertex 80.5 -5 -15.6
      vertex 52.5 -5 -25.1
    endloop
  endfacet
  facet normal 0 1 0
    outer loop
      vertex 52.5 -5 -25.1
      vertex 80.5 -5 -15.6
      vertex 80.5 -5 -25.6
    endloop
  endfacet
  facet normal 0 1 0
    outer loop
      vertex 52.5 -5 -25.1
      vertex 80.5 -5 -25.6
      vertex 52.5 -5 -25.6
    endloop
  endfacet
  facet normal 1 0 0
    outer loop
      vertex -18 23.5 -3.4
      vertex -18 23.5 -12.6
      vertex -18 126 -12.6
    endloop
  endfacet
  facet normal 1 0 0
    outer loop
      vertex -18 28 -3.4
      vertex -18 23.5 -3.4
      vertex -18 126 -12.6
    endloop
  endfacet
  facet normal 1 0 0
    outer loop
      vertex -18 126 -2.6
      vertex -18 28 -3.4
      vertex -18 126 -12.6
    endloop
  endfacet
  facet normal 1 0 0
    outer loop
      vertex -18 28 -2.6
      vertex -18 28 -3.4
      vertex -18 126 -2.6
    endloop
  endfacet
  facet normal 0 -1 0
    outer loop
      vertex -28 23.5 -3.4
      vertex -28 23.5 -12.6
      vertex -18 23.5 -12.6
    endloop
  endfacet
  facet normal 0 -1 0
    outer loop
      vertex -18 23.5 -3.4
      vertex -28 23.5 -3.4
      vertex -18 23.5 -12.6
    endloop
  endfacet
  facet normal -1 0 0
    outer loop
      vertex -28 23.5 -12.6
      vertex -28 23.5 -3.4
      vertex -28 126 -12.6
    endloop
  endfacet
  facet normal -1 0 0
    outer loop
      vertex -28 126 -12.6
      vertex -28 23.5 -3.4
      vertex -28 28 -3.4
    endloop
  endfacet
  facet normal -1 0 0
    outer loop
      vertex -28 126 -12.6
      vertex -28 28 -3.4
      vertex -28 28 -2.6
    endloop
  endfacet
  facet normal -1 0 0
    outer loop
      vertex -28 126 -12.6
      vertex -28 28 -2.6
      vertex -28 126 -2.6
    endloop
  endfacet
  facet normal 0 0 1
    outer loop
      vertex -28 126 -2.6
      vertex -28 28 -2.6
      vertex -18 28 -2.6
    endloop
  endfacet
  facet normal 0 0 1
    outer loop
      vertex -18 126 -2.6
      vertex -28 126 -2.6
      vertex -18 28 -2.6
    endloop
  endfacet
  facet normal 0 0 1
    outer loop
      vertex 52.5 -5 -15.6
      vertex 52.5 -25 -15.6
      vertex 80.5 -25 -15.6
    endloop
  endfacet
  facet normal 0 0 1
    outer loop
      vertex 80.5 -5 -15.6
      vertex 52.5 -5 -15.6
      vertex 80.5 -25 -15.6
    endloop
  endfacet
  facet normal 1 0 0
    outer loop
      vertex 80.5 -25 -15.6
      vertex 80.5 -25 -25.6
      vertex 80.5 -5 -25.6
    endloop
  endfacet
  facet normal 1 0 0
    outer loop
      vertex 80.5 -5 -15.6
      vertex 80.5 -25 -15.6
      vertex 80.5 -5 -25.6
    endloop
  endfacet
  facet normal 0 0 -1
    outer loop
      vertex 52.5 -25 -25.6
      vertex 52.5 -5 -25.6
      vertex 80.5 -25 -25.6
    endloop
  endfacet
  facet normal 0 0 -1
    outer loop
      vertex 80.5 -25 -25.6
      vertex 52.5 -5 -25.6
      vertex 80.5 -5 -25.6
    endloop
  endfacet
  facet normal -1 0 0
    outer loop
      vertex 52.5 -5 -25.1
      vertex 52.5 -5 -25.6
      vertex 52.5 -25 -25.1
    endloop
  endfacet
  facet normal -1 0 0
    outer loop
      vertex 52.5 -25 -25.1
      vertex 52.5 -5 -25.6
      vertex 52.5 -25 -25.6
    endloop
  endfacet
  facet normal 0 0 -1
    outer loop
      vertex 32.5 -25 -25.1
      vertex 32.5 -5 -25.1
      vertex 52.5 -25 -25.1
    endloop
  endfacet
  facet normal 0 0 -1
    outer loop
      vertex 52.5 -25 -25.1
      vertex 32.5 -5 -25.1
      vertex 52.5 -5 -25.1
    endloop
  endfacet
  facet normal 0 0 -1
    outer loop
      vertex -30 -22.5 -17.6
      vertex -30 22.5 -17.6
      vertex 32.5 -22.5 -17.6
    endloop
  endfacet
  facet normal 0 0 -1
    outer loop
      vertex 32.5 -5 -17.6
      vertex -30 22.5 -17.6
      vertex 50 22.5 -17.6
    endloop
  endfacet
  facet normal 0 0 -1
    outer loop
      vertex 32.5 -22.5 -17.6
      vertex -30 22.5 -17.6
      vertex 32.5 -5 -17.6
    endloop
  endfacet
  facet normal 0 0 -1
    outer loop
      vertex 32.5 -5 -17.6
      vertex 50 22.5 -17.6
      vertex 50 -5 -17.6
    endloop
  endfacet
  facet normal 0 1 0
    outer loop
      vertex -28 126 -12.6
      vertex -28 126 -2.6
      vertex -18 126 -12.6
    endloop
  endfacet
  facet normal 0 1 0
    outer loop
      vertex -18 126 -12.6
      vertex -28 126 -2.6
      vertex -18 126 -2.6
    endloop
  endfacet
  facet normal 0 0 -1
    outer loop
      vertex -28 23.5 -12.6
      vertex -28 126 -12.6
      vertex -18 23.5 -12.6
    endloop
  endfacet
  facet normal 0 0 -1
    outer loop
      vertex -18 23.5 -12.6
      vertex -28 126 -12.6
      vertex -18 126 -12.6
    endloop
  endfacet
endsolid OpenSCAD_Model
