solid OpenSCAD_Model
  facet normal -1 0 0
    outer loop
      vertex -32.5 -31 -1
      vertex -32.5 31 -1
      vertex -32.5 -31 -26
    endloop
  endfacet
  facet normal -1 0 0
    outer loop
      vertex -32.5 -31 -26
      vertex -32.5 31 -1
      vertex -32.5 31 -26
    endloop
  endfacet
  facet normal 0 0 1
    outer loop
      vertex -32.5 -31 -1
      vertex 82.5 -31 -1
      vertex 82.5 31 -1
    endloop
  endfacet
  facet normal 0 0 1
    outer loop
      vertex -32.5 31 -1
      vertex -32.5 -31 -1
      vertex 82.5 31 -1
    endloop
  endfacet
  facet normal 0 -1 0
    outer loop
      vertex -32.5 -31 -26
      vertex 82.5 -31 -26
      vertex 82.5 -31 -1
    endloop
  endfacet
  facet normal 0 -1 0
    outer loop
      vertex -32.5 -31 -1
      vertex -32.5 -31 -26
      vertex 82.5 -31 -1
    endloop
  endfacet
  facet normal 0 0 -1
    outer loop
      vertex -32.5 31 -26
      vertex 82.5 31 -26
      vertex -32.5 -31 -26
    endloop
  endfacet
  facet normal 0 0 -1
    outer loop
      vertex -32.5 -31 -26
      vertex 82.5 31 -26
      vertex 82.5 -31 -26
    endloop
  endfacet
  facet normal 0 1 0
    outer loop
      vertex -32.5 31 -1
      vertex 82.5 31 -1
      vertex -32.5 31 -26
    endloop
  endfacet
  facet normal 0 1 0
    outer loop
      vertex -32.5 31 -26
      vertex 82.5 31 -1
      vertex 82.5 31 -26
    endloop
  endfacet
  facet normal 1 0 0
    outer loop
      vertex 82.5 -31 -26
      vertex 82.5 31 -26
      vertex 82.5 31 -1
    endloop
  endfacet
  facet normal 1 0 0
    outer loop
      vertex 82.5 -31 -1
      vertex 82.5 -31 -26
      vertex 82.5 31 -1
    endloop
  endfacet
endsolid OpenSCAD_Model
