solid OpenSCAD_Model
  facet normal -2.22045e-16 -1 0
    outer loop
      vertex -19 -3.5 24
      vertex -16.5 -3.5 24
      vertex -19.5 -3.5 24.6
    endloop
  endfacet
  facet normal -2.22045e-16 -1 0
    outer loop
      vertex -19 -3.5 -6
      vertex -19.5 -3.5 -7.4
      vertex -17.5 -3.5 -7.4
    endloop
  endfacet
  facet normal -2.22045e-16 -1 0
    outer loop
      vertex -17.5 -3.5 -9.4
      vertex -16.9607 -3.5 -9.4
      vertex -17.5 -3.5 -7.4
    endloop
  endfacet
  facet normal -2.22045e-16 -1 0
    outer loop
      vertex -16.5 -3.5 -6
      vertex -16.9607 -3.5 -9.4
      vertex -16.5 -3.5 -8.4
    endloop
  endfacet
  facet normal -2.22045e-16 -1 0
    outer loop
      vertex -16.5 -3.5 -6
      vertex -17.5 -3.5 -7.4
      vertex -16.9607 -3.5 -9.4
    endloop
  endfacet
  facet normal -2.22045e-16 -1 0
    outer loop
      vertex -19 -3.5 -6
      vertex -19 -3.5 24
      vertex -19.5 -3.5 24.6
    endloop
  endfacet
  facet normal -2.22045e-16 -1 0
    outer loop
      vertex -16.9607 -3.5 -9.4
      vertex -16 -3.5 -8.43934
      vertex -16.5 -3.5 -8.4
    endloop
  endfacet
  facet normal -2.22045e-16 -1 0
    outer loop
      vertex -19.5 -3.5 24.6
      vertex -19.5 -3.5 -7.4
      vertex -19 -3.5 -6
    endloop
  endfacet
  facet normal -2.22045e-16 -1 0
    outer loop
      vertex -16.5 -3.5 24
      vertex -16.5 -3.5 24.6
      vertex -19.5 -3.5 24.6
    endloop
  endfacet
  facet normal -2.22045e-16 -1 0
    outer loop
      vertex -16 -3.5 -8.4
      vertex -16.5 -3.5 -8.4
      vertex -16 -3.5 -8.43934
    endloop
  endfacet
  facet normal -2.22045e-16 -1 0
    outer loop
      vertex -16.5 -3.5 -6
      vertex -19 -3.5 -6
      vertex -17.5 -3.5 -7.4
    endloop
  endfacet
  facet normal 0 0 -1
    outer loop
      vertex -19.5 -3.5 -7.4
      vertex -19.5 3.5 -7.4
      vertex -17.5 -3.5 -7.4
    endloop
  endfacet
  facet normal 0 0 -1
    outer loop
      vertex -17.5 -3.5 -7.4
      vertex -19.5 3.5 -7.4
      vertex -17.5 3.5 -7.4
    endloop
  endfacet
  facet normal -1 2.22045e-16 0
    outer loop
      vertex -19.5 -3.5 -7.4
      vertex -19.5 -3.5 24.6
      vertex -19.5 3.5 -7.4
    endloop
  endfacet
  facet normal -1 2.22045e-16 0
    outer loop
      vertex -19.5 3.5 -7.4
      vertex -19.5 -3.5 24.6
      vertex -19.5 3.5 24.6
    endloop
  endfacet
  facet normal 0 0 1
    outer loop
      vertex -19.5 3.5 24.6
      vertex -19.5 -3.5 24.6
      vertex -16.5 -3.5 24.6
    endloop
  endfacet
  facet normal 0 0 1
    outer loop
      vertex -16.5 3.5 24.6
      vertex -19.5 3.5 24.6
      vertex -16.5 -3.5 24.6
    endloop
  endfacet
  facet normal 1 -2.22045e-16 0
    outer loop
      vertex -16.5 -3.5 24.6
      vertex -16.5 -3.5 24
      vertex -16.5 3.5 24
    endloop
  endfacet
  facet normal 1 -2.22045e-16 0
    outer loop
      vertex -16.5 3.5 24.6
      vertex -16.5 -3.5 24.6
      vertex -16.5 3.5 24
    endloop
  endfacet
  facet normal 0 0 1
    outer loop
      vertex -19 -3.5 24
      vertex -19 -8.5 24
      vertex 19 -8.5 24
    endloop
  endfacet
  facet normal 0 0 1
    outer loop
      vertex -16.5 -3.5 24
      vertex -19 -3.5 24
      vertex 19 -8.5 24
    endloop
  endfacet
  facet normal 0 0 1
    outer loop
      vertex 6 -6 24
      vertex -16.5 -3.5 24
      vertex 19 -8.5 24
    endloop
  endfacet
  facet normal 0 0 1
    outer loop
      vertex 19 -3.5 24
      vertex 16.5 -3.5 24
      vertex 19 -8.5 24
    endloop
  endfacet
  facet normal 0 0 1
    outer loop
      vertex 11.7063 -1.8541 24
      vertex 10.8541 -3.52671 24
      vertex 16.5 -3.5 24
    endloop
  endfacet
  facet normal 0 0 1
    outer loop
      vertex 19 3.5 24
      vertex 19 8.5 24
      vertex 16.5 3.5 24
    endloop
  endfacet
  facet normal 0 0 1
    outer loop
      vertex 19 8.5 24
      vertex -19 8.5 24
      vertex -19 3.5 24
    endloop
  endfacet
  facet normal 0 0 1
    outer loop
      vertex 19 8.5 24
      vertex -19 3.5 24
      vertex -16.5 3.5 24
    endloop
  endfacet
  facet normal 0 0 1
    outer loop
      vertex 4.1459 -5.70634 24
      vertex 2.47329 -4.8541 24
      vertex -16.5 -3.5 24
    endloop
  endfacet
  facet normal 0 0 1
    outer loop
      vertex 1.1459 -3.52671 24
      vertex 0.877525 -3 24
      vertex -6 -3 24
    endloop
  endfacet
  facet normal 0 0 1
    outer loop
      vertex 2.47329 4.8541 24
      vertex 4.1459 5.70634 24
      vertex -6 3 24
    endloop
  endfacet
  facet normal 0 0 1
    outer loop
      vertex 4.1459 5.70634 24
      vertex -16.5 3.5 24
      vertex -6 3 24
    endloop
  endfacet
  facet normal 0 0 1
    outer loop
      vertex 1.1459 3.52671 24
      vertex -6 3 24
      vertex 0.877525 3 24
    endloop
  endfacet
  facet normal 0 0 1
    outer loop
      vertex 2.47329 4.8541 24
      vertex -6 3 24
      vertex 1.1459 3.52671 24
    endloop
  endfacet
  facet normal 0 0 1
    outer loop
      vertex 7.8541 5.70634 24
      vertex 9.52671 4.8541 24
      vertex 19 8.5 24
    endloop
  endfacet
  facet normal 0 0 1
    outer loop
      vertex 19 8.5 24
      vertex -16.5 3.5 24
      vertex 4.1459 5.70634 24
    endloop
  endfacet
  facet normal 0 0 1
    outer loop
      vertex 6 6 24
      vertex 7.8541 5.70634 24
      vertex 19 8.5 24
    endloop
  endfacet
  facet normal 0 0 1
    outer loop
      vertex 19 8.5 24
      vertex 4.1459 5.70634 24
      vertex 6 6 24
    endloop
  endfacet
  facet normal 0 0 1
    outer loop
      vertex 10.8541 3.52671 24
      vertex 11.7063 1.8541 24
      vertex 16.5 3.5 24
    endloop
  endfacet
  facet normal 0 0 1
    outer loop
      vertex -6 -3 24
      vertex -6 3 24
      vertex -16.5 -3.5 24
    endloop
  endfacet
  facet normal 0 0 1
    outer loop
      vertex 16.5 3.5 24
      vertex 19 8.5 24
      vertex 9.52671 4.8541 24
    endloop
  endfacet
  facet normal 0 0 1
    outer loop
      vertex 16.5 3.5 24
      vertex 9.52671 4.8541 24
      vertex 10.8541 3.52671 24
    endloop
  endfacet
  facet normal 0 0 1
    outer loop
      vertex 16.5 3.5 24
      vertex 11.7063 1.8541 24
      vertex 16.5 -3.5 24
    endloop
  endfacet
  facet normal 0 0 1
    outer loop
      vertex 11.7063 1.8541 24
      vertex 12 0 24
      vertex 16.5 -3.5 24
    endloop
  endfacet
  facet normal 0 0 1
    outer loop
      vertex 12 0 24
      vertex 11.7063 -1.8541 24
      vertex 16.5 -3.5 24
    endloop
  endfacet
  facet normal 0 0 1
    outer loop
      vertex 16.5 -3.5 24
      vertex 10.8541 -3.52671 24
      vertex 19 -8.5 24
    endloop
  endfacet
  facet normal 0 0 1
    outer loop
      vertex 10.8541 -3.52671 24
      vertex 9.52671 -4.8541 24
      vertex 19 -8.5 24
    endloop
  endfacet
  facet normal 0 0 1
    outer loop
      vertex 9.52671 -4.8541 24
      vertex 7.8541 -5.70634 24
      vertex 19 -8.5 24
    endloop
  endfacet
  facet normal 0 0 1
    outer loop
      vertex 7.8541 -5.70634 24
      vertex 6 -6 24
      vertex 19 -8.5 24
    endloop
  endfacet
  facet normal 0 0 1
    outer loop
      vertex 4.1459 -5.70634 24
      vertex -16.5 -3.5 24
      vertex 6 -6 24
    endloop
  endfacet
  facet normal 0 0 1
    outer loop
      vertex 2.47329 -4.8541 24
      vertex 1.1459 -3.52671 24
      vertex -16.5 -3.5 24
    endloop
  endfacet
  facet normal 0 0 1
    outer loop
      vertex 1.1459 -3.52671 24
      vertex -6 -3 24
      vertex -16.5 -3.5 24
    endloop
  endfacet
  facet normal 0 0 1
    outer loop
      vertex -16.5 3.5 24
      vertex -16.5 -3.5 24
      vertex -6 3 24
    endloop
  endfacet
  facet normal -1 0 0
    outer loop
      vertex -19 -8.5 -6
      vertex -19 -8.5 24
      vertex -19 -3.5 -6
    endloop
  endfacet
  facet normal -1 0 0
    outer loop
      vertex -19 -3.5 -6
      vertex -19 -8.5 24
      vertex -19 -3.5 24
    endloop
  endfacet
  facet normal 0 0 -1
    outer loop
      vertex 16.5 -6 -6
      vertex 19 -8.5 -6
      vertex -16.5 -6 -6
    endloop
  endfacet
  facet normal 0 0 -1
    outer loop
      vertex -19 -8.5 -6
      vertex -19 -3.5 -6
      vertex -16.5 -6 -6
    endloop
  endfacet
  facet normal 0 0 -1
    outer loop
      vertex -19 -8.5 -6
      vertex -16.5 -6 -6
      vertex 19 -8.5 -6
    endloop
  endfacet
  facet normal 0 0 -1
    outer loop
      vertex 19 -8.5 -6
      vertex 16.5 -6 -6
      vertex 16.5 -3.5 -6
    endloop
  endfacet
  facet normal 0 0 -1
    outer loop
      vertex 19 -8.5 -6
      vertex 16.5 -3.5 -6
      vertex 19 -3.5 -6
    endloop
  endfacet
  facet normal 0 0 -1
    outer loop
      vertex -16.5 -6 -6
      vertex -19 -3.5 -6
      vertex -16.5 -3.5 -6
    endloop
  endfacet
  facet normal 0 0 -1
    outer loop
      vertex -16.5 -6 -6
      vertex -16.5 -3.5 -6
      vertex -16.5 3.66374e-15 -6
    endloop
  endfacet
  facet normal 1 -2.22045e-16 0
    outer loop
      vertex -16.5 -3.5 -6
      vertex -16.5 -3.5 -8.4
      vertex -16.5 3.5 -8.4
    endloop
  endfacet
  facet normal 1 -2.22045e-16 0
    outer loop
      vertex -16.5 3.66374e-15 -6
      vertex -16.5 -3.5 -6
      vertex -16.5 3.5 -8.4
    endloop
  endfacet
  facet normal 1 -2.22045e-16 0
    outer loop
      vertex -16.5 3.5 -5.8
      vertex -16.5 3.66374e-15 -6
      vertex -16.5 3.5 -8.4
    endloop
  endfacet
  facet normal 1 -2.22045e-16 0
    outer loop
      vertex -16.5 3.66374e-15 -5.8
      vertex -16.5 3.66374e-15 -6
      vertex -16.5 3.5 -5.8
    endloop
  endfacet
  facet normal 0 0 1
    outer loop
      vertex -16 -3.5 -8.4
      vertex -16 3.5 -8.4
      vertex -16.5 3.5 -8.4
    endloop
  endfacet
  facet normal 0 0 1
    outer loop
      vertex -16.5 -3.5 -8.4
      vertex -16 -3.5 -8.4
      vertex -16.5 3.5 -8.4
    endloop
  endfacet
  facet normal 1 -2.22045e-16 0
    outer loop
      vertex -16 -3.5 -8.4
      vertex -16 -3.5 -8.43934
      vertex -16 3.5 -8.43934
    endloop
  endfacet
  facet normal 1 -2.22045e-16 0
    outer loop
      vertex -16 3.5 -8.4
      vertex -16 -3.5 -8.4
      vertex -16 3.5 -8.43934
    endloop
  endfacet
  facet normal 0.707107 -1.57009e-16 -0.707107
    outer loop
      vertex -16 3.5 -8.43934
      vertex -16 -3.5 -8.43934
      vertex -16.9607 3.5 -9.4
    endloop
  endfacet
  facet normal 0.707107 -1.57009e-16 -0.707107
    outer loop
      vertex -16.9607 3.5 -9.4
      vertex -16 -3.5 -8.43934
      vertex -16.9607 -3.5 -9.4
    endloop
  endfacet
  facet normal 0 0 -1
    outer loop
      vertex -17.5 -3.5 -9.4
      vertex -17.5 3.5 -9.4
      vertex -16.9607 -3.5 -9.4
    endloop
  endfacet
  facet normal 0 0 -1
    outer loop
      vertex -16.9607 -3.5 -9.4
      vertex -17.5 3.5 -9.4
      vertex -16.9607 3.5 -9.4
    endloop
  endfacet
  facet normal -1 2.22045e-16 0
    outer loop
      vertex -17.5 -3.5 -9.4
      vertex -17.5 -3.5 -7.4
      vertex -17.5 3.5 -9.4
    endloop
  endfacet
  facet normal -1 2.22045e-16 0
    outer loop
      vertex -17.5 3.5 -9.4
      vertex -17.5 -3.5 -7.4
      vertex -17.5 3.5 -7.4
    endloop
  endfacet
  facet normal 2.22045e-16 1 0
    outer loop
      vertex -16.5 3.5 -6
      vertex -17.5 3.5 -7.4
      vertex -19 3.5 -6
    endloop
  endfacet
  facet normal 2.22045e-16 1 0
    outer loop
      vertex -19 3.5 24
      vertex -19.5 3.5 24.6
      vertex -16.5 3.5 24.6
    endloop
  endfacet
  facet normal 2.22045e-16 1 0
    outer loop
      vertex -19 3.5 -6
      vertex -19.5 3.5 24.6
      vertex -19 3.5 24
    endloop
  endfacet
  facet normal 2.22045e-16 1 0
    outer loop
      vertex -19.5 3.5 -7.4
      vertex -19.5 3.5 24.6
      vertex -19 3.5 -6
    endloop
  endfacet
  facet normal 2.22045e-16 1 0
    outer loop
      vertex -19.5 3.5 -7.4
      vertex -19 3.5 -6
      vertex -17.5 3.5 -7.4
    endloop
  endfacet
  facet normal 2.22045e-16 1 0
    outer loop
      vertex -19 3.5 24
      vertex -16.5 3.5 24.6
      vertex -16.5 3.5 24
    endloop
  endfacet
  facet normal 2.22045e-16 1 0
    outer loop
      vertex -16.5 3.5 -6
      vertex -16.5 3.5 -5.8
      vertex -16.5 3.5 -8.4
    endloop
  endfacet
  facet normal 2.22045e-16 1 0
    outer loop
      vertex -16.5 3.5 -6
      vertex -16.5 3.5 -8.4
      vertex -17.5 3.5 -7.4
    endloop
  endfacet
  facet normal 2.22045e-16 1 0
    outer loop
      vertex -16.5 3.5 -8.4
      vertex -16 3.5 -8.4
      vertex -16 3.5 -8.43934
    endloop
  endfacet
  facet normal 2.22045e-16 1 0
    outer loop
      vertex -16.5 3.5 -8.4
      vertex -16 3.5 -8.43934
      vertex -16.9607 3.5 -9.4
    endloop
  endfacet
  facet normal 2.22045e-16 1 0
    outer loop
      vertex -17.5 3.5 -7.4
      vertex -16.5 3.5 -8.4
      vertex -16.9607 3.5 -9.4
    endloop
  endfacet
  facet normal 2.22045e-16 1 0
    outer loop
      vertex -17.5 3.5 -7.4
      vertex -16.9607 3.5 -9.4
      vertex -17.5 3.5 -9.4
    endloop
  endfacet
  facet normal -1 0 0
    outer loop
      vertex -19 3.5 -6
      vertex -19 3.5 24
      vertex -19 8.5 -6
    endloop
  endfacet
  facet normal -1 0 0
    outer loop
      vertex -19 8.5 -6
      vertex -19 3.5 24
      vertex -19 8.5 24
    endloop
  endfacet
  facet normal 0 1 0
    outer loop
      vertex -19 8.5 -6
      vertex -19 8.5 24
      vertex 19 8.5 -6
    endloop
  endfacet
  facet normal 0 1 0
    outer loop
      vertex 19 8.5 -6
      vertex -19 8.5 24
      vertex 19 8.5 24
    endloop
  endfacet
  facet normal 1 0 0
    outer loop
      vertex 19 3.5 24
      vertex 19 3.5 -6
      vertex 19 8.5 -6
    endloop
  endfacet
  facet normal 1 0 0
    outer loop
      vertex 19 8.5 24
      vertex 19 3.5 24
      vertex 19 8.5 -6
    endloop
  endfacet
  facet normal 2.22045e-16 1 0
    outer loop
      vertex 16 3.5 -8.43934
      vertex 16 3.5 -8.4
      vertex 16.9607 3.5 -9.4
    endloop
  endfacet
  facet normal 2.22045e-16 1 0
    outer loop
      vertex 16.9607 3.5 -9.4
      vertex 16 3.5 -8.4
      vertex 16.5 3.5 -8.4
    endloop
  endfacet
  facet normal 2.22045e-16 1 0
    outer loop
      vertex 16.9607 3.5 -9.4
      vertex 16.5 3.5 -8.4
      vertex 16.5 3.5 -6
    endloop
  endfacet
  facet normal 2.22045e-16 1 0
    outer loop
      vertex 17.5 3.5 -7.4
      vertex 16.5 3.5 -6
      vertex 19 3.5 -6
    endloop
  endfacet
  facet normal 2.22045e-16 1 0
    outer loop
      vertex 19 3.5 24
      vertex 16.5 3.5 24
      vertex 16.5 3.5 24.6
    endloop
  endfacet
  facet normal 2.22045e-16 1 0
    outer loop
      vertex 19 3.5 24
      vertex 16.5 3.5 24.6
      vertex 19.5 3.5 24.6
    endloop
  endfacet
  facet normal 2.22045e-16 1 0
    outer loop
      vertex 19 3.5 24
      vertex 19.5 3.5 24.6
      vertex 19 3.5 -6
    endloop
  endfacet
  facet normal 2.22045e-16 1 0
    outer loop
      vertex 19 3.5 -6
      vertex 19.5 3.5 24.6
      vertex 19.5 3.5 -7.4
    endloop
  endfacet
  facet normal 2.22045e-16 1 0
    outer loop
      vertex 16.9607 3.5 -9.4
      vertex 16.5 3.5 -6
      vertex 17.5 3.5 -7.4
    endloop
  endfacet
  facet normal 2.22045e-16 1 0
    outer loop
      vertex 17.5 3.5 -9.4
      vertex 16.9607 3.5 -9.4
      vertex 17.5 3.5 -7.4
    endloop
  endfacet
  facet normal 2.22045e-16 1 0
    outer loop
      vertex 17.5 3.5 -7.4
      vertex 19 3.5 -6
      vertex 19.5 3.5 -7.4
    endloop
  endfacet
  facet normal -1 2.22045e-16 0
    outer loop
      vertex 16.5 -3.5 24
      vertex 16.5 -3.5 24.6
      vertex 16.5 3.5 24
    endloop
  endfacet
  facet normal -1 2.22045e-16 0
    outer loop
      vertex 16.5 3.5 24
      vertex 16.5 -3.5 24.6
      vertex 16.5 3.5 24.6
    endloop
  endfacet
  facet normal -2.22045e-16 -1 0
    outer loop
      vertex 16 -3.5 -8.4
      vertex 16 -3.5 -8.43934
      vertex 16.9607 -3.5 -9.4
    endloop
  endfacet
  facet normal -2.22045e-16 -1 0
    outer loop
      vertex 16.5 -3.5 -8.4
      vertex 16 -3.5 -8.4
      vertex 17.5 -3.5 -9.4
    endloop
  endfacet
  facet normal -2.22045e-16 -1 0
    outer loop
      vertex 17.5 -3.5 -9.4
      vertex 16 -3.5 -8.4
      vertex 16.9607 -3.5 -9.4
    endloop
  endfacet
  facet normal -2.22045e-16 -1 0
    outer loop
      vertex 19 -3.5 -6
      vertex 17.5 -3.5 -7.4
      vertex 19.5 -3.5 -7.4
    endloop
  endfacet
  facet normal -2.22045e-16 -1 0
    outer loop
      vertex 16.5 -3.5 24.6
      vertex 16.5 -3.5 24
      vertex 19.5 -3.5 24.6
    endloop
  endfacet
  facet normal -2.22045e-16 -1 0
    outer loop
      vertex 16.5 -3.5 24
      vertex 19 -3.5 24
      vertex 19.5 -3.5 24.6
    endloop
  endfacet
  facet normal -2.22045e-16 -1 0
    outer loop
      vertex 19.5 -3.5 24.6
      vertex 19 -3.5 -6
      vertex 19.5 -3.5 -7.4
    endloop
  endfacet
  facet normal -2.22045e-16 -1 0
    outer loop
      vertex 16.5 -3.5 -6
      vertex 16.5 -3.5 -8.4
      vertex 17.5 -3.5 -7.4
    endloop
  endfacet
  facet normal -2.22045e-16 -1 0
    outer loop
      vertex 16.5 -3.5 -5.8
      vertex 16.5 -3.5 -8.4
      vertex 16.5 -3.5 -6
    endloop
  endfacet
  facet normal -2.22045e-16 -1 0
    outer loop
      vertex 17.5 -3.5 -7.4
      vertex 16.5 -3.5 -8.4
      vertex 17.5 -3.5 -9.4
    endloop
  endfacet
  facet normal -2.22045e-16 -1 0
    outer loop
      vertex 19 -3.5 -6
      vertex 16.5 -3.5 -6
      vertex 17.5 -3.5 -7.4
    endloop
  endfacet
  facet normal -2.22045e-16 -1 0
    outer loop
      vertex 19 -3.5 24
      vertex 19 -3.5 -6
      vertex 19.5 -3.5 24.6
    endloop
  endfacet
  facet normal 1 0 0
    outer loop
      vertex 19 -8.5 24
      vertex 19 -8.5 -6
      vertex 19 -3.5 -6
    endloop
  endfacet
  facet normal 1 0 0
    outer loop
      vertex 19 -3.5 24
      vertex 19 -8.5 24
      vertex 19 -3.5 -6
    endloop
  endfacet
  facet normal 0 -1 0
    outer loop
      vertex -19 -8.5 24
      vertex -19 -8.5 -6
      vertex 19 -8.5 -6
    endloop
  endfacet
  facet normal 0 -1 0
    outer loop
      vertex 19 -8.5 24
      vertex -19 -8.5 24
      vertex 19 -8.5 -6
    endloop
  endfacet
  facet normal 1 0 0
    outer loop
      vertex -6 3 -1.5
      vertex -6 3 24
      vertex -6 -3 24
    endloop
  endfacet
  facet normal 1 0 0
    outer loop
      vertex -6 -3 -1.5
      vertex -6 3 -1.5
      vertex -6 -3 24
    endloop
  endfacet
  facet normal 0 1 0
    outer loop
      vertex 0.877525 -3 24
      vertex 0.877525 -3 -1.5
      vertex -6 -3 24
    endloop
  endfacet
  facet normal 0 1 0
    outer loop
      vertex -6 -3 24
      vertex 0.877525 -3 -1.5
      vertex -6 -3 -1.5
    endloop
  endfacet
  facet normal 0.891007 0.45399 0
    outer loop
      vertex 0.877525 -3 24
      vertex 1.1459 -3.52671 24
      vertex 1.1459 -3.52671 -1.5
    endloop
  endfacet
  facet normal 0.891007 0.45399 0
    outer loop
      vertex 0.877525 -3 -1.5
      vertex 0.877525 -3 24
      vertex 1.1459 -3.52671 -1.5
    endloop
  endfacet
  facet normal 0.707107 0.707107 0
    outer loop
      vertex 2.47329 -4.8541 24
      vertex 2.47329 -4.8541 -1.5
      vertex 1.1459 -3.52671 24
    endloop
  endfacet
  facet normal 0.707107 0.707107 0
    outer loop
      vertex 1.1459 -3.52671 24
      vertex 2.47329 -4.8541 -1.5
      vertex 1.1459 -3.52671 -1.5
    endloop
  endfacet
  facet normal 0.45399 0.891007 0
    outer loop
      vertex 4.1459 -5.70634 24
      vertex 4.1459 -5.70634 -1.5
      vertex 2.47329 -4.8541 24
    endloop
  endfacet
  facet normal 0.45399 0.891007 0
    outer loop
      vertex 2.47329 -4.8541 24
      vertex 4.1459 -5.70634 -1.5
      vertex 2.47329 -4.8541 -1.5
    endloop
  endfacet
  facet normal 0.156435 0.987688 0
    outer loop
      vertex 6 -6 24
      vertex 6 -6 -1.5
      vertex 4.1459 -5.70634 24
    endloop
  endfacet
  facet normal 0.156435 0.987688 0
    outer loop
      vertex 4.1459 -5.70634 24
      vertex 6 -6 -1.5
      vertex 4.1459 -5.70634 -1.5
    endloop
  endfacet
  facet normal -0.156435 0.987688 0
    outer loop
      vertex 7.8541 -5.70634 24
      vertex 7.8541 -5.70634 -1.5
      vertex 6 -6 24
    endloop
  endfacet
  facet normal -0.156435 0.987688 0
    outer loop
      vertex 6 -6 24
      vertex 7.8541 -5.70634 -1.5
      vertex 6 -6 -1.5
    endloop
  endfacet
  facet normal -0.45399 0.891007 0
    outer loop
      vertex 9.52671 -4.8541 24
      vertex 9.52671 -4.8541 -1.5
      vertex 7.8541 -5.70634 24
    endloop
  endfacet
  facet normal -0.45399 0.891007 0
    outer loop
      vertex 7.8541 -5.70634 24
      vertex 9.52671 -4.8541 -1.5
      vertex 7.8541 -5.70634 -1.5
    endloop
  endfacet
  facet normal -0.707107 0.707107 0
    outer loop
      vertex 10.8541 -3.52671 24
      vertex 10.8541 -3.52671 -1.5
      vertex 9.52671 -4.8541 24
    endloop
  endfacet
  facet normal -0.707107 0.707107 0
    outer loop
      vertex 9.52671 -4.8541 24
      vertex 10.8541 -3.52671 -1.5
      vertex 9.52671 -4.8541 -1.5
    endloop
  endfacet
  facet normal -0.891007 0.45399 0
    outer loop
      vertex 11.7063 -1.8541 24
      vertex 11.7063 -1.8541 -1.5
      vertex 10.8541 -3.52671 24
    endloop
  endfacet
  facet normal -0.891007 0.45399 0
    outer loop
      vertex 10.8541 -3.52671 24
      vertex 11.7063 -1.8541 -1.5
      vertex 11.5 -2.25907 -1.5
    endloop
  endfacet
  facet normal -0.891007 0.45399 0
    outer loop
      vertex 10.8541 -3.52671 24
      vertex 11.5 -2.25907 -1.5
      vertex 10.8541 -3.52671 -1.5
    endloop
  endfacet
  facet normal -0.987688 0.156435 0
    outer loop
      vertex 12 0 24
      vertex 12 0 -1.5
      vertex 11.7063 -1.8541 24
    endloop
  endfacet
  facet normal -0.987688 0.156435 0
    outer loop
      vertex 11.7063 -1.8541 24
      vertex 12 0 -1.5
      vertex 11.7063 -1.8541 -1.5
    endloop
  endfacet
  facet normal -0.987688 -0.156435 0
    outer loop
      vertex 12 0 24
      vertex 11.7063 1.8541 24
      vertex 12 0 -1.5
    endloop
  endfacet
  facet normal -0.987688 -0.156435 0
    outer loop
      vertex 12 0 -1.5
      vertex 11.7063 1.8541 24
      vertex 11.7063 1.8541 -1.5
    endloop
  endfacet
  facet normal -0.891007 -0.45399 0
    outer loop
      vertex 11.7063 1.8541 -1.5
      vertex 11.7063 1.8541 24
      vertex 11.5 2.25907 -1.5
    endloop
  endfacet
  facet normal -0.891007 -0.45399 0
    outer loop
      vertex 11.5 2.25907 -1.5
      vertex 11.7063 1.8541 24
      vertex 10.8541 3.52671 24
    endloop
  endfacet
  facet normal -0.891007 -0.45399 0
    outer loop
      vertex 11.5 2.25907 -1.5
      vertex 10.8541 3.52671 24
      vertex 10.8541 3.52671 -1.5
    endloop
  endfacet
  facet normal -0.707107 -0.707107 0
    outer loop
      vertex 10.8541 3.52671 -1.5
      vertex 10.8541 3.52671 24
      vertex 9.52671 4.8541 24
    endloop
  endfacet
  facet normal -0.707107 -0.707107 0
    outer loop
      vertex 9.52671 4.8541 -1.5
      vertex 10.8541 3.52671 -1.5
      vertex 9.52671 4.8541 24
    endloop
  endfacet
  facet normal -0.45399 -0.891007 0
    outer loop
      vertex 9.52671 4.8541 -1.5
      vertex 9.52671 4.8541 24
      vertex 7.8541 5.70634 24
    endloop
  endfacet
  facet normal -0.45399 -0.891007 0
    outer loop
      vertex 7.8541 5.70634 -1.5
      vertex 9.52671 4.8541 -1.5
      vertex 7.8541 5.70634 24
    endloop
  endfacet
  facet normal -0.156435 -0.987688 0
    outer loop
      vertex 7.8541 5.70634 -1.5
      vertex 7.8541 5.70634 24
      vertex 6 6 24
    endloop
  endfacet
  facet normal -0.156435 -0.987688 0
    outer loop
      vertex 6 6 -1.5
      vertex 7.8541 5.70634 -1.5
      vertex 6 6 24
    endloop
  endfacet
  facet normal 0.156435 -0.987688 0
    outer loop
      vertex 6 6 -1.5
      vertex 6 6 24
      vertex 4.1459 5.70634 24
    endloop
  endfacet
  facet normal 0.156435 -0.987688 0
    outer loop
      vertex 4.1459 5.70634 -1.5
      vertex 6 6 -1.5
      vertex 4.1459 5.70634 24
    endloop
  endfacet
  facet normal 0.45399 -0.891007 0
    outer loop
      vertex 4.1459 5.70634 -1.5
      vertex 4.1459 5.70634 24
      vertex 2.47329 4.8541 24
    endloop
  endfacet
  facet normal 0.45399 -0.891007 0
    outer loop
      vertex 2.47329 4.8541 -1.5
      vertex 4.1459 5.70634 -1.5
      vertex 2.47329 4.8541 24
    endloop
  endfacet
  facet normal 0.707107 -0.707107 0
    outer loop
      vertex 2.47329 4.8541 -1.5
      vertex 2.47329 4.8541 24
      vertex 1.1459 3.52671 24
    endloop
  endfacet
  facet normal 0.707107 -0.707107 0
    outer loop
      vertex 1.1459 3.52671 -1.5
      vertex 2.47329 4.8541 -1.5
      vertex 1.1459 3.52671 24
    endloop
  endfacet
  facet normal 0.891007 -0.45399 0
    outer loop
      vertex 1.1459 3.52671 -1.5
      vertex 1.1459 3.52671 24
      vertex 0.877525 3 24
    endloop
  endfacet
  facet normal 0.891007 -0.45399 0
    outer loop
      vertex 0.877525 3 -1.5
      vertex 1.1459 3.52671 -1.5
      vertex 0.877525 3 24
    endloop
  endfacet
  facet normal 0 -1 0
    outer loop
      vertex 0.877525 3 -1.5
      vertex 0.877525 3 24
      vertex -6 3 24
    endloop
  endfacet
  facet normal 0 -1 0
    outer loop
      vertex -6 3 -1.5
      vertex 0.877525 3 -1.5
      vertex -6 3 24
    endloop
  endfacet
  facet normal -1 0 0
    outer loop
      vertex 16.5 -3.5 -5.8
      vertex 16.5 -3.5 -6
      vertex 16.5 -6 -5.8
    endloop
  endfacet
  facet normal -1 0 0
    outer loop
      vertex 16.5 -6 -5.8
      vertex 16.5 -3.5 -6
      vertex 16.5 -6 -6
    endloop
  endfacet
  facet normal 0 1 0
    outer loop
      vertex -11.5 -6 -5.8
      vertex -11.5 -6 -1.5
      vertex 6 -6 -1.5
    endloop
  endfacet
  facet normal 0 1 0
    outer loop
      vertex -11.5 -6 -5.8
      vertex 6 -6 -1.5
      vertex 11.5 -6 -1.5
    endloop
  endfacet
  facet normal 0 1 0
    outer loop
      vertex -11.5 -6 -5.8
      vertex 11.5 -6 -1.5
      vertex 11.5 -6 -5.8
    endloop
  endfacet
  facet normal 0 1 0
    outer loop
      vertex -11.5 -6 -5.8
      vertex 16.5 -6 -6
      vertex -16.5 -6 -5.8
    endloop
  endfacet
  facet normal 0 1 0
    outer loop
      vertex 11.5 -6 -5.8
      vertex 16.5 -6 -5.8
      vertex 16.5 -6 -6
    endloop
  endfacet
  facet normal 0 1 0
    outer loop
      vertex 11.5 -6 -5.8
      vertex 16.5 -6 -6
      vertex -11.5 -6 -5.8
    endloop
  endfacet
  facet normal 0 1 0
    outer loop
      vertex 16.5 -6 -6
      vertex -16.5 -6 -6
      vertex -16.5 -6 -5.8
    endloop
  endfacet
  facet normal 1 0 0
    outer loop
      vertex -16.5 3.66374e-15 -6
      vertex -16.5 3.66374e-15 -5.8
      vertex -16.5 -6 -5.8
    endloop
  endfacet
  facet normal 1 0 0
    outer loop
      vertex -16.5 -6 -6
      vertex -16.5 3.66374e-15 -6
      vertex -16.5 -6 -5.8
    endloop
  endfacet
  facet normal 0 0 -1
    outer loop
      vertex -16.5 3.5 -5.8
      vertex -16.5 6 -5.8
      vertex -11.5 6 -5.8
    endloop
  endfacet
  facet normal 0 0 -1
    outer loop
      vertex -16.5 3.5 -5.8
      vertex -11.5 6 -5.8
      vertex -16.5 3.66374e-15 -5.8
    endloop
  endfacet
  facet normal 0 0 -1
    outer loop
      vertex -11.5 6 -5.8
      vertex -11.5 -6 -5.8
      vertex -16.5 3.66374e-15 -5.8
    endloop
  endfacet
  facet normal 0 0 -1
    outer loop
      vertex -11.5 -6 -5.8
      vertex -16.5 -6 -5.8
      vertex -16.5 3.66374e-15 -5.8
    endloop
  endfacet
  facet normal 1 0 0
    outer loop
      vertex -16.5 6 -6
      vertex -16.5 6 -5.8
      vertex -16.5 3.5 -5.8
    endloop
  endfacet
  facet normal 1 0 0
    outer loop
      vertex -16.5 3.5 -6
      vertex -16.5 6 -6
      vertex -16.5 3.5 -5.8
    endloop
  endfacet
  facet normal 0 0 -1
    outer loop
      vertex -19 3.5 -6
      vertex -19 8.5 -6
      vertex -16.5 3.5 -6
    endloop
  endfacet
  facet normal 0 0 -1
    outer loop
      vertex -16.5 6 -6
      vertex -19 8.5 -6
      vertex 19 8.5 -6
    endloop
  endfacet
  facet normal 0 0 -1
    outer loop
      vertex 16.5 3.5 -6
      vertex 19 8.5 -6
      vertex 19 3.5 -6
    endloop
  endfacet
  facet normal 0 0 -1
    outer loop
      vertex 16.5 6 -6
      vertex 19 8.5 -6
      vertex 16.5 3.5 -6
    endloop
  endfacet
  facet normal 0 0 -1
    outer loop
      vertex -16.5 6 -6
      vertex 19 8.5 -6
      vertex 16.5 6 -6
    endloop
  endfacet
  facet normal 0 0 -1
    outer loop
      vertex -16.5 3.5 -6
      vertex -19 8.5 -6
      vertex -16.5 6 -6
    endloop
  endfacet
  facet normal 0 0 -1
    outer loop
      vertex 16.5 6 -6
      vertex 16.5 3.5 -6
      vertex 16.5 -3.66374e-15 -6
    endloop
  endfacet
  facet normal -0.707107 1.57009e-16 -0.707107
    outer loop
      vertex 16.9607 3.5 -9.4
      vertex 16.9607 -3.5 -9.4
      vertex 16 3.5 -8.43934
    endloop
  endfacet
  facet normal -0.707107 1.57009e-16 -0.707107
    outer loop
      vertex 16 3.5 -8.43934
      vertex 16.9607 -3.5 -9.4
      vertex 16 -3.5 -8.43934
    endloop
  endfacet
  facet normal 0 0 -1
    outer loop
      vertex 16.9607 -3.5 -9.4
      vertex 16.9607 3.5 -9.4
      vertex 17.5 -3.5 -9.4
    endloop
  endfacet
  facet normal 0 0 -1
    outer loop
      vertex 17.5 -3.5 -9.4
      vertex 16.9607 3.5 -9.4
      vertex 17.5 3.5 -9.4
    endloop
  endfacet
  facet normal 1 -2.22045e-16 0
    outer loop
      vertex 17.5 -3.5 -7.4
      vertex 17.5 -3.5 -9.4
      vertex 17.5 3.5 -9.4
    endloop
  endfacet
  facet normal 1 -2.22045e-16 0
    outer loop
      vertex 17.5 3.5 -7.4
      vertex 17.5 -3.5 -7.4
      vertex 17.5 3.5 -9.4
    endloop
  endfacet
  facet normal 0 0 -1
    outer loop
      vertex 17.5 -3.5 -7.4
      vertex 17.5 3.5 -7.4
      vertex 19.5 -3.5 -7.4
    endloop
  endfacet
  facet normal 0 0 -1
    outer loop
      vertex 19.5 -3.5 -7.4
      vertex 17.5 3.5 -7.4
      vertex 19.5 3.5 -7.4
    endloop
  endfacet
  facet normal 1 -2.22045e-16 0
    outer loop
      vertex 19.5 -3.5 24.6
      vertex 19.5 -3.5 -7.4
      vertex 19.5 3.5 -7.4
    endloop
  endfacet
  facet normal 1 -2.22045e-16 0
    outer loop
      vertex 19.5 3.5 24.6
      vertex 19.5 -3.5 24.6
      vertex 19.5 3.5 -7.4
    endloop
  endfacet
  facet normal 0 0 1
    outer loop
      vertex 16.5 3.5 24.6
      vertex 16.5 -3.5 24.6
      vertex 19.5 -3.5 24.6
    endloop
  endfacet
  facet normal 0 0 1
    outer loop
      vertex 19.5 3.5 24.6
      vertex 16.5 3.5 24.6
      vertex 19.5 -3.5 24.6
    endloop
  endfacet
  facet normal -1 2.22045e-16 0
    outer loop
      vertex 16.5 -3.5 -8.4
      vertex 16.5 -3.5 -5.8
      vertex 16.5 3.5 -8.4
    endloop
  endfacet
  facet normal -1 2.22045e-16 0
    outer loop
      vertex 16.5 -3.66374e-15 -6
      vertex 16.5 -3.5 -5.8
      vertex 16.5 -3.66374e-15 -5.8
    endloop
  endfacet
  facet normal -1 2.22045e-16 0
    outer loop
      vertex 16.5 3.5 -8.4
      vertex 16.5 -3.5 -5.8
      vertex 16.5 -3.66374e-15 -6
    endloop
  endfacet
  facet normal -1 2.22045e-16 0
    outer loop
      vertex 16.5 3.5 -6
      vertex 16.5 3.5 -8.4
      vertex 16.5 -3.66374e-15 -6
    endloop
  endfacet
  facet normal 0 0 1
    outer loop
      vertex 16.5 -3.5 -8.4
      vertex 16.5 3.5 -8.4
      vertex 16 3.5 -8.4
    endloop
  endfacet
  facet normal 0 0 1
    outer loop
      vertex 16 -3.5 -8.4
      vertex 16.5 -3.5 -8.4
      vertex 16 3.5 -8.4
    endloop
  endfacet
  facet normal -1 2.22045e-16 0
    outer loop
      vertex 16 -3.5 -8.43934
      vertex 16 -3.5 -8.4
      vertex 16 3.5 -8.43934
    endloop
  endfacet
  facet normal -1 2.22045e-16 0
    outer loop
      vertex 16 3.5 -8.43934
      vertex 16 -3.5 -8.4
      vertex 16 3.5 -8.4
    endloop
  endfacet
  facet normal 0 0 -1
    outer loop
      vertex 16.5 6 -5.8
      vertex 16.5 -3.66374e-15 -5.8
      vertex 11.5 6 -5.8
    endloop
  endfacet
  facet normal 0 0 -1
    outer loop
      vertex 11.5 6 -5.8
      vertex 16.5 -3.66374e-15 -5.8
      vertex 16.5 -3.5 -5.8
    endloop
  endfacet
  facet normal 0 0 -1
    outer loop
      vertex 16.5 -3.5 -5.8
      vertex 16.5 -6 -5.8
      vertex 11.5 6 -5.8
    endloop
  endfacet
  facet normal 0 0 -1
    outer loop
      vertex 11.5 6 -5.8
      vertex 16.5 -6 -5.8
      vertex 11.5 -6 -5.8
    endloop
  endfacet
  facet normal 0 0 -1
    outer loop
      vertex 6 6 -1.5
      vertex 4.1459 5.70634 -1.5
      vertex -11.5 6 -1.5
    endloop
  endfacet
  facet normal 0 0 -1
    outer loop
      vertex -11.5 6 -1.5
      vertex 4.1459 5.70634 -1.5
      vertex 2.47329 4.8541 -1.5
    endloop
  endfacet
  facet normal 0 0 -1
    outer loop
      vertex 2.47329 4.8541 -1.5
      vertex 1.1459 3.52671 -1.5
      vertex -11.5 6 -1.5
    endloop
  endfacet
  facet normal 0 0 -1
    outer loop
      vertex 1.1459 3.52671 -1.5
      vertex 0.877525 3 -1.5
      vertex -11.5 6 -1.5
    endloop
  endfacet
  facet normal 0 0 -1
    outer loop
      vertex -11.5 6 -1.5
      vertex 0.877525 3 -1.5
      vertex -6 3 -1.5
    endloop
  endfacet
  facet normal 0 0 -1
    outer loop
      vertex -11.5 6 -1.5
      vertex -6 3 -1.5
      vertex -6 -3 -1.5
    endloop
  endfacet
  facet normal 0 0 -1
    outer loop
      vertex -6 -3 -1.5
      vertex 0.877525 -3 -1.5
      vertex 1.1459 -3.52671 -1.5
    endloop
  endfacet
  facet normal 0 0 -1
    outer loop
      vertex -6 -3 -1.5
      vertex -11.5 -6 -1.5
      vertex -11.5 6 -1.5
    endloop
  endfacet
  facet normal 0 0 -1
    outer loop
      vertex 1.1459 -3.52671 -1.5
      vertex 2.47329 -4.8541 -1.5
      vertex -6 -3 -1.5
    endloop
  endfacet
  facet normal 0 0 -1
    outer loop
      vertex 2.47329 -4.8541 -1.5
      vertex 4.1459 -5.70634 -1.5
      vertex -6 -3 -1.5
    endloop
  endfacet
  facet normal 0 0 -1
    outer loop
      vertex 4.1459 -5.70634 -1.5
      vertex 6 -6 -1.5
      vertex -11.5 -6 -1.5
    endloop
  endfacet
  facet normal 0 0 -1
    outer loop
      vertex 4.1459 -5.70634 -1.5
      vertex -11.5 -6 -1.5
      vertex -6 -3 -1.5
    endloop
  endfacet
  facet normal 0 0 -1
    outer loop
      vertex 11.5 -6 -1.5
      vertex 6 -6 -1.5
      vertex 7.8541 -5.70634 -1.5
    endloop
  endfacet
  facet normal 0 0 -1
    outer loop
      vertex 11.5 -6 -1.5
      vertex 10.8541 -3.52671 -1.5
      vertex 11.5 -2.25907 -1.5
    endloop
  endfacet
  facet normal 0 0 -1
    outer loop
      vertex 9.52671 -4.8541 -1.5
      vertex 10.8541 -3.52671 -1.5
      vertex 11.5 -6 -1.5
    endloop
  endfacet
  facet normal 0 0 -1
    outer loop
      vertex 9.52671 -4.8541 -1.5
      vertex 11.5 -6 -1.5
      vertex 7.8541 -5.70634 -1.5
    endloop
  endfacet
  facet normal -1 0 0
    outer loop
      vertex 11.5 2.25907 -1.5
      vertex 11.5 6 -5.8
      vertex 11.5 -2.25907 -1.5
    endloop
  endfacet
  facet normal -1 0 0
    outer loop
      vertex 11.5 -2.25907 -1.5
      vertex 11.5 6 -5.8
      vertex 11.5 -6 -1.5
    endloop
  endfacet
  facet normal -1 0 0
    outer loop
      vertex 11.5 6 -1.5
      vertex 11.5 6 -5.8
      vertex 11.5 2.25907 -1.5
    endloop
  endfacet
  facet normal -1 0 0
    outer loop
      vertex 11.5 -6 -1.5
      vertex 11.5 6 -5.8
      vertex 11.5 -6 -5.8
    endloop
  endfacet
  facet normal 0 0 1
    outer loop
      vertex 11.5 2.25907 -1.5
      vertex 11.5 -2.25907 -1.5
      vertex 11.7063 -1.8541 -1.5
    endloop
  endfacet
  facet normal 0 0 1
    outer loop
      vertex 11.7063 1.8541 -1.5
      vertex 11.5 2.25907 -1.5
      vertex 12 0 -1.5
    endloop
  endfacet
  facet normal 0 0 1
    outer loop
      vertex 12 0 -1.5
      vertex 11.5 2.25907 -1.5
      vertex 11.7063 -1.8541 -1.5
    endloop
  endfacet
  facet normal 0 0 -1
    outer loop
      vertex 11.5 2.25907 -1.5
      vertex 10.8541 3.52671 -1.5
      vertex 11.5 6 -1.5
    endloop
  endfacet
  facet normal 0 0 -1
    outer loop
      vertex 11.5 6 -1.5
      vertex 10.8541 3.52671 -1.5
      vertex 9.52671 4.8541 -1.5
    endloop
  endfacet
  facet normal 0 0 -1
    outer loop
      vertex 9.52671 4.8541 -1.5
      vertex 7.8541 5.70634 -1.5
      vertex 11.5 6 -1.5
    endloop
  endfacet
  facet normal 0 0 -1
    outer loop
      vertex 7.8541 5.70634 -1.5
      vertex 6 6 -1.5
      vertex 11.5 6 -1.5
    endloop
  endfacet
  facet normal 0 -1 0
    outer loop
      vertex 16.5 6 -6
      vertex 16.5 6 -5.8
      vertex 11.5 6 -5.8
    endloop
  endfacet
  facet normal 0 -1 0
    outer loop
      vertex -11.5 6 -5.8
      vertex 16.5 6 -6
      vertex 11.5 6 -5.8
    endloop
  endfacet
  facet normal 0 -1 0
    outer loop
      vertex 11.5 6 -1.5
      vertex 6 6 -1.5
      vertex 11.5 6 -5.8
    endloop
  endfacet
  facet normal 0 -1 0
    outer loop
      vertex 6 6 -1.5
      vertex -11.5 6 -1.5
      vertex 11.5 6 -5.8
    endloop
  endfacet
  facet normal 0 -1 0
    outer loop
      vertex -11.5 6 -1.5
      vertex -11.5 6 -5.8
      vertex 11.5 6 -5.8
    endloop
  endfacet
  facet normal 0 -1 0
    outer loop
      vertex -11.5 6 -5.8
      vertex -16.5 6 -5.8
      vertex 16.5 6 -6
    endloop
  endfacet
  facet normal 0 -1 0
    outer loop
      vertex -16.5 6 -5.8
      vertex -16.5 6 -6
      vertex 16.5 6 -6
    endloop
  endfacet
  facet normal 1 0 0
    outer loop
      vertex -11.5 6 -5.8
      vertex -11.5 6 -1.5
      vertex -11.5 -6 -1.5
    endloop
  endfacet
  facet normal 1 0 0
    outer loop
      vertex -11.5 -6 -5.8
      vertex -11.5 6 -5.8
      vertex -11.5 -6 -1.5
    endloop
  endfacet
  facet normal -1 0 0
    outer loop
      vertex 16.5 6 -5.8
      vertex 16.5 6 -6
      vertex 16.5 -3.66374e-15 -5.8
    endloop
  endfacet
  facet normal -1 0 0
    outer loop
      vertex 16.5 -3.66374e-15 -5.8
      vertex 16.5 6 -6
      vertex 16.5 -3.66374e-15 -6
    endloop
  endfacet
endsolid OpenSCAD_Model
