solid OpenSCAD_Model
  facet normal -1 0 0
    outer loop
      vertex -16.5 -6 -8.3
      vertex -16.5 -6 -5.8
      vertex -16.5 6 -8.3
    endloop
  endfacet
  facet normal -1 0 0
    outer loop
      vertex -16.5 6 -8.3
      vertex -16.5 -6 -5.8
      vertex -16.5 6 -5.8
    endloop
  endfacet
  facet normal 0 -1 0
    outer loop
      vertex -16.5 -6 -5.8
      vertex -16.5 -6 -8.3
      vertex -11.5 -6 -8.3
    endloop
  endfacet
  facet normal 0 -1 0
    outer loop
      vertex 11.5 -6 -8.3
      vertex -16.5 -6 -5.8
      vertex -11.5 -6 -8.3
    endloop
  endfacet
  facet normal 0 -1 0
    outer loop
      vertex -11.5 -6 -24.5
      vertex 11.5 -6 -24.5
      vertex -11.5 -6 -8.3
    endloop
  endfacet
  facet normal 0 -1 0
    outer loop
      vertex 11.5 -6 -24.5
      vertex 11.5 -6 -8.3
      vertex -11.5 -6 -8.3
    endloop
  endfacet
  facet normal 0 -1 0
    outer loop
      vertex 11.5 -6 -8.3
      vertex 16.5 -6 -8.3
      vertex -16.5 -6 -5.8
    endloop
  endfacet
  facet normal 0 -1 0
    outer loop
      vertex 16.5 -6 -8.3
      vertex 11.5 -6 -5.8
      vertex -11.5 -6 -5.8
    endloop
  endfacet
  facet normal 0 -1 0
    outer loop
      vertex 16.5 -6 -8.3
      vertex 16.5 -6 -5.8
      vertex 11.5 -6 -5.8
    endloop
  endfacet
  facet normal 0 -1 0
    outer loop
      vertex 16.5 -6 -8.3
      vertex -11.5 -6 -5.8
      vertex -16.5 -6 -5.8
    endloop
  endfacet
  facet normal 0 -1 0
    outer loop
      vertex 11.5 -6 -5.8
      vertex 11.5 -6 -1.5
      vertex -11.5 -6 -5.8
    endloop
  endfacet
  facet normal 0 -1 0
    outer loop
      vertex 6 -6 -1.5
      vertex -11.5 -6 -5.8
      vertex 11.5 -6 -1.5
    endloop
  endfacet
  facet normal 0 -1 0
    outer loop
      vertex -11.5 -6 -1.5
      vertex -11.5 -6 -5.8
      vertex 6 -6 -1.5
    endloop
  endfacet
  facet normal 0 0 -1
    outer loop
      vertex -16.5 -6 -8.3
      vertex -16.5 6 -8.3
      vertex -11.5 -6 -8.3
    endloop
  endfacet
  facet normal 0 0 -1
    outer loop
      vertex -11.5 -6 -8.3
      vertex -16.5 6 -8.3
      vertex -11.5 6 -8.3
    endloop
  endfacet
  facet normal 0 1 0
    outer loop
      vertex -16.5 6 -8.3
      vertex -16.5 6 -5.8
      vertex -11.5 6 -8.3
    endloop
  endfacet
  facet normal 0 1 0
    outer loop
      vertex -11.5 6 -8.3
      vertex -16.5 6 -5.8
      vertex -11.5 6 -5.8
    endloop
  endfacet
  facet normal 0 1 0
    outer loop
      vertex -11.5 6 -5.8
      vertex -11.5 6 -1.5
      vertex 6 6 -1.5
    endloop
  endfacet
  facet normal 0 1 0
    outer loop
      vertex -11.5 6 -5.8
      vertex 6 6 -1.5
      vertex -11.5 6 -8.3
    endloop
  endfacet
  facet normal 0 1 0
    outer loop
      vertex -11.5 6 -8.3
      vertex 6 6 -1.5
      vertex 11.5 6 -1.5
    endloop
  endfacet
  facet normal 0 1 0
    outer loop
      vertex -11.5 6 -8.3
      vertex 11.5 6 -1.5
      vertex 11.5 6 -5.8
    endloop
  endfacet
  facet normal 0 1 0
    outer loop
      vertex -11.5 6 -8.3
      vertex 11.5 6 -5.8
      vertex 16.5 6 -5.8
    endloop
  endfacet
  facet normal 0 1 0
    outer loop
      vertex 11.5 6 -8.3
      vertex 16.5 6 -5.8
      vertex 16.5 6 -8.3
    endloop
  endfacet
  facet normal 0 1 0
    outer loop
      vertex -11.5 6 -8.3
      vertex 16.5 6 -5.8
      vertex 11.5 6 -8.3
    endloop
  endfacet
  facet normal 0 1 0
    outer loop
      vertex 11.5 6 -8.3
      vertex 11.5 6 -24.5
      vertex -11.5 6 -8.3
    endloop
  endfacet
  facet normal 0 1 0
    outer loop
      vertex -11.5 6 -8.3
      vertex 11.5 6 -24.5
      vertex -11.5 6 -24.5
    endloop
  endfacet
  facet normal 0 0 1
    outer loop
      vertex -16.5 6 -5.8
      vertex -16.5 -6 -5.8
      vertex -11.5 -6 -5.8
    endloop
  endfacet
  facet normal 0 0 1
    outer loop
      vertex -11.5 6 -5.8
      vertex -16.5 6 -5.8
      vertex -11.5 -6 -5.8
    endloop
  endfacet
  facet normal -1 0 0
    outer loop
      vertex -11.5 -6 -5.8
      vertex -11.5 -6 -1.5
      vertex -11.5 6 -5.8
    endloop
  endfacet
  facet normal -1 0 0
    outer loop
      vertex -11.5 6 -5.8
      vertex -11.5 -6 -1.5
      vertex -11.5 6 -1.5
    endloop
  endfacet
  facet normal 0 0 1
    outer loop
      vertex 4.1459 -5.70634 -1.5
      vertex -11.5 -6 -1.5
      vertex 6 -6 -1.5
    endloop
  endfacet
  facet normal 0 0 1
    outer loop
      vertex 2.47329 -4.8541 -1.5
      vertex -11.5 -6 -1.5
      vertex 4.1459 -5.70634 -1.5
    endloop
  endfacet
  facet normal 0 0 1
    outer loop
      vertex -6 -3 -1.5
      vertex -11.5 -6 -1.5
      vertex 2.47329 -4.8541 -1.5
    endloop
  endfacet
  facet normal 0 0 1
    outer loop
      vertex 1.1459 -3.52671 -1.5
      vertex -6 -3 -1.5
      vertex 2.47329 -4.8541 -1.5
    endloop
  endfacet
  facet normal 0 0 1
    outer loop
      vertex -11.5 6 -1.5
      vertex -11.5 -6 -1.5
      vertex -6 -3 -1.5
    endloop
  endfacet
  facet normal 0 0 1
    outer loop
      vertex 0.877525 3 -1.5
      vertex -11.5 6 -1.5
      vertex -6 3 -1.5
    endloop
  endfacet
  facet normal 0 0 1
    outer loop
      vertex 1.1459 3.52671 -1.5
      vertex -11.5 6 -1.5
      vertex 0.877525 3 -1.5
    endloop
  endfacet
  facet normal 0 0 1
    outer loop
      vertex 2.47329 4.8541 -1.5
      vertex -11.5 6 -1.5
      vertex 1.1459 3.52671 -1.5
    endloop
  endfacet
  facet normal 0 0 1
    outer loop
      vertex 4.1459 5.70634 -1.5
      vertex -11.5 6 -1.5
      vertex 2.47329 4.8541 -1.5
    endloop
  endfacet
  facet normal 0 0 1
    outer loop
      vertex 6 6 -1.5
      vertex -11.5 6 -1.5
      vertex 4.1459 5.70634 -1.5
    endloop
  endfacet
  facet normal 0 0 1
    outer loop
      vertex -6 -3 -1.5
      vertex -6 3 -1.5
      vertex -11.5 6 -1.5
    endloop
  endfacet
  facet normal 0 0 1
    outer loop
      vertex 0.877525 -3 -1.5
      vertex -6 -3 -1.5
      vertex 1.1459 -3.52671 -1.5
    endloop
  endfacet
  facet normal -0.156435 -0.987688 0
    outer loop
      vertex 4.1459 -5.70634 28.5
      vertex 4.1459 -5.70634 -1.5
      vertex 6 -6 -1.5
    endloop
  endfacet
  facet normal -0.156435 -0.987688 0
    outer loop
      vertex 6 -6 28.5
      vertex 4.1459 -5.70634 28.5
      vertex 6 -6 -1.5
    endloop
  endfacet
  facet normal 0.156435 -0.987688 0
    outer loop
      vertex 6 -6 28.5
      vertex 6 -6 -1.5
      vertex 7.8541 -5.70634 -1.5
    endloop
  endfacet
  facet normal 0.156435 -0.987688 0
    outer loop
      vertex 7.8541 -5.70634 28.5
      vertex 6 -6 28.5
      vertex 7.8541 -5.70634 -1.5
    endloop
  endfacet
  facet normal 0 0 1
    outer loop
      vertex 7.8541 -5.70634 -1.5
      vertex 6 -6 -1.5
      vertex 11.5 -6 -1.5
    endloop
  endfacet
  facet normal 0 0 1
    outer loop
      vertex 9.52671 -4.8541 -1.5
      vertex 7.8541 -5.70634 -1.5
      vertex 11.5 -6 -1.5
    endloop
  endfacet
  facet normal 0 0 1
    outer loop
      vertex 11.5 -2.25907 -1.5
      vertex 10.8541 -3.52671 -1.5
      vertex 11.5 -6 -1.5
    endloop
  endfacet
  facet normal 0 0 1
    outer loop
      vertex 10.8541 -3.52671 -1.5
      vertex 9.52671 -4.8541 -1.5
      vertex 11.5 -6 -1.5
    endloop
  endfacet
  facet normal 1 0 0
    outer loop
      vertex 11.5 -6 -1.5
      vertex 11.5 -6 -5.8
      vertex 11.5 6 -5.8
    endloop
  endfacet
  facet normal 1 0 0
    outer loop
      vertex 11.5 -2.25907 -1.5
      vertex 11.5 -6 -1.5
      vertex 11.5 6 -5.8
    endloop
  endfacet
  facet normal 1 0 0
    outer loop
      vertex 11.5 6 -1.5
      vertex 11.5 2.25907 -1.5
      vertex 11.5 6 -5.8
    endloop
  endfacet
  facet normal 1 0 0
    outer loop
      vertex 11.5 2.25907 -1.5
      vertex 11.5 -2.25907 -1.5
      vertex 11.5 6 -5.8
    endloop
  endfacet
  facet normal 0 0 1
    outer loop
      vertex 11.5 6 -5.8
      vertex 11.5 -6 -5.8
      vertex 16.5 -6 -5.8
    endloop
  endfacet
  facet normal 0 0 1
    outer loop
      vertex 16.5 6 -5.8
      vertex 11.5 6 -5.8
      vertex 16.5 -6 -5.8
    endloop
  endfacet
  facet normal 1 0 0
    outer loop
      vertex 16.5 -6 -5.8
      vertex 16.5 -6 -8.3
      vertex 16.5 6 -8.3
    endloop
  endfacet
  facet normal 1 0 0
    outer loop
      vertex 16.5 6 -5.8
      vertex 16.5 -6 -5.8
      vertex 16.5 6 -8.3
    endloop
  endfacet
  facet normal 0 0 -1
    outer loop
      vertex 11.5 -6 -8.3
      vertex 11.5 6 -8.3
      vertex 16.5 -6 -8.3
    endloop
  endfacet
  facet normal 0 0 -1
    outer loop
      vertex 16.5 -6 -8.3
      vertex 11.5 6 -8.3
      vertex 16.5 6 -8.3
    endloop
  endfacet
  facet normal 1 0 0
    outer loop
      vertex 11.5 -6 -8.3
      vertex 11.5 -6 -24.5
      vertex 11.5 6 -24.5
    endloop
  endfacet
  facet normal 1 0 0
    outer loop
      vertex 11.5 6 -8.3
      vertex 11.5 -6 -8.3
      vertex 11.5 6 -24.5
    endloop
  endfacet
  facet normal 0 0 -1
    outer loop
      vertex -11.5 -6 -24.5
      vertex -11.5 6 -24.5
      vertex 11.5 -6 -24.5
    endloop
  endfacet
  facet normal 0 0 -1
    outer loop
      vertex 11.5 -6 -24.5
      vertex -11.5 6 -24.5
      vertex 11.5 6 -24.5
    endloop
  endfacet
  facet normal -1 0 0
    outer loop
      vertex -11.5 -6 -24.5
      vertex -11.5 -6 -8.3
      vertex -11.5 6 -24.5
    endloop
  endfacet
  facet normal -1 0 0
    outer loop
      vertex -11.5 6 -24.5
      vertex -11.5 -6 -8.3
      vertex -11.5 6 -8.3
    endloop
  endfacet
  facet normal 0 0 1
    outer loop
      vertex 10.8541 3.52671 -1.5
      vertex 11.5 2.25907 -1.5
      vertex 11.5 6 -1.5
    endloop
  endfacet
  facet normal 0 0 1
    outer loop
      vertex 11.5 6 -1.5
      vertex 6 6 -1.5
      vertex 7.8541 5.70634 -1.5
    endloop
  endfacet
  facet normal 0 0 1
    outer loop
      vertex 9.52671 4.8541 -1.5
      vertex 11.5 6 -1.5
      vertex 7.8541 5.70634 -1.5
    endloop
  endfacet
  facet normal 0 0 1
    outer loop
      vertex 9.52671 4.8541 -1.5
      vertex 10.8541 3.52671 -1.5
      vertex 11.5 6 -1.5
    endloop
  endfacet
  facet normal 0.156435 0.987688 0
    outer loop
      vertex 6 6 -1.5
      vertex 6 6 28.5
      vertex 7.8541 5.70634 -1.5
    endloop
  endfacet
  facet normal 0.156435 0.987688 0
    outer loop
      vertex 7.8541 5.70634 -1.5
      vertex 6 6 28.5
      vertex 7.8541 5.70634 28.5
    endloop
  endfacet
  facet normal -0.156435 0.987688 0
    outer loop
      vertex 4.1459 5.70634 -1.5
      vertex 4.1459 5.70634 28.5
      vertex 6 6 -1.5
    endloop
  endfacet
  facet normal -0.156435 0.987688 0
    outer loop
      vertex 6 6 -1.5
      vertex 4.1459 5.70634 28.5
      vertex 6 6 28.5
    endloop
  endfacet
  facet normal -0.45399 0.891007 0
    outer loop
      vertex 2.47329 4.8541 -1.5
      vertex 2.47329 4.8541 28.5
      vertex 4.1459 5.70634 -1.5
    endloop
  endfacet
  facet normal -0.45399 0.891007 0
    outer loop
      vertex 4.1459 5.70634 -1.5
      vertex 2.47329 4.8541 28.5
      vertex 4.1459 5.70634 28.5
    endloop
  endfacet
  facet normal -0.707107 0.707107 0
    outer loop
      vertex 1.1459 3.52671 -1.5
      vertex 1.1459 3.52671 28.5
      vertex 2.47329 4.8541 -1.5
    endloop
  endfacet
  facet normal -0.707107 0.707107 0
    outer loop
      vertex 2.47329 4.8541 -1.5
      vertex 1.1459 3.52671 28.5
      vertex 2.47329 4.8541 28.5
    endloop
  endfacet
  facet normal -0.891007 0.45399 0
    outer loop
      vertex 0.877525 3 -1.5
      vertex 0.877525 3 28.5
      vertex 1.1459 3.52671 -1.5
    endloop
  endfacet
  facet normal -0.891007 0.45399 0
    outer loop
      vertex 1.1459 3.52671 -1.5
      vertex 0.877525 3 28.5
      vertex 1.1459 3.52671 28.5
    endloop
  endfacet
  facet normal 0 1 0
    outer loop
      vertex -6 3 -1.5
      vertex -6 3 28.5
      vertex 0.877525 3 -1.5
    endloop
  endfacet
  facet normal 0 1 0
    outer loop
      vertex 0.877525 3 -1.5
      vertex -6 3 28.5
      vertex 0.877525 3 28.5
    endloop
  endfacet
  facet normal -1 0 0
    outer loop
      vertex -6 -3 -1.5
      vertex -6 -3 28.5
      vertex -6 3 -1.5
    endloop
  endfacet
  facet normal -1 0 0
    outer loop
      vertex -6 3 -1.5
      vertex -6 -3 28.5
      vertex -6 3 28.5
    endloop
  endfacet
  facet normal 0 -1 0
    outer loop
      vertex -6 -3 28.5
      vertex -6 -3 -1.5
      vertex 0.877525 -3 -1.5
    endloop
  endfacet
  facet normal 0 -1 0
    outer loop
      vertex 0.877525 -3 28.5
      vertex -6 -3 28.5
      vertex 0.877525 -3 -1.5
    endloop
  endfacet
  facet normal -0.891007 -0.45399 0
    outer loop
      vertex 0.877525 -3 -1.5
      vertex 1.1459 -3.52671 -1.5
      vertex 0.877525 -3 28.5
    endloop
  endfacet
  facet normal -0.891007 -0.45399 0
    outer loop
      vertex 0.877525 -3 28.5
      vertex 1.1459 -3.52671 -1.5
      vertex 1.1459 -3.52671 28.5
    endloop
  endfacet
  facet normal -0.707107 -0.707107 0
    outer loop
      vertex 1.1459 -3.52671 28.5
      vertex 1.1459 -3.52671 -1.5
      vertex 2.47329 -4.8541 -1.5
    endloop
  endfacet
  facet normal -0.707107 -0.707107 0
    outer loop
      vertex 2.47329 -4.8541 28.5
      vertex 1.1459 -3.52671 28.5
      vertex 2.47329 -4.8541 -1.5
    endloop
  endfacet
  facet normal -0.45399 -0.891007 0
    outer loop
      vertex 2.47329 -4.8541 28.5
      vertex 2.47329 -4.8541 -1.5
      vertex 4.1459 -5.70634 -1.5
    endloop
  endfacet
  facet normal -0.45399 -0.891007 0
    outer loop
      vertex 4.1459 -5.70634 28.5
      vertex 2.47329 -4.8541 28.5
      vertex 4.1459 -5.70634 -1.5
    endloop
  endfacet
  facet normal 0 0 1
    outer loop
      vertex 1.1459 -3.52671 28.5
      vertex 2.47329 -4.8541 28.5
      vertex 0.877525 -3 28.5
    endloop
  endfacet
  facet normal 0 0 1
    outer loop
      vertex -6 3 28.5
      vertex -6 -3 28.5
      vertex 0.877525 -3 28.5
    endloop
  endfacet
  facet normal 0 0 1
    outer loop
      vertex 4.1459 -5.70634 28.5
      vertex -6 3 28.5
      vertex 0.877525 -3 28.5
    endloop
  endfacet
  facet normal 0 0 1
    outer loop
      vertex 2.47329 -4.8541 28.5
      vertex 4.1459 -5.70634 28.5
      vertex 0.877525 -3 28.5
    endloop
  endfacet
  facet normal 0 0 1
    outer loop
      vertex 4.1459 -5.70634 28.5
      vertex 6 -6 28.5
      vertex -6 3 28.5
    endloop
  endfacet
  facet normal 0 0 1
    outer loop
      vertex 6 -6 28.5
      vertex 7.8541 -5.70634 28.5
      vertex -6 3 28.5
    endloop
  endfacet
  facet normal 0 0 1
    outer loop
      vertex 7.8541 -5.70634 28.5
      vertex 9.52671 -4.8541 28.5
      vertex -6 3 28.5
    endloop
  endfacet
  facet normal 0 0 1
    outer loop
      vertex 9.52671 -4.8541 28.5
      vertex 10.8541 -3.52671 28.5
      vertex -6 3 28.5
    endloop
  endfacet
  facet normal 0 0 1
    outer loop
      vertex 10.8541 -3.52671 28.5
      vertex 11.7063 -1.8541 28.5
      vertex -6 3 28.5
    endloop
  endfacet
  facet normal 0 0 1
    outer loop
      vertex 11.7063 -1.8541 28.5
      vertex 12 0 28.5
      vertex -6 3 28.5
    endloop
  endfacet
  facet normal 0 0 1
    outer loop
      vertex 12 0 28.5
      vertex 11.7063 1.8541 28.5
      vertex -6 3 28.5
    endloop
  endfacet
  facet normal 0 0 1
    outer loop
      vertex 1.1459 3.52671 28.5
      vertex 0.877525 3 28.5
      vertex 10.8541 3.52671 28.5
    endloop
  endfacet
  facet normal 0 0 1
    outer loop
      vertex 2.47329 4.8541 28.5
      vertex 9.52671 4.8541 28.5
      vertex 7.8541 5.70634 28.5
    endloop
  endfacet
  facet normal 0 0 1
    outer loop
      vertex 7.8541 5.70634 28.5
      vertex 6 6 28.5
      vertex 2.47329 4.8541 28.5
    endloop
  endfacet
  facet normal 0 0 1
    outer loop
      vertex 10.8541 3.52671 28.5
      vertex 9.52671 4.8541 28.5
      vertex 1.1459 3.52671 28.5
    endloop
  endfacet
  facet normal 0 0 1
    outer loop
      vertex 11.7063 1.8541 28.5
      vertex 0.877525 3 28.5
      vertex -6 3 28.5
    endloop
  endfacet
  facet normal 0 0 1
    outer loop
      vertex 11.7063 1.8541 28.5
      vertex 10.8541 3.52671 28.5
      vertex 0.877525 3 28.5
    endloop
  endfacet
  facet normal 0 0 1
    outer loop
      vertex 4.1459 5.70634 28.5
      vertex 2.47329 4.8541 28.5
      vertex 6 6 28.5
    endloop
  endfacet
  facet normal 0 0 1
    outer loop
      vertex 2.47329 4.8541 28.5
      vertex 1.1459 3.52671 28.5
      vertex 9.52671 4.8541 28.5
    endloop
  endfacet
  facet normal 0.45399 -0.891007 0
    outer loop
      vertex 7.8541 -5.70634 28.5
      vertex 7.8541 -5.70634 -1.5
      vertex 9.52671 -4.8541 -1.5
    endloop
  endfacet
  facet normal 0.45399 -0.891007 0
    outer loop
      vertex 9.52671 -4.8541 28.5
      vertex 7.8541 -5.70634 28.5
      vertex 9.52671 -4.8541 -1.5
    endloop
  endfacet
  facet normal 0.707107 -0.707107 0
    outer loop
      vertex 9.52671 -4.8541 28.5
      vertex 9.52671 -4.8541 -1.5
      vertex 10.8541 -3.52671 -1.5
    endloop
  endfacet
  facet normal 0.707107 -0.707107 0
    outer loop
      vertex 10.8541 -3.52671 28.5
      vertex 9.52671 -4.8541 28.5
      vertex 10.8541 -3.52671 -1.5
    endloop
  endfacet
  facet normal 0.891007 -0.45399 0
    outer loop
      vertex 10.8541 -3.52671 28.5
      vertex 10.8541 -3.52671 -1.5
      vertex 11.5 -2.25907 -1.5
    endloop
  endfacet
  facet normal 0.891007 -0.45399 0
    outer loop
      vertex 11.7063 -1.8541 28.5
      vertex 10.8541 -3.52671 28.5
      vertex 11.7063 -1.8541 -1.5
    endloop
  endfacet
  facet normal 0.891007 -0.45399 0
    outer loop
      vertex 11.7063 -1.8541 -1.5
      vertex 10.8541 -3.52671 28.5
      vertex 11.5 -2.25907 -1.5
    endloop
  endfacet
  facet normal 0 0 -1
    outer loop
      vertex 11.7063 1.8541 -1.5
      vertex 12 0 -1.5
      vertex 11.5 2.25907 -1.5
    endloop
  endfacet
  facet normal 0 0 -1
    outer loop
      vertex 11.5 2.25907 -1.5
      vertex 12 0 -1.5
      vertex 11.7063 -1.8541 -1.5
    endloop
  endfacet
  facet normal 0 0 -1
    outer loop
      vertex 11.5 2.25907 -1.5
      vertex 11.7063 -1.8541 -1.5
      vertex 11.5 -2.25907 -1.5
    endloop
  endfacet
  facet normal 0.891007 0.45399 0
    outer loop
      vertex 11.5 2.25907 -1.5
      vertex 10.8541 3.52671 -1.5
      vertex 10.8541 3.52671 28.5
    endloop
  endfacet
  facet normal 0.891007 0.45399 0
    outer loop
      vertex 11.7063 1.8541 -1.5
      vertex 11.5 2.25907 -1.5
      vertex 11.7063 1.8541 28.5
    endloop
  endfacet
  facet normal 0.891007 0.45399 0
    outer loop
      vertex 11.7063 1.8541 28.5
      vertex 11.5 2.25907 -1.5
      vertex 10.8541 3.52671 28.5
    endloop
  endfacet
  facet normal 0.707107 0.707107 0
    outer loop
      vertex 9.52671 4.8541 -1.5
      vertex 9.52671 4.8541 28.5
      vertex 10.8541 3.52671 -1.5
    endloop
  endfacet
  facet normal 0.707107 0.707107 0
    outer loop
      vertex 10.8541 3.52671 -1.5
      vertex 9.52671 4.8541 28.5
      vertex 10.8541 3.52671 28.5
    endloop
  endfacet
  facet normal 0.45399 0.891007 0
    outer loop
      vertex 7.8541 5.70634 -1.5
      vertex 7.8541 5.70634 28.5
      vertex 9.52671 4.8541 -1.5
    endloop
  endfacet
  facet normal 0.45399 0.891007 0
    outer loop
      vertex 9.52671 4.8541 -1.5
      vertex 7.8541 5.70634 28.5
      vertex 9.52671 4.8541 28.5
    endloop
  endfacet
  facet normal 0.987688 0.156435 0
    outer loop
      vertex 12 0 -1.5
      vertex 11.7063 1.8541 -1.5
      vertex 11.7063 1.8541 28.5
    endloop
  endfacet
  facet normal 0.987688 0.156435 0
    outer loop
      vertex 12 0 28.5
      vertex 12 0 -1.5
      vertex 11.7063 1.8541 28.5
    endloop
  endfacet
  facet normal 0.987688 -0.156435 0
    outer loop
      vertex 11.7063 -1.8541 28.5
      vertex 11.7063 -1.8541 -1.5
      vertex 12 0 -1.5
    endloop
  endfacet
  facet normal 0.987688 -0.156435 0
    outer loop
      vertex 12 0 28.5
      vertex 11.7063 -1.8541 28.5
      vertex 12 0 -1.5
    endloop
  endfacet
endsolid OpenSCAD_Model
