solid OpenSCAD_Model
  facet normal -1 0 0
    outer loop
      vertex -16 -11 -3.4
      vertex -16 -11 -1.8
      vertex -16 11 -3.4
    endloop
  endfacet
  facet normal -1 0 0
    outer loop
      vertex -16 11 -3.4
      vertex -16 -11 -1.8
      vertex -16 11 -1.8
    endloop
  endfacet
  facet normal 0 -1 0
    outer loop
      vertex -16 -11 -1.8
      vertex -16 -11 -3.4
      vertex 16 -11 -3.4
    endloop
  endfacet
  facet normal 0 -1 0
    outer loop
      vertex 16 -11 -1.8
      vertex -16 -11 -1.8
      vertex 16 -11 -3.4
    endloop
  endfacet
  facet normal 0 0 -1
    outer loop
      vertex 12.5 6.5 -3.4
      vertex 16 -11 -3.4
      vertex 12.5 -6.5 -3.4
    endloop
  endfacet
  facet normal 0 0 -1
    outer loop
      vertex 7.5 6.5 -3.4
      vertex -16 11 -3.4
      vertex 16 11 -3.4
    endloop
  endfacet
  facet normal 0 0 -1
    outer loop
      vertex 12.5 6.5 -3.4
      vertex 7.5 6.5 -3.4
      vertex 16 11 -3.4
    endloop
  endfacet
  facet normal 0 0 -1
    outer loop
      vertex -16 -11 -3.4
      vertex -16 11 -3.4
      vertex 7.5 -6.5 -3.4
    endloop
  endfacet
  facet normal 0 0 -1
    outer loop
      vertex -16 -11 -3.4
      vertex 7.5 -6.5 -3.4
      vertex 16 -11 -3.4
    endloop
  endfacet
  facet normal 0 0 -1
    outer loop
      vertex 16 -11 -3.4
      vertex 12.5 6.5 -3.4
      vertex 16 11 -3.4
    endloop
  endfacet
  facet normal 0 0 -1
    outer loop
      vertex 7.5 -6.5 -3.4
      vertex -16 11 -3.4
      vertex 7.5 6.5 -3.4
    endloop
  endfacet
  facet normal 0 0 -1
    outer loop
      vertex 12.5 -6.5 -3.4
      vertex 16 -11 -3.4
      vertex 7.5 -6.5 -3.4
    endloop
  endfacet
  facet normal 0 1 0
    outer loop
      vertex -16 11 -3.4
      vertex -16 11 -1.8
      vertex 16 11 -3.4
    endloop
  endfacet
  facet normal 0 1 0
    outer loop
      vertex 16 11 -3.4
      vertex -16 11 -1.8
      vertex 16 11 -1.8
    endloop
  endfacet
  facet normal 0 0 1
    outer loop
      vertex -3 -4.5 -1.8
      vertex -16 -11 -1.8
      vertex 16 -11 -1.8
    endloop
  endfacet
  facet normal 0 0 1
    outer loop
      vertex -16 11 -1.8
      vertex -16 -11 -1.8
      vertex -6.5 -0.5 -1.8
    endloop
  endfacet
  facet normal 0 0 1
    outer loop
      vertex -16 11 -1.8
      vertex -6.5 -0.5 -1.8
      vertex -6.5 0.5 -1.8
    endloop
  endfacet
  facet normal 0 0 1
    outer loop
      vertex 16 11 -1.8
      vertex 6.5 0.5 -1.8
      vertex 16 -11 -1.8
    endloop
  endfacet
  facet normal 0 0 1
    outer loop
      vertex -5.5 2.5 -1.8
      vertex 5.5 2.5 -1.8
      vertex -3 3.5 -1.8
    endloop
  endfacet
  facet normal 0 0 1
    outer loop
      vertex 6.5 0.5 -1.8
      vertex 6.5 -0.5 -1.8
      vertex 16 -11 -1.8
    endloop
  endfacet
  facet normal 0 0 1
    outer loop
      vertex 3 -4.5 -1.8
      vertex -3 -4.5 -1.8
      vertex 16 -11 -1.8
    endloop
  endfacet
  facet normal 0 0 1
    outer loop
      vertex -6.5 -0.5 -1.8
      vertex -16 -11 -1.8
      vertex -5.5 -2.5 -1.8
    endloop
  endfacet
  facet normal 0 0 1
    outer loop
      vertex -5.5 -1.5 -1.8
      vertex 5.5 -1.5 -1.8
      vertex 6.5 -0.5 -1.8
    endloop
  endfacet
  facet normal 0 0 1
    outer loop
      vertex -6.5 -0.5 -1.8
      vertex -5.5 -2.5 -1.8
      vertex -5.5 -1.5 -1.8
    endloop
  endfacet
  facet normal 0 0 1
    outer loop
      vertex 6.5 -0.5 -1.8
      vertex 5.5 -1.5 -1.8
      vertex 16 -11 -1.8
    endloop
  endfacet
  facet normal 0 0 1
    outer loop
      vertex 5.5 -1.5 -1.8
      vertex 5.5 -2.5 -1.8
      vertex 16 -11 -1.8
    endloop
  endfacet
  facet normal 0 0 1
    outer loop
      vertex -16 11 -1.8
      vertex -6.5 0.5 -1.8
      vertex -5.5 1.5 -1.8
    endloop
  endfacet
  facet normal 0 0 1
    outer loop
      vertex 5.5 -2.5 -1.8
      vertex -5.5 -2.5 -1.8
      vertex 3 -3.5 -1.8
    endloop
  endfacet
  facet normal 0 0 1
    outer loop
      vertex -16 11 -1.8
      vertex -5.5 1.5 -1.8
      vertex -5.5 2.5 -1.8
    endloop
  endfacet
  facet normal 0 0 1
    outer loop
      vertex 16 11 -1.8
      vertex 5.5 2.5 -1.8
      vertex 6.5 0.5 -1.8
    endloop
  endfacet
  facet normal 0 0 1
    outer loop
      vertex 5.5 2.5 -1.8
      vertex 5.5 1.5 -1.8
      vertex 6.5 0.5 -1.8
    endloop
  endfacet
  facet normal 0 0 1
    outer loop
      vertex -5.5 -2.5 -1.8
      vertex -16 -11 -1.8
      vertex -3 -4.5 -1.8
    endloop
  endfacet
  facet normal 0 0 1
    outer loop
      vertex -3 -3.5 -1.8
      vertex 3 -3.5 -1.8
      vertex -5.5 -2.5 -1.8
    endloop
  endfacet
  facet normal 0 0 1
    outer loop
      vertex -5.5 -2.5 -1.8
      vertex -3 -4.5 -1.8
      vertex -3 -3.5 -1.8
    endloop
  endfacet
  facet normal 0 0 1
    outer loop
      vertex -3 4.5 -1.8
      vertex 3 4.5 -1.8
      vertex -16 11 -1.8
    endloop
  endfacet
  facet normal 0 0 1
    outer loop
      vertex -3 3.5 -1.8
      vertex -3 4.5 -1.8
      vertex -16 11 -1.8
    endloop
  endfacet
  facet normal 0 0 1
    outer loop
      vertex -5.5 -1.5 -1.8
      vertex 6.5 -0.5 -1.8
      vertex -6.5 -0.5 -1.8
    endloop
  endfacet
  facet normal 0 0 1
    outer loop
      vertex 16 11 -1.8
      vertex 3 4.5 -1.8
      vertex 5.5 2.5 -1.8
    endloop
  endfacet
  facet normal 0 0 1
    outer loop
      vertex 16 11 -1.8
      vertex -16 11 -1.8
      vertex 3 4.5 -1.8
    endloop
  endfacet
  facet normal 0 0 1
    outer loop
      vertex 3 4.5 -1.8
      vertex 3 3.5 -1.8
      vertex 5.5 2.5 -1.8
    endloop
  endfacet
  facet normal 0 0 1
    outer loop
      vertex -5.5 2.5 -1.8
      vertex -3 3.5 -1.8
      vertex -16 11 -1.8
    endloop
  endfacet
  facet normal 0 0 1
    outer loop
      vertex 3 3.5 -1.8
      vertex -3 3.5 -1.8
      vertex 5.5 2.5 -1.8
    endloop
  endfacet
  facet normal 0 0 1
    outer loop
      vertex 5.5 -2.5 -1.8
      vertex 3 -3.5 -1.8
      vertex 16 -11 -1.8
    endloop
  endfacet
  facet normal 0 0 1
    outer loop
      vertex 3 -3.5 -1.8
      vertex 3 -4.5 -1.8
      vertex 16 -11 -1.8
    endloop
  endfacet
  facet normal 0 0 1
    outer loop
      vertex 5.5 1.5 -1.8
      vertex -6.5 0.5 -1.8
      vertex 6.5 0.5 -1.8
    endloop
  endfacet
  facet normal 0 0 1
    outer loop
      vertex 5.5 1.5 -1.8
      vertex -5.5 1.5 -1.8
      vertex -6.5 0.5 -1.8
    endloop
  endfacet
  facet normal 1 0 0
    outer loop
      vertex 16 -11 -1.8
      vertex 16 -11 -3.4
      vertex 16 11 -3.4
    endloop
  endfacet
  facet normal 1 0 0
    outer loop
      vertex 16 11 -1.8
      vertex 16 -11 -1.8
      vertex 16 11 -3.4
    endloop
  endfacet
  facet normal -1 0 0
    outer loop
      vertex 7.5 -6.5 -9.1
      vertex 7.5 -6.5 -3.4
      vertex 7.5 6.5 -9.1
    endloop
  endfacet
  facet normal -1 0 0
    outer loop
      vertex 7.5 6.5 -9.1
      vertex 7.5 -6.5 -3.4
      vertex 7.5 6.5 -3.4
    endloop
  endfacet
  facet normal 0 1 0
    outer loop
      vertex 7.5 6.5 -9.1
      vertex 7.5 6.5 -3.4
      vertex 12.5 6.5 -9.1
    endloop
  endfacet
  facet normal 0 1 0
    outer loop
      vertex 12.5 6.5 -9.1
      vertex 7.5 6.5 -3.4
      vertex 12.5 6.5 -3.4
    endloop
  endfacet
  facet normal 1 0 0
    outer loop
      vertex 12.5 -6.5 -3.4
      vertex 12.5 -6.5 -9.1
      vertex 12.5 6.5 -9.1
    endloop
  endfacet
  facet normal 1 0 0
    outer loop
      vertex 12.5 6.5 -3.4
      vertex 12.5 -6.5 -3.4
      vertex 12.5 6.5 -9.1
    endloop
  endfacet
  facet normal 0 -1 0
    outer loop
      vertex 7.5 -6.5 -3.4
      vertex 7.5 -6.5 -9.1
      vertex 12.5 -6.5 -9.1
    endloop
  endfacet
  facet normal 0 -1 0
    outer loop
      vertex 12.5 -6.5 -3.4
      vertex 7.5 -6.5 -3.4
      vertex 12.5 -6.5 -9.1
    endloop
  endfacet
  facet normal -1 0 0
    outer loop
      vertex -6.5 -0.5 -1.8
      vertex -6.5 -0.5 27.4
      vertex -6.5 0.5 -1.8
    endloop
  endfacet
  facet normal -1 0 0
    outer loop
      vertex -6.5 0.5 -1.8
      vertex -6.5 -0.5 27.4
      vertex -6.5 0.5 27.4
    endloop
  endfacet
  facet normal 0 -1 0
    outer loop
      vertex -6.5 -0.5 27.4
      vertex -6.5 -0.5 -1.8
      vertex 6.5 -0.5 -1.8
    endloop
  endfacet
  facet normal 0 -1 0
    outer loop
      vertex 6.5 -0.5 27.4
      vertex -6.5 -0.5 27.4
      vertex 6.5 -0.5 -1.8
    endloop
  endfacet
  facet normal 1 0 0
    outer loop
      vertex 6.5 -0.5 27.4
      vertex 6.5 -0.5 -1.8
      vertex 6.5 0.5 -1.8
    endloop
  endfacet
  facet normal 1 0 0
    outer loop
      vertex 6.5 0.5 27.4
      vertex 6.5 -0.5 27.4
      vertex 6.5 0.5 -1.8
    endloop
  endfacet
  facet normal 0 1 0
    outer loop
      vertex -6.5 0.5 -1.8
      vertex -6.5 0.5 27.4
      vertex 6.5 0.5 -1.8
    endloop
  endfacet
  facet normal 0 1 0
    outer loop
      vertex 6.5 0.5 -1.8
      vertex -6.5 0.5 27.4
      vertex 6.5 0.5 27.4
    endloop
  endfacet
  facet normal -1 0 0
    outer loop
      vertex -5.5 -2.5 -1.8
      vertex -5.5 -2.5 27.4
      vertex -5.5 -1.5 -1.8
    endloop
  endfacet
  facet normal -1 0 0
    outer loop
      vertex -5.5 -1.5 -1.8
      vertex -5.5 -2.5 27.4
      vertex -5.5 -1.5 27.4
    endloop
  endfacet
  facet normal 0 -1 0
    outer loop
      vertex -5.5 -2.5 27.4
      vertex -5.5 -2.5 -1.8
      vertex 5.5 -2.5 -1.8
    endloop
  endfacet
  facet normal 0 -1 0
    outer loop
      vertex 5.5 -2.5 27.4
      vertex -5.5 -2.5 27.4
      vertex 5.5 -2.5 -1.8
    endloop
  endfacet
  facet normal 1 0 0
    outer loop
      vertex 5.5 -2.5 27.4
      vertex 5.5 -2.5 -1.8
      vertex 5.5 -1.5 -1.8
    endloop
  endfacet
  facet normal 1 0 0
    outer loop
      vertex 5.5 -1.5 27.4
      vertex 5.5 -2.5 27.4
      vertex 5.5 -1.5 -1.8
    endloop
  endfacet
  facet normal 0 1 0
    outer loop
      vertex -5.5 -1.5 -1.8
      vertex -5.5 -1.5 27.4
      vertex 5.5 -1.5 -1.8
    endloop
  endfacet
  facet normal 0 1 0
    outer loop
      vertex 5.5 -1.5 -1.8
      vertex -5.5 -1.5 27.4
      vertex 5.5 -1.5 27.4
    endloop
  endfacet
  facet normal -1 0 0
    outer loop
      vertex -5.5 1.5 -1.8
      vertex -5.5 1.5 27.4
      vertex -5.5 2.5 -1.8
    endloop
  endfacet
  facet normal -1 0 0
    outer loop
      vertex -5.5 2.5 -1.8
      vertex -5.5 1.5 27.4
      vertex -5.5 2.5 27.4
    endloop
  endfacet
  facet normal 0 -1 0
    outer loop
      vertex -5.5 1.5 27.4
      vertex -5.5 1.5 -1.8
      vertex 5.5 1.5 -1.8
    endloop
  endfacet
  facet normal 0 -1 0
    outer loop
      vertex 5.5 1.5 27.4
      vertex -5.5 1.5 27.4
      vertex 5.5 1.5 -1.8
    endloop
  endfacet
  facet normal 1 0 0
    outer loop
      vertex 5.5 1.5 27.4
      vertex 5.5 1.5 -1.8
      vertex 5.5 2.5 -1.8
    endloop
  endfacet
  facet normal 1 0 0
    outer loop
      vertex 5.5 2.5 27.4
      vertex 5.5 1.5 27.4
      vertex 5.5 2.5 -1.8
    endloop
  endfacet
  facet normal 0 1 0
    outer loop
      vertex -5.5 2.5 -1.8
      vertex -5.5 2.5 27.4
      vertex 5.5 2.5 -1.8
    endloop
  endfacet
  facet normal 0 1 0
    outer loop
      vertex 5.5 2.5 -1.8
      vertex -5.5 2.5 27.4
      vertex 5.5 2.5 27.4
    endloop
  endfacet
  facet normal -1 0 0
    outer loop
      vertex -3 -4.5 -1.8
      vertex -3 -4.5 27.4
      vertex -3 -3.5 -1.8
    endloop
  endfacet
  facet normal -1 0 0
    outer loop
      vertex -3 -3.5 -1.8
      vertex -3 -4.5 27.4
      vertex -3 -3.5 27.4
    endloop
  endfacet
  facet normal 0 -1 0
    outer loop
      vertex -3 -4.5 27.4
      vertex -3 -4.5 -1.8
      vertex 3 -4.5 -1.8
    endloop
  endfacet
  facet normal 0 -1 0
    outer loop
      vertex 3 -4.5 27.4
      vertex -3 -4.5 27.4
      vertex 3 -4.5 -1.8
    endloop
  endfacet
  facet normal 1 0 0
    outer loop
      vertex 3 -4.5 27.4
      vertex 3 -4.5 -1.8
      vertex 3 -3.5 -1.8
    endloop
  endfacet
  facet normal 1 0 0
    outer loop
      vertex 3 -3.5 27.4
      vertex 3 -4.5 27.4
      vertex 3 -3.5 -1.8
    endloop
  endfacet
  facet normal 0 1 0
    outer loop
      vertex -3 -3.5 -1.8
      vertex -3 -3.5 27.4
      vertex 3 -3.5 -1.8
    endloop
  endfacet
  facet normal 0 1 0
    outer loop
      vertex 3 -3.5 -1.8
      vertex -3 -3.5 27.4
      vertex 3 -3.5 27.4
    endloop
  endfacet
  facet normal -1 0 0
    outer loop
      vertex -3 3.5 -1.8
      vertex -3 3.5 27.4
      vertex -3 4.5 -1.8
    endloop
  endfacet
  facet normal -1 0 0
    outer loop
      vertex -3 4.5 -1.8
      vertex -3 3.5 27.4
      vertex -3 4.5 27.4
    endloop
  endfacet
  facet normal 0 -1 0
    outer loop
      vertex -3 3.5 27.4
      vertex -3 3.5 -1.8
      vertex 3 3.5 -1.8
    endloop
  endfacet
  facet normal 0 -1 0
    outer loop
      vertex 3 3.5 27.4
      vertex -3 3.5 27.4
      vertex 3 3.5 -1.8
    endloop
  endfacet
  facet normal 1 0 0
    outer loop
      vertex 3 3.5 27.4
      vertex 3 3.5 -1.8
      vertex 3 4.5 -1.8
    endloop
  endfacet
  facet normal 1 0 0
    outer loop
      vertex 3 4.5 27.4
      vertex 3 3.5 27.4
      vertex 3 4.5 -1.8
    endloop
  endfacet
  facet normal 0 1 0
    outer loop
      vertex -3 4.5 -1.8
      vertex -3 4.5 27.4
      vertex 3 4.5 -1.8
    endloop
  endfacet
  facet normal 0 1 0
    outer loop
      vertex 3 4.5 -1.8
      vertex -3 4.5 27.4
      vertex 3 4.5 27.4
    endloop
  endfacet
  facet normal 0 0 -1
    outer loop
      vertex 7.5 -6.5 -9.1
      vertex 7.5 6.5 -9.1
      vertex 12.5 -6.5 -9.1
    endloop
  endfacet
  facet normal 0 0 -1
    outer loop
      vertex 12.5 -6.5 -9.1
      vertex 7.5 6.5 -9.1
      vertex 12.5 6.5 -9.1
    endloop
  endfacet
  facet normal 0 0 1
    outer loop
      vertex -6.5 0.5 27.4
      vertex -6.5 -0.5 27.4
      vertex 6.5 -0.5 27.4
    endloop
  endfacet
  facet normal 0 0 1
    outer loop
      vertex 6.5 0.5 27.4
      vertex -6.5 0.5 27.4
      vertex 6.5 -0.5 27.4
    endloop
  endfacet
  facet normal 0 0 1
    outer loop
      vertex -5.5 -1.5 27.4
      vertex -5.5 -2.5 27.4
      vertex 5.5 -2.5 27.4
    endloop
  endfacet
  facet normal 0 0 1
    outer loop
      vertex 5.5 -1.5 27.4
      vertex -5.5 -1.5 27.4
      vertex 5.5 -2.5 27.4
    endloop
  endfacet
  facet normal 0 0 1
    outer loop
      vertex -5.5 2.5 27.4
      vertex -5.5 1.5 27.4
      vertex 5.5 1.5 27.4
    endloop
  endfacet
  facet normal 0 0 1
    outer loop
      vertex 5.5 2.5 27.4
      vertex -5.5 2.5 27.4
      vertex 5.5 1.5 27.4
    endloop
  endfacet
  facet normal 0 0 1
    outer loop
      vertex -3 -3.5 27.4
      vertex -3 -4.5 27.4
      vertex 3 -4.5 27.4
    endloop
  endfacet
  facet normal 0 0 1
    outer loop
      vertex 3 -3.5 27.4
      vertex -3 -3.5 27.4
      vertex 3 -4.5 27.4
    endloop
  endfacet
  facet normal 0 0 1
    outer loop
      vertex -3 4.5 27.4
      vertex -3 3.5 27.4
      vertex 3 3.5 27.4
    endloop
  endfacet
  facet normal 0 0 1
    outer loop
      vertex 3 4.5 27.4
      vertex -3 4.5 27.4
      vertex 3 3.5 27.4
    endloop
  endfacet
endsolid OpenSCAD_Model
